<?xml version="1.0" encoding="UTF-8"?>
<svg id="Layer_2" data-name="Layer 2" xmlns="http://www.w3.org/2000/svg" viewBox="0 0 401.91 628.11">
  <defs>
    <style>
      .cls-1 {
        fill: #00004d;
      }

      .cls-1, .cls-2, .cls-3 {
        stroke-width: 0px;
      }

      .cls-2 {
        fill: #ffe;
      }

      .cls-3 {
        fill: #a01f24;
      }
    </style>
  </defs>
  <g id="Layer_1-2" data-name="Layer 1">
    <g>
      <g>
        <g>
          <rect class="cls-2" x=".5" y=".5" width="400.91" height="627.11" rx="27.59" ry="27.59"/>
          <path class="cls-3" d="M373.82,628.11H28.09c-15.49,0-28.09-12.6-28.09-28.09V28.09C0,12.6,12.6,0,28.09,0h345.74c15.49,0,28.09,12.6,28.09,28.09v571.94c0,15.49-12.6,28.09-28.09,28.09ZM28.09,1C13.15,1,1,13.15,1,28.09v571.94c0,14.94,12.15,27.09,27.09,27.09h345.74c14.94,0,27.09-12.15,27.09-27.09V28.09c0-14.94-12.15-27.09-27.09-27.09H28.09Z"/>
        </g>
        <g>
          <path class="cls-3" d="M61.44,63.77c0,.78-.26,1.43-.76,1.96-.51.53-1.17.8-1.99.8-.57,0-1.09-.15-1.56-.46-.47-.31-.83-.72-1.07-1.25l-3.98-9.55h-20.81l-3.98,9.55c-.24.53-.6.95-1.07,1.25-.47.31-.99.46-1.56.46-.82,0-1.48-.27-1.99-.8-.51-.53-.76-1.18-.76-1.96,0-.33.1-.73.31-1.22l15.6-36.84c.33-.73.78-1.34,1.38-1.81.59-.47,1.32-.7,2.17-.7h.61c.86,0,1.58.24,2.17.7.59.47,1.05,1.07,1.38,1.81l15.6,36.84c.2.49.31.9.31,1.22ZM41.68,30.29l-8.26,19.89h16.52l-8.26-19.89Z"/>
          <path class="cls-3" d="M40.9,116.05l-.69-.68c-4.55-4.48-8.98-9.04-13.55-13.97-2.13-2.3-5.7-6.14-5.85-11.27-.04-1.35.15-2.6.56-3.71,1.67-4.52,6.34-5.94,6.86-6.09,3.8-1.06,6.94.47,8.45,1.21,1.47.72,2.81,1.68,3.98,2.85,1.17-1.18,2.51-2.14,4-2.86,3.15-1.52,6.15-1.52,8.1-1.26.23.03.42.08.62.16,1.48.55,4.2,1.92,5.86,4.96.23.42,1,1.95,1.22,3.79.54,4.55-2.71,8.49-5.58,11.98l-.17.21c-3.94,4.79-8.35,9.51-13.12,14.02l-.7.67ZM30.87,81.96c-.67,0-1.37.08-2.11.29-.17.05-4.18,1.21-5.53,4.86-.32.87-.47,1.87-.44,2.96.13,4.38,3.25,7.74,5.32,9.97,4.32,4.65,8.51,8.99,12.8,13.22,4.43-4.26,8.55-8.69,12.25-13.18l.17-.21c2.74-3.33,5.57-6.77,5.14-10.47h0c-.18-1.53-.86-2.82-.99-3.07-1.35-2.46-3.59-3.59-4.81-4.04-.07-.03-.11-.04-.19-.05-1.68-.23-4.25-.22-6.96,1.08-1.54.74-2.96,1.84-4.1,3.18l-.76.89-.76-.88c-1.17-1.36-2.55-2.43-4.11-3.19-1.06-.51-2.8-1.37-4.93-1.37Z"/>
        </g>
        <g>
          <path class="cls-3" d="M342.53,569.86c0-.78.26-1.43.76-1.96.51-.53,1.17-.8,1.99-.8.57,0,1.09.15,1.56.46.47.31.83.72,1.07,1.25l3.98,9.55h20.81s3.98-9.55,3.98-9.55c.24-.53.6-.95,1.07-1.25.47-.31.99-.46,1.56-.46.82,0,1.48.27,1.99.8.51.53.76,1.18.76,1.96,0,.33-.1.73-.31,1.22l-15.6,36.84c-.33.73-.78,1.34-1.38,1.81-.59.47-1.32.7-2.17.7h-.61c-.86,0-1.58-.24-2.17-.7-.59-.47-1.05-1.07-1.38-1.81l-15.6-36.84c-.2-.49-.31-.9-.31-1.22ZM362.29,603.33l8.26-19.89h-16.52s8.26,19.89,8.26,19.89Z"/>
          <path class="cls-3" d="M372.29,552.34c-2.59,0-4.66-1.01-5.81-1.57-1.47-.72-2.81-1.68-3.98-2.86-1.17,1.18-2.51,2.14-4,2.86-3.24,1.56-6.3,1.53-8.3,1.23l-.23-.06c-1.53-.54-4.35-1.91-6.06-5.03-.23-.42-1-1.94-1.22-3.79h0c-.54-4.55,2.71-8.5,5.58-11.98l.17-.21c3.94-4.78,8.35-9.5,13.12-14.02l.7-.67.69.68c4.55,4.48,8.98,9.05,13.55,13.97,2.13,2.3,5.7,6.14,5.85,11.27.04,1.35-.15,2.6-.56,3.71-1.67,4.52-6.34,5.94-6.86,6.09-.92.26-1.81.36-2.64.36ZM362.49,544.91l.76.88c1.17,1.36,2.55,2.43,4.11,3.19,1.39.68,3.97,1.93,7.04,1.08.17-.05,4.18-1.21,5.53-4.86.32-.87.47-1.87.44-2.96-.13-4.38-3.25-7.74-5.32-9.97-4.32-4.65-8.51-8.98-12.8-13.22-4.44,4.26-8.55,8.69-12.25,13.18l-.17.21c-2.74,3.33-5.58,6.77-5.14,10.47h0c.18,1.53.86,2.82.99,3.07,1.36,2.49,3.62,3.62,4.9,4.08,1.76.25,4.34.24,7.07-1.07,1.56-.75,2.94-1.82,4.1-3.18l.76-.89Z"/>
        </g>
      </g>
      <g>
        <path class="cls-3" d="M43.44,340.16c-.19,0-.34-.06-.46-.18-.12-.12-.18-.28-.18-.46v-8.37c0-1.49-.37-2.66-1.12-3.49-.75-.83-1.95-1.25-3.61-1.25h-5.26c-.19,0-.34-.06-.46-.18s-.18-.28-.18-.46v-.95c0-.19.06-.34.18-.46s.28-.18.46-.18h5.4c2.43,0,4.22.59,5.39,1.76,1.17,1.18,1.75,2.88,1.75,5.12v8.46c0,.19-.06.34-.18.46-.12.12-.28.18-.46.18h-1.26ZM32.8,340.16c-.19,0-.34-.06-.46-.18s-.18-.28-.18-.46v-9.35c0-.19.06-.34.18-.46.12-.12.28-.18.46-.18h1.29c.19,0,.34.06.45.18.11.12.17.28.17.46v9.35c0,.19-.06.34-.17.46s-.26.18-.45.18h-1.29Z"/>
        <path class="cls-3" d="M48.4,326.41c-.19,0-.34-.06-.46-.18s-.18-.28-.18-.46v-.95c0-.19.06-.34.18-.46s.28-.18.46-.18h12.01c.19,0,.34.06.46.18.12.12.18.28.18.46v.95c0,.19-.06.34-.18.46-.12.12-.28.18-.46.18h-12.01ZM55.96,340.16c-.41,0-.62-.21-.62-.62v-10c0-1.1.13-1.96.39-2.58.26-.62.59-.92.98-.92h2.74c-.47,0-.84.36-1.13,1.06-.29.71-.43,1.59-.43,2.63v9.8c0,.19-.07.34-.2.45s-.29.17-.48.17h-1.26Z"/>
        <path class="cls-3" d="M64.92,333.66c-.19,0-.34-.06-.46-.18-.12-.12-.18-.28-.18-.46v-8.2c0-.19.06-.34.18-.46.12-.12.28-.18.46-.18h1.34c.19,0,.34.06.45.18.11.12.17.28.17.46v8.2c0,.19-.06.34-.17.46-.11.12-.26.18-.45.18h-1.34Z"/>
        <path class="cls-3" d="M70.94,340.16c-.17,0-.31-.07-.42-.2-.11-.13-.16-.29-.14-.48l2.38-13.72c.04-.19.12-.33.25-.43.13-.1.29-.13.48-.1l1.12.06c.19.02.34.1.45.24.11.14.15.3.11.49l-2.24,13.47c-.02.19-.1.35-.24.48-.14.13-.3.2-.49.2h-1.26ZM78.02,326.46h-6.8c-.21,0-.36-.06-.48-.18-.11-.12-.17-.28-.17-.46v-1.01c0-.19.06-.34.17-.46s.27-.18.48-.18h7.11c1.16,0,2.19.27,3.09.81s1.62,1.32,2.13,2.34c.51,1.02.77,2.25.77,3.68v8.51c0,.19-.06.34-.17.46s-.27.18-.48.18h-7.22c-.19,0-.34-.06-.46-.18-.12-.12-.18-.28-.18-.46v-.95c0-.19.06-.34.18-.46.12-.12.28-.18.46-.18h5.32v-6.75c0-.95-.16-1.78-.49-2.49-.33-.71-.77-1.25-1.34-1.64-.57-.38-1.21-.57-1.92-.57Z"/>
        <path class="cls-3" d="M91.46,326.46l-3.33-.03c-.19,0-.34-.06-.46-.17-.12-.11-.18-.26-.18-.45v-4.9c0-.19.06-.34.18-.46s.27-.18.46-.18h1.18c.21,0,.36.06.48.18.11.12.17.28.17.46v3.25h1.57l-.06,2.3ZM91.41,340.41c-.17.06-.33.03-.48-.07s-.22-.25-.22-.43v-1.29c0-.17.05-.32.15-.45.1-.13.26-.23.46-.31l1.09-.42c.73-.32,1.39-.7,2-1.15.61-.45,1.08-1.06,1.43-1.85.34-.78.52-1.81.52-3.08s-.14-2.18-.43-2.9c-.29-.72-.77-1.23-1.46-1.54-.68-.31-1.61-.46-2.79-.46h-.84c-.19,0-.34-.06-.46-.18-.12-.12-.18-.28-.18-.46v-1.01c0-.19.06-.34.18-.46.12-.12.28-.18.46-.18h1.23c1.7,0,3.05.24,4.06.73s1.73,1.26,2.17,2.34.66,2.48.66,4.21c0,1.31-.18,2.44-.53,3.39s-.84,1.76-1.44,2.44-1.29,1.23-2.06,1.67-1.56.8-2.38,1.08l-1.15.39Z"/>
        <path class="cls-3" d="M113.13,325.04h.7c.28,0,.49.07.63.21.14.14.2.31.18.52-.15.78-.28,1.49-.38,2.13s-.17,1.26-.21,1.89c-.04.63-.06,1.33-.06,2.11l.08,7.62c0,.19-.06.34-.18.46-.12.12-.28.18-.46.18l-3.98-.06c-.19,0-.34-.06-.46-.17-.12-.11-.18-.27-.18-.48v-.9c0-.19.06-.34.18-.46.12-.12.28-.18.46-.18l2.16.03v-5.94c0-.76,0-1.47.03-2.11.02-.64.08-1.29.17-1.95.09-.65.24-1.39.45-2.21.06-.21.14-.37.27-.5.12-.13.32-.2.6-.2ZM110.61,326.41c-.19,0-.34-.06-.46-.18-.12-.12-.18-.28-.18-.46v-.95c0-.19.06-.34.18-.46.12-.12.27-.18.46-.18h6.08c1.61,0,2.94.26,3.99.77s1.84,1.28,2.37,2.3.78,2.27.78,3.77v8.51c0,.19-.06.34-.18.46-.12.12-.28.18-.46.18h-1.26c-.21,0-.36-.06-.48-.18-.11-.12-.17-.28-.17-.46v-8.37c0-1.49-.37-2.66-1.12-3.49-.75-.83-1.95-1.25-3.61-1.25h-5.94Z"/>
        <path class="cls-3" d="M128.42,333.66c-.19,0-.34-.06-.46-.18-.12-.12-.18-.28-.18-.46v-8.2c0-.19.06-.34.18-.46.12-.12.28-.18.46-.18h1.34c.19,0,.34.06.45.18.11.12.17.28.17.46v8.2c0,.19-.06.34-.17.46-.11.12-.26.18-.45.18h-1.34Z"/>
        <path class="cls-3" d="M135.17,340.16c-.19,0-.34-.06-.46-.18s-.18-.28-.18-.46v-14.7c0-.19.06-.34.18-.46s.28-.18.46-.18h1.32c.21,0,.36.06.48.18.11.12.17.28.17.46v14.7c0,.19-.06.34-.17.46-.11.12-.27.18-.48.18h-1.32Z"/>
        <path class="cls-3" d="M142.09,340.16c-.19,0-.34-.06-.46-.18s-.18-.28-.18-.46v-14.7c0-.19.06-.34.18-.46s.28-.18.46-.18h1.32c.21,0,.36.06.48.18.11.12.17.28.17.46v14.7c0,.19-.06.34-.17.46-.11.12-.27.18-.48.18h-1.32Z"/>
        <path class="cls-3" d="M149,340.16c-.19,0-.34-.06-.46-.18s-.18-.28-.18-.46v-14.7c0-.19.06-.34.18-.46s.28-.18.46-.18h5.46c1.61,0,2.94.26,3.99.77s1.84,1.28,2.37,2.3c.52,1.02.78,2.29.78,3.82v8.46c0,.19-.06.34-.18.46s-.28.18-.46.18h-1.26c-.21,0-.36-.06-.48-.18-.11-.12-.17-.28-.17-.46v-8.37c0-1.49-.37-2.66-1.12-3.49-.75-.83-1.95-1.25-3.61-1.25h-3.42v13.1c0,.19-.06.34-.17.46s-.26.18-.45.18h-1.29Z"/>
        <path class="cls-3" d="M176.25,325.04h.7c.28,0,.49.07.63.21.14.14.2.31.18.52-.15.78-.28,1.49-.38,2.13s-.17,1.26-.21,1.89c-.04.63-.06,1.33-.06,2.11l.08,7.62c0,.19-.06.34-.18.46-.12.12-.28.18-.46.18l-3.98-.06c-.19,0-.34-.06-.46-.17-.12-.11-.18-.27-.18-.48v-.9c0-.19.06-.34.18-.46.12-.12.28-.18.46-.18l2.16.03v-5.94c0-.76,0-1.47.03-2.11.02-.64.08-1.29.17-1.95.09-.65.24-1.39.45-2.21.06-.21.14-.37.27-.5.12-.13.32-.2.6-.2ZM173.73,326.41c-.19,0-.34-.06-.46-.18-.12-.12-.18-.28-.18-.46v-.95c0-.19.06-.34.18-.46.12-.12.27-.18.46-.18h6.08c1.61,0,2.94.26,3.99.77s1.84,1.28,2.37,2.3.78,2.27.78,3.77v8.51c0,.19-.06.34-.18.46-.12.12-.28.18-.46.18h-1.26c-.21,0-.36-.06-.48-.18-.11-.12-.17-.28-.17-.46v-8.37c0-1.49-.37-2.66-1.12-3.49-.75-.83-1.95-1.25-3.61-1.25h-5.94Z"/>
        <path class="cls-3" d="M199.51,340.16c-.19,0-.34-.06-.46-.18-.12-.12-.18-.28-.18-.46v-8.37c0-1.49-.37-2.66-1.12-3.49-.75-.83-1.95-1.25-3.61-1.25h-3.67c-.19,0-.34-.06-.46-.18-.12-.12-.18-.28-.18-.46v-.95c0-.19.06-.34.18-.46.12-.12.27-.18.46-.18h3.81c1.61,0,2.94.25,3.99.76,1.05.5,1.84,1.27,2.37,2.28.52,1.02.78,2.28.78,3.79v8.51c0,.19-.06.34-.18.46s-.28.18-.46.18h-1.26Z"/>
        <path class="cls-3" d="M206.01,333.66c-.19,0-.34-.06-.46-.18-.12-.12-.18-.28-.18-.46v-8.2c0-.19.06-.34.18-.46.12-.12.28-.18.46-.18h1.34c.19,0,.34.06.45.18.11.12.17.28.17.46v8.2c0,.19-.06.34-.17.46-.11.12-.26.18-.45.18h-1.34Z"/>
        <path class="cls-3" d="M212.17,340.16c-.19,0-.34-.06-.46-.18-.12-.12-.18-.28-.18-.46v-.98c0-.19.06-.34.18-.46.12-.12.28-.18.46-.18h7.59l-8.76-12.63c-.06-.11-.1-.21-.14-.29-.04-.08-.06-.16-.06-.24,0-.15.06-.28.18-.39.12-.11.26-.17.41-.17h1.34c.21,0,.36.05.48.15s.21.21.28.32l9.13,13.08c.09.13.17.27.24.41.07.14.1.29.1.46v.92c0,.19-.06.34-.18.46-.12.12-.28.18-.46.18h-10.14ZM219.25,333.77l-1.23-1.82c.99-.35,1.7-.94,2.13-1.75.43-.81.64-1.81.64-2.98v-2.41c0-.19.06-.34.18-.46.12-.12.28-.18.46-.18h1.18c.19,0,.34.06.45.18.11.12.17.28.17.46v2.74c0,1.51-.34,2.8-1.01,3.86-.67,1.06-1.66,1.85-2.97,2.35Z"/>
        <path class="cls-3" d="M227.49,333.66c-.19,0-.34-.06-.46-.18-.12-.12-.18-.28-.18-.46v-8.2c0-.19.06-.34.18-.46.12-.12.28-.18.46-.18h1.34c.19,0,.34.06.45.18.11.12.17.28.17.46v8.2c0,.19-.06.34-.17.46-.11.12-.26.18-.45.18h-1.34Z"/>
        <path class="cls-3" d="M237.09,326.46l-3.33-.03c-.19,0-.34-.06-.46-.17-.12-.11-.18-.26-.18-.45v-4.9c0-.19.06-.34.18-.46s.27-.18.46-.18h1.18c.21,0,.36.06.48.18.11.12.17.28.17.46v3.25h1.57l-.06,2.3ZM237.03,340.41c-.17.06-.33.03-.48-.07s-.22-.25-.22-.43v-1.29c0-.17.05-.32.15-.45.1-.13.26-.23.46-.31l1.09-.42c.73-.32,1.39-.7,2-1.15.61-.45,1.08-1.06,1.43-1.85.34-.78.52-1.81.52-3.08s-.14-2.18-.43-2.9c-.29-.72-.77-1.23-1.46-1.54-.68-.31-1.61-.46-2.79-.46h-.84c-.19,0-.34-.06-.46-.18-.12-.12-.18-.28-.18-.46v-1.01c0-.19.06-.34.18-.46.12-.12.28-.18.46-.18h1.23c1.7,0,3.05.24,4.06.73s1.73,1.26,2.17,2.34.66,2.48.66,4.21c0,1.31-.18,2.44-.53,3.39s-.84,1.76-1.44,2.44-1.29,1.23-2.06,1.67-1.56.8-2.38,1.08l-1.15.39Z"/>
        <path class="cls-3" d="M258.01,326.46l-3.33-.03c-.19,0-.34-.06-.46-.17-.12-.11-.18-.26-.18-.45v-4.9c0-.19.06-.34.18-.46s.27-.18.46-.18h1.18c.21,0,.36.06.48.18.11.12.17.28.17.46v3.25h1.57l-.06,2.3ZM257.95,340.41c-.17.06-.33.03-.48-.07s-.22-.25-.22-.43v-1.29c0-.17.05-.32.15-.45.1-.13.26-.23.46-.31l1.09-.42c.73-.32,1.39-.7,2-1.15.61-.45,1.08-1.06,1.43-1.85.34-.78.52-1.81.52-3.08s-.14-2.18-.43-2.9c-.29-.72-.77-1.23-1.46-1.54-.68-.31-1.61-.46-2.79-.46h-.84c-.19,0-.34-.06-.46-.18-.12-.12-.18-.28-.18-.46v-1.01c0-.19.06-.34.18-.46.12-.12.28-.18.46-.18h1.23c1.7,0,3.05.24,4.06.73s1.73,1.26,2.17,2.34.66,2.48.66,4.21c0,1.31-.18,2.44-.53,3.39s-.84,1.76-1.44,2.44-1.29,1.23-2.06,1.67-1.56.8-2.38,1.08l-1.15.39Z"/>
        <path class="cls-3" d="M269.01,341.7c-.19.07-.36.06-.53-.04s-.25-.25-.25-.43v-.95c0-.17.04-.33.11-.48s.2-.25.36-.31l5.91-1.93c1.06-.35,1.88-.81,2.46-1.37.58-.56.98-1.21,1.22-1.96.23-.75.35-1.56.35-2.44v-6.97c0-.19.06-.34.18-.46.12-.12.28-.18.46-.18h1.26c.21,0,.36.06.48.18.11.12.17.28.17.46v7.76c0,1.08-.24,2.1-.73,3.07-.49.96-1.18,1.8-2.09,2.52s-1.97,1.26-3.21,1.64l-6.16,1.9ZM272.68,339.48l-3.95-14.2c-.04-.15-.07-.26-.1-.34-.03-.07-.04-.15-.04-.22,0-.15.06-.28.17-.39.11-.11.24-.17.39-.17h1.37c.35,0,.57.14.64.42l3.89,14.25-2.38.64Z"/>
        <path class="cls-3" d="M285.98,340.16c-.19,0-.34-.06-.46-.18s-.18-.28-.18-.46v-14.7c0-.19.06-.34.18-.46s.28-.18.46-.18h1.32c.21,0,.36.06.48.18.11.12.17.28.17.46v14.7c0,.19-.06.34-.17.46-.11.12-.27.18-.48.18h-1.32Z"/>
        <path class="cls-3" d="M294.52,326.46v2.18c.02.67.11,1.23.27,1.68.16.45.44.73.85.84l1.04.28c.15.04.27.14.35.29.08.16.13.35.13.57v.7c0,.21-.1.35-.31.45-.21.09-.43.12-.67.08l-1.09-.22c-.6-.15-1.11-.42-1.54-.8-.43-.38-.75-.91-.97-1.57-.21-.66-.32-1.46-.32-2.39v-3.75c0-.19.06-.34.17-.46.11-.12.27-.18.48-.18h5.18c1.4,0,2.57.28,3.5.83.93.55,1.64,1.34,2.13,2.38.48,1.04.75,2.28.78,3.74.02.28.03.63.03,1.05s0,.77-.03,1.05c-.04,1.44-.3,2.68-.78,3.72-.49,1.04-1.2,1.84-2.13,2.39-.93.55-2.1.83-3.5.83h-4.84c-.19,0-.34-.06-.46-.18s-.18-.28-.18-.46v-1.01c0-.19.06-.34.18-.46.12-.12.28-.18.46-.18h4.7c1.29,0,2.28-.42,2.98-1.25.7-.83,1.09-1.99,1.16-3.49.02-.28.03-.6.03-.97s0-.69-.03-.97c-.04-1.49-.42-2.66-1.13-3.49-.72-.83-1.72-1.25-3.01-1.25h-3.42Z"/>
        <path class="cls-3" d="M318.68,325.04h.7c.28,0,.49.07.63.21.14.14.2.31.18.52-.15.78-.28,1.49-.38,2.13s-.17,1.26-.21,1.89c-.04.63-.06,1.33-.06,2.11l.08,7.62c0,.19-.06.34-.18.46-.12.12-.28.18-.46.18l-3.98-.06c-.19,0-.34-.06-.46-.17-.12-.11-.18-.27-.18-.48v-.9c0-.19.06-.34.18-.46.12-.12.28-.18.46-.18l2.16.03v-5.94c0-.76,0-1.47.03-2.11.02-.64.08-1.29.17-1.95.09-.65.24-1.39.45-2.21.06-.21.14-.37.27-.5.12-.13.32-.2.6-.2ZM316.16,326.41c-.19,0-.34-.06-.46-.18-.12-.12-.18-.28-.18-.46v-.95c0-.19.06-.34.18-.46.12-.12.27-.18.46-.18h6.08c1.61,0,2.94.26,3.99.77s1.84,1.28,2.37,2.3.78,2.27.78,3.77v8.51c0,.19-.06.34-.18.46-.12.12-.28.18-.46.18h-1.26c-.21,0-.36-.06-.48-.18-.11-.12-.17-.28-.17-.46v-8.37c0-1.49-.37-2.66-1.12-3.49-.75-.83-1.95-1.25-3.61-1.25h-5.94Z"/>
        <path class="cls-3" d="M334.17,340.16c-.19,0-.34-.06-.46-.18s-.18-.28-.18-.46v-14.7c0-.19.06-.34.18-.46s.28-.18.46-.18h1.32c.21,0,.36.06.48.18.11.12.17.28.17.46v14.7c0,.19-.06.34-.17.46-.11.12-.27.18-.48.18h-1.32Z"/>
        <path class="cls-3" d="M341.08,340.16c-.19,0-.34-.06-.46-.18s-.18-.28-.18-.46v-14.7c0-.19.06-.34.18-.46s.28-.18.46-.18h1.32c.21,0,.36.06.48.18.11.12.17.28.17.46v14.7c0,.19-.06.34-.17.46-.11.12-.27.18-.48.18h-1.32Z"/>
        <path class="cls-3" d="M347.41,340.16c-.19,0-.34-.06-.46-.18-.12-.12-.18-.28-.18-.46v-.98c0-.19.06-.34.18-.46.12-.12.28-.18.46-.18h7.59l-8.76-12.63c-.06-.11-.1-.21-.14-.29-.04-.08-.06-.16-.06-.24,0-.15.06-.28.18-.39.12-.11.26-.17.41-.17h1.34c.21,0,.36.05.48.15s.21.21.28.32l9.13,13.08c.09.13.17.27.24.41.07.14.1.29.1.46v.92c0,.19-.06.34-.18.46-.12.12-.28.18-.46.18h-10.14ZM354.49,333.77l-1.23-1.82c.99-.35,1.7-.94,2.13-1.75.43-.81.64-1.81.64-2.98v-2.41c0-.19.06-.34.18-.46.12-.12.28-.18.46-.18h1.18c.19,0,.34.06.45.18.11.12.17.28.17.46v2.74c0,1.51-.34,2.8-1.01,3.86-.67,1.06-1.66,1.85-2.97,2.35Z"/>
        <path class="cls-3" d="M373.56,340.16c-.19,0-.34-.06-.46-.18-.12-.12-.18-.28-.18-.46v-8.37c0-1.49-.37-2.66-1.12-3.49-.75-.83-1.95-1.25-3.61-1.25h-5.26c-.19,0-.34-.06-.46-.18s-.18-.28-.18-.46v-.95c0-.19.06-.34.18-.46s.28-.18.46-.18h5.4c2.43,0,4.22.59,5.39,1.76,1.17,1.18,1.75,2.88,1.75,5.12v8.46c0,.19-.06.34-.18.46-.12.12-.28.18-.46.18h-1.26ZM362.92,340.16c-.19,0-.34-.06-.46-.18s-.18-.28-.18-.46v-9.35c0-.19.06-.34.18-.46.12-.12.28-.18.46-.18h1.29c.19,0,.34.06.45.18.11.12.17.28.17.46v9.35c0,.19-.06.34-.17.46s-.26.18-.45.18h-1.29Z"/>
        <path class="cls-3" d="M29.72,373.75c-.19,0-.34-.06-.46-.18s-.18-.28-.18-.46v-2.02c0-.19.06-.34.18-.46.12-.12.28-.18.46-.18h2.02c.19,0,.34.06.48.18.13.12.2.28.2.46v2.02c0,.19-.07.34-.2.46s-.29.18-.48.18h-2.02Z"/>
        <path class="cls-3" d="M33.87,360.01c-.19,0-.34-.06-.46-.18s-.18-.28-.18-.46v-.95c0-.19.06-.34.18-.46s.28-.18.46-.18h12.01c.19,0,.34.06.46.18.12.12.18.28.18.46v.95c0,.19-.06.34-.18.46-.12.12-.28.18-.46.18h-12.01ZM41.43,373.75c-.41,0-.62-.21-.62-.62v-10c0-1.1.13-1.96.39-2.58.26-.62.59-.92.98-.92h2.74c-.47,0-.84.36-1.13,1.06-.29.71-.43,1.59-.43,2.63v9.8c0,.19-.07.34-.2.45s-.29.17-.48.17h-1.26Z"/>
        <path class="cls-3" d="M49.86,373.75c-.17,0-.31-.07-.42-.2-.11-.13-.16-.29-.14-.48l2.38-13.72c.04-.19.12-.33.25-.43.13-.1.29-.13.48-.1l1.12.06c.19.02.34.1.45.24.11.14.15.3.11.49l-2.24,13.47c-.02.19-.1.35-.24.48-.14.13-.3.2-.49.2h-1.26ZM56.94,360.06h-6.8c-.21,0-.36-.06-.48-.18-.11-.12-.17-.28-.17-.46v-1.01c0-.19.06-.34.17-.46s.27-.18.48-.18h7.11c1.16,0,2.19.27,3.09.81s1.62,1.32,2.13,2.34c.51,1.02.77,2.25.77,3.68v8.51c0,.19-.06.34-.17.46s-.27.18-.48.18h-7.22c-.19,0-.34-.06-.46-.18-.12-.12-.18-.28-.18-.46v-.95c0-.19.06-.34.18-.46.12-.12.28-.18.46-.18h5.32v-6.75c0-.95-.16-1.78-.49-2.49-.33-.71-.77-1.25-1.34-1.64-.57-.38-1.21-.57-1.92-.57Z"/>
        <path class="cls-3" d="M68.03,373.75c-.19,0-.34-.06-.46-.18s-.18-.28-.18-.46v-14.7c0-.19.06-.34.18-.46s.28-.18.46-.18h1.32c.21,0,.36.06.48.18.11.12.17.28.17.46v14.7c0,.19-.06.34-.17.46-.11.12-.27.18-.48.18h-1.32Z"/>
        <path class="cls-3" d="M77.8,360.06l-3.33-.03c-.19,0-.34-.06-.46-.17-.12-.11-.18-.26-.18-.45v-4.9c0-.19.06-.34.18-.46s.27-.18.46-.18h1.18c.21,0,.36.06.48.18.11.12.17.28.17.46v3.25h1.57l-.06,2.3ZM77.74,374.01c-.17.06-.33.03-.48-.07s-.22-.25-.22-.43v-1.29c0-.17.05-.32.15-.45.1-.13.26-.23.46-.31l1.09-.42c.73-.32,1.39-.7,2-1.15.61-.45,1.08-1.06,1.43-1.85.34-.78.52-1.81.52-3.08s-.14-2.18-.43-2.9c-.29-.72-.77-1.23-1.46-1.54-.68-.31-1.61-.46-2.79-.46h-.84c-.19,0-.34-.06-.46-.18-.12-.12-.18-.28-.18-.46v-1.01c0-.19.06-.34.18-.46.12-.12.28-.18.46-.18h1.23c1.7,0,3.05.24,4.06.73s1.73,1.26,2.17,2.34.66,2.48.66,4.21c0,1.31-.18,2.44-.53,3.39s-.84,1.76-1.44,2.44-1.29,1.23-2.06,1.67-1.56.8-2.38,1.08l-1.15.39Z"/>
        <path class="cls-3" d="M100.26,373.75c-.19,0-.34-.06-.46-.18-.12-.12-.18-.28-.18-.46v-8.37c0-1.49-.37-2.66-1.12-3.49-.75-.83-1.95-1.25-3.61-1.25h-5.26c-.19,0-.34-.06-.46-.18s-.18-.28-.18-.46v-.95c0-.19.06-.34.18-.46s.28-.18.46-.18h5.4c2.43,0,4.22.59,5.39,1.76,1.17,1.18,1.75,2.88,1.75,5.12v8.46c0,.19-.06.34-.18.46-.12.12-.28.18-.46.18h-1.26ZM89.61,373.75c-.19,0-.34-.06-.46-.18s-.18-.28-.18-.46v-9.35c0-.19.06-.34.18-.46.12-.12.28-.18.46-.18h1.29c.19,0,.34.06.45.18.11.12.17.28.17.46v9.35c0,.19-.06.34-.17.46s-.26.18-.45.18h-1.29Z"/>
        <path class="cls-3" d="M112.01,360.01c-.19,0-.34-.06-.46-.18s-.18-.28-.18-.46v-.95c0-.19.06-.34.18-.46s.28-.18.46-.18h12.01c.19,0,.34.06.46.18.12.12.18.28.18.46v.95c0,.19-.06.34-.18.46-.12.12-.28.18-.46.18h-12.01ZM119.57,373.75c-.41,0-.62-.21-.62-.62v-10c0-1.1.13-1.96.39-2.58.26-.62.59-.92.98-.92h2.74c-.47,0-.84.36-1.13,1.06-.29.71-.43,1.59-.43,2.63v9.8c0,.19-.07.34-.2.45s-.29.17-.48.17h-1.26Z"/>
        <path class="cls-3" d="M128,373.75c-.17,0-.31-.07-.42-.2-.11-.13-.16-.29-.14-.48l2.38-13.72c.04-.19.12-.33.25-.43.13-.1.29-.13.48-.1l1.12.06c.19.02.34.1.45.24.11.14.15.3.11.49l-2.24,13.47c-.02.19-.1.35-.24.48-.14.13-.3.2-.49.2h-1.26ZM135.09,360.06h-6.8c-.21,0-.36-.06-.48-.18-.11-.12-.17-.28-.17-.46v-1.01c0-.19.06-.34.17-.46s.27-.18.48-.18h7.11c1.16,0,2.19.27,3.09.81s1.62,1.32,2.13,2.34c.51,1.02.77,2.25.77,3.68v8.51c0,.19-.06.34-.17.46s-.27.18-.48.18h-7.22c-.19,0-.34-.06-.46-.18-.12-.12-.18-.28-.18-.46v-.95c0-.19.06-.34.18-.46.12-.12.28-.18.46-.18h5.32v-6.75c0-.95-.16-1.78-.49-2.49-.33-.71-.77-1.25-1.34-1.64-.57-.38-1.21-.57-1.92-.57Z"/>
        <path class="cls-3" d="M146.17,373.75c-.19,0-.34-.06-.46-.18s-.18-.28-.18-.46v-14.7c0-.19.06-.34.18-.46s.28-.18.46-.18h1.32c.21,0,.36.06.48.18.11.12.17.28.17.46v14.7c0,.19-.06.34-.17.46-.11.12-.27.18-.48.18h-1.32Z"/>
        <path class="cls-3" d="M152.31,375.29c-.19.07-.36.06-.53-.04s-.25-.25-.25-.43v-.95c0-.17.04-.33.11-.48s.2-.25.36-.31l5.91-1.93c1.06-.35,1.88-.81,2.46-1.37.58-.56.98-1.21,1.22-1.96.23-.75.35-1.56.35-2.44v-6.97c0-.19.06-.34.18-.46.12-.12.28-.18.46-.18h1.26c.21,0,.36.06.48.18.11.12.17.28.17.46v7.76c0,1.08-.24,2.1-.73,3.07-.49.96-1.18,1.8-2.09,2.52s-1.97,1.26-3.21,1.64l-6.16,1.9ZM155.97,373.08l-3.95-14.2c-.04-.15-.07-.26-.1-.34-.03-.07-.04-.15-.04-.22,0-.15.06-.28.17-.39.11-.11.24-.17.39-.17h1.37c.35,0,.57.14.64.42l3.89,14.25-2.38.64Z"/>
        <path class="cls-3" d="M186.78,373.75c-.19,0-.34-.06-.46-.18-.12-.12-.18-.28-.18-.46v-8.37c0-1.49-.37-2.66-1.12-3.49-.75-.83-1.95-1.25-3.61-1.25h-5.26c-.19,0-.34-.06-.46-.18s-.18-.28-.18-.46v-.95c0-.19.06-.34.18-.46s.28-.18.46-.18h5.4c2.43,0,4.22.59,5.39,1.76,1.17,1.18,1.75,2.88,1.75,5.12v8.46c0,.19-.06.34-.18.46-.12.12-.28.18-.46.18h-1.26ZM176.13,373.75c-.19,0-.34-.06-.46-.18s-.18-.28-.18-.46v-9.35c0-.19.06-.34.18-.46.12-.12.28-.18.46-.18h1.29c.19,0,.34.06.45.18.11.12.17.28.17.46v9.35c0,.19-.06.34-.17.46s-.26.18-.45.18h-1.29Z"/>
        <path class="cls-3" d="M192.21,360.01c-.19,0-.34-.06-.46-.18-.12-.12-.18-.28-.18-.46v-.95c0-.19.06-.34.18-.46.12-.12.28-.18.46-.18h6.78c.21,0,.36.06.48.18s.17.28.17.46v.95c0,.19-.06.34-.17.46s-.27.18-.48.18h-6.78ZM194.56,373.75c-.41,0-.62-.21-.62-.62v-10c0-1.1.13-1.96.39-2.58.26-.62.58-.92.95-.92h2.77c-.47,0-.85.36-1.13,1.06-.29.71-.43,1.59-.43,2.63v9.8c0,.19-.07.34-.2.45s-.29.17-.48.17h-1.26Z"/>
        <path class="cls-3" d="M203.94,373.75c-.19,0-.34-.06-.46-.18s-.18-.28-.18-.46v-1.01c0-.19.06-.34.18-.46.12-.12.28-.18.46-.18h4c1.66,0,2.86-.42,3.58-1.25.73-.83,1.13-1.99,1.2-3.49.02-.41.03-.74.03-.98s0-.56-.03-.95c-.06-1.49-.45-2.66-1.19-3.49-.74-.83-1.94-1.25-3.6-1.25h-4c-.19,0-.34-.06-.46-.18-.12-.12-.18-.28-.18-.46v-1.01c0-.19.06-.34.18-.46s.28-.18.46-.18h4.14c1.64,0,2.98.28,4,.83,1.03.55,1.8,1.34,2.31,2.38s.79,2.28.83,3.74c.02.37.03.72.03,1.04s0,.67-.03,1.06c-.04,1.44-.31,2.68-.83,3.72-.51,1.04-1.28,1.84-2.31,2.39-1.03.55-2.36.83-4,.83h-4.14Z"/>
        <path class="cls-3" d="M227.54,373.75c-.19,0-.34-.06-.46-.18-.12-.12-.18-.28-.18-.46v-8.37c0-1.49-.37-2.66-1.12-3.49-.75-.83-1.95-1.25-3.61-1.25h-3.67c-.19,0-.34-.06-.46-.18-.12-.12-.18-.28-.18-.46v-.95c0-.19.06-.34.18-.46.12-.12.27-.18.46-.18h3.81c1.61,0,2.94.25,3.99.76,1.05.5,1.84,1.27,2.37,2.28.52,1.02.78,2.28.78,3.79v8.51c0,.19-.06.34-.18.46s-.28.18-.46.18h-1.26Z"/>
        <path class="cls-3" d="M233.51,373.75c-.17,0-.31-.07-.42-.2-.11-.13-.16-.29-.14-.48l2.38-13.72c.04-.19.12-.33.25-.43.13-.1.29-.13.48-.1l1.12.06c.19.02.34.1.45.24.11.14.15.3.11.49l-2.24,13.47c-.02.19-.1.35-.24.48-.14.13-.3.2-.49.2h-1.26ZM240.59,360.06h-6.8c-.21,0-.36-.06-.48-.18-.11-.12-.17-.28-.17-.46v-1.01c0-.19.06-.34.17-.46s.27-.18.48-.18h7.11c1.16,0,2.19.27,3.09.81s1.62,1.32,2.13,2.34c.51,1.02.77,2.25.77,3.68v8.51c0,.19-.06.34-.17.46s-.27.18-.48.18h-7.22c-.19,0-.34-.06-.46-.18-.12-.12-.18-.28-.18-.46v-.95c0-.19.06-.34.18-.46.12-.12.28-.18.46-.18h5.32v-6.75c0-.95-.16-1.78-.49-2.49-.33-.71-.77-1.25-1.34-1.64-.57-.38-1.21-.57-1.92-.57Z"/>
        <path class="cls-3" d="M251.01,373.75c-.19,0-.34-.06-.46-.18-.12-.12-.18-.28-.18-.46v-.95c0-.19.06-.34.18-.46.12-.12.28-.18.46-.18h8.04v-6.78c0-1.49-.37-2.66-1.12-3.49-.75-.83-1.95-1.25-3.61-1.25h-3.02c-.19,0-.34-.06-.46-.18-.12-.12-.18-.28-.18-.46v-.95c0-.19.06-.34.18-.46.12-.12.27-.18.46-.18h3.16c1.6,0,2.94.26,4,.78,1.06.52,1.86,1.29,2.39,2.31.53,1.02.8,2.28.8,3.79v6.86h1.04c.19,0,.34.06.46.18s.18.28.18.46v.95c0,.19-.06.34-.18.46s-.28.18-.46.18h-11.68Z"/>
        <path class="cls-3" d="M274.22,371.66c1.21.02,2.23-.21,3.07-.67.83-.47,1.47-1.13,1.9-2,.44-.87.66-1.86.66-2.98v-7.59c0-.19.06-.34.18-.46.12-.12.28-.18.46-.18h1.18c.19,0,.34.06.45.18s.17.28.17.46v7.78c0,1.19-.19,2.27-.56,3.23-.37.96-.91,1.78-1.6,2.46-.69.68-1.51,1.2-2.45,1.55-.94.35-1.98.51-3.12.48h-2.1c-1.21,0-2.31-.28-3.28-.84-.97-.56-1.74-1.34-2.3-2.35-.56-1.01-.84-2.17-.84-3.5v-8.82c0-.19.06-.34.18-.46.12-.12.28-.18.46-.18h1.18c.19,0,.34.06.46.18s.18.28.18.46l.08,8.26c0,1.61.45,2.84,1.34,3.7.9.86,2.03,1.29,3.42,1.29h.87ZM268,368.38l-.06-2.04c1.38-.02,2.44-.23,3.16-.63s1.24-.94,1.53-1.61c.29-.67.43-1.41.43-2.21v-3.47c0-.19.06-.34.17-.46s.27-.18.48-.18h1.15c.19,0,.34.06.46.18s.18.28.18.46v3.58c0,1.21-.27,2.31-.81,3.28-.54.97-1.37,1.74-2.48,2.3-1.11.56-2.52.83-4.21.81Z"/>
        <path class="cls-3" d="M296.7,358.63h.7c.28,0,.49.07.63.21.14.14.2.31.18.52-.15.78-.28,1.49-.38,2.13s-.17,1.26-.21,1.89c-.04.63-.06,1.33-.06,2.11l.08,7.62c0,.19-.06.34-.18.46-.12.12-.28.18-.46.18l-3.98-.06c-.19,0-.34-.06-.46-.17-.12-.11-.18-.27-.18-.48v-.9c0-.19.06-.34.18-.46.12-.12.28-.18.46-.18l2.16.03v-5.94c0-.76,0-1.47.03-2.11.02-.64.08-1.29.17-1.95.09-.65.24-1.39.45-2.21.06-.21.14-.37.27-.5.12-.13.32-.2.6-.2ZM294.18,360.01c-.19,0-.34-.06-.46-.18-.12-.12-.18-.28-.18-.46v-.95c0-.19.06-.34.18-.46.12-.12.27-.18.46-.18h6.08c1.61,0,2.94.26,3.99.77s1.84,1.28,2.37,2.3.78,2.27.78,3.77v8.51c0,.19-.06.34-.18.46-.12.12-.28.18-.46.18h-1.26c-.21,0-.36-.06-.48-.18-.11-.12-.17-.28-.17-.46v-8.37c0-1.49-.37-2.66-1.12-3.49-.75-.83-1.95-1.25-3.61-1.25h-5.94Z"/>
        <path class="cls-3" d="M311.99,367.26c-.19,0-.34-.06-.46-.18-.12-.12-.18-.28-.18-.46v-8.2c0-.19.06-.34.18-.46.12-.12.28-.18.46-.18h1.34c.19,0,.34.06.45.18.11.12.17.28.17.46v8.2c0,.19-.06.34-.17.46-.11.12-.26.18-.45.18h-1.34Z"/>
        <path class="cls-3" d="M317.84,373.75c-.19,0-.34-.06-.46-.18-.12-.12-.18-.28-.18-.46v-.95c0-.19.06-.34.18-.46.12-.12.27-.18.46-.18h7.9v1.71c0,.19-.06.32-.18.41-.12.08-.28.13-.46.13h-7.25ZM324.03,373.75c-.19,0-.33-.06-.43-.18s-.17-.28-.21-.46l-.53-8.65c-.04-.91-.11-1.71-.21-2.38s-.33-1.19-.67-1.57c-.35-.37-.92-.56-1.72-.56h-1.15c-.19,0-.34-.06-.46-.18-.12-.12-.18-.27-.18-.46v-.95c0-.19.06-.34.18-.46s.28-.18.46-.18h1.18c1.06,0,1.92.15,2.58.46s1.16.76,1.53,1.34c.36.59.62,1.29.78,2.11.16.82.27,1.74.32,2.74l.53,8.74c.02.19-.04.34-.17.46-.13.12-.29.18-.48.18h-1.34Z"/>
        <path class="cls-3" d="M337.44,371.66c1.21.02,2.23-.21,3.07-.67.83-.47,1.47-1.13,1.9-2,.44-.87.66-1.86.66-2.98v-7.59c0-.19.06-.34.18-.46.12-.12.28-.18.46-.18h1.18c.19,0,.34.06.45.18s.17.28.17.46v7.78c0,1.19-.19,2.27-.56,3.23-.37.96-.91,1.78-1.6,2.46-.69.68-1.51,1.2-2.45,1.55-.94.35-1.98.51-3.12.48h-2.1c-1.21,0-2.31-.28-3.28-.84-.97-.56-1.74-1.34-2.3-2.35-.56-1.01-.84-2.17-.84-3.5v-8.82c0-.19.06-.34.18-.46.12-.12.28-.18.46-.18h1.18c.19,0,.34.06.46.18s.18.28.18.46l.08,8.26c0,1.61.45,2.84,1.34,3.7.9.86,2.03,1.29,3.42,1.29h.87ZM331.23,368.38l-.06-2.04c1.38-.02,2.44-.23,3.16-.63s1.24-.94,1.53-1.61c.29-.67.43-1.41.43-2.21v-3.47c0-.19.06-.34.17-.46s.27-.18.48-.18h1.15c.19,0,.34.06.46.18s.18.28.18.46v3.58c0,1.21-.27,2.31-.81,3.28-.54.97-1.37,1.74-2.48,2.3-1.11.56-2.52.83-4.21.81Z"/>
        <path class="cls-3" d="M348.95,360.01c-.19,0-.34-.06-.46-.18s-.18-.28-.18-.46v-.95c0-.19.06-.34.18-.46s.28-.18.46-.18h12.01c.19,0,.34.06.46.18.12.12.18.28.18.46v.95c0,.19-.06.34-.18.46-.12.12-.28.18-.46.18h-12.01ZM356.51,373.75c-.41,0-.62-.21-.62-.62v-10c0-1.1.13-1.96.39-2.58.26-.62.59-.92.98-.92h2.74c-.47,0-.84.36-1.13,1.06-.29.71-.43,1.59-.43,2.63v9.8c0,.19-.07.34-.2.45s-.29.17-.48.17h-1.26Z"/>
        <path class="cls-3" d="M365.67,373.75c-.19,0-.34-.06-.46-.18s-.18-.28-.18-.46v-14.7c0-.19.06-.34.18-.46s.28-.18.46-.18h5.46c1.61,0,2.94.26,3.99.77s1.84,1.28,2.37,2.3c.52,1.02.78,2.29.78,3.82v8.46c0,.19-.06.34-.18.46s-.28.18-.46.18h-1.26c-.21,0-.36-.06-.48-.18-.11-.12-.17-.28-.17-.46v-8.37c0-1.49-.37-2.66-1.12-3.49-.75-.83-1.95-1.25-3.61-1.25h-3.42v13.1c0,.19-.06.34-.17.46s-.26.18-.45.18h-1.29Z"/>
        <path class="cls-3" d="M39.97,392.24h.7c.28,0,.49.07.63.21.14.14.2.31.18.52-.15.78-.28,1.49-.38,2.13s-.17,1.26-.21,1.89c-.04.63-.06,1.33-.06,2.11l.08,7.62c0,.19-.06.34-.18.46-.12.12-.28.18-.46.18l-3.98-.06c-.19,0-.34-.06-.46-.17-.12-.11-.18-.27-.18-.48v-.9c0-.19.06-.34.18-.46.12-.12.28-.18.46-.18l2.16.03v-5.94c0-.76,0-1.47.03-2.11.02-.64.08-1.29.17-1.95.09-.65.24-1.39.45-2.21.06-.21.14-.37.27-.5.12-.13.32-.2.6-.2ZM37.45,393.61c-.19,0-.34-.06-.46-.18-.12-.12-.18-.28-.18-.46v-.95c0-.19.06-.34.18-.46.12-.12.27-.18.46-.18h6.08c1.61,0,2.94.26,3.99.77s1.84,1.28,2.37,2.3.78,2.27.78,3.77v8.51c0,.19-.06.34-.18.46-.12.12-.28.18-.46.18h-1.26c-.21,0-.36-.06-.48-.18-.11-.12-.17-.28-.17-.46v-8.37c0-1.49-.37-2.66-1.12-3.49-.75-.83-1.95-1.25-3.61-1.25h-5.94Z"/>
        <path class="cls-3" d="M55.45,407.36c-.19,0-.34-.06-.46-.18s-.18-.28-.18-.46v-14.7c0-.19.06-.34.18-.46s.28-.18.46-.18h1.32c.21,0,.36.06.48.18.11.12.17.28.17.46v14.7c0,.19-.06.34-.17.46-.11.12-.27.18-.48.18h-1.32Z"/>
        <path class="cls-3" d="M62.37,407.36c-.19,0-.34-.06-.46-.18s-.18-.28-.18-.46v-14.7c0-.19.06-.34.18-.46s.28-.18.46-.18h1.32c.21,0,.36.06.48.18.11.12.17.28.17.46v14.7c0,.19-.06.34-.17.46-.11.12-.27.18-.48.18h-1.32Z"/>
        <path class="cls-3" d="M68.7,407.36c-.19,0-.34-.06-.46-.18-.12-.12-.18-.28-.18-.46v-.98c0-.19.06-.34.18-.46.12-.12.28-.18.46-.18h7.59l-8.76-12.63c-.06-.11-.1-.21-.14-.29-.04-.08-.06-.16-.06-.24,0-.15.06-.28.18-.39.12-.11.26-.17.41-.17h1.34c.21,0,.36.05.48.15s.21.21.28.32l9.13,13.08c.09.13.17.27.24.41.07.14.1.29.1.46v.92c0,.19-.06.34-.18.46-.12.12-.28.18-.46.18h-10.14ZM75.78,400.97l-1.23-1.82c.99-.35,1.7-.94,2.13-1.75.43-.81.64-1.81.64-2.98v-2.41c0-.19.06-.34.18-.46.12-.12.28-.18.46-.18h1.18c.19,0,.34.06.45.18.11.12.17.28.17.46v2.74c0,1.51-.34,2.8-1.01,3.86-.67,1.06-1.66,1.85-2.97,2.35Z"/>
        <path class="cls-3" d="M94.85,407.36c-.19,0-.34-.06-.46-.18-.12-.12-.18-.28-.18-.46v-8.37c0-1.49-.37-2.66-1.12-3.49-.75-.83-1.95-1.25-3.61-1.25h-5.26c-.19,0-.34-.06-.46-.18s-.18-.28-.18-.46v-.95c0-.19.06-.34.18-.46s.28-.18.46-.18h5.4c2.43,0,4.22.59,5.39,1.76,1.17,1.18,1.75,2.88,1.75,5.12v8.46c0,.19-.06.34-.18.46-.12.12-.28.18-.46.18h-1.26ZM84.21,407.36c-.19,0-.34-.06-.46-.18s-.18-.28-.18-.46v-9.35c0-.19.06-.34.18-.46.12-.12.28-.18.46-.18h1.29c.19,0,.34.06.45.18.11.12.17.28.17.46v9.35c0,.19-.06.34-.17.46s-.26.18-.45.18h-1.29Z"/>
        <path class="cls-3" d="M108.21,400.86c-.19,0-.34-.06-.46-.18-.12-.12-.18-.28-.18-.46v-8.2c0-.19.06-.34.18-.46.12-.12.28-.18.46-.18h1.34c.19,0,.34.06.45.18.11.12.17.28.17.46v8.2c0,.19-.06.34-.17.46-.11.12-.26.18-.45.18h-1.34Z"/>
        <path class="cls-3" d="M122.26,405.26c1.21.02,2.23-.21,3.07-.67.83-.47,1.47-1.13,1.9-2,.44-.87.66-1.86.66-2.98v-7.59c0-.19.06-.34.18-.46.12-.12.28-.18.46-.18h1.18c.19,0,.34.06.45.18s.17.28.17.46v7.78c0,1.19-.19,2.27-.56,3.23-.37.96-.91,1.78-1.6,2.46-.69.68-1.51,1.2-2.45,1.55-.94.35-1.98.51-3.12.48h-2.1c-1.21,0-2.31-.28-3.28-.84-.97-.56-1.74-1.34-2.3-2.35-.56-1.01-.84-2.17-.84-3.5v-8.82c0-.19.06-.34.18-.46.12-.12.28-.18.46-.18h1.18c.19,0,.34.06.46.18s.18.28.18.46l.08,8.26c0,1.61.45,2.84,1.34,3.7.9.86,2.03,1.29,3.42,1.29h.87ZM116.05,401.98l-.06-2.04c1.38-.02,2.44-.23,3.16-.63s1.24-.94,1.53-1.61c.29-.67.43-1.41.43-2.21v-3.47c0-.19.06-.34.17-.46s.27-.18.48-.18h1.15c.19,0,.34.06.46.18s.18.28.18.46v3.58c0,1.21-.27,2.31-.81,3.28-.54.97-1.37,1.74-2.48,2.3-1.11.56-2.52.83-4.21.81Z"/>
        <path class="cls-3" d="M134,407.36c-.19,0-.34-.06-.46-.18-.12-.12-.18-.28-.18-.46v-.95c0-.19.06-.34.18-.46.12-.12.27-.18.46-.18h7.9v1.71c0,.19-.06.32-.18.41-.12.08-.28.13-.46.13h-7.25ZM140.18,407.36c-.19,0-.33-.06-.43-.18s-.17-.28-.21-.46l-.53-8.65c-.04-.91-.11-1.71-.21-2.38s-.33-1.19-.67-1.57c-.35-.37-.92-.56-1.72-.56h-1.15c-.19,0-.34-.06-.46-.18-.12-.12-.18-.27-.18-.46v-.95c0-.19.06-.34.18-.46s.28-.18.46-.18h1.18c1.06,0,1.92.15,2.58.46s1.16.76,1.53,1.34c.36.59.62,1.29.78,2.11.16.82.27,1.74.32,2.74l.53,8.74c.02.19-.04.34-.17.46-.13.12-.29.18-.48.18h-1.34Z"/>
        <path class="cls-3" d="M145.61,407.36c-.19,0-.34-.06-.46-.18-.12-.12-.18-.28-.18-.46v-4.2c0-.86.08-1.68.25-2.45s.5-1.51.99-2.21c.49-.7,1.24-1.36,2.23-1.97l1.29,1.88c-.67.43-1.18.92-1.51,1.47s-.56,1.12-.67,1.71c-.11.59-.17,1.15-.17,1.69v4.09c0,.19-.06.34-.18.46-.12.12-.28.18-.46.18h-1.12ZM156.53,407.36c-.21,0-.36-.06-.48-.17-.11-.11-.21-.21-.31-.31l-10.28-14.42c-.13-.21-.2-.38-.2-.53s.06-.28.18-.39c.12-.11.26-.17.41-.17h1.32c.21,0,.37.06.49.17.12.11.22.21.29.31l10.3,14.42c.07.13.13.23.15.31.03.08.04.15.04.22,0,.15-.06.28-.17.39-.11.11-.24.17-.39.17h-1.37ZM154.29,402.23l-1.15-1.93c.91-.43,1.56-.88,1.95-1.34.38-.47.61-.96.69-1.47.07-.51.11-1.05.11-1.61v-3.86c0-.19.06-.34.18-.46s.28-.18.46-.18h1.18c.19,0,.34.06.46.18.12.12.18.28.18.46v4c0,.78-.09,1.54-.28,2.27-.19.73-.56,1.41-1.13,2.06-.57.64-1.45,1.27-2.65,1.89Z"/>
        <path class="cls-3" d="M172.61,392.24h.7c.28,0,.49.07.63.21.14.14.2.31.18.52-.15.78-.28,1.49-.38,2.13s-.17,1.26-.21,1.89c-.04.63-.06,1.33-.06,2.11l.08,7.62c0,.19-.06.34-.18.46-.12.12-.28.18-.46.18l-3.98-.06c-.19,0-.34-.06-.46-.17-.12-.11-.18-.27-.18-.48v-.9c0-.19.06-.34.18-.46.12-.12.28-.18.46-.18l2.16.03v-5.94c0-.76,0-1.47.03-2.11.02-.64.08-1.29.17-1.95.09-.65.24-1.39.45-2.21.06-.21.14-.37.27-.5.12-.13.32-.2.6-.2ZM170.09,393.61c-.19,0-.34-.06-.46-.18-.12-.12-.18-.28-.18-.46v-.95c0-.19.06-.34.18-.46.12-.12.27-.18.46-.18h6.08c1.61,0,2.94.26,3.99.77s1.84,1.28,2.37,2.3.78,2.27.78,3.77v8.51c0,.19-.06.34-.18.46-.12.12-.28.18-.46.18h-1.26c-.21,0-.36-.06-.48-.18-.11-.12-.17-.28-.17-.46v-8.37c0-1.49-.37-2.66-1.12-3.49-.75-.83-1.95-1.25-3.61-1.25h-5.94Z"/>
        <path class="cls-3" d="M188.09,407.36c-.19,0-.34-.06-.46-.18s-.18-.28-.18-.46v-14.7c0-.19.06-.34.18-.46s.28-.18.46-.18h1.32c.21,0,.36.06.48.18.11.12.17.28.17.46v14.7c0,.19-.06.34-.17.46-.11.12-.27.18-.48.18h-1.32Z"/>
        <path class="cls-3" d="M195.01,407.36c-.19,0-.34-.06-.46-.18s-.18-.28-.18-.46v-1.01c0-.19.06-.34.18-.46.12-.12.28-.18.46-.18h4c1.66,0,2.86-.42,3.58-1.25.73-.83,1.13-1.99,1.2-3.49.02-.41.03-.74.03-.98s0-.56-.03-.95c-.06-1.49-.45-2.66-1.19-3.49-.74-.83-1.94-1.25-3.6-1.25h-4c-.19,0-.34-.06-.46-.18-.12-.12-.18-.28-.18-.46v-1.01c0-.19.06-.34.18-.46s.28-.18.46-.18h4.14c1.64,0,2.98.28,4,.83,1.03.55,1.8,1.34,2.31,2.38s.79,2.28.83,3.74c.02.37.03.72.03,1.04s0,.67-.03,1.06c-.04,1.44-.31,2.68-.83,3.72-.51,1.04-1.28,1.84-2.31,2.39-1.03.55-2.36.83-4,.83h-4.14Z"/>
        <path class="cls-3" d="M209.57,393.61c-.19,0-.34-.06-.46-.18-.12-.12-.18-.28-.18-.46v-.95c0-.19.06-.34.18-.46.12-.12.28-.18.46-.18h6.78c.21,0,.36.06.48.18s.17.28.17.46v.95c0,.19-.06.34-.17.46s-.27.18-.48.18h-6.78ZM211.92,407.36c-.41,0-.62-.21-.62-.62v-10c0-1.1.13-1.96.39-2.58.26-.62.58-.92.95-.92h2.77c-.47,0-.85.36-1.13,1.06-.29.71-.43,1.59-.43,2.63v9.8c0,.19-.07.34-.2.45s-.29.17-.48.17h-1.26Z"/>
        <path class="cls-3" d="M220.63,407.36c-.19,0-.34-.06-.46-.18-.12-.12-.18-.28-.18-.46v-.95c0-.19.06-.34.18-.46.12-.12.28-.18.46-.18h8.04v-6.78c0-1.49-.37-2.66-1.12-3.49-.75-.83-1.95-1.25-3.61-1.25h-3.02c-.19,0-.34-.06-.46-.18-.12-.12-.18-.28-.18-.46v-.95c0-.19.06-.34.18-.46.12-.12.27-.18.46-.18h3.16c1.6,0,2.94.26,4,.78,1.06.52,1.86,1.29,2.39,2.31.53,1.02.8,2.28.8,3.79v6.86h1.04c.19,0,.34.06.46.18s.18.28.18.46v.95c0,.19-.06.34-.18.46s-.28.18-.46.18h-11.68Z"/>
        <path class="cls-3" d="M253.67,407.36c-.19,0-.34-.06-.46-.18-.12-.12-.18-.28-.18-.46v-8.37c0-1.49-.37-2.66-1.12-3.49-.75-.83-1.95-1.25-3.61-1.25h-5.26c-.19,0-.34-.06-.46-.18s-.18-.28-.18-.46v-.95c0-.19.06-.34.18-.46s.28-.18.46-.18h5.4c2.43,0,4.22.59,5.39,1.76,1.17,1.18,1.75,2.88,1.75,5.12v8.46c0,.19-.06.34-.18.46-.12.12-.28.18-.46.18h-1.26ZM243.03,407.36c-.19,0-.34-.06-.46-.18s-.18-.28-.18-.46v-9.35c0-.19.06-.34.18-.46.12-.12.28-.18.46-.18h1.29c.19,0,.34.06.45.18.11.12.17.28.17.46v9.35c0,.19-.06.34-.17.46s-.26.18-.45.18h-1.29Z"/>
        <path class="cls-3" d="M268.14,407.36c-.19,0-.34-.06-.46-.18-.12-.12-.18-.28-.18-.46v-8.37c0-1.49-.37-2.66-1.12-3.49-.75-.83-1.95-1.25-3.61-1.25h-3.67c-.19,0-.34-.06-.46-.18-.12-.12-.18-.28-.18-.46v-.95c0-.19.06-.34.18-.46.12-.12.27-.18.46-.18h3.81c1.61,0,2.94.25,3.99.76,1.05.5,1.84,1.27,2.37,2.28.52,1.02.78,2.28.78,3.79v8.51c0,.19-.06.34-.18.46s-.28.18-.46.18h-1.26Z"/>
        <path class="cls-3" d="M274.83,407.36c-.19,0-.34-.06-.46-.18s-.18-.28-.18-.46v-14.7c0-.19.06-.34.18-.46s.28-.18.46-.18h1.32c.21,0,.36.06.48.18.11.12.17.28.17.46v14.7c0,.19-.06.34-.17.46-.11.12-.27.18-.48.18h-1.32Z"/>
        <path class="cls-3" d="M287.13,407.61c-.17.06-.32.03-.46-.07s-.21-.25-.21-.43v-1.29c0-.17.05-.32.15-.45.1-.13.26-.23.46-.31l1.06-.42c.75-.32,1.42-.7,2.03-1.15.61-.45,1.08-1.06,1.43-1.85s.52-1.81.52-3.08-.15-2.18-.45-2.9c-.3-.72-.79-1.23-1.47-1.54-.68-.31-1.6-.46-2.76-.46h-5.68c-.19,0-.34-.06-.46-.18-.12-.12-.18-.28-.18-.46v-1.01c0-.19.06-.34.18-.46s.28-.18.46-.18h6.05c1.72,0,3.08.24,4.07.73,1,.49,1.72,1.26,2.16,2.34s.66,2.48.66,4.21c0,1.31-.18,2.44-.53,3.39s-.84,1.76-1.44,2.44-1.29,1.23-2.04,1.67-1.54.8-2.37,1.08l-1.18.39ZM281.75,412.7c-.19,0-.34-.06-.46-.18-.12-.12-.18-.28-.18-.46v-14.7c0-.19.06-.34.18-.46.12-.12.28-.18.46-.18h1.23c.21,0,.36.06.48.18.11.12.17.28.17.46v14.7c0,.19-.06.34-.17.46-.11.12-.27.18-.48.18h-1.23Z"/>
        <path class="cls-3" d="M306.14,407.36c-.19,0-.34-.06-.46-.18s-.18-.28-.18-.46v-14.7c0-.19.06-.34.18-.46s.28-.18.46-.18h5.35c1.6,0,2.93.26,3.98.77,1.04.51,1.82,1.27,2.34,2.28.51,1.01.77,2.27.77,3.78v8.51c0,.19-.06.34-.17.46-.11.12-.27.18-.48.18h-11.79ZM307.9,405.12h8.18v-6.78c0-1.49-.37-2.66-1.12-3.49-.75-.83-1.95-1.25-3.61-1.25h-3.44v11.51Z"/>
        <path class="cls-3" d="M329.49,407.64c-2.33,0-4.07-.61-5.21-1.83-1.14-1.22-1.71-2.94-1.71-5.17v-8.62c0-.19.06-.34.18-.46s.28-.18.46-.18h6.75c1.66,0,2.99.25,3.98.76.99.5,1.71,1.25,2.17,2.23.46.98.71,2.19.77,3.63.02.19.03.49.03.9v1.23c0,.41,0,.71-.03.9-.04,1.42-.31,2.63-.81,3.63-.5,1-1.29,1.75-2.37,2.25-1.07.5-2.48.76-4.21.76ZM329.49,405.34c1.77,0,3.02-.37,3.75-1.11.73-.74,1.11-1.86,1.15-3.37.02-.19.03-.47.03-.84v-1.09c0-.35,0-.62-.03-.81-.04-1.49-.46-2.62-1.27-3.37-.81-.76-1.91-1.13-3.29-1.13h-4.79v7.03c0,1.49.37,2.65,1.11,3.47s1.85,1.23,3.35,1.23Z"/>
        <path class="cls-3" d="M346.6,407.61c-.17.06-.32.03-.46-.07s-.21-.25-.21-.43v-1.29c0-.17.05-.32.15-.45.1-.13.26-.23.46-.31l1.06-.42c.75-.32,1.42-.7,2.03-1.15.61-.45,1.08-1.06,1.43-1.85s.52-1.81.52-3.08-.15-2.18-.45-2.9c-.3-.72-.79-1.23-1.47-1.54-.68-.31-1.6-.46-2.76-.46h-5.68c-.19,0-.34-.06-.46-.18-.12-.12-.18-.28-.18-.46v-1.01c0-.19.06-.34.18-.46s.28-.18.46-.18h6.05c1.72,0,3.08.24,4.07.73,1,.49,1.72,1.26,2.16,2.34s.66,2.48.66,4.21c0,1.31-.18,2.44-.53,3.39s-.84,1.76-1.44,2.44-1.29,1.23-2.04,1.67-1.54.8-2.37,1.08l-1.18.39ZM341.22,412.7c-.19,0-.34-.06-.46-.18-.12-.12-.18-.28-.18-.46v-14.7c0-.19.06-.34.18-.46.12-.12.28-.18.46-.18h1.23c.21,0,.36.06.48.18.11.12.17.28.17.46v14.7c0,.19-.06.34-.17.46-.11.12-.27.18-.48.18h-1.23Z"/>
        <path class="cls-3" d="M369.39,407.36c-.19,0-.34-.06-.46-.18-.12-.12-.18-.28-.18-.46v-8.37c0-1.49-.37-2.66-1.12-3.49-.75-.83-1.95-1.25-3.61-1.25h-5.26c-.19,0-.34-.06-.46-.18s-.18-.28-.18-.46v-.95c0-.19.06-.34.18-.46s.28-.18.46-.18h5.4c2.43,0,4.22.59,5.39,1.76,1.17,1.18,1.75,2.88,1.75,5.12v8.46c0,.19-.06.34-.18.46-.12.12-.28.18-.46.18h-1.26ZM358.75,407.36c-.19,0-.34-.06-.46-.18s-.18-.28-.18-.46v-9.35c0-.19.06-.34.18-.46.12-.12.28-.18.46-.18h1.29c.19,0,.34.06.45.18.11.12.17.28.17.46v9.35c0,.19-.06.34-.17.46s-.26.18-.45.18h-1.29Z"/>
        <path class="cls-3" d="M71.29,425.83h.7c.28,0,.49.07.63.21.14.14.2.31.18.52-.15.78-.28,1.49-.38,2.13s-.17,1.26-.21,1.89c-.04.63-.06,1.33-.06,2.11l.08,7.62c0,.19-.06.34-.18.46-.12.12-.28.18-.46.18l-3.98-.06c-.19,0-.34-.06-.46-.17-.12-.11-.18-.27-.18-.48v-.9c0-.19.06-.34.18-.46.12-.12.28-.18.46-.18l2.16.03v-5.94c0-.76,0-1.47.03-2.11.02-.64.08-1.29.17-1.95.09-.65.24-1.39.45-2.21.06-.21.14-.37.27-.5.12-.13.32-.2.6-.2ZM68.77,427.21c-.19,0-.34-.06-.46-.18-.12-.12-.18-.28-.18-.46v-.95c0-.19.06-.34.18-.46.12-.12.27-.18.46-.18h6.08c1.61,0,2.94.26,3.99.77s1.84,1.28,2.37,2.3.78,2.27.78,3.77v8.51c0,.19-.06.34-.18.46-.12.12-.28.18-.46.18h-1.26c-.21,0-.36-.06-.48-.18-.11-.12-.17-.28-.17-.46v-8.37c0-1.49-.37-2.66-1.12-3.49-.75-.83-1.95-1.25-3.61-1.25h-5.94Z"/>
        <path class="cls-3" d="M86.77,440.96c-.19,0-.34-.06-.46-.18s-.18-.28-.18-.46v-14.7c0-.19.06-.34.18-.46s.28-.18.46-.18h1.32c.21,0,.36.06.48.18.11.12.17.28.17.46v14.7c0,.19-.06.34-.17.46-.11.12-.27.18-.48.18h-1.32Z"/>
        <path class="cls-3" d="M93.69,440.96c-.19,0-.34-.06-.46-.18s-.18-.28-.18-.46v-1.01c0-.19.06-.34.18-.46.12-.12.28-.18.46-.18h4c1.66,0,2.86-.42,3.58-1.25.73-.83,1.13-1.99,1.2-3.49.02-.41.03-.74.03-.98s0-.56-.03-.95c-.06-1.49-.45-2.66-1.19-3.49-.74-.83-1.94-1.25-3.6-1.25h-4c-.19,0-.34-.06-.46-.18-.12-.12-.18-.28-.18-.46v-1.01c0-.19.06-.34.18-.46s.28-.18.46-.18h4.14c1.64,0,2.98.28,4,.83,1.03.55,1.8,1.34,2.31,2.38s.79,2.28.83,3.74c.02.37.03.72.03,1.04s0,.67-.03,1.06c-.04,1.44-.31,2.68-.83,3.72-.51,1.04-1.28,1.84-2.31,2.39-1.03.55-2.36.83-4,.83h-4.14Z"/>
        <path class="cls-3" d="M109.12,434.46c-.19,0-.34-.06-.46-.18-.12-.12-.18-.28-.18-.46v-8.2c0-.19.06-.34.18-.46.12-.12.28-.18.46-.18h1.34c.19,0,.34.06.45.18.11.12.17.28.17.46v8.2c0,.19-.06.34-.17.46-.11.12-.26.18-.45.18h-1.34Z"/>
        <path class="cls-3" d="M115.19,440.96c-.19,0-.34-.06-.46-.18-.12-.12-.18-.28-.18-.46v-4.2c0-.86.08-1.68.25-2.45s.5-1.51.99-2.21c.49-.7,1.24-1.36,2.23-1.97l1.29,1.88c-.67.43-1.18.92-1.51,1.47s-.56,1.12-.67,1.71c-.11.59-.17,1.15-.17,1.69v4.09c0,.19-.06.34-.18.46-.12.12-.28.18-.46.18h-1.12ZM126.11,440.96c-.21,0-.36-.06-.48-.17-.11-.11-.21-.21-.31-.31l-10.28-14.42c-.13-.21-.2-.38-.2-.53s.06-.28.18-.39c.12-.11.26-.17.41-.17h1.32c.21,0,.37.06.49.17.12.11.22.21.29.31l10.3,14.42c.07.13.13.23.15.31.03.08.04.15.04.22,0,.15-.06.28-.17.39-.11.11-.24.17-.39.17h-1.37ZM123.87,435.83l-1.15-1.93c.91-.43,1.56-.88,1.95-1.34.38-.47.61-.96.69-1.47.07-.51.11-1.05.11-1.61v-3.86c0-.19.06-.34.18-.46s.28-.18.46-.18h1.18c.19,0,.34.06.46.18.12.12.18.28.18.46v4c0,.78-.09,1.54-.28,2.27-.19.73-.56,1.41-1.13,2.06-.57.64-1.45,1.27-2.65,1.89Z"/>
        <path class="cls-3" d="M141.43,427.26l-3.33-.03c-.19,0-.34-.06-.46-.17-.12-.11-.18-.26-.18-.45v-4.9c0-.19.06-.34.18-.46s.27-.18.46-.18h1.18c.21,0,.36.06.48.18.11.12.17.28.17.46v3.25h1.57l-.06,2.3ZM141.37,441.21c-.17.06-.33.03-.48-.07s-.22-.25-.22-.43v-1.29c0-.17.05-.32.15-.45.1-.13.26-.23.46-.31l1.09-.42c.73-.32,1.39-.7,2-1.15.61-.45,1.08-1.06,1.43-1.85.34-.78.52-1.81.52-3.08s-.14-2.18-.43-2.9c-.29-.72-.77-1.23-1.46-1.54-.68-.31-1.61-.46-2.79-.46h-.84c-.19,0-.34-.06-.46-.18-.12-.12-.18-.28-.18-.46v-1.01c0-.19.06-.34.18-.46.12-.12.28-.18.46-.18h1.23c1.7,0,3.05.24,4.06.73s1.73,1.26,2.17,2.34.66,2.48.66,4.21c0,1.31-.18,2.44-.53,3.39s-.84,1.76-1.44,2.44-1.29,1.23-2.06,1.67-1.56.8-2.38,1.08l-1.15.39Z"/>
        <path class="cls-3" d="M152.43,442.5c-.19.07-.36.06-.53-.04s-.25-.25-.25-.43v-.95c0-.17.04-.33.11-.48s.2-.25.36-.31l5.91-1.93c1.06-.35,1.88-.81,2.46-1.37.58-.56.98-1.21,1.22-1.96.23-.75.35-1.56.35-2.44v-6.97c0-.19.06-.34.18-.46.12-.12.28-.18.46-.18h1.26c.21,0,.36.06.48.18.11.12.17.28.17.46v7.76c0,1.08-.24,2.1-.73,3.07-.49.96-1.18,1.8-2.09,2.52s-1.97,1.26-3.21,1.64l-6.16,1.9ZM156.1,440.28l-3.95-14.2c-.04-.15-.07-.26-.1-.34-.03-.07-.04-.15-.04-.22,0-.15.06-.28.17-.39.11-.11.24-.17.39-.17h1.37c.35,0,.57.14.64.42l3.89,14.25-2.38.64Z"/>
        <path class="cls-3" d="M176.26,440.96c-.19,0-.34-.06-.46-.18s-.18-.28-.18-.46v-14.7c0-.19.06-.34.18-.46s.28-.18.46-.18h5.35c1.6,0,2.93.26,3.98.77,1.04.51,1.82,1.27,2.34,2.28.51,1.01.77,2.27.77,3.78v8.51c0,.19-.06.34-.17.46-.11.12-.27.18-.48.18h-11.79ZM178.03,438.71h8.18v-6.78c0-1.49-.37-2.66-1.12-3.49-.75-.83-1.95-1.25-3.61-1.25h-3.44v11.51Z"/>
        <path class="cls-3" d="M193.31,434.46c-.19,0-.34-.06-.46-.18-.12-.12-.18-.28-.18-.46v-8.2c0-.19.06-.34.18-.46.12-.12.28-.18.46-.18h1.34c.19,0,.34.06.45.18.11.12.17.28.17.46v8.2c0,.19-.06.34-.17.46-.11.12-.26.18-.45.18h-1.34Z"/>
        <path class="cls-3" d="M208.46,440.96c-.19,0-.34-.06-.46-.18-.12-.12-.18-.28-.18-.46v-8.37c0-1.49-.37-2.66-1.12-3.49-.75-.83-1.95-1.25-3.61-1.25h-3.67c-.19,0-.34-.06-.46-.18-.12-.12-.18-.28-.18-.46v-.95c0-.19.06-.34.18-.46.12-.12.27-.18.46-.18h3.81c1.61,0,2.94.25,3.99.76,1.05.5,1.84,1.27,2.37,2.28.52,1.02.78,2.28.78,3.79v8.51c0,.19-.06.34-.18.46s-.28.18-.46.18h-1.26Z"/>
        <path class="cls-3" d="M222.46,438.86c1.21.02,2.23-.21,3.07-.67.83-.47,1.47-1.13,1.9-2,.44-.87.66-1.86.66-2.98v-7.59c0-.19.06-.34.18-.46.12-.12.28-.18.46-.18h1.18c.19,0,.34.06.45.18s.17.28.17.46v7.78c0,1.19-.19,2.27-.56,3.23-.37.96-.91,1.78-1.6,2.46-.69.68-1.51,1.2-2.45,1.55-.94.35-1.98.51-3.12.48h-2.1c-1.21,0-2.31-.28-3.28-.84-.97-.56-1.74-1.34-2.3-2.35-.56-1.01-.84-2.17-.84-3.5v-8.82c0-.19.06-.34.18-.46.12-.12.28-.18.46-.18h1.18c.19,0,.34.06.46.18s.18.28.18.46l.08,8.26c0,1.61.45,2.84,1.34,3.7.9.86,2.03,1.29,3.42,1.29h.87ZM216.24,435.58l-.06-2.04c1.38-.02,2.44-.23,3.16-.63s1.24-.94,1.53-1.61c.29-.67.43-1.41.43-2.21v-3.47c0-.19.06-.34.17-.46s.27-.18.48-.18h1.15c.19,0,.34.06.46.18s.18.28.18.46v3.58c0,1.21-.27,2.31-.81,3.28-.54.97-1.37,1.74-2.48,2.3-1.11.56-2.52.83-4.21.81Z"/>
        <path class="cls-3" d="M236.71,427.26v2.18c.02.67.11,1.23.27,1.68.16.45.44.73.85.84l1.04.28c.15.04.27.14.35.29.08.16.13.35.13.57v.7c0,.21-.1.35-.31.45-.21.09-.43.12-.67.08l-1.09-.22c-.6-.15-1.11-.42-1.54-.8-.43-.38-.75-.91-.97-1.57-.21-.66-.32-1.46-.32-2.39v-3.75c0-.19.06-.34.17-.46.11-.12.27-.18.48-.18h5.18c1.4,0,2.57.28,3.5.83.93.55,1.64,1.34,2.13,2.38.48,1.04.75,2.28.78,3.74.02.28.03.63.03,1.05s0,.77-.03,1.05c-.04,1.44-.3,2.68-.78,3.72-.49,1.04-1.2,1.84-2.13,2.39-.93.55-2.1.83-3.5.83h-4.84c-.19,0-.34-.06-.46-.18s-.18-.28-.18-.46v-1.01c0-.19.06-.34.18-.46.12-.12.28-.18.46-.18h4.7c1.29,0,2.28-.42,2.98-1.25.7-.83,1.09-1.99,1.16-3.49.02-.28.03-.6.03-.97s0-.69-.03-.97c-.04-1.49-.42-2.66-1.13-3.49-.72-.83-1.72-1.25-3.01-1.25h-3.42Z"/>
        <path class="cls-3" d="M253.9,425.83h.7c.28,0,.49.07.63.21.14.14.2.31.18.52-.15.78-.28,1.49-.38,2.13s-.17,1.26-.21,1.89c-.04.63-.06,1.33-.06,2.11l.08,7.62c0,.19-.06.34-.18.46-.12.12-.28.18-.46.18l-3.98-.06c-.19,0-.34-.06-.46-.17-.12-.11-.18-.27-.18-.48v-.9c0-.19.06-.34.18-.46.12-.12.28-.18.46-.18l2.16.03v-5.94c0-.76,0-1.47.03-2.11.02-.64.08-1.29.17-1.95.09-.65.24-1.39.45-2.21.06-.21.14-.37.27-.5.12-.13.32-.2.6-.2ZM251.38,427.21c-.19,0-.34-.06-.46-.18-.12-.12-.18-.28-.18-.46v-.95c0-.19.06-.34.18-.46.12-.12.27-.18.46-.18h6.08c1.61,0,2.94.26,3.99.77s1.84,1.28,2.37,2.3.78,2.27.78,3.77v8.51c0,.19-.06.34-.18.46-.12.12-.28.18-.46.18h-1.26c-.21,0-.36-.06-.48-.18-.11-.12-.17-.28-.17-.46v-8.37c0-1.49-.37-2.66-1.12-3.49-.75-.83-1.95-1.25-3.61-1.25h-5.94Z"/>
        <path class="cls-3" d="M268.66,440.96c-.17,0-.31-.07-.42-.2-.11-.13-.16-.29-.14-.48l2.38-13.72c.04-.19.12-.33.25-.43.13-.1.29-.13.48-.1l1.12.06c.19.02.34.1.45.24.11.14.15.3.11.49l-2.24,13.47c-.02.19-.1.35-.24.48-.14.13-.3.2-.49.2h-1.26ZM275.74,427.26h-6.8c-.21,0-.36-.06-.48-.18-.11-.12-.17-.28-.17-.46v-1.01c0-.19.06-.34.17-.46s.27-.18.48-.18h7.11c1.16,0,2.19.27,3.09.81s1.62,1.32,2.13,2.34c.51,1.02.77,2.25.77,3.68v8.51c0,.19-.06.34-.17.46s-.27.18-.48.18h-7.22c-.19,0-.34-.06-.46-.18-.12-.12-.18-.28-.18-.46v-.95c0-.19.06-.34.18-.46.12-.12.28-.18.46-.18h5.32v-6.75c0-.95-.16-1.78-.49-2.49-.33-.71-.77-1.25-1.34-1.64-.57-.38-1.21-.57-1.92-.57Z"/>
        <path class="cls-3" d="M293.02,440.96c-.19,0-.34-.06-.46-.18-.12-.12-.18-.28-.18-.46v-4.2c0-.86.08-1.68.25-2.45s.5-1.51.99-2.21c.49-.7,1.24-1.36,2.23-1.97l1.29,1.88c-.67.43-1.18.92-1.51,1.47s-.56,1.12-.67,1.71c-.11.59-.17,1.15-.17,1.69v4.09c0,.19-.06.34-.18.46-.12.12-.28.18-.46.18h-1.12ZM303.94,440.96c-.21,0-.36-.06-.48-.17-.11-.11-.21-.21-.31-.31l-10.28-14.42c-.13-.21-.2-.38-.2-.53s.06-.28.18-.39c.12-.11.26-.17.41-.17h1.32c.21,0,.37.06.49.17.12.11.22.21.29.31l10.3,14.42c.07.13.13.23.15.31.03.08.04.15.04.22,0,.15-.06.28-.17.39-.11.11-.24.17-.39.17h-1.37ZM301.7,435.83l-1.15-1.93c.91-.43,1.56-.88,1.95-1.34.38-.47.61-.96.69-1.47.07-.51.11-1.05.11-1.61v-3.86c0-.19.06-.34.18-.46s.28-.18.46-.18h1.18c.19,0,.34.06.46.18.12.12.18.28.18.46v4c0,.78-.09,1.54-.28,2.27-.19.73-.56,1.41-1.13,2.06-.57.64-1.45,1.27-2.65,1.89Z"/>
        <path class="cls-3" d="M313.01,427.26l-3.33-.03c-.19,0-.34-.06-.46-.17-.12-.11-.18-.26-.18-.45v-4.9c0-.19.06-.34.18-.46s.27-.18.46-.18h1.18c.21,0,.36.06.48.18.11.12.17.28.17.46v3.25h1.57l-.06,2.3ZM312.96,441.21c-.17.06-.33.03-.48-.07s-.22-.25-.22-.43v-1.29c0-.17.05-.32.15-.45.1-.13.26-.23.46-.31l1.09-.42c.73-.32,1.39-.7,2-1.15.61-.45,1.08-1.06,1.43-1.85.34-.78.52-1.81.52-3.08s-.14-2.18-.43-2.9c-.29-.72-.77-1.23-1.46-1.54-.68-.31-1.61-.46-2.79-.46h-.84c-.19,0-.34-.06-.46-.18-.12-.12-.18-.28-.18-.46v-1.01c0-.19.06-.34.18-.46.12-.12.28-.18.46-.18h1.23c1.7,0,3.05.24,4.06.73s1.73,1.26,2.17,2.34.66,2.48.66,4.21c0,1.31-.18,2.44-.53,3.39s-.84,1.76-1.44,2.44-1.29,1.23-2.06,1.67-1.56.8-2.38,1.08l-1.15.39Z"/>
        <path class="cls-3" d="M332.14,438.86c1.21.02,2.23-.21,3.07-.67.83-.47,1.47-1.13,1.9-2,.44-.87.66-1.86.66-2.98v-7.59c0-.19.06-.34.18-.46.12-.12.28-.18.46-.18h1.18c.19,0,.34.06.45.18s.17.28.17.46v7.78c0,1.19-.19,2.27-.56,3.23-.37.96-.91,1.78-1.6,2.46-.69.68-1.51,1.2-2.45,1.55-.94.35-1.98.51-3.12.48h-2.1c-1.21,0-2.31-.28-3.28-.84-.97-.56-1.74-1.34-2.3-2.35-.56-1.01-.84-2.17-.84-3.5v-8.82c0-.19.06-.34.18-.46.12-.12.28-.18.46-.18h1.18c.19,0,.34.06.46.18s.18.28.18.46l.08,8.26c0,1.61.45,2.84,1.34,3.7.9.86,2.03,1.29,3.42,1.29h.87ZM325.92,435.58l-.06-2.04c1.38-.02,2.44-.23,3.16-.63s1.24-.94,1.53-1.61c.29-.67.43-1.41.43-2.21v-3.47c0-.19.06-.34.17-.46s.27-.18.48-.18h1.15c.19,0,.34.06.46.18s.18.28.18.46v3.58c0,1.21-.27,2.31-.81,3.28-.54.97-1.37,1.74-2.48,2.3-1.11.56-2.52.83-4.21.81Z"/>
        <path class="cls-3" d="M52.22,474.55c-.19,0-.34-.06-.46-.18-.12-.12-.18-.28-.18-.46v-8.37c0-1.49-.37-2.66-1.12-3.49-.75-.83-1.95-1.25-3.61-1.25h-5.26c-.19,0-.34-.06-.46-.18s-.18-.28-.18-.46v-.95c0-.19.06-.34.18-.46s.28-.18.46-.18h5.4c2.43,0,4.22.59,5.39,1.76,1.17,1.18,1.75,2.88,1.75,5.12v8.46c0,.19-.06.34-.18.46-.12.12-.28.18-.46.18h-1.26ZM41.58,474.55c-.19,0-.34-.06-.46-.18s-.18-.28-.18-.46v-9.35c0-.19.06-.34.18-.46.12-.12.28-.18.46-.18h1.29c.19,0,.34.06.45.18.11.12.17.28.17.46v9.35c0,.19-.06.34-.17.46s-.26.18-.45.18h-1.29Z"/>
        <path class="cls-3" d="M58.24,474.55c-.19,0-.34-.06-.46-.18-.12-.12-.18-.28-.18-.46v-4.2c0-.86.08-1.68.25-2.45s.5-1.51.99-2.21c.49-.7,1.24-1.36,2.23-1.97l1.29,1.88c-.67.43-1.18.92-1.51,1.47s-.56,1.12-.67,1.71c-.11.59-.17,1.15-.17,1.69v4.09c0,.19-.06.34-.18.46-.12.12-.28.18-.46.18h-1.12ZM69.16,474.55c-.21,0-.36-.06-.48-.17-.11-.11-.21-.21-.31-.31l-10.28-14.42c-.13-.21-.2-.38-.2-.53s.06-.28.18-.39c.12-.11.26-.17.41-.17h1.32c.21,0,.37.06.49.17.12.11.22.21.29.31l10.3,14.42c.07.13.13.23.15.31.03.08.04.15.04.22,0,.15-.06.28-.17.39-.11.11-.24.17-.39.17h-1.37ZM66.92,469.43l-1.15-1.93c.91-.43,1.56-.88,1.95-1.34.38-.47.61-.96.69-1.47.07-.51.11-1.05.11-1.61v-3.86c0-.19.06-.34.18-.46s.28-.18.46-.18h1.18c.19,0,.34.06.46.18.12.12.18.28.18.46v4c0,.78-.09,1.54-.28,2.27-.19.73-.56,1.41-1.13,2.06-.57.64-1.45,1.27-2.65,1.89Z"/>
        <path class="cls-3" d="M75.18,468.06c-.19,0-.34-.06-.46-.18-.12-.12-.18-.28-.18-.46v-8.2c0-.19.06-.34.18-.46.12-.12.28-.18.46-.18h1.34c.19,0,.34.06.45.18.11.12.17.28.17.46v8.2c0,.19-.06.34-.17.46-.11.12-.26.18-.45.18h-1.34Z"/>
        <path class="cls-3" d="M81.26,474.55c-.19,0-.34-.06-.46-.18-.12-.12-.18-.28-.18-.46v-.95c0-.19.06-.34.18-.46.12-.12.28-.18.46-.18h8.04v-6.78c0-1.49-.37-2.66-1.12-3.49-.75-.83-1.95-1.25-3.61-1.25h-3.02c-.19,0-.34-.06-.46-.18-.12-.12-.18-.28-.18-.46v-.95c0-.19.06-.34.18-.46.12-.12.27-.18.46-.18h3.16c1.6,0,2.94.26,4,.78,1.06.52,1.86,1.29,2.39,2.31.53,1.02.8,2.28.8,3.79v6.86h1.04c.19,0,.34.06.46.18s.18.28.18.46v.95c0,.19-.06.34-.18.46s-.28.18-.46.18h-11.68Z"/>
        <path class="cls-3" d="M96.46,474.55c-.17,0-.31-.07-.42-.2-.11-.13-.16-.29-.14-.48l2.38-13.72c.04-.19.12-.33.25-.43.13-.1.29-.13.48-.1l1.12.06c.19.02.34.1.45.24.11.14.15.3.11.49l-2.24,13.47c-.02.19-.1.35-.24.48-.14.13-.3.2-.49.2h-1.26ZM103.54,460.86h-6.8c-.21,0-.36-.06-.48-.18-.11-.12-.17-.28-.17-.46v-1.01c0-.19.06-.34.17-.46s.27-.18.48-.18h7.11c1.16,0,2.19.27,3.09.81s1.62,1.32,2.13,2.34c.51,1.02.77,2.25.77,3.68v8.51c0,.19-.06.34-.17.46s-.27.18-.48.18h-7.22c-.19,0-.34-.06-.46-.18-.12-.12-.18-.28-.18-.46v-.95c0-.19.06-.34.18-.46.12-.12.28-.18.46-.18h5.32v-6.75c0-.95-.16-1.78-.49-2.49-.33-.71-.77-1.25-1.34-1.64-.57-.38-1.21-.57-1.92-.57Z"/>
        <path class="cls-3" d="M121.94,472.46c1.21.02,2.23-.21,3.07-.67.83-.47,1.47-1.13,1.9-2,.44-.87.66-1.86.66-2.98v-7.59c0-.19.06-.34.18-.46.12-.12.28-.18.46-.18h1.18c.19,0,.34.06.45.18s.17.28.17.46v7.78c0,1.19-.19,2.27-.56,3.23-.37.96-.91,1.78-1.6,2.46-.69.68-1.51,1.2-2.45,1.55-.94.35-1.98.51-3.12.48h-2.1c-1.21,0-2.31-.28-3.28-.84-.97-.56-1.74-1.34-2.3-2.35-.56-1.01-.84-2.17-.84-3.5v-8.82c0-.19.06-.34.18-.46.12-.12.28-.18.46-.18h1.18c.19,0,.34.06.46.18s.18.28.18.46l.08,8.26c0,1.61.45,2.84,1.34,3.7.9.86,2.03,1.29,3.42,1.29h.87ZM115.72,469.18l-.06-2.04c1.38-.02,2.44-.23,3.16-.63s1.24-.94,1.53-1.61c.29-.67.43-1.41.43-2.21v-3.47c0-.19.06-.34.17-.46s.27-.18.48-.18h1.15c.19,0,.34.06.46.18s.18.28.18.46v3.58c0,1.21-.27,2.31-.81,3.28-.54.97-1.37,1.74-2.48,2.3-1.11.56-2.52.83-4.21.81Z"/>
        <path class="cls-3" d="M140.5,476.65c-.15,0-.27-.06-.35-.17-.08-.11-.12-.25-.1-.42l.64-4c.04-.22.12-.42.24-.57.12-.16.3-.24.55-.24h1.88c.13,0,.24.05.32.14.08.09.13.21.13.34,0,.15-.03.3-.08.45l-1.48,3.84c-.08.19-.17.34-.29.46-.12.12-.29.18-.52.18h-.92Z"/>
        <path class="cls-3" d="M159.04,474.55c-.19,0-.34-.06-.46-.18-.12-.12-.18-.28-.18-.46v-8.37c0-1.49-.37-2.66-1.12-3.49-.75-.83-1.95-1.25-3.61-1.25h-5.26c-.19,0-.34-.06-.46-.18s-.18-.28-.18-.46v-.95c0-.19.06-.34.18-.46s.28-.18.46-.18h5.4c2.43,0,4.22.59,5.39,1.76,1.17,1.18,1.75,2.88,1.75,5.12v8.46c0,.19-.06.34-.18.46-.12.12-.28.18-.46.18h-1.26ZM148.4,474.55c-.19,0-.34-.06-.46-.18s-.18-.28-.18-.46v-9.35c0-.19.06-.34.18-.46.12-.12.28-.18.46-.18h1.29c.19,0,.34.06.45.18.11.12.17.28.17.46v9.35c0,.19-.06.34-.17.46s-.26.18-.45.18h-1.29Z"/>
        <path class="cls-3" d="M165.54,468.06c-.19,0-.34-.06-.46-.18-.12-.12-.18-.28-.18-.46v-8.2c0-.19.06-.34.18-.46.12-.12.28-.18.46-.18h1.34c.19,0,.34.06.45.18.11.12.17.28.17.46v8.2c0,.19-.06.34-.17.46-.11.12-.26.18-.45.18h-1.34Z"/>
        <path class="cls-3" d="M171.16,460.81c-.19,0-.34-.06-.46-.18s-.18-.28-.18-.46v-.95c0-.19.06-.34.18-.46s.28-.18.46-.18h12.01c.19,0,.34.06.46.18.12.12.18.28.18.46v.95c0,.19-.06.34-.18.46-.12.12-.28.18-.46.18h-12.01ZM178.73,474.55c-.41,0-.62-.21-.62-.62v-10c0-1.1.13-1.96.39-2.58.26-.62.59-.92.98-.92h2.74c-.47,0-.84.36-1.13,1.06-.29.71-.43,1.59-.43,2.63v9.8c0,.19-.07.34-.2.45s-.29.17-.48.17h-1.26Z"/>
        <path class="cls-3" d="M187.15,474.55c-.17,0-.31-.07-.42-.2-.11-.13-.16-.29-.14-.48l2.38-13.72c.04-.19.12-.33.25-.43.13-.1.29-.13.48-.1l1.12.06c.19.02.34.1.45.24.11.14.15.3.11.49l-2.24,13.47c-.02.19-.1.35-.24.48-.14.13-.3.2-.49.2h-1.26ZM194.24,460.86h-6.8c-.21,0-.36-.06-.48-.18-.11-.12-.17-.28-.17-.46v-1.01c0-.19.06-.34.17-.46s.27-.18.48-.18h7.11c1.16,0,2.19.27,3.09.81s1.62,1.32,2.13,2.34c.51,1.02.77,2.25.77,3.68v8.51c0,.19-.06.34-.17.46s-.27.18-.48.18h-7.22c-.19,0-.34-.06-.46-.18-.12-.12-.18-.28-.18-.46v-.95c0-.19.06-.34.18-.46.12-.12.28-.18.46-.18h5.32v-6.75c0-.95-.16-1.78-.49-2.49-.33-.71-.77-1.25-1.34-1.64-.57-.38-1.21-.57-1.92-.57Z"/>
        <path class="cls-3" d="M205.13,468.06c-.19,0-.34-.06-.46-.18-.12-.12-.18-.28-.18-.46v-8.2c0-.19.06-.34.18-.46.12-.12.28-.18.46-.18h1.34c.19,0,.34.06.45.18.11.12.17.28.17.46v8.2c0,.19-.06.34-.17.46-.11.12-.26.18-.45.18h-1.34Z"/>
        <path class="cls-3" d="M218.15,474.83c-2.5,0-4.3-.61-5.4-1.82-1.1-1.21-1.65-2.89-1.65-5.04v-8.76c0-.19.06-.34.18-.46.12-.12.28-.18.46-.18h1.15c.21,0,.36.06.48.18s.17.28.17.46v8.62c0,1.49.38,2.65,1.15,3.47s1.92,1.23,3.47,1.23,2.68-.37,3.4-1.12c.72-.75,1.1-1.87,1.13-3.36.02-.19.02-.47.01-.85,0-.38-.01-.77-.01-1.16v-.87c-.04-1.55-.37-2.68-.99-3.39-.63-.71-1.44-1.06-2.45-1.06-.32,0-.68.06-1.09.17-.41.11-.76.26-1.04.45-.17.09-.35.1-.53.01s-.28-.23-.28-.43v-.87c0-.19.02-.35.06-.49.04-.14.14-.27.31-.38.37-.22.78-.41,1.22-.55s1-.21,1.69-.21c1.21,0,2.23.23,3.05.69.82.46,1.45,1.16,1.89,2.11.44.95.67,2.17.69,3.67.02.19.03.5.03.95v1.37c0,.47,0,.79-.03.98-.04,1.42-.29,2.63-.77,3.63-.48,1-1.22,1.75-2.24,2.25-1.02.5-2.37.76-4.05.76Z"/>
        <path class="cls-3" d="M232.12,460.86l-3.33-.03c-.19,0-.34-.06-.46-.17-.12-.11-.18-.26-.18-.45v-4.9c0-.19.06-.34.18-.46s.27-.18.46-.18h1.18c.21,0,.36.06.48.18.11.12.17.28.17.46v3.25h1.57l-.06,2.3ZM232.06,474.81c-.17.06-.33.03-.48-.07s-.22-.25-.22-.43v-1.29c0-.17.05-.32.15-.45.1-.13.26-.23.46-.31l1.09-.42c.73-.32,1.39-.7,2-1.15.61-.45,1.08-1.06,1.43-1.85.34-.78.52-1.81.52-3.08s-.14-2.18-.43-2.9c-.29-.72-.77-1.23-1.46-1.54-.68-.31-1.61-.46-2.79-.46h-.84c-.19,0-.34-.06-.46-.18-.12-.12-.18-.28-.18-.46v-1.01c0-.19.06-.34.18-.46.12-.12.28-.18.46-.18h1.23c1.7,0,3.05.24,4.06.73s1.73,1.26,2.17,2.34.66,2.48.66,4.21c0,1.31-.18,2.44-.53,3.39s-.84,1.76-1.44,2.44-1.29,1.23-2.06,1.67-1.56.8-2.38,1.08l-1.15.39Z"/>
        <path class="cls-3" d="M243.94,474.55c-.19,0-.34-.06-.46-.18s-.18-.28-.18-.46v-14.7c0-.19.06-.34.18-.46s.28-.18.46-.18h1.32c.21,0,.36.06.48.18.11.12.17.28.17.46v14.7c0,.19-.06.34-.17.46-.11.12-.27.18-.48.18h-1.32Z"/>
        <path class="cls-3" d="M250.12,474.55c-.17,0-.31-.07-.42-.2-.11-.13-.16-.29-.14-.48l2.38-13.72c.04-.19.12-.33.25-.43.13-.1.29-.13.48-.1l1.12.06c.19.02.34.1.45.24.11.14.15.3.11.49l-2.24,13.47c-.02.19-.1.35-.24.48-.14.13-.3.2-.49.2h-1.26ZM257.21,460.86h-6.8c-.21,0-.36-.06-.48-.18-.11-.12-.17-.28-.17-.46v-1.01c0-.19.06-.34.17-.46s.27-.18.48-.18h7.11c1.16,0,2.19.27,3.09.81s1.62,1.32,2.13,2.34c.51,1.02.77,2.25.77,3.68v8.51c0,.19-.06.34-.17.46s-.27.18-.48.18h-7.22c-.19,0-.34-.06-.46-.18-.12-.12-.18-.28-.18-.46v-.95c0-.19.06-.34.18-.46.12-.12.28-.18.46-.18h5.32v-6.75c0-.95-.16-1.78-.49-2.49-.33-.71-.77-1.25-1.34-1.64-.57-.38-1.21-.57-1.92-.57Z"/>
        <path class="cls-3" d="M278.94,474.55c-.19,0-.34-.06-.46-.18-.12-.12-.18-.28-.18-.46v-8.37c0-1.49-.37-2.66-1.12-3.49-.75-.83-1.95-1.25-3.61-1.25h-5.26c-.19,0-.34-.06-.46-.18s-.18-.28-.18-.46v-.95c0-.19.06-.34.18-.46s.28-.18.46-.18h5.4c2.43,0,4.22.59,5.39,1.76,1.17,1.18,1.75,2.88,1.75,5.12v8.46c0,.19-.06.34-.18.46-.12.12-.28.18-.46.18h-1.26ZM268.3,474.55c-.19,0-.34-.06-.46-.18s-.18-.28-.18-.46v-9.35c0-.19.06-.34.18-.46.12-.12.28-.18.46-.18h1.29c.19,0,.34.06.45.18.11.12.17.28.17.46v9.35c0,.19-.06.34-.17.46s-.26.18-.45.18h-1.29Z"/>
        <path class="cls-3" d="M285.63,474.55c-.19,0-.34-.06-.46-.18s-.18-.28-.18-.46v-14.7c0-.19.06-.34.18-.46s.28-.18.46-.18h1.32c.21,0,.36.06.48.18.11.12.17.28.17.46v14.7c0,.19-.06.34-.17.46-.11.12-.27.18-.48.18h-1.32Z"/>
        <path class="cls-3" d="M307.13,474.55c-.19,0-.34-.06-.46-.18-.12-.12-.18-.28-.18-.46v-8.37c0-1.49-.37-2.66-1.12-3.49-.75-.83-1.95-1.25-3.61-1.25h-3.67c-.19,0-.34-.06-.46-.18-.12-.12-.18-.28-.18-.46v-.95c0-.19.06-.34.18-.46.12-.12.27-.18.46-.18h3.81c1.61,0,2.94.25,3.99.76,1.05.5,1.84,1.27,2.37,2.28.52,1.02.78,2.28.78,3.79v8.51c0,.19-.06.34-.18.46s-.28.18-.46.18h-1.26Z"/>
        <path class="cls-3" d="M313.24,474.55c-.19,0-.34-.06-.46-.18-.12-.12-.18-.28-.18-.46v-.98c0-.19.06-.34.18-.46.12-.12.28-.18.46-.18h7.59l-8.76-12.63c-.06-.11-.1-.21-.14-.29-.04-.08-.06-.16-.06-.24,0-.15.06-.28.18-.39.12-.11.26-.17.41-.17h1.34c.21,0,.36.05.48.15s.21.21.28.32l9.13,13.08c.09.13.17.27.24.41.07.14.1.29.1.46v.92c0,.19-.06.34-.18.46-.12.12-.28.18-.46.18h-10.14ZM320.32,468.17l-1.23-1.82c.99-.35,1.7-.94,2.13-1.75.43-.81.64-1.81.64-2.98v-2.41c0-.19.06-.34.18-.46.12-.12.28-.18.46-.18h1.18c.19,0,.34.06.45.18.11.12.17.28.17.46v2.74c0,1.51-.34,2.8-1.01,3.86-.67,1.06-1.66,1.85-2.97,2.35Z"/>
        <path class="cls-3" d="M328.75,474.55c-.19,0-.34-.06-.46-.18s-.18-.28-.18-.46v-14.7c0-.19.06-.34.18-.46s.28-.18.46-.18h1.32c.21,0,.36.06.48.18.11.12.17.28.17.46v14.7c0,.19-.06.34-.17.46-.11.12-.27.18-.48.18h-1.32Z"/>
        <path class="cls-3" d="M338.66,459.43h.7c.28,0,.49.07.63.21.14.14.2.31.18.52-.15.78-.28,1.49-.38,2.13s-.17,1.26-.21,1.89c-.04.63-.06,1.33-.06,2.11l.08,7.62c0,.19-.06.34-.18.46-.12.12-.28.18-.46.18l-3.98-.06c-.19,0-.34-.06-.46-.17-.12-.11-.18-.27-.18-.48v-.9c0-.19.06-.34.18-.46.12-.12.28-.18.46-.18l2.16.03v-5.94c0-.76,0-1.47.03-2.11.02-.64.08-1.29.17-1.95.09-.65.24-1.39.45-2.21.06-.21.14-.37.27-.5.12-.13.32-.2.6-.2ZM336.14,460.81c-.19,0-.34-.06-.46-.18-.12-.12-.18-.28-.18-.46v-.95c0-.19.06-.34.18-.46.12-.12.27-.18.46-.18h6.08c1.61,0,2.94.26,3.99.77s1.84,1.28,2.37,2.3.78,2.27.78,3.77v8.51c0,.19-.06.34-.18.46-.12.12-.28.18-.46.18h-1.26c-.21,0-.36-.06-.48-.18-.11-.12-.17-.28-.17-.46v-8.37c0-1.49-.37-2.66-1.12-3.49-.75-.83-1.95-1.25-3.61-1.25h-5.94Z"/>
        <path class="cls-3" d="M364.78,474.55c-.19,0-.34-.06-.46-.18-.12-.12-.18-.28-.18-.46v-8.37c0-1.49-.37-2.66-1.12-3.49-.75-.83-1.95-1.25-3.61-1.25h-5.26c-.19,0-.34-.06-.46-.18s-.18-.28-.18-.46v-.95c0-.19.06-.34.18-.46s.28-.18.46-.18h5.4c2.43,0,4.22.59,5.39,1.76,1.17,1.18,1.75,2.88,1.75,5.12v8.46c0,.19-.06.34-.18.46-.12.12-.28.18-.46.18h-1.26ZM354.14,474.55c-.19,0-.34-.06-.46-.18s-.18-.28-.18-.46v-9.35c0-.19.06-.34.18-.46.12-.12.28-.18.46-.18h1.29c.19,0,.34.06.45.18.11.12.17.28.17.46v9.35c0,.19-.06.34-.17.46s-.26.18-.45.18h-1.29Z"/>
        <path class="cls-3" d="M135.48,508.16c-.19,0-.34-.06-.46-.18-.12-.12-.18-.28-.18-.46v-8.37c0-1.49-.37-2.66-1.12-3.49-.75-.83-1.95-1.25-3.61-1.25h-3.67c-.19,0-.34-.06-.46-.18-.12-.12-.18-.28-.18-.46v-.95c0-.19.06-.34.18-.46.12-.12.27-.18.46-.18h3.81c1.61,0,2.94.25,3.99.76,1.05.5,1.84,1.27,2.37,2.28.52,1.02.78,2.28.78,3.79v8.51c0,.19-.06.34-.18.46s-.28.18-.46.18h-1.26Z"/>
        <path class="cls-3" d="M142.17,508.16c-.19,0-.34-.06-.46-.18s-.18-.28-.18-.46v-14.7c0-.19.06-.34.18-.46s.28-.18.46-.18h1.32c.21,0,.36.06.48.18.11.12.17.28.17.46v14.7c0,.19-.06.34-.17.46-.11.12-.27.18-.48.18h-1.32Z"/>
        <path class="cls-3" d="M150.71,494.46v2.18c.02.67.11,1.23.27,1.68.16.45.44.73.85.84l1.04.28c.15.04.27.14.35.29.08.16.13.35.13.57v.7c0,.21-.1.35-.31.45-.21.09-.43.12-.67.08l-1.09-.22c-.6-.15-1.11-.42-1.54-.8-.43-.38-.75-.91-.97-1.57-.21-.66-.32-1.46-.32-2.39v-3.75c0-.19.06-.34.17-.46.11-.12.27-.18.48-.18h5.18c1.4,0,2.57.28,3.5.83.93.55,1.64,1.34,2.13,2.38.48,1.04.75,2.28.78,3.74.02.28.03.63.03,1.05s0,.77-.03,1.05c-.04,1.44-.3,2.68-.78,3.72-.49,1.04-1.2,1.84-2.13,2.39-.93.55-2.1.83-3.5.83h-4.84c-.19,0-.34-.06-.46-.18s-.18-.28-.18-.46v-1.01c0-.19.06-.34.18-.46.12-.12.28-.18.46-.18h4.7c1.29,0,2.28-.42,2.98-1.25.7-.83,1.09-1.99,1.16-3.49.02-.28.03-.6.03-.97s0-.69-.03-.97c-.04-1.49-.42-2.66-1.13-3.49-.72-.83-1.72-1.25-3.01-1.25h-3.42Z"/>
        <path class="cls-3" d="M171.12,508.44c-2.33,0-4.07-.61-5.21-1.83-1.14-1.22-1.71-2.94-1.71-5.17v-8.62c0-.19.06-.34.18-.46s.28-.18.46-.18h6.75c1.66,0,2.99.25,3.98.76.99.5,1.71,1.25,2.17,2.23.46.98.71,2.19.77,3.63.02.19.03.49.03.9v1.23c0,.41,0,.71-.03.9-.04,1.42-.31,2.63-.81,3.63-.5,1-1.29,1.75-2.37,2.25-1.07.5-2.48.76-4.21.76ZM171.12,506.14c1.77,0,3.02-.37,3.75-1.11.73-.74,1.11-1.86,1.15-3.37.02-.19.03-.47.03-.84v-1.09c0-.35,0-.62-.03-.81-.04-1.49-.46-2.62-1.27-3.37-.81-.76-1.91-1.13-3.29-1.13h-4.79v7.03c0,1.49.37,2.65,1.11,3.47s1.85,1.23,3.35,1.23Z"/>
        <path class="cls-3" d="M189.71,511.63c-.19,0-.34-.06-.46-.18-.12-.12-.18-.28-.18-.46v-18.17c0-.19.06-.34.18-.46s.28-.18.46-.18h1.29c.19,0,.34.06.45.18s.17.28.17.46v18.17c0,.19-.06.34-.17.46-.11.12-.26.18-.45.18h-1.29Z"/>
        <path class="cls-3" d="M196.41,501.66c-.19,0-.34-.06-.46-.18-.12-.12-.18-.28-.18-.46v-8.2c0-.19.06-.34.18-.46.12-.12.28-.18.46-.18h1.34c.19,0,.34.06.45.18.11.12.17.28.17.46v8.2c0,.19-.06.34-.17.46-.11.12-.26.18-.45.18h-1.34Z"/>
        <path class="cls-3" d="M202.48,508.16c-.19,0-.34-.06-.46-.18-.12-.12-.18-.28-.18-.46v-4.2c0-.86.08-1.68.25-2.45s.5-1.51.99-2.21c.49-.7,1.24-1.36,2.23-1.97l1.29,1.88c-.67.43-1.18.92-1.51,1.47s-.56,1.12-.67,1.71c-.11.59-.17,1.15-.17,1.69v4.09c0,.19-.06.34-.18.46-.12.12-.28.18-.46.18h-1.12ZM213.4,508.16c-.21,0-.36-.06-.48-.17-.11-.11-.21-.21-.31-.31l-10.28-14.42c-.13-.21-.2-.38-.2-.53s.06-.28.18-.39c.12-.11.26-.17.41-.17h1.32c.21,0,.37.06.49.17.12.11.22.21.29.31l10.3,14.42c.07.13.13.23.15.31.03.08.04.15.04.22,0,.15-.06.28-.17.39-.11.11-.24.17-.39.17h-1.37ZM211.16,503.03l-1.15-1.93c.91-.43,1.56-.88,1.95-1.34.38-.47.61-.96.69-1.47.07-.51.11-1.05.11-1.61v-3.86c0-.19.06-.34.18-.46s.28-.18.46-.18h1.18c.19,0,.34.06.46.18.12.12.18.28.18.46v4c0,.78-.09,1.54-.28,2.27-.19.73-.56,1.41-1.13,2.06-.57.64-1.45,1.27-2.65,1.89Z"/>
        <path class="cls-3" d="M237.12,508.16c-.19,0-.34-.06-.46-.18-.12-.12-.18-.28-.18-.46v-8.37c0-1.49-.37-2.66-1.12-3.49-.75-.83-1.95-1.25-3.61-1.25h-5.26c-.19,0-.34-.06-.46-.18s-.18-.28-.18-.46v-.95c0-.19.06-.34.18-.46s.28-.18.46-.18h5.4c2.43,0,4.22.59,5.39,1.76,1.17,1.18,1.75,2.88,1.75,5.12v8.46c0,.19-.06.34-.18.46-.12.12-.28.18-.46.18h-1.26ZM226.48,508.16c-.19,0-.34-.06-.46-.18s-.18-.28-.18-.46v-9.35c0-.19.06-.34.18-.46.12-.12.28-.18.46-.18h1.29c.19,0,.34.06.45.18.11.12.17.28.17.46v9.35c0,.19-.06.34-.17.46s-.26.18-.45.18h-1.29Z"/>
        <path class="cls-3" d="M246.81,493.04h.7c.28,0,.49.07.63.21.14.14.2.31.18.52-.15.78-.28,1.49-.38,2.13s-.17,1.26-.21,1.89c-.04.63-.06,1.33-.06,2.11l.08,7.62c0,.19-.06.34-.18.46-.12.12-.28.18-.46.18l-3.98-.06c-.19,0-.34-.06-.46-.17-.12-.11-.18-.27-.18-.48v-.9c0-.19.06-.34.18-.46.12-.12.28-.18.46-.18l2.16.03v-5.94c0-.76,0-1.47.03-2.11.02-.64.08-1.29.17-1.95.09-.65.24-1.39.45-2.21.06-.21.14-.37.27-.5.12-.13.32-.2.6-.2ZM244.29,494.41c-.19,0-.34-.06-.46-.18-.12-.12-.18-.28-.18-.46v-.95c0-.19.06-.34.18-.46.12-.12.27-.18.46-.18h6.08c1.61,0,2.94.26,3.99.77s1.84,1.28,2.37,2.3.78,2.27.78,3.77v8.51c0,.19-.06.34-.18.46-.12.12-.28.18-.46.18h-1.26c-.21,0-.36-.06-.48-.18-.11-.12-.17-.28-.17-.46v-8.37c0-1.49-.37-2.66-1.12-3.49-.75-.83-1.95-1.25-3.61-1.25h-5.94Z"/>
        <path class="cls-3" d="M262.09,501.66c-.19,0-.34-.06-.46-.18-.12-.12-.18-.28-.18-.46v-8.2c0-.19.06-.34.18-.46.12-.12.28-.18.46-.18h1.34c.19,0,.34.06.45.18.11.12.17.28.17.46v8.2c0,.19-.06.34-.17.46-.11.12-.26.18-.45.18h-1.34Z"/>
        <path class="cls-3" d="M268.17,508.16c-.19,0-.34-.06-.46-.18-.12-.12-.18-.28-.18-.46v-4.2c0-.86.08-1.68.25-2.45s.5-1.51.99-2.21c.49-.7,1.24-1.36,2.23-1.97l1.29,1.88c-.67.43-1.18.92-1.51,1.47s-.56,1.12-.67,1.71c-.11.59-.17,1.15-.17,1.69v4.09c0,.19-.06.34-.18.46-.12.12-.28.18-.46.18h-1.12ZM279.09,508.16c-.21,0-.36-.06-.48-.17-.11-.11-.21-.21-.31-.31l-10.28-14.42c-.13-.21-.2-.38-.2-.53s.06-.28.18-.39c.12-.11.26-.17.41-.17h1.32c.21,0,.37.06.49.17.12.11.22.21.29.31l10.3,14.42c.07.13.13.23.15.31.03.08.04.15.04.22,0,.15-.06.28-.17.39-.11.11-.24.17-.39.17h-1.37ZM276.85,503.03l-1.15-1.93c.91-.43,1.56-.88,1.95-1.34.38-.47.61-.96.69-1.47.07-.51.11-1.05.11-1.61v-3.86c0-.19.06-.34.18-.46s.28-.18.46-.18h1.18c.19,0,.34.06.46.18.12.12.18.28.18.46v4c0,.78-.09,1.54-.28,2.27-.19.73-.56,1.41-1.13,2.06-.57.64-1.45,1.27-2.65,1.89Z"/>
        <path class="cls-3" d="M147.18,541.75c-.19,0-.34-.06-.46-.18s-.18-.28-.18-.46v-2.02c0-.19.06-.34.18-.46.12-.12.28-.18.46-.18h2.02c.19,0,.34.06.48.18.13.12.2.28.2.46v2.02c0,.19-.07.34-.2.46s-.29.18-.48.18h-2.02Z"/>
        <path class="cls-3" d="M157.51,526.63h.7c.28,0,.49.07.63.21.14.14.2.31.18.52-.15.78-.28,1.49-.38,2.13s-.17,1.26-.21,1.89c-.04.63-.06,1.33-.06,2.11l.08,7.62c0,.19-.06.34-.18.46-.12.12-.28.18-.46.18l-3.98-.06c-.19,0-.34-.06-.46-.17-.12-.11-.18-.27-.18-.48v-.9c0-.19.06-.34.18-.46.12-.12.28-.18.46-.18l2.16.03v-5.94c0-.76,0-1.47.03-2.11.02-.64.08-1.29.17-1.95.09-.65.24-1.39.45-2.21.06-.21.14-.37.27-.5.12-.13.32-.2.6-.2ZM154.99,528.01c-.19,0-.34-.06-.46-.18-.12-.12-.18-.28-.18-.46v-.95c0-.19.06-.34.18-.46.12-.12.27-.18.46-.18h6.08c1.61,0,2.94.26,3.99.77s1.84,1.28,2.37,2.3.78,2.27.78,3.77v8.51c0,.19-.06.34-.18.46-.12.12-.28.18-.46.18h-1.26c-.21,0-.36-.06-.48-.18-.11-.12-.17-.28-.17-.46v-8.37c0-1.49-.37-2.66-1.12-3.49-.75-.83-1.95-1.25-3.61-1.25h-5.94Z"/>
        <path class="cls-3" d="M173,541.75c-.19,0-.34-.06-.46-.18s-.18-.28-.18-.46v-14.7c0-.19.06-.34.18-.46s.28-.18.46-.18h1.32c.21,0,.36.06.48.18.11.12.17.28.17.46v14.7c0,.19-.06.34-.17.46-.11.12-.27.18-.48.18h-1.32Z"/>
        <path class="cls-3" d="M179.72,535.26c-.19,0-.34-.06-.46-.18-.12-.12-.18-.28-.18-.46v-8.2c0-.19.06-.34.18-.46.12-.12.28-.18.46-.18h1.34c.19,0,.34.06.45.18.11.12.17.28.17.46v8.2c0,.19-.06.34-.17.46-.11.12-.26.18-.45.18h-1.34Z"/>
        <path class="cls-3" d="M186.47,541.75c-.19,0-.34-.06-.46-.18s-.18-.28-.18-.46v-14.7c0-.19.06-.34.18-.46s.28-.18.46-.18h1.32c.21,0,.36.06.48.18.11.12.17.28.17.46v14.7c0,.19-.06.34-.17.46-.11.12-.27.18-.48.18h-1.32Z"/>
        <path class="cls-3" d="M192.49,541.75c-.19,0-.34-.06-.46-.18-.12-.12-.18-.28-.18-.46v-.95c0-.19.06-.34.18-.46.12-.12.27-.18.46-.18h7.9v1.71c0,.19-.06.32-.18.41-.12.08-.28.13-.46.13h-7.25ZM198.67,541.75c-.19,0-.33-.06-.43-.18s-.17-.28-.21-.46l-.53-8.65c-.04-.91-.11-1.71-.21-2.38s-.33-1.19-.67-1.57c-.35-.37-.92-.56-1.72-.56h-1.15c-.19,0-.34-.06-.46-.18-.12-.12-.18-.27-.18-.46v-.95c0-.19.06-.34.18-.46s.28-.18.46-.18h1.18c1.06,0,1.92.15,2.58.46s1.16.76,1.53,1.34c.36.59.62,1.29.78,2.11.16.82.27,1.74.32,2.74l.53,8.74c.02.19-.04.34-.17.46-.13.12-.29.18-.48.18h-1.34Z"/>
        <path class="cls-3" d="M204.05,541.75c-.17,0-.31-.07-.42-.2-.11-.13-.16-.29-.14-.48l2.38-13.72c.04-.19.12-.33.25-.43.13-.1.29-.13.48-.1l1.12.06c.19.02.34.1.45.24.11.14.15.3.11.49l-2.24,13.47c-.02.19-.1.35-.24.48-.14.13-.3.2-.49.2h-1.26ZM211.13,528.06h-6.8c-.21,0-.36-.06-.48-.18-.11-.12-.17-.28-.17-.46v-1.01c0-.19.06-.34.17-.46s.27-.18.48-.18h7.11c1.16,0,2.19.27,3.09.81s1.62,1.32,2.13,2.34c.51,1.02.77,2.25.77,3.68v8.51c0,.19-.06.34-.17.46s-.27.18-.48.18h-7.22c-.19,0-.34-.06-.46-.18-.12-.12-.18-.28-.18-.46v-.95c0-.19.06-.34.18-.46.12-.12.28-.18.46-.18h5.32v-6.75c0-.95-.16-1.78-.49-2.49-.33-.71-.77-1.25-1.34-1.64-.57-.38-1.21-.57-1.92-.57Z"/>
        <path class="cls-3" d="M220.49,528.01c-.19,0-.34-.06-.46-.18s-.18-.28-.18-.46v-.95c0-.19.06-.34.18-.46s.28-.18.46-.18h12.01c.19,0,.34.06.46.18.12.12.18.28.18.46v.95c0,.19-.06.34-.18.46-.12.12-.28.18-.46.18h-12.01ZM228.05,541.75c-.41,0-.62-.21-.62-.62v-10c0-1.1.13-1.96.39-2.58.26-.62.59-.92.98-.92h2.74c-.47,0-.84.36-1.13,1.06-.29.71-.43,1.59-.43,2.63v9.8c0,.19-.07.34-.2.45s-.29.17-.48.17h-1.26Z"/>
        <path class="cls-3" d="M236.53,528.01c-.19,0-.34-.06-.46-.18-.12-.12-.18-.28-.18-.46v-.95c0-.19.06-.34.18-.46.12-.12.28-.18.46-.18h6.78c.21,0,.36.06.48.18s.17.28.17.46v.95c0,.19-.06.34-.17.46s-.27.18-.48.18h-6.78ZM238.88,541.75c-.41,0-.62-.21-.62-.62v-10c0-1.1.13-1.96.39-2.58.26-.62.58-.92.95-.92h2.77c-.47,0-.85.36-1.13,1.06-.29.71-.43,1.59-.43,2.63v9.8c0,.19-.07.34-.2.45s-.29.17-.48.17h-1.26Z"/>
        <path class="cls-3" d="M258.9,541.75c-.19,0-.34-.06-.46-.18-.12-.12-.18-.28-.18-.46v-8.37c0-1.49-.37-2.66-1.12-3.49-.75-.83-1.95-1.25-3.61-1.25h-5.26c-.19,0-.34-.06-.46-.18s-.18-.28-.18-.46v-.95c0-.19.06-.34.18-.46s.28-.18.46-.18h5.4c2.43,0,4.22.59,5.39,1.76,1.17,1.18,1.75,2.88,1.75,5.12v8.46c0,.19-.06.34-.18.46-.12.12-.28.18-.46.18h-1.26ZM248.26,541.75c-.19,0-.34-.06-.46-.18s-.18-.28-.18-.46v-9.35c0-.19.06-.34.18-.46.12-.12.28-.18.46-.18h1.29c.19,0,.34.06.45.18.11.12.17.28.17.46v9.35c0,.19-.06.34-.17.46s-.26.18-.45.18h-1.29Z"/>
      </g>
      <g>
        <path class="cls-3" d="M228.35,135.89c-.19,0-.34-.06-.46-.18-.12-.12-.18-.27-.18-.46v-1.96c0-.19.06-.34.18-.46s.28-.18.46-.18h2.02c.19,0,.34.06.46.18.12.12.18.28.18.46v1.96c0,.19-.06.34-.18.46-.12.12-.28.18-.46.18h-2.02ZM228.35,145.69c-.19,0-.34-.06-.46-.18-.12-.12-.18-.28-.18-.46v-1.96c0-.19.06-.34.18-.46s.28-.18.46-.18h2.02c.19,0,.34.06.46.18.12.12.18.28.18.46v1.96c0,.19-.06.34-.18.46s-.28.18-.46.18h-2.02Z"/>
        <path class="cls-1" d="M245.65,145.69c-.21,0-.38-.07-.52-.2-.14-.13-.21-.3-.21-.5v-8.29c0-1.08-.26-1.91-.78-2.48-.52-.57-1.35-.85-2.49-.85h-6.3c-.21,0-.37-.06-.5-.2-.13-.13-.2-.3-.2-.5v-2.27c0-.21.07-.37.2-.5.13-.13.3-.2.5-.2h6.44c2.5,0,4.41.56,5.73,1.68,1.32,1.12,1.97,2.89,1.97,5.32v8.29c0,.19-.07.35-.21.49s-.3.21-.49.21h-3.14ZM235.35,145.69c-.21,0-.37-.07-.5-.21-.13-.14-.2-.3-.2-.49v-8.29c0-.19.07-.35.2-.49.13-.14.3-.21.5-.21h3.14c.21,0,.37.07.5.21.13.14.2.3.2.49v8.29c0,.19-.07.35-.2.49s-.3.21-.5.21h-3.14Z"/>
        <path class="cls-1" d="M252.46,132.87c-.17,0-.3-.06-.41-.18s-.14-.28-.13-.46l.84-5.46c.04-.24.14-.46.29-.66.16-.2.4-.29.71-.29h3.28c.15,0,.28.06.38.17s.15.24.15.39c0,.11-.02.21-.06.31l-2.1,5.4c-.07.19-.19.36-.34.53s-.38.25-.7.25h-1.93ZM258.62,132.87c-.17,0-.3-.06-.41-.18s-.14-.28-.13-.46l.84-5.46c.04-.24.14-.46.29-.66s.4-.29.71-.29h3.28c.15,0,.28.06.39.17.11.11.17.24.17.39,0,.11-.03.21-.08.31l-2.1,5.4c-.08.19-.19.36-.34.53s-.38.25-.7.25h-1.93Z"/>
        <path class="cls-1" d="M266.35,145.69c-.19,0-.35-.07-.49-.22-.14-.15-.21-.32-.21-.5v-3.56c0-1.04.09-1.96.28-2.76.19-.79.52-1.52,1.01-2.17s1.19-1.3,2.1-1.93l2.16,3.14c-.45.34-.78.72-1.01,1.16-.22.44-.36.88-.42,1.33-.06.45-.08.85-.08,1.2v3.58c0,.21-.07.38-.21.52-.14.14-.3.21-.49.21h-2.63ZM276.96,145.69c-.3,0-.52-.07-.67-.22s-.25-.26-.31-.34l-10.08-14.42c-.09-.13-.14-.27-.14-.42s.06-.28.18-.41c.12-.12.27-.18.43-.18h3.11c.3,0,.52.08.67.22s.26.27.34.36l10.16,14.39c.07.09.12.17.13.24,0,.07.01.13.01.18,0,.15-.06.29-.17.41s-.25.18-.42.18h-3.25ZM276.74,140.26l-2.18-3.11c.6-.3,1.02-.63,1.27-.99s.41-.74.46-1.13.08-.77.08-1.12v-3.47c0-.22.07-.4.21-.53s.3-.2.49-.2h2.8c.21,0,.37.08.5.22s.2.32.2.5v3.58c0,.77-.1,1.51-.29,2.24-.2.73-.57,1.43-1.12,2.1-.55.67-1.36,1.31-2.42,1.9Z"/>
        <path class="cls-1" d="M283.9,145.69c-.19,0-.36-.07-.5-.21-.15-.14-.21-.31-.17-.52l2.97-12.46c.04-.19.12-.34.25-.48s.29-.19.48-.17l2.63.03c.21,0,.38.08.53.25s.2.35.14.56l-2.55,12.26c-.02.21-.1.38-.24.52-.14.14-.3.21-.49.21h-3.05ZM292.28,133.54h-8.15c-.21,0-.37-.06-.5-.2-.13-.13-.2-.3-.2-.5v-2.44c0-.21.07-.37.2-.5.13-.13.3-.2.5-.2h8.85c1.23,0,2.34.24,3.32.73.98.49,1.75,1.23,2.32,2.24.57,1.01.85,2.3.85,3.86v8.46c0,.19-.07.35-.21.49-.14.14-.31.21-.52.21h-7.59c-.19,0-.35-.07-.49-.21s-.21-.3-.21-.49v-2.27c0-.21.07-.37.21-.5s.3-.2.49-.2h3.75v-5.26c0-.69-.11-1.28-.34-1.76-.22-.49-.53-.85-.92-1.09-.39-.24-.85-.36-1.37-.36Z"/>
        <path class="cls-3" d="M313.64,130.57h.7c.28,0,.49.07.63.21.14.14.2.31.18.52-.15.78-.28,1.49-.38,2.13s-.17,1.26-.21,1.89c-.04.63-.06,1.33-.06,2.11l.08,7.62c0,.19-.06.34-.18.46-.12.12-.28.18-.46.18l-3.98-.06c-.19,0-.34-.06-.46-.17-.12-.11-.18-.27-.18-.48v-.9c0-.19.06-.34.18-.46.12-.12.28-.18.46-.18l2.16.03v-5.94c0-.76,0-1.47.03-2.11.02-.64.08-1.29.17-1.95.09-.65.24-1.39.45-2.21.06-.21.14-.37.27-.5.12-.13.32-.2.6-.2ZM311.12,131.94c-.19,0-.34-.06-.46-.18-.12-.12-.18-.28-.18-.46v-.95c0-.19.06-.34.18-.46.12-.12.27-.18.46-.18h6.08c1.61,0,2.94.26,3.99.77s1.84,1.28,2.37,2.3.78,2.27.78,3.77v8.51c0,.19-.06.34-.18.46-.12.12-.28.18-.46.18h-1.26c-.21,0-.36-.06-.48-.18-.11-.12-.17-.28-.17-.46v-8.37c0-1.49-.37-2.66-1.12-3.49-.75-.83-1.95-1.25-3.61-1.25h-5.94Z"/>
        <path class="cls-3" d="M329.12,145.69c-.19,0-.34-.06-.46-.18s-.18-.28-.18-.46v-14.7c0-.19.06-.34.18-.46s.28-.18.46-.18h1.32c.21,0,.36.06.48.18.11.12.17.28.17.46v14.7c0,.19-.06.34-.17.46-.11.12-.27.18-.48.18h-1.32Z"/>
        <path class="cls-3" d="M336.04,145.69c-.19,0-.34-.06-.46-.18s-.18-.28-.18-.46v-14.7c0-.19.06-.34.18-.46s.28-.18.46-.18h1.32c.21,0,.36.06.48.18.11.12.17.28.17.46v14.7c0,.19-.06.34-.17.46-.11.12-.27.18-.48.18h-1.32Z"/>
        <path class="cls-3" d="M342.37,145.69c-.19,0-.34-.06-.46-.18-.12-.12-.18-.28-.18-.46v-.98c0-.19.06-.34.18-.46.12-.12.28-.18.46-.18h7.59l-8.76-12.63c-.06-.11-.1-.21-.14-.29-.04-.08-.06-.16-.06-.24,0-.15.06-.28.18-.39.12-.11.26-.17.41-.17h1.34c.21,0,.36.05.48.15s.21.21.28.32l9.13,13.08c.09.13.17.27.24.41.07.14.1.29.1.46v.92c0,.19-.06.34-.18.46-.12.12-.28.18-.46.18h-10.14ZM349.45,139.31l-1.23-1.82c.99-.35,1.7-.94,2.13-1.75.43-.81.64-1.81.64-2.98v-2.41c0-.19.06-.34.18-.46.12-.12.28-.18.46-.18h1.18c.19,0,.34.06.45.18.11.12.17.28.17.46v2.74c0,1.51-.34,2.8-1.01,3.86-.67,1.06-1.66,1.85-2.97,2.35Z"/>
        <path class="cls-3" d="M163.41,179.29c-.19,0-.34-.06-.46-.18-.12-.12-.18-.28-.18-.46v-8.37c0-1.49-.37-2.66-1.12-3.49-.75-.83-1.95-1.25-3.61-1.25h-5.26c-.19,0-.34-.06-.46-.18s-.18-.28-.18-.46v-.95c0-.19.06-.34.18-.46s.28-.18.46-.18h5.4c2.43,0,4.22.59,5.39,1.76,1.17,1.18,1.75,2.88,1.75,5.12v8.46c0,.19-.06.34-.18.46-.12.12-.28.18-.46.18h-1.26ZM152.77,179.29c-.19,0-.34-.06-.46-.18s-.18-.28-.18-.46v-9.35c0-.19.06-.34.18-.46.12-.12.28-.18.46-.18h1.29c.19,0,.34.06.45.18.11.12.17.28.17.46v9.35c0,.19-.06.34-.17.46s-.26.18-.45.18h-1.29Z"/>
        <path class="cls-3" d="M169.9,172.79c-.19,0-.34-.06-.46-.18-.12-.12-.18-.28-.18-.46v-8.2c0-.19.06-.34.18-.46.12-.12.28-.18.46-.18h1.34c.19,0,.34.06.45.18.11.12.17.28.17.46v8.2c0,.19-.06.34-.17.46-.11.12-.26.18-.45.18h-1.34Z"/>
        <path class="cls-3" d="M175.53,165.54c-.19,0-.34-.06-.46-.18s-.18-.28-.18-.46v-.95c0-.19.06-.34.18-.46s.28-.18.46-.18h12.01c.19,0,.34.06.46.18.12.12.18.28.18.46v.95c0,.19-.06.34-.18.46-.12.12-.28.18-.46.18h-12.01ZM183.09,179.29c-.41,0-.62-.21-.62-.62v-10c0-1.1.13-1.96.39-2.58.26-.62.59-.92.98-.92h2.74c-.47,0-.84.36-1.13,1.06-.29.71-.43,1.59-.43,2.63v9.8c0,.19-.07.34-.2.45s-.29.17-.48.17h-1.26Z"/>
        <path class="cls-3" d="M191.52,179.29c-.17,0-.31-.07-.42-.2-.11-.13-.16-.29-.14-.48l2.38-13.72c.04-.19.12-.33.25-.43.13-.1.29-.13.48-.1l1.12.06c.19.02.34.1.45.24.11.14.15.3.11.49l-2.24,13.47c-.02.19-.1.35-.24.48-.14.13-.3.2-.49.2h-1.26ZM198.6,165.6h-6.8c-.21,0-.36-.06-.48-.18-.11-.12-.17-.28-.17-.46v-1.01c0-.19.06-.34.17-.46s.27-.18.48-.18h7.11c1.16,0,2.19.27,3.09.81s1.62,1.32,2.13,2.34c.51,1.02.77,2.25.77,3.68v8.51c0,.19-.06.34-.17.46s-.27.18-.48.18h-7.22c-.19,0-.34-.06-.46-.18-.12-.12-.18-.28-.18-.46v-.95c0-.19.06-.34.18-.46.12-.12.28-.18.46-.18h5.32v-6.75c0-.95-.16-1.78-.49-2.49-.33-.71-.77-1.25-1.34-1.64-.57-.38-1.21-.57-1.92-.57Z"/>
        <path class="cls-3" d="M209.5,172.79c-.19,0-.34-.06-.46-.18-.12-.12-.18-.28-.18-.46v-8.2c0-.19.06-.34.18-.46.12-.12.28-.18.46-.18h1.34c.19,0,.34.06.45.18.11.12.17.28.17.46v8.2c0,.19-.06.34-.17.46-.11.12-.26.18-.45.18h-1.34Z"/>
        <path class="cls-3" d="M222.52,179.57c-2.5,0-4.3-.61-5.4-1.82-1.1-1.21-1.65-2.89-1.65-5.04v-8.76c0-.19.06-.34.18-.46.12-.12.28-.18.46-.18h1.15c.21,0,.36.06.48.18s.17.28.17.46v8.62c0,1.49.38,2.65,1.15,3.47s1.92,1.23,3.47,1.23,2.68-.37,3.4-1.12c.72-.75,1.1-1.87,1.13-3.36.02-.19.02-.47.01-.85,0-.38-.01-.77-.01-1.16v-.87c-.04-1.55-.37-2.68-.99-3.39-.63-.71-1.44-1.06-2.45-1.06-.32,0-.68.06-1.09.17-.41.11-.76.26-1.04.45-.17.09-.35.1-.53.01s-.28-.23-.28-.43v-.87c0-.19.02-.35.06-.49.04-.14.14-.27.31-.38.37-.22.78-.41,1.22-.55s1-.21,1.69-.21c1.21,0,2.23.23,3.05.69.82.46,1.45,1.16,1.89,2.11.44.95.67,2.17.69,3.67.02.19.03.5.03.95v1.37c0,.47,0,.79-.03.98-.04,1.42-.29,2.63-.77,3.63-.48,1-1.22,1.75-2.24,2.25-1.02.5-2.37.76-4.05.76Z"/>
        <path class="cls-3" d="M236.49,165.6l-3.33-.03c-.19,0-.34-.06-.46-.17-.12-.11-.18-.26-.18-.45v-4.9c0-.19.06-.34.18-.46s.27-.18.46-.18h1.18c.21,0,.36.06.48.18.11.12.17.28.17.46v3.25h1.57l-.06,2.3ZM236.43,179.54c-.17.06-.33.03-.48-.07s-.22-.25-.22-.43v-1.29c0-.17.05-.32.15-.45.1-.13.26-.23.46-.31l1.09-.42c.73-.32,1.39-.7,2-1.15.61-.45,1.08-1.06,1.43-1.85.34-.78.52-1.81.52-3.08s-.14-2.18-.43-2.9c-.29-.72-.77-1.23-1.46-1.54-.68-.31-1.61-.46-2.79-.46h-.84c-.19,0-.34-.06-.46-.18-.12-.12-.18-.28-.18-.46v-1.01c0-.19.06-.34.18-.46.12-.12.28-.18.46-.18h1.23c1.7,0,3.05.24,4.06.73s1.73,1.26,2.17,2.34.66,2.48.66,4.21c0,1.31-.18,2.44-.53,3.39s-.84,1.76-1.44,2.44-1.29,1.23-2.06,1.67-1.56.8-2.38,1.08l-1.15.39Z"/>
        <path class="cls-3" d="M248.3,179.29c-.19,0-.34-.06-.46-.18s-.18-.28-.18-.46v-14.7c0-.19.06-.34.18-.46s.28-.18.46-.18h1.32c.21,0,.36.06.48.18.11.12.17.28.17.46v14.7c0,.19-.06.34-.17.46-.11.12-.27.18-.48.18h-1.32Z"/>
        <path class="cls-1" d="M254.24,179.29c-.19,0-.36-.07-.5-.21-.15-.14-.21-.31-.17-.52l2.97-12.46c.04-.19.12-.34.25-.48s.29-.19.48-.17l2.63.03c.21,0,.38.08.53.25s.2.35.14.56l-2.55,12.26c-.02.21-.1.38-.24.52-.14.14-.3.21-.49.21h-3.05ZM262.61,167.14h-8.15c-.21,0-.37-.06-.5-.2-.13-.13-.2-.3-.2-.5v-2.44c0-.21.07-.37.2-.5.13-.13.3-.2.5-.2h8.85c1.23,0,2.34.24,3.32.73.98.49,1.75,1.23,2.32,2.24.57,1.01.85,2.3.85,3.86v8.46c0,.19-.07.35-.21.49-.14.14-.31.21-.52.21h-7.59c-.19,0-.35-.07-.49-.21s-.21-.3-.21-.49v-2.27c0-.21.07-.37.21-.5s.3-.2.49-.2h3.75v-5.26c0-.69-.11-1.28-.34-1.76-.22-.49-.53-.85-.92-1.09-.39-.24-.85-.36-1.37-.36Z"/>
        <path class="cls-3" d="M96.63,197.77h.7c.28,0,.49.07.63.21.14.14.2.31.18.52-.15.78-.28,1.49-.38,2.13s-.17,1.26-.21,1.89c-.04.63-.06,1.33-.06,2.11l.08,7.62c0,.19-.06.34-.18.46-.12.12-.28.18-.46.18l-3.98-.06c-.19,0-.34-.06-.46-.17-.12-.11-.18-.27-.18-.48v-.9c0-.19.06-.34.18-.46.12-.12.28-.18.46-.18l2.16.03v-5.94c0-.76,0-1.47.03-2.11.02-.64.08-1.29.17-1.95.09-.65.24-1.39.45-2.21.06-.21.14-.37.27-.5.12-.13.32-.2.6-.2ZM94.11,199.14c-.19,0-.34-.06-.46-.18-.12-.12-.18-.28-.18-.46v-.95c0-.19.06-.34.18-.46.12-.12.27-.18.46-.18h6.08c1.61,0,2.94.26,3.99.77s1.84,1.28,2.37,2.3.78,2.27.78,3.77v8.51c0,.19-.06.34-.18.46-.12.12-.28.18-.46.18h-1.26c-.21,0-.36-.06-.48-.18-.11-.12-.17-.28-.17-.46v-8.37c0-1.49-.37-2.66-1.12-3.49-.75-.83-1.95-1.25-3.61-1.25h-5.94Z"/>
        <path class="cls-3" d="M112.11,212.89c-.19,0-.34-.06-.46-.18s-.18-.28-.18-.46v-14.7c0-.19.06-.34.18-.46s.28-.18.46-.18h1.32c.21,0,.36.06.48.18.11.12.17.28.17.46v14.7c0,.19-.06.34-.17.46-.11.12-.27.18-.48.18h-1.32Z"/>
        <path class="cls-3" d="M118.83,206.4c-.19,0-.34-.06-.46-.18-.12-.12-.18-.28-.18-.46v-8.2c0-.19.06-.34.18-.46.12-.12.28-.18.46-.18h1.34c.19,0,.34.06.45.18.11.12.17.28.17.46v8.2c0,.19-.06.34-.17.46-.11.12-.26.18-.45.18h-1.34Z"/>
        <path class="cls-3" d="M124.91,212.89c-.19,0-.34-.06-.46-.18-.12-.12-.18-.28-.18-.46v-.95c0-.19.06-.34.18-.46.12-.12.28-.18.46-.18h8.04v-6.78c0-1.49-.37-2.66-1.12-3.49-.75-.83-1.95-1.25-3.61-1.25h-3.02c-.19,0-.34-.06-.46-.18-.12-.12-.18-.28-.18-.46v-.95c0-.19.06-.34.18-.46.12-.12.27-.18.46-.18h3.16c1.6,0,2.94.26,4,.78,1.06.52,1.86,1.29,2.39,2.31.53,1.02.8,2.28.8,3.79v6.86h1.04c.19,0,.34.06.46.18s.18.28.18.46v.95c0,.19-.06.34-.18.46s-.28.18-.46.18h-11.68Z"/>
        <path class="cls-3" d="M140.56,206.4c-.19,0-.34-.06-.46-.18-.12-.12-.18-.28-.18-.46v-8.2c0-.19.06-.34.18-.46.12-.12.28-.18.46-.18h1.34c.19,0,.34.06.45.18.11.12.17.28.17.46v8.2c0,.19-.06.34-.17.46-.11.12-.26.18-.45.18h-1.34Z"/>
        <path class="cls-3" d="M153.58,213.17c-2.5,0-4.3-.61-5.4-1.82-1.1-1.21-1.65-2.89-1.65-5.04v-8.76c0-.19.06-.34.18-.46.12-.12.28-.18.46-.18h1.15c.21,0,.36.06.48.18s.17.28.17.46v8.62c0,1.49.38,2.65,1.15,3.47s1.92,1.23,3.47,1.23,2.68-.37,3.4-1.12c.72-.75,1.1-1.87,1.13-3.36.02-.19.02-.47.01-.85,0-.38-.01-.77-.01-1.16v-.87c-.04-1.55-.37-2.68-.99-3.39-.63-.71-1.44-1.06-2.45-1.06-.32,0-.68.06-1.09.17-.41.11-.76.26-1.04.45-.17.09-.35.1-.53.01s-.28-.23-.28-.43v-.87c0-.19.02-.35.06-.49.04-.14.14-.27.31-.38.37-.22.78-.41,1.22-.55s1-.21,1.69-.21c1.21,0,2.23.23,3.05.69.82.46,1.45,1.16,1.89,2.11.44.95.67,2.17.69,3.67.02.19.03.5.03.95v1.37c0,.47,0,.79-.03.98-.04,1.42-.29,2.63-.77,3.63-.48,1-1.22,1.75-2.24,2.25-1.02.5-2.37.76-4.05.76Z"/>
        <path class="cls-3" d="M170.35,213.14c-.17.06-.32.03-.46-.07s-.21-.25-.21-.43v-1.29c0-.17.05-.32.15-.45.1-.13.26-.23.46-.31l1.06-.42c.75-.32,1.42-.7,2.03-1.15.61-.45,1.08-1.06,1.43-1.85s.52-1.81.52-3.08-.15-2.18-.45-2.9c-.3-.72-.79-1.23-1.47-1.54-.68-.31-1.6-.46-2.76-.46h-5.68c-.19,0-.34-.06-.46-.18-.12-.12-.18-.28-.18-.46v-1.01c0-.19.06-.34.18-.46s.28-.18.46-.18h6.05c1.72,0,3.08.24,4.07.73,1,.49,1.72,1.26,2.16,2.34s.66,2.48.66,4.21c0,1.31-.18,2.44-.53,3.39s-.84,1.76-1.44,2.44-1.29,1.23-2.04,1.67-1.54.8-2.37,1.08l-1.18.39ZM164.98,218.24c-.19,0-.34-.06-.46-.18-.12-.12-.18-.28-.18-.46v-14.7c0-.19.06-.34.18-.46.12-.12.28-.18.46-.18h1.23c.21,0,.36.06.48.18.11.12.17.28.17.46v14.7c0,.19-.06.34-.17.46-.11.12-.27.18-.48.18h-1.23Z"/>
        <path class="cls-3" d="M181.83,212.89c-.19,0-.34-.06-.46-.18-.12-.12-.18-.28-.18-.46v-4.2c0-.86.08-1.68.25-2.45s.5-1.51.99-2.21c.49-.7,1.24-1.36,2.23-1.97l1.29,1.88c-.67.43-1.18.92-1.51,1.47s-.56,1.12-.67,1.71c-.11.59-.17,1.15-.17,1.69v4.09c0,.19-.06.34-.18.46-.12.12-.28.18-.46.18h-1.12ZM192.75,212.89c-.21,0-.36-.06-.48-.17-.11-.11-.21-.21-.31-.31l-10.28-14.42c-.13-.21-.2-.38-.2-.53s.06-.28.18-.39c.12-.11.26-.17.41-.17h1.32c.21,0,.37.06.49.17.12.11.22.21.29.31l10.3,14.42c.07.13.13.23.15.31.03.08.04.15.04.22,0,.15-.06.28-.17.39-.11.11-.24.17-.39.17h-1.37ZM190.51,207.77l-1.15-1.93c.91-.43,1.56-.88,1.95-1.34.38-.47.61-.96.69-1.47.07-.51.11-1.05.11-1.61v-3.86c0-.19.06-.34.18-.46s.28-.18.46-.18h1.18c.19,0,.34.06.46.18.12.12.18.28.18.46v4c0,.78-.09,1.54-.28,2.27-.19.73-.56,1.41-1.13,2.06-.57.64-1.45,1.27-2.65,1.89Z"/>
        <path class="cls-3" d="M207.37,212.89c-.19,0-.34-.06-.46-.18-.12-.12-.18-.28-.18-.46v-8.37c0-1.49-.37-2.66-1.12-3.49-.75-.83-1.95-1.25-3.61-1.25h-3.67c-.19,0-.34-.06-.46-.18-.12-.12-.18-.28-.18-.46v-.95c0-.19.06-.34.18-.46.12-.12.27-.18.46-.18h3.81c1.61,0,2.94.25,3.99.76,1.05.5,1.84,1.27,2.37,2.28.52,1.02.78,2.28.78,3.79v8.51c0,.19-.06.34-.18.46s-.28.18-.46.18h-1.26Z"/>
        <path class="cls-3" d="M220.33,213.17c-2.5,0-4.3-.61-5.4-1.82-1.1-1.21-1.65-2.89-1.65-5.04v-8.76c0-.19.06-.34.18-.46.12-.12.28-.18.46-.18h1.15c.21,0,.36.06.48.18s.17.28.17.46v8.62c0,1.49.38,2.65,1.15,3.47s1.92,1.23,3.47,1.23,2.68-.37,3.4-1.12c.72-.75,1.1-1.87,1.13-3.36.02-.19.02-.47.01-.85,0-.38-.01-.77-.01-1.16v-.87c-.04-1.55-.37-2.68-.99-3.39-.63-.71-1.44-1.06-2.45-1.06-.32,0-.68.06-1.09.17-.41.11-.76.26-1.04.45-.17.09-.35.1-.53.01s-.28-.23-.28-.43v-.87c0-.19.02-.35.06-.49.04-.14.14-.27.31-.38.37-.22.78-.41,1.22-.55s1-.21,1.69-.21c1.21,0,2.23.23,3.05.69.82.46,1.45,1.16,1.89,2.11.44.95.67,2.17.69,3.67.02.19.03.5.03.95v1.37c0,.47,0,.79-.03.98-.04,1.42-.29,2.63-.77,3.63-.48,1-1.22,1.75-2.24,2.25-1.02.5-2.37.76-4.05.76Z"/>
        <path class="cls-3" d="M230.61,212.89c-.19,0-.34-.06-.46-.18-.12-.12-.18-.28-.18-.46v-.95c0-.19.06-.34.18-.46.12-.12.27-.18.46-.18h7.9v1.71c0,.19-.06.32-.18.41-.12.08-.28.13-.46.13h-7.25ZM236.8,212.89c-.19,0-.33-.06-.43-.18s-.17-.28-.21-.46l-.53-8.65c-.04-.91-.11-1.71-.21-2.38s-.33-1.19-.67-1.57c-.35-.37-.92-.56-1.72-.56h-1.15c-.19,0-.34-.06-.46-.18-.12-.12-.18-.27-.18-.46v-.95c0-.19.06-.34.18-.46s.28-.18.46-.18h1.18c1.06,0,1.92.15,2.58.46s1.16.76,1.53,1.34c.36.59.62,1.29.78,2.11.16.82.27,1.74.32,2.74l.53,8.74c.02.19-.04.34-.17.46-.13.12-.29.18-.48.18h-1.34Z"/>
        <path class="cls-3" d="M242.7,206.4c-.19,0-.34-.06-.46-.18-.12-.12-.18-.28-.18-.46v-8.2c0-.19.06-.34.18-.46.12-.12.28-.18.46-.18h1.34c.19,0,.34.06.45.18.11.12.17.28.17.46v8.2c0,.19-.06.34-.17.46-.11.12-.26.18-.45.18h-1.34Z"/>
        <path class="cls-1" d="M248.67,212.89c-.19,0-.35-.07-.49-.22-.14-.15-.21-.32-.21-.5v-3.56c0-1.04.09-1.96.28-2.76.19-.79.52-1.52,1.01-2.17s1.19-1.3,2.1-1.93l2.16,3.14c-.45.34-.78.72-1.01,1.16-.22.44-.36.88-.42,1.33-.06.45-.08.85-.08,1.2v3.58c0,.21-.07.38-.21.52-.14.14-.3.21-.49.21h-2.63ZM259.28,212.89c-.3,0-.52-.07-.67-.22s-.25-.26-.31-.34l-10.08-14.42c-.09-.13-.14-.27-.14-.42s.06-.28.18-.41c.12-.12.27-.18.43-.18h3.11c.3,0,.52.08.67.22s.26.27.34.36l10.16,14.39c.07.09.12.17.13.24,0,.07.01.13.01.18,0,.15-.06.29-.17.41s-.25.18-.42.18h-3.25ZM259.06,207.46l-2.18-3.11c.6-.3,1.02-.63,1.27-.99s.41-.74.46-1.13.08-.77.08-1.12v-3.47c0-.22.07-.4.21-.53s.3-.2.49-.2h2.8c.21,0,.37.08.5.22s.2.32.2.5v3.58c0,.77-.1,1.51-.29,2.24-.2.73-.57,1.43-1.12,2.1-.55.67-1.36,1.31-2.42,1.9Z"/>
        <path class="cls-3" d="M267.2,212.89c-.19,0-.34-.06-.46-.18s-.18-.28-.18-.46v-14.7c0-.19.06-.34.18-.46s.28-.18.46-.18h1.32c.21,0,.36.06.48.18.11.12.17.28.17.46v14.7c0,.19-.06.34-.17.46-.11.12-.27.18-.48.18h-1.32Z"/>
        <path class="cls-3" d="M188.81,246.49c-.19,0-.34-.06-.46-.18-.12-.12-.18-.28-.18-.46v-8.37c0-1.49-.37-2.66-1.12-3.49-.75-.83-1.95-1.25-3.61-1.25h-5.26c-.19,0-.34-.06-.46-.18s-.18-.28-.18-.46v-.95c0-.19.06-.34.18-.46s.28-.18.46-.18h5.4c2.43,0,4.22.59,5.39,1.76,1.17,1.18,1.75,2.88,1.75,5.12v8.46c0,.19-.06.34-.18.46-.12.12-.28.18-.46.18h-1.26ZM178.16,246.49c-.19,0-.34-.06-.46-.18s-.18-.28-.18-.46v-9.35c0-.19.06-.34.18-.46.12-.12.28-.18.46-.18h1.29c.19,0,.34.06.45.18.11.12.17.28.17.46v9.35c0,.19-.06.34-.17.46s-.26.18-.45.18h-1.29Z"/>
        <path class="cls-3" d="M195.5,246.49c-.19,0-.34-.06-.46-.18s-.18-.28-.18-.46v-1.01c0-.19.06-.34.18-.46.12-.12.28-.18.46-.18h4c1.66,0,2.86-.42,3.58-1.25.73-.83,1.13-1.99,1.2-3.49.02-.41.03-.74.03-.98s0-.56-.03-.95c-.06-1.49-.45-2.66-1.19-3.49-.74-.83-1.94-1.25-3.6-1.25h-4c-.19,0-.34-.06-.46-.18-.12-.12-.18-.28-.18-.46v-1.01c0-.19.06-.34.18-.46s.28-.18.46-.18h4.14c1.64,0,2.98.28,4,.83,1.03.55,1.8,1.34,2.31,2.38s.79,2.28.83,3.74c.02.37.03.72.03,1.04s0,.67-.03,1.06c-.04,1.44-.31,2.68-.83,3.72-.51,1.04-1.28,1.84-2.31,2.39-1.03.55-2.36.83-4,.83h-4.14Z"/>
        <path class="cls-3" d="M219.1,246.49c-.19,0-.34-.06-.46-.18-.12-.12-.18-.28-.18-.46v-8.37c0-1.49-.37-2.66-1.12-3.49-.75-.83-1.95-1.25-3.61-1.25h-3.67c-.19,0-.34-.06-.46-.18-.12-.12-.18-.28-.18-.46v-.95c0-.19.06-.34.18-.46.12-.12.27-.18.46-.18h3.81c1.61,0,2.94.25,3.99.76,1.05.5,1.84,1.27,2.37,2.28.52,1.02.78,2.28.78,3.79v8.51c0,.19-.06.34-.18.46s-.28.18-.46.18h-1.26Z"/>
        <path class="cls-3" d="M224.06,232.74c-.19,0-.34-.06-.46-.18s-.18-.28-.18-.46v-.95c0-.19.06-.34.18-.46s.28-.18.46-.18h12.01c.19,0,.34.06.46.18.12.12.18.28.18.46v.95c0,.19-.06.34-.18.46-.12.12-.28.18-.46.18h-12.01ZM231.62,246.49c-.41,0-.62-.21-.62-.62v-10c0-1.1.13-1.96.39-2.58.26-.62.59-.92.98-.92h2.74c-.47,0-.84.36-1.13,1.06-.29.71-.43,1.59-.43,2.63v9.8c0,.19-.07.34-.2.45s-.29.17-.48.17h-1.26Z"/>
        <path class="cls-1" d="M250.68,246.49c-.21,0-.38-.07-.52-.2-.14-.13-.21-.3-.21-.5v-8.29c0-1.08-.26-1.91-.78-2.48-.52-.57-1.35-.85-2.49-.85h-6.3c-.21,0-.37-.06-.5-.2-.13-.13-.2-.3-.2-.5v-2.27c0-.21.07-.37.2-.5.13-.13.3-.2.5-.2h6.44c2.5,0,4.41.56,5.73,1.68,1.32,1.12,1.97,2.89,1.97,5.32v8.29c0,.19-.07.35-.21.49s-.3.21-.49.21h-3.14ZM240.38,246.49c-.21,0-.37-.07-.5-.21-.13-.14-.2-.3-.2-.49v-8.29c0-.19.07-.35.2-.49.13-.14.3-.21.5-.21h3.14c.21,0,.37.07.5.21.13.14.2.3.2.49v8.29c0,.19-.07.35-.2.49s-.3.21-.5.21h-3.14Z"/>
        <path class="cls-3" d="M258.19,246.49c-.19,0-.34-.06-.46-.18-.12-.12-.18-.28-.18-.46v-.95c0-.19.06-.34.18-.46.12-.12.28-.18.46-.18h8.04v-6.78c0-1.49-.37-2.66-1.12-3.49-.75-.83-1.95-1.25-3.61-1.25h-3.02c-.19,0-.34-.06-.46-.18-.12-.12-.18-.28-.18-.46v-.95c0-.19.06-.34.18-.46.12-.12.27-.18.46-.18h3.16c1.6,0,2.94.26,4,.78,1.06.52,1.86,1.29,2.39,2.31.53,1.02.8,2.28.8,3.79v6.86h1.04c.19,0,.34.06.46.18s.18.28.18.46v.95c0,.19-.06.34-.18.46s-.28.18-.46.18h-11.68Z"/>
      </g>
    </g>
  </g>
</svg>