<?xml version="1.0" encoding="UTF-8"?>
<svg id="Layer_2" data-name="Layer 2" xmlns="http://www.w3.org/2000/svg" viewBox="0 0 401.91 628.11">
  <defs>
    <style>
      .cls-1 {
        fill: #ffe;
      }

      .cls-1, .cls-2 {
        stroke: #a01f24;
        stroke-miterlimit: 10;
      }

      .cls-3 {
        fill: #a01f24;
        stroke-width: 0px;
      }

      .cls-2 {
        fill: none;
        stroke-width: 2px;
      }
    </style>
  </defs>
  <g id="Layer_1-2" data-name="Layer 1">
    <g>
      <g>
        <rect class="cls-1" x=".5" y=".5" width="400.91" height="627.11" rx="27.59" ry="27.59"/>
        <path class="cls-2" d="M59.47,89.29c.5,4.21-2.63,7.91-5.53,11.43-4.53,5.51-9.09,10.2-13.03,13.94-4.11-4.05-8.61-8.65-13.52-13.94-2.29-2.47-5.45-5.96-5.59-10.62-.05-1.6.27-2.71.5-3.34,1.51-4.09,5.81-5.37,6.19-5.48,3.43-.96,6.3.44,7.74,1.14,2.16,1.06,3.61,2.48,4.42,3.43.81-.95,2.25-2.39,4.43-3.43,3.18-1.53,6.13-1.36,7.53-1.17.15.02.27.05.4.1,1.11.41,3.75,1.61,5.34,4.5.11.2.9,1.67,1.11,3.43Z"/>
        <path class="cls-2" d="M343.69,543.01c-.5-4.21,2.63-7.91,5.53-11.43,4.53-5.51,9.09-10.2,13.03-13.94,4.11,4.05,8.61,8.65,13.52,13.94,2.29,2.47,5.45,5.96,5.59,10.62.05,1.6-.27,2.71-.5,3.34-1.51,4.09-5.81,5.37-6.19,5.48-3.43.96-6.3-.44-7.74-1.14-2.16-1.06-3.61-2.48-4.42-3.43-.81.95-2.25,2.39-4.43,3.43-3.33,1.6-6.39,1.34-7.72,1.15-.02,0-.03,0-.05-.01-.98-.35-3.83-1.51-5.51-4.57-.11-.2-.9-1.67-1.11-3.43Z"/>
        <path class="cls-3" d="M52.52,67.86c-.52,0-.94-.17-1.26-.51-.32-.34-.58-.63-.78-.87l-2.46-3.36c-2.16.96-4.66,1.44-7.5,1.44-3.4,0-6.32-.59-8.76-1.77-2.44-1.18-4.33-3-5.67-5.46-1.34-2.46-2.07-5.55-2.19-9.27-.04-1.76-.06-3.45-.06-5.07s.02-3.31.06-5.07c.12-3.68.88-6.75,2.28-9.21,1.4-2.46,3.33-4.3,5.79-5.52,2.46-1.22,5.31-1.83,8.55-1.83s6.15.61,8.61,1.83c2.46,1.22,4.39,3.06,5.79,5.52,1.4,2.46,2.14,5.53,2.22,9.21.08,1.76.12,3.45.12,5.07s-.04,3.31-.12,5.07c-.2,5.48-1.64,9.58-4.32,12.3l3.96,5.64s.08.11.12.21c.04.1.06.25.06.45.04.32-.06.6-.3.84s-.54.36-.9.36h-3.24ZM40.52,59.46c3.04,0,5.54-.92,7.5-2.76,1.96-1.84,3.02-4.82,3.18-8.94.08-1.8.12-3.41.12-4.83s-.04-3.01-.12-4.77c-.08-2.76-.59-5-1.53-6.72-.94-1.72-2.19-2.98-3.75-3.78-1.56-.8-3.36-1.2-5.4-1.2s-3.73.4-5.31,1.2c-1.58.8-2.83,2.06-3.75,3.78-.92,1.72-1.44,3.96-1.56,6.72-.04,1.76-.06,3.35-.06,4.77s.02,3.03.06,4.83c.16,4.12,1.22,7.1,3.18,8.94,1.96,1.84,4.44,2.76,7.44,2.76Z"/>
        <path class="cls-3" d="M349.58,566.36c.52,0,.94.17,1.26.51.32.34.58.63.78.87l2.46,3.36c2.16-.96,4.66-1.44,7.5-1.44,3.4,0,6.32.59,8.76,1.77,2.44,1.18,4.33,3,5.67,5.46,1.34,2.46,2.07,5.55,2.19,9.27.04,1.76.06,3.45.06,5.07s-.02,3.31-.06,5.07c-.12,3.68-.88,6.75-2.28,9.21-1.4,2.46-3.33,4.3-5.79,5.52-2.46,1.22-5.31,1.83-8.55,1.83s-6.15-.61-8.61-1.83c-2.46-1.22-4.39-3.06-5.79-5.52-1.4-2.46-2.14-5.53-2.22-9.21-.08-1.76-.12-3.45-.12-5.07s.04-3.31.12-5.07c.2-5.48,1.64-9.58,4.32-12.3l-3.96-5.64s-.08-.11-.12-.21c-.04-.1-.06-.25-.06-.45-.04-.32.06-.6.3-.84s.54-.36.9-.36h3.24ZM361.58,574.76c-3.04,0-5.54.92-7.5,2.76-1.96,1.84-3.02,4.82-3.18,8.94-.08,1.8-.12,3.41-.12,4.83s.04,3.01.12,4.77c.08,2.76.59,5,1.53,6.72.94,1.72,2.19,2.98,3.75,3.78,1.56.8,3.36,1.2,5.4,1.2s3.73-.4,5.31-1.2c1.58-.8,2.83-2.06,3.75-3.78.92-1.72,1.44-3.96,1.56-6.72.04-1.76.06-3.35.06-4.77s-.02-3.03-.06-4.83c-.16-4.12-1.22-7.1-3.18-8.94-1.96-1.84-4.44-2.76-7.44-2.76Z"/>
      </g>
      <g>
        <path class="cls-3" d="M42.51,207.35c-.19,0-.34-.06-.46-.18-.12-.12-.18-.27-.18-.46v-1.96c0-.19.06-.34.18-.46s.28-.18.46-.18h2.02c.19,0,.34.06.46.18.12.12.18.28.18.46v1.96c0,.19-.06.34-.18.46-.12.12-.28.18-.46.18h-2.02ZM42.51,217.15c-.19,0-.34-.06-.46-.18-.12-.12-.18-.28-.18-.46v-1.96c0-.19.06-.34.18-.46s.28-.18.46-.18h2.02c.19,0,.34.06.46.18.12.12.18.28.18.46v1.96c0,.19-.06.34-.18.46s-.28.18-.46.18h-2.02Z"/>
        <path class="cls-3" d="M52.9,202.03h.7c.28,0,.49.07.63.21.14.14.2.31.18.52-.15.78-.28,1.49-.38,2.13s-.17,1.26-.21,1.89c-.04.63-.06,1.33-.06,2.11l.08,7.62c0,.19-.06.34-.18.46-.12.12-.28.18-.46.18l-3.98-.06c-.19,0-.34-.06-.46-.17-.12-.11-.18-.27-.18-.48v-.9c0-.19.06-.34.18-.46.12-.12.28-.18.46-.18l2.16.03v-5.94c0-.76,0-1.47.03-2.11.02-.64.08-1.29.17-1.95.09-.65.24-1.39.45-2.21.06-.21.14-.37.27-.5.12-.13.32-.2.6-.2ZM50.38,203.41c-.19,0-.34-.06-.46-.18-.12-.12-.18-.28-.18-.46v-.95c0-.19.06-.34.18-.46.12-.12.27-.18.46-.18h6.08c1.61,0,2.94.26,3.99.77s1.84,1.28,2.37,2.3.78,2.27.78,3.77v8.51c0,.19-.06.34-.18.46-.12.12-.28.18-.46.18h-1.26c-.21,0-.36-.06-.48-.18-.11-.12-.17-.28-.17-.46v-8.37c0-1.49-.37-2.66-1.12-3.49-.75-.83-1.95-1.25-3.61-1.25h-5.94Z"/>
        <path class="cls-3" d="M68.39,217.15c-.19,0-.34-.06-.46-.18s-.18-.28-.18-.46v-14.7c0-.19.06-.34.18-.46s.28-.18.46-.18h5.46c1.61,0,2.94.26,3.99.77s1.84,1.28,2.37,2.3c.52,1.02.78,2.29.78,3.82v8.46c0,.19-.06.34-.18.46s-.28.18-.46.18h-1.26c-.21,0-.36-.06-.48-.18-.11-.12-.17-.28-.17-.46v-8.37c0-1.49-.37-2.66-1.12-3.49-.75-.83-1.95-1.25-3.61-1.25h-3.42v13.1c0,.19-.06.34-.17.46s-.26.18-.45.18h-1.29Z"/>
        <path class="cls-3" d="M88.77,202.03h.7c.28,0,.49.07.63.21.14.14.2.31.18.52-.15.78-.28,1.49-.38,2.13s-.17,1.26-.21,1.89c-.04.63-.06,1.33-.06,2.11l.08,7.62c0,.19-.06.34-.18.46-.12.12-.28.18-.46.18l-3.98-.06c-.19,0-.34-.06-.46-.17-.12-.11-.18-.27-.18-.48v-.9c0-.19.06-.34.18-.46.12-.12.28-.18.46-.18l2.16.03v-5.94c0-.76,0-1.47.03-2.11.02-.64.08-1.29.17-1.95.09-.65.24-1.39.45-2.21.06-.21.14-.37.27-.5.12-.13.32-.2.6-.2ZM86.25,203.41c-.19,0-.34-.06-.46-.18-.12-.12-.18-.28-.18-.46v-.95c0-.19.06-.34.18-.46.12-.12.27-.18.46-.18h6.08c1.61,0,2.94.26,3.99.77s1.84,1.28,2.37,2.3.78,2.27.78,3.77v8.51c0,.19-.06.34-.18.46-.12.12-.28.18-.46.18h-1.26c-.21,0-.36-.06-.48-.18-.11-.12-.17-.28-.17-.46v-8.37c0-1.49-.37-2.66-1.12-3.49-.75-.83-1.95-1.25-3.61-1.25h-5.94Z"/>
        <path class="cls-3" d="M105.88,203.46v2.18c.02.67.11,1.23.27,1.68.16.45.44.73.85.84l1.04.28c.15.04.27.14.35.29.08.16.13.35.13.57v.7c0,.21-.1.35-.31.45-.21.09-.43.12-.67.08l-1.09-.22c-.6-.15-1.11-.42-1.54-.8-.43-.38-.75-.91-.97-1.57-.21-.66-.32-1.46-.32-2.39v-3.75c0-.19.06-.34.17-.46.11-.12.27-.18.48-.18h5.18c1.4,0,2.57.28,3.5.83.93.55,1.64,1.34,2.13,2.38.48,1.04.75,2.28.78,3.74.02.28.03.63.03,1.05s0,.77-.03,1.05c-.04,1.44-.3,2.68-.78,3.72-.49,1.04-1.2,1.84-2.13,2.39-.93.55-2.1.83-3.5.83h-4.84c-.19,0-.34-.06-.46-.18s-.18-.28-.18-.46v-1.01c0-.19.06-.34.18-.46.12-.12.28-.18.46-.18h4.7c1.29,0,2.28-.42,2.98-1.25.7-.83,1.09-1.99,1.16-3.49.02-.28.03-.6.03-.97s0-.69-.03-.97c-.04-1.49-.42-2.66-1.13-3.49-.72-.83-1.72-1.25-3.01-1.25h-3.42Z"/>
        <path class="cls-3" d="M119.32,217.15c-.17,0-.31-.07-.42-.2-.11-.13-.16-.29-.14-.48l2.38-13.72c.04-.19.12-.33.25-.43.13-.1.29-.13.48-.1l1.12.06c.19.02.34.1.45.24.11.14.15.3.11.49l-2.24,13.47c-.02.19-.1.35-.24.48-.14.13-.3.2-.49.2h-1.26ZM126.4,203.46h-6.8c-.21,0-.36-.06-.48-.18-.11-.12-.17-.28-.17-.46v-1.01c0-.19.06-.34.17-.46s.27-.18.48-.18h7.11c1.16,0,2.19.27,3.09.81s1.62,1.32,2.13,2.34c.51,1.02.77,2.25.77,3.68v8.51c0,.19-.06.34-.17.46s-.27.18-.48.18h-7.22c-.19,0-.34-.06-.46-.18-.12-.12-.18-.28-.18-.46v-.95c0-.19.06-.34.18-.46.12-.12.28-.18.46-.18h5.32v-6.75c0-.95-.16-1.78-.49-2.49-.33-.71-.77-1.25-1.34-1.64-.57-.38-1.21-.57-1.92-.57Z"/>
        <path class="cls-3" d="M143.43,219.25c-.15,0-.27-.06-.35-.17-.08-.11-.12-.25-.1-.42l.64-4c.04-.22.12-.42.24-.57.12-.16.3-.24.55-.24h1.88c.13,0,.24.05.32.14.08.09.13.21.13.34,0,.15-.03.3-.08.45l-1.48,3.84c-.08.19-.17.34-.29.46-.12.12-.29.18-.52.18h-.92Z"/>
        <path class="cls-3" d="M154.32,202.03h.7c.28,0,.49.07.63.21.14.14.2.31.18.52-.15.78-.28,1.49-.38,2.13s-.17,1.26-.21,1.89c-.04.63-.06,1.33-.06,2.11l.08,7.62c0,.19-.06.34-.18.46-.12.12-.28.18-.46.18l-3.98-.06c-.19,0-.34-.06-.46-.17-.12-.11-.18-.27-.18-.48v-.9c0-.19.06-.34.18-.46.12-.12.28-.18.46-.18l2.16.03v-5.94c0-.76,0-1.47.03-2.11.02-.64.08-1.29.17-1.95.09-.65.24-1.39.45-2.21.06-.21.14-.37.27-.5.12-.13.32-.2.6-.2ZM151.8,203.41c-.19,0-.34-.06-.46-.18-.12-.12-.18-.28-.18-.46v-.95c0-.19.06-.34.18-.46.12-.12.27-.18.46-.18h6.08c1.61,0,2.94.26,3.99.77s1.84,1.28,2.37,2.3.78,2.27.78,3.77v8.51c0,.19-.06.34-.18.46-.12.12-.28.18-.46.18h-1.26c-.21,0-.36-.06-.48-.18-.11-.12-.17-.28-.17-.46v-8.37c0-1.49-.37-2.66-1.12-3.49-.75-.83-1.95-1.25-3.61-1.25h-5.94Z"/>
        <path class="cls-3" d="M169.61,210.66c-.19,0-.34-.06-.46-.18-.12-.12-.18-.28-.18-.46v-8.2c0-.19.06-.34.18-.46.12-.12.28-.18.46-.18h1.34c.19,0,.34.06.45.18.11.12.17.28.17.46v8.2c0,.19-.06.34-.17.46-.11.12-.26.18-.45.18h-1.34Z"/>
        <path class="cls-3" d="M175.68,217.15c-.19,0-.34-.06-.46-.18-.12-.12-.18-.28-.18-.46v-4.2c0-.86.08-1.68.25-2.45s.5-1.51.99-2.21c.49-.7,1.24-1.36,2.23-1.97l1.29,1.88c-.67.43-1.18.92-1.51,1.47s-.56,1.12-.67,1.71c-.11.59-.17,1.15-.17,1.69v4.09c0,.19-.06.34-.18.46-.12.12-.28.18-.46.18h-1.12ZM186.6,217.15c-.21,0-.36-.06-.48-.17-.11-.11-.21-.21-.31-.31l-10.28-14.42c-.13-.21-.2-.38-.2-.53s.06-.28.18-.39c.12-.11.26-.17.41-.17h1.32c.21,0,.37.06.49.17.12.11.22.21.29.31l10.3,14.42c.07.13.13.23.15.31.03.08.04.15.04.22,0,.15-.06.28-.17.39-.11.11-.24.17-.39.17h-1.37ZM184.36,212.03l-1.15-1.93c.91-.43,1.56-.88,1.95-1.34.38-.47.61-.96.69-1.47.07-.51.11-1.05.11-1.61v-3.86c0-.19.06-.34.18-.46s.28-.18.46-.18h1.18c.19,0,.34.06.46.18.12.12.18.28.18.46v4c0,.78-.09,1.54-.28,2.27-.19.73-.56,1.41-1.13,2.06-.57.64-1.45,1.27-2.65,1.89Z"/>
        <path class="cls-3" d="M198.19,217.41c-.17.06-.32.03-.46-.07s-.21-.25-.21-.43v-1.29c0-.17.05-.32.15-.45.1-.13.26-.23.46-.31l1.06-.42c.75-.32,1.42-.7,2.03-1.15.61-.45,1.08-1.06,1.43-1.85s.52-1.81.52-3.08-.15-2.18-.45-2.9c-.3-.72-.79-1.23-1.47-1.54-.68-.31-1.6-.46-2.76-.46h-5.68c-.19,0-.34-.06-.46-.18-.12-.12-.18-.28-.18-.46v-1.01c0-.19.06-.34.18-.46s.28-.18.46-.18h6.05c1.72,0,3.08.24,4.07.73,1,.49,1.72,1.26,2.16,2.34s.66,2.48.66,4.21c0,1.31-.18,2.44-.53,3.39s-.84,1.76-1.44,2.44-1.29,1.23-2.04,1.67-1.54.8-2.37,1.08l-1.18.39ZM192.82,222.5c-.19,0-.34-.06-.46-.18-.12-.12-.18-.28-.18-.46v-14.7c0-.19.06-.34.18-.46.12-.12.28-.18.46-.18h1.23c.21,0,.36.06.48.18.11.12.17.28.17.46v14.7c0,.19-.06.34-.17.46-.11.12-.27.18-.48.18h-1.23Z"/>
        <path class="cls-3" d="M210.15,210.66c-.19,0-.34-.06-.46-.18-.12-.12-.18-.28-.18-.46v-8.2c0-.19.06-.34.18-.46.12-.12.28-.18.46-.18h1.34c.19,0,.34.06.45.18.11.12.17.28.17.46v8.2c0,.19-.06.34-.17.46-.11.12-.26.18-.45.18h-1.34Z"/>
        <path class="cls-3" d="M218.52,203.46v2.18c.02.67.11,1.23.27,1.68.16.45.44.73.85.84l1.04.28c.15.04.27.14.35.29.08.16.13.35.13.57v.7c0,.21-.1.35-.31.45-.21.09-.43.12-.67.08l-1.09-.22c-.6-.15-1.11-.42-1.54-.8-.43-.38-.75-.91-.97-1.57-.21-.66-.32-1.46-.32-2.39v-3.75c0-.19.06-.34.17-.46.11-.12.27-.18.48-.18h5.18c1.4,0,2.57.28,3.5.83.93.55,1.64,1.34,2.13,2.38.48,1.04.75,2.28.78,3.74.02.28.03.63.03,1.05s0,.77-.03,1.05c-.04,1.44-.3,2.68-.78,3.72-.49,1.04-1.2,1.84-2.13,2.39-.93.55-2.1.83-3.5.83h-4.84c-.19,0-.34-.06-.46-.18s-.18-.28-.18-.46v-1.01c0-.19.06-.34.18-.46.12-.12.28-.18.46-.18h4.7c1.29,0,2.28-.42,2.98-1.25.7-.83,1.09-1.99,1.16-3.49.02-.28.03-.6.03-.97s0-.69-.03-.97c-.04-1.49-.42-2.66-1.13-3.49-.72-.83-1.72-1.25-3.01-1.25h-3.42Z"/>
        <path class="cls-3" d="M240.95,217.15c-.19,0-.34-.06-.46-.18-.12-.12-.18-.28-.18-.46v-8.37c0-1.49-.37-2.66-1.12-3.49-.75-.83-1.95-1.25-3.61-1.25h-3.67c-.19,0-.34-.06-.46-.18-.12-.12-.18-.28-.18-.46v-.95c0-.19.06-.34.18-.46.12-.12.27-.18.46-.18h3.81c1.61,0,2.94.25,3.99.76,1.05.5,1.84,1.27,2.37,2.28.52,1.02.78,2.28.78,3.79v8.51c0,.19-.06.34-.18.46s-.28.18-.46.18h-1.26Z"/>
        <path class="cls-3" d="M250.72,215.73c-.69.47-1.34.83-1.95,1.08s-1.24.44-1.89.57c-.19.02-.35,0-.48-.06-.13-.06-.2-.18-.2-.36v-1.4c0-.32.2-.55.59-.7.13-.06.37-.14.73-.27.35-.12.74-.27,1.15-.43.41-.17.77-.34,1.06-.53.47-.3.92-.69,1.37-1.16.45-.48.83-.97,1.13-1.48.31-.51.46-.97.46-1.36l1.62-.2c-.02.8-.2,1.61-.53,2.44s-.77,1.57-1.32,2.24c-.54.67-1.13,1.21-1.76,1.62ZM254.33,217.15c-.19,0-.33-.06-.43-.18s-.17-.28-.21-.46l-1.71-8.6c-.19-.99-.41-1.82-.66-2.48-.25-.66-.59-1.17-1.01-1.51-.42-.34-.99-.52-1.72-.52h-1.01c-.19,0-.34-.06-.46-.18-.12-.12-.18-.28-.18-.46v-1.01c0-.19.06-.34.18-.46s.28-.18.46-.18h1.04c1.25,0,2.26.25,3.02.74s1.38,1.24,1.83,2.23c.46.99.84,2.22,1.13,3.7l1.71,8.74c.04.19-.01.34-.15.46-.14.12-.3.18-.49.18h-1.34Z"/>
        <path class="cls-3" d="M265.45,219.25c-.15,0-.27-.06-.35-.17-.08-.11-.12-.25-.1-.42l.64-4c.04-.22.12-.42.24-.57.12-.16.3-.24.55-.24h1.88c.13,0,.24.05.32.14.08.09.13.21.13.34,0,.15-.03.3-.08.45l-1.48,3.84c-.08.19-.17.34-.29.46-.12.12-.29.18-.52.18h-.92Z"/>
        <path class="cls-3" d="M276.34,202.03h.7c.28,0,.49.07.63.21.14.14.2.31.18.52-.15.78-.28,1.49-.38,2.13s-.17,1.26-.21,1.89c-.04.63-.06,1.33-.06,2.11l.08,7.62c0,.19-.06.34-.18.46-.12.12-.28.18-.46.18l-3.98-.06c-.19,0-.34-.06-.46-.17-.12-.11-.18-.27-.18-.48v-.9c0-.19.06-.34.18-.46.12-.12.28-.18.46-.18l2.16.03v-5.94c0-.76,0-1.47.03-2.11.02-.64.08-1.29.17-1.95.09-.65.24-1.39.45-2.21.06-.21.14-.37.27-.5.12-.13.32-.2.6-.2ZM273.82,203.41c-.19,0-.34-.06-.46-.18-.12-.12-.18-.28-.18-.46v-.95c0-.19.06-.34.18-.46.12-.12.27-.18.46-.18h6.08c1.61,0,2.94.26,3.99.77s1.84,1.28,2.37,2.3.78,2.27.78,3.77v8.51c0,.19-.06.34-.18.46-.12.12-.28.18-.46.18h-1.26c-.21,0-.36-.06-.48-.18-.11-.12-.17-.28-.17-.46v-8.37c0-1.49-.37-2.66-1.12-3.49-.75-.83-1.95-1.25-3.61-1.25h-5.94Z"/>
        <path class="cls-3" d="M290.93,217.15c-.19,0-.34-.06-.46-.18-.12-.12-.18-.28-.18-.46v-.95c0-.19.06-.34.18-.46.12-.12.27-.18.46-.18h7.9v1.71c0,.19-.06.32-.18.41-.12.08-.28.13-.46.13h-7.25ZM297.12,217.15c-.19,0-.33-.06-.43-.18s-.17-.28-.21-.46l-.53-8.65c-.04-.91-.11-1.71-.21-2.38s-.33-1.19-.67-1.57c-.35-.37-.92-.56-1.72-.56h-1.15c-.19,0-.34-.06-.46-.18-.12-.12-.18-.27-.18-.46v-.95c0-.19.06-.34.18-.46s.28-.18.46-.18h1.18c1.06,0,1.92.15,2.58.46s1.16.76,1.53,1.34c.36.59.62,1.29.78,2.11.16.82.27,1.74.32,2.74l.53,8.74c.02.19-.04.34-.17.46-.13.12-.29.18-.48.18h-1.34Z"/>
        <path class="cls-3" d="M303.03,210.66c-.19,0-.34-.06-.46-.18-.12-.12-.18-.28-.18-.46v-8.2c0-.19.06-.34.18-.46.12-.12.28-.18.46-.18h1.34c.19,0,.34.06.45.18.11.12.17.28.17.46v8.2c0,.19-.06.34-.17.46-.11.12-.26.18-.45.18h-1.34Z"/>
        <path class="cls-3" d="M309.58,210.66c-.19,0-.34-.06-.46-.18-.12-.12-.18-.28-.18-.46v-8.2c0-.19.06-.34.18-.46.12-.12.28-.18.46-.18h1.34c.19,0,.34.06.45.18.11.12.17.28.17.46v8.2c0,.19-.06.34-.17.46-.11.12-.26.18-.45.18h-1.34Z"/>
        <path class="cls-3" d="M317.95,203.46v2.18c.02.67.11,1.23.27,1.68.16.45.44.73.85.84l1.04.28c.15.04.27.14.35.29.08.16.13.35.13.57v.7c0,.21-.1.35-.31.45-.21.09-.43.12-.67.08l-1.09-.22c-.6-.15-1.11-.42-1.54-.8-.43-.38-.75-.91-.97-1.57-.21-.66-.32-1.46-.32-2.39v-3.75c0-.19.06-.34.17-.46.11-.12.27-.18.48-.18h5.18c1.4,0,2.57.28,3.5.83.93.55,1.64,1.34,2.13,2.38.48,1.04.75,2.28.78,3.74.02.28.03.63.03,1.05s0,.77-.03,1.05c-.04,1.44-.3,2.68-.78,3.72-.49,1.04-1.2,1.84-2.13,2.39-.93.55-2.1.83-3.5.83h-4.84c-.19,0-.34-.06-.46-.18s-.18-.28-.18-.46v-1.01c0-.19.06-.34.18-.46.12-.12.28-.18.46-.18h4.7c1.29,0,2.28-.42,2.98-1.25.7-.83,1.09-1.99,1.16-3.49.02-.28.03-.6.03-.97s0-.69-.03-.97c-.04-1.49-.42-2.66-1.13-3.49-.72-.83-1.72-1.25-3.01-1.25h-3.42Z"/>
        <path class="cls-3" d="M331.56,217.15c-.19,0-.34-.06-.46-.18-.12-.12-.18-.28-.18-.46v-4.2c0-.86.08-1.68.25-2.45s.5-1.51.99-2.21c.49-.7,1.24-1.36,2.23-1.97l1.29,1.88c-.67.43-1.18.92-1.51,1.47s-.56,1.12-.67,1.71c-.11.59-.17,1.15-.17,1.69v4.09c0,.19-.06.34-.18.46-.12.12-.28.18-.46.18h-1.12ZM342.48,217.15c-.21,0-.36-.06-.48-.17-.11-.11-.21-.21-.31-.31l-10.28-14.42c-.13-.21-.2-.38-.2-.53s.06-.28.18-.39c.12-.11.26-.17.41-.17h1.32c.21,0,.37.06.49.17.12.11.22.21.29.31l10.3,14.42c.07.13.13.23.15.31.03.08.04.15.04.22,0,.15-.06.28-.17.39-.11.11-.24.17-.39.17h-1.37ZM340.24,212.03l-1.15-1.93c.91-.43,1.56-.88,1.95-1.34.38-.47.61-.96.69-1.47.07-.51.11-1.05.11-1.61v-3.86c0-.19.06-.34.18-.46s.28-.18.46-.18h1.18c.19,0,.34.06.46.18.12.12.18.28.18.46v4c0,.78-.09,1.54-.28,2.27-.19.73-.56,1.41-1.13,2.06-.57.64-1.45,1.27-2.65,1.89Z"/>
        <path class="cls-3" d="M347.97,217.15c-.17,0-.31-.07-.42-.2-.11-.13-.16-.29-.14-.48l2.38-13.72c.04-.19.12-.33.25-.43.13-.1.29-.13.48-.1l1.12.06c.19.02.34.1.45.24.11.14.15.3.11.49l-2.24,13.47c-.02.19-.1.35-.24.48-.14.13-.3.2-.49.2h-1.26ZM355.05,203.46h-6.8c-.21,0-.36-.06-.48-.18-.11-.12-.17-.28-.17-.46v-1.01c0-.19.06-.34.17-.46s.27-.18.48-.18h7.11c1.16,0,2.19.27,3.09.81s1.62,1.32,2.13,2.34c.51,1.02.77,2.25.77,3.68v8.51c0,.19-.06.34-.17.46s-.27.18-.48.18h-7.22c-.19,0-.34-.06-.46-.18-.12-.12-.18-.28-.18-.46v-.95c0-.19.06-.34.18-.46.12-.12.28-.18.46-.18h5.32v-6.75c0-.95-.16-1.78-.49-2.49-.33-.71-.77-1.25-1.34-1.64-.57-.38-1.21-.57-1.92-.57Z"/>
        <path class="cls-3" d="M121.43,254.23c-.19,0-.34-.06-.46-.18-.12-.12-.18-.28-.18-.46v-18.17c0-.19.06-.34.18-.46s.28-.18.46-.18h1.29c.19,0,.34.06.45.18s.17.28.17.46v18.17c0,.19-.06.34-.17.46-.11.12-.26.18-.45.18h-1.29Z"/>
        <path class="cls-3" d="M128.12,244.26c-.19,0-.34-.06-.46-.18-.12-.12-.18-.28-.18-.46v-8.2c0-.19.06-.34.18-.46.12-.12.28-.18.46-.18h1.34c.19,0,.34.06.45.18.11.12.17.28.17.46v8.2c0,.19-.06.34-.17.46-.11.12-.26.18-.45.18h-1.34Z"/>
        <path class="cls-3" d="M140.25,251.01c-.17.06-.32.03-.46-.07s-.21-.25-.21-.43v-1.29c0-.17.05-.32.15-.45.1-.13.26-.23.46-.31l1.06-.42c.75-.32,1.42-.7,2.03-1.15.61-.45,1.08-1.06,1.43-1.85s.52-1.81.52-3.08-.15-2.18-.45-2.9c-.3-.72-.79-1.23-1.47-1.54-.68-.31-1.6-.46-2.76-.46h-5.68c-.19,0-.34-.06-.46-.18-.12-.12-.18-.28-.18-.46v-1.01c0-.19.06-.34.18-.46s.28-.18.46-.18h6.05c1.72,0,3.08.24,4.07.73,1,.49,1.72,1.26,2.16,2.34s.66,2.48.66,4.21c0,1.31-.18,2.44-.53,3.39s-.84,1.76-1.44,2.44-1.29,1.23-2.04,1.67-1.54.8-2.37,1.08l-1.18.39ZM134.87,256.1c-.19,0-.34-.06-.46-.18-.12-.12-.18-.28-.18-.46v-14.7c0-.19.06-.34.18-.46.12-.12.28-.18.46-.18h1.23c.21,0,.36.06.48.18.11.12.17.28.17.46v14.7c0,.19-.06.34-.17.46-.11.12-.27.18-.48.18h-1.23Z"/>
        <path class="cls-3" d="M158.51,251.03c-2.33,0-4.07-.61-5.21-1.83-1.14-1.22-1.71-2.94-1.71-5.17v-8.62c0-.19.06-.34.18-.46s.28-.18.46-.18h6.75c1.66,0,2.99.25,3.98.76.99.5,1.71,1.25,2.17,2.23.46.98.71,2.19.77,3.63.02.19.03.49.03.9v1.23c0,.41,0,.71-.03.9-.04,1.42-.31,2.63-.81,3.63-.5,1-1.29,1.75-2.37,2.25-1.07.5-2.48.76-4.21.76ZM158.51,248.74c1.77,0,3.02-.37,3.75-1.11.73-.74,1.11-1.86,1.15-3.37.02-.19.03-.47.03-.84v-1.09c0-.35,0-.62-.03-.81-.04-1.49-.46-2.62-1.27-3.37-.81-.76-1.91-1.13-3.29-1.13h-4.79v7.03c0,1.49.37,2.65,1.11,3.47s1.85,1.23,3.35,1.23Z"/>
        <path class="cls-3" d="M170.24,250.75c-.19,0-.34-.06-.46-.18s-.18-.28-.18-.46v-14.7c0-.19.06-.34.18-.46s.28-.18.46-.18h5.46c1.61,0,2.94.26,3.99.77s1.84,1.28,2.37,2.3c.52,1.02.78,2.29.78,3.82v8.46c0,.19-.06.34-.18.46s-.28.18-.46.18h-1.26c-.21,0-.36-.06-.48-.18-.11-.12-.17-.28-.17-.46v-8.37c0-1.49-.37-2.66-1.12-3.49-.75-.83-1.95-1.25-3.61-1.25h-3.42v13.1c0,.19-.06.34-.17.46s-.26.18-.45.18h-1.29Z"/>
        <path class="cls-3" d="M196.72,237.06l-3.33-.03c-.19,0-.34-.06-.46-.17-.12-.11-.18-.26-.18-.45v-4.9c0-.19.06-.34.18-.46s.27-.18.46-.18h1.18c.21,0,.36.06.48.18.11.12.17.28.17.46v3.25h1.57l-.06,2.3ZM196.67,251.01c-.17.06-.33.03-.48-.07s-.22-.25-.22-.43v-1.29c0-.17.05-.32.15-.45.1-.13.26-.23.46-.31l1.09-.42c.73-.32,1.39-.7,2-1.15.61-.45,1.08-1.06,1.43-1.85.34-.78.52-1.81.52-3.08s-.14-2.18-.43-2.9c-.29-.72-.77-1.23-1.46-1.54-.68-.31-1.61-.46-2.79-.46h-.84c-.19,0-.34-.06-.46-.18-.12-.12-.18-.28-.18-.46v-1.01c0-.19.06-.34.18-.46.12-.12.28-.18.46-.18h1.23c1.7,0,3.05.24,4.06.73s1.73,1.26,2.17,2.34.66,2.48.66,4.21c0,1.31-.18,2.44-.53,3.39s-.84,1.76-1.44,2.44-1.29,1.23-2.06,1.67-1.56.8-2.38,1.08l-1.15.39Z"/>
        <path class="cls-3" d="M207.73,252.29c-.19.07-.36.06-.53-.04s-.25-.25-.25-.43v-.95c0-.17.04-.33.11-.48s.2-.25.36-.31l5.91-1.93c1.06-.35,1.88-.81,2.46-1.37.58-.56.98-1.21,1.22-1.96.23-.75.35-1.56.35-2.44v-6.97c0-.19.06-.34.18-.46.12-.12.28-.18.46-.18h1.26c.21,0,.36.06.48.18.11.12.17.28.17.46v7.76c0,1.08-.24,2.1-.73,3.07-.49.96-1.18,1.8-2.09,2.52s-1.97,1.26-3.21,1.64l-6.16,1.9ZM211.4,250.08l-3.95-14.2c-.04-.15-.07-.26-.1-.34-.03-.07-.04-.15-.04-.22,0-.15.06-.28.17-.39.11-.11.24-.17.39-.17h1.37c.35,0,.57.14.64.42l3.89,14.25-2.38.64Z"/>
        <path class="cls-3" d="M224.5,244.26c-.19,0-.34-.06-.46-.18-.12-.12-.18-.28-.18-.46v-8.2c0-.19.06-.34.18-.46.12-.12.28-.18.46-.18h1.34c.19,0,.34.06.45.18.11.12.17.28.17.46v8.2c0,.19-.06.34-.17.46-.11.12-.26.18-.45.18h-1.34Z"/>
        <path class="cls-3" d="M240.35,237.06l-3.33-.03c-.19,0-.34-.06-.46-.17-.12-.11-.18-.26-.18-.45v-4.9c0-.19.06-.34.18-.46s.27-.18.46-.18h1.18c.21,0,.36.06.48.18.11.12.17.28.17.46v3.25h1.57l-.06,2.3ZM240.29,251.01c-.17.06-.33.03-.48-.07s-.22-.25-.22-.43v-1.29c0-.17.05-.32.15-.45.1-.13.26-.23.46-.31l1.09-.42c.73-.32,1.39-.7,2-1.15.61-.45,1.08-1.06,1.43-1.85.34-.78.52-1.81.52-3.08s-.14-2.18-.43-2.9c-.29-.72-.77-1.23-1.46-1.54-.68-.31-1.61-.46-2.79-.46h-.84c-.19,0-.34-.06-.46-.18-.12-.12-.18-.28-.18-.46v-1.01c0-.19.06-.34.18-.46.12-.12.28-.18.46-.18h1.23c1.7,0,3.05.24,4.06.73s1.73,1.26,2.17,2.34.66,2.48.66,4.21c0,1.31-.18,2.44-.53,3.39s-.84,1.76-1.44,2.44-1.29,1.23-2.06,1.67-1.56.8-2.38,1.08l-1.15.39Z"/>
        <path class="cls-3" d="M251.44,250.75c-.17,0-.31-.07-.42-.2-.11-.13-.16-.29-.14-.48l2.38-13.72c.04-.19.12-.33.25-.43.13-.1.29-.13.48-.1l1.12.06c.19.02.34.1.45.24.11.14.15.3.11.49l-2.24,13.47c-.02.19-.1.35-.24.48-.14.13-.3.2-.49.2h-1.26ZM258.52,237.06h-6.8c-.21,0-.36-.06-.48-.18-.11-.12-.17-.28-.17-.46v-1.01c0-.19.06-.34.17-.46s.27-.18.48-.18h7.11c1.16,0,2.19.27,3.09.81s1.62,1.32,2.13,2.34c.51,1.02.77,2.25.77,3.68v8.51c0,.19-.06.34-.17.46s-.27.18-.48.18h-7.22c-.19,0-.34-.06-.46-.18-.12-.12-.18-.28-.18-.46v-.95c0-.19.06-.34.18-.46.12-.12.28-.18.46-.18h5.32v-6.75c0-.95-.16-1.78-.49-2.49-.33-.71-.77-1.25-1.34-1.64-.57-.38-1.21-.57-1.92-.57Z"/>
        <path class="cls-3" d="M275.71,251.03c-2.33,0-4.07-.61-5.21-1.83-1.14-1.22-1.71-2.94-1.71-5.17v-8.62c0-.19.06-.34.18-.46s.28-.18.46-.18h6.75c1.66,0,2.99.25,3.98.76.99.5,1.71,1.25,2.17,2.23.46.98.71,2.19.77,3.63.02.19.03.49.03.9v1.23c0,.41,0,.71-.03.9-.04,1.42-.31,2.63-.81,3.63-.5,1-1.29,1.75-2.37,2.25-1.07.5-2.48.76-4.21.76ZM275.71,248.74c1.77,0,3.02-.37,3.75-1.11.73-.74,1.11-1.86,1.15-3.37.02-.19.03-.47.03-.84v-1.09c0-.35,0-.62-.03-.81-.04-1.49-.46-2.62-1.27-3.37-.81-.76-1.91-1.13-3.29-1.13h-4.79v7.03c0,1.49.37,2.65,1.11,3.47s1.85,1.23,3.35,1.23Z"/>
        <path class="cls-3" d="M131.55,308.15c-.19,0-.34-.06-.46-.18-.12-.12-.18-.27-.18-.46v-1.96c0-.19.06-.34.18-.46s.28-.18.46-.18h2.02c.19,0,.34.06.46.18.12.12.18.28.18.46v1.96c0,.19-.06.34-.18.46-.12.12-.28.18-.46.18h-2.02ZM131.55,317.95c-.19,0-.34-.06-.46-.18-.12-.12-.18-.28-.18-.46v-1.96c0-.19.06-.34.18-.46s.28-.18.46-.18h2.02c.19,0,.34.06.46.18.12.12.18.28.18.46v1.96c0,.19-.06.34-.18.46s-.28.18-.46.18h-2.02Z"/>
        <path class="cls-3" d="M138.95,321.43c-.19,0-.34-.06-.46-.18-.12-.12-.18-.28-.18-.46v-18.17c0-.19.06-.34.18-.46s.28-.18.46-.18h1.29c.19,0,.34.06.45.18s.17.28.17.46v18.17c0,.19-.06.34-.17.46-.11.12-.26.18-.45.18h-1.29Z"/>
        <path class="cls-3" d="M145.83,317.95c-.19,0-.34-.06-.46-.18s-.18-.28-.18-.46v-1.01c0-.19.06-.34.18-.46.12-.12.28-.18.46-.18h4c1.66,0,2.86-.42,3.58-1.25.73-.83,1.13-1.99,1.2-3.49.02-.41.03-.74.03-.98s0-.56-.03-.95c-.06-1.49-.45-2.66-1.19-3.49-.74-.83-1.94-1.25-3.6-1.25h-4c-.19,0-.34-.06-.46-.18-.12-.12-.18-.28-.18-.46v-1.01c0-.19.06-.34.18-.46s.28-.18.46-.18h4.14c1.64,0,2.98.28,4,.83,1.03.55,1.8,1.34,2.31,2.38s.79,2.28.83,3.74c.02.37.03.72.03,1.04s0,.67-.03,1.06c-.04,1.44-.31,2.68-.83,3.72-.51,1.04-1.28,1.84-2.31,2.39-1.03.55-2.36.83-4,.83h-4.14Z"/>
        <path class="cls-3" d="M161.46,317.95c-.19,0-.34-.06-.46-.18s-.18-.28-.18-.46v-14.7c0-.19.06-.34.18-.46s.28-.18.46-.18h1.32c.21,0,.36.06.48.18.11.12.17.28.17.46v14.7c0,.19-.06.34-.17.46-.11.12-.27.18-.48.18h-1.32Z"/>
        <path class="cls-3" d="M171.37,302.83h.7c.28,0,.49.07.63.21.14.14.2.31.18.52-.15.78-.28,1.49-.38,2.13s-.17,1.26-.21,1.89c-.04.63-.06,1.33-.06,2.11l.08,7.62c0,.19-.06.34-.18.46-.12.12-.28.18-.46.18l-3.98-.06c-.19,0-.34-.06-.46-.17-.12-.11-.18-.27-.18-.48v-.9c0-.19.06-.34.18-.46.12-.12.28-.18.46-.18l2.16.03v-5.94c0-.76,0-1.47.03-2.11.02-.64.08-1.29.17-1.95.09-.65.24-1.39.45-2.21.06-.21.14-.37.27-.5.12-.13.32-.2.6-.2ZM168.85,304.21c-.19,0-.34-.06-.46-.18-.12-.12-.18-.28-.18-.46v-.95c0-.19.06-.34.18-.46.12-.12.27-.18.46-.18h6.08c1.61,0,2.94.26,3.99.77s1.84,1.28,2.37,2.3.78,2.27.78,3.77v8.51c0,.19-.06.34-.18.46-.12.12-.28.18-.46.18h-1.26c-.21,0-.36-.06-.48-.18-.11-.12-.17-.28-.17-.46v-8.37c0-1.49-.37-2.66-1.12-3.49-.75-.83-1.95-1.25-3.61-1.25h-5.94Z"/>
        <path class="cls-3" d="M204.35,317.95c-.19,0-.34-.06-.46-.18-.12-.12-.18-.28-.18-.46v-8.37c0-1.49-.37-2.66-1.12-3.49-.75-.83-1.95-1.25-3.61-1.25h-5.26c-.19,0-.34-.06-.46-.18s-.18-.28-.18-.46v-.95c0-.19.06-.34.18-.46s.28-.18.46-.18h5.4c2.43,0,4.22.59,5.39,1.76,1.17,1.18,1.75,2.88,1.75,5.12v8.46c0,.19-.06.34-.18.46-.12.12-.28.18-.46.18h-1.26ZM193.71,317.95c-.19,0-.34-.06-.46-.18s-.18-.28-.18-.46v-9.35c0-.19.06-.34.18-.46.12-.12.28-.18.46-.18h1.29c.19,0,.34.06.45.18.11.12.17.28.17.46v9.35c0,.19-.06.34-.17.46s-.26.18-.45.18h-1.29Z"/>
        <path class="cls-3" d="M211.05,317.95c-.19,0-.34-.06-.46-.18s-.18-.28-.18-.46v-14.7c0-.19.06-.34.18-.46s.28-.18.46-.18h5.46c1.61,0,2.94.26,3.99.77s1.84,1.28,2.37,2.3c.52,1.02.78,2.29.78,3.82v8.46c0,.19-.06.34-.18.46s-.28.18-.46.18h-1.26c-.21,0-.36-.06-.48-.18-.11-.12-.17-.28-.17-.46v-8.37c0-1.49-.37-2.66-1.12-3.49-.75-.83-1.95-1.25-3.61-1.25h-3.42v13.1c0,.19-.06.34-.17.46s-.26.18-.45.18h-1.29Z"/>
        <path class="cls-3" d="M227.71,317.95c-.17,0-.31-.07-.42-.2-.11-.13-.16-.29-.14-.48l2.38-13.72c.04-.19.12-.33.25-.43.13-.1.29-.13.48-.1l1.12.06c.19.02.34.1.45.24.11.14.15.3.11.49l-2.24,13.47c-.02.19-.1.35-.24.48-.14.13-.3.2-.49.2h-1.26ZM234.79,304.26h-6.8c-.21,0-.36-.06-.48-.18-.11-.12-.17-.28-.17-.46v-1.01c0-.19.06-.34.17-.46s.27-.18.48-.18h7.11c1.16,0,2.19.27,3.09.81s1.62,1.32,2.13,2.34c.51,1.02.77,2.25.77,3.68v8.51c0,.19-.06.34-.17.46s-.27.18-.48.18h-7.22c-.19,0-.34-.06-.46-.18-.12-.12-.18-.28-.18-.46v-.95c0-.19.06-.34.18-.46.12-.12.28-.18.46-.18h5.32v-6.75c0-.95-.16-1.78-.49-2.49-.33-.71-.77-1.25-1.34-1.64-.57-.38-1.21-.57-1.92-.57Z"/>
        <path class="cls-3" d="M245.88,317.95c-.19,0-.34-.06-.46-.18s-.18-.28-.18-.46v-14.7c0-.19.06-.34.18-.46s.28-.18.46-.18h1.32c.21,0,.36.06.48.18.11.12.17.28.17.46v14.7c0,.19-.06.34-.17.46-.11.12-.27.18-.48.18h-1.32Z"/>
        <path class="cls-3" d="M252.07,317.95c-.17,0-.31-.07-.42-.2-.11-.13-.16-.29-.14-.48l2.38-13.72c.04-.19.12-.33.25-.43.13-.1.29-.13.48-.1l1.12.06c.19.02.34.1.45.24.11.14.15.3.11.49l-2.24,13.47c-.02.19-.1.35-.24.48-.14.13-.3.2-.49.2h-1.26ZM259.15,304.26h-6.8c-.21,0-.36-.06-.48-.18-.11-.12-.17-.28-.17-.46v-1.01c0-.19.06-.34.17-.46s.27-.18.48-.18h7.11c1.16,0,2.19.27,3.09.81s1.62,1.32,2.13,2.34c.51,1.02.77,2.25.77,3.68v8.51c0,.19-.06.34-.17.46s-.27.18-.48.18h-7.22c-.19,0-.34-.06-.46-.18-.12-.12-.18-.28-.18-.46v-.95c0-.19.06-.34.18-.46.12-.12.28-.18.46-.18h5.32v-6.75c0-.95-.16-1.78-.49-2.49-.33-.71-.77-1.25-1.34-1.64-.57-.38-1.21-.57-1.92-.57Z"/>
        <path class="cls-3" d="M93.81,351.83c-2.33,0-4.07-.61-5.21-1.83-1.14-1.22-1.71-2.94-1.71-5.17v-8.62c0-.19.06-.34.18-.46s.28-.18.46-.18h6.75c1.66,0,2.99.25,3.98.76.99.5,1.71,1.25,2.17,2.23.46.98.71,2.19.77,3.63.02.19.03.49.03.9v1.23c0,.41,0,.71-.03.9-.04,1.42-.31,2.63-.81,3.63-.5,1-1.29,1.75-2.37,2.25-1.07.5-2.48.76-4.21.76ZM93.81,349.54c1.77,0,3.02-.37,3.75-1.11.73-.74,1.11-1.86,1.15-3.37.02-.19.03-.47.03-.84v-1.09c0-.35,0-.62-.03-.81-.04-1.49-.46-2.62-1.27-3.37-.81-.76-1.91-1.13-3.29-1.13h-4.79v7.03c0,1.49.37,2.65,1.11,3.47s1.85,1.23,3.35,1.23Z"/>
        <path class="cls-3" d="M104.84,351.55c-.19,0-.34-.06-.46-.18-.12-.12-.18-.28-.18-.46v-4.2c0-.86.08-1.68.25-2.45s.5-1.51.99-2.21c.49-.7,1.24-1.36,2.23-1.97l1.29,1.88c-.67.43-1.18.92-1.51,1.47s-.56,1.12-.67,1.71c-.11.59-.17,1.15-.17,1.69v4.09c0,.19-.06.34-.18.46-.12.12-.28.18-.46.18h-1.12ZM115.76,351.55c-.21,0-.36-.06-.48-.17-.11-.11-.21-.21-.31-.31l-10.28-14.42c-.13-.21-.2-.38-.2-.53s.06-.28.18-.39c.12-.11.26-.17.41-.17h1.32c.21,0,.37.06.49.17.12.11.22.21.29.31l10.3,14.42c.07.13.13.23.15.31.03.08.04.15.04.22,0,.15-.06.28-.17.39-.11.11-.24.17-.39.17h-1.37ZM113.52,346.43l-1.15-1.93c.91-.43,1.56-.88,1.95-1.34.38-.47.61-.96.69-1.47.07-.51.11-1.05.11-1.61v-3.86c0-.19.06-.34.18-.46s.28-.18.46-.18h1.18c.19,0,.34.06.46.18.12.12.18.28.18.46v4c0,.78-.09,1.54-.28,2.27-.19.73-.56,1.41-1.13,2.06-.57.64-1.45,1.27-2.65,1.89Z"/>
        <path class="cls-3" d="M128.08,351.83c-2.33,0-4.07-.61-5.21-1.83-1.14-1.22-1.71-2.94-1.71-5.17v-8.62c0-.19.06-.34.18-.46s.28-.18.46-.18h6.75c1.66,0,2.99.25,3.98.76.99.5,1.71,1.25,2.17,2.23.46.98.71,2.19.77,3.63.02.19.03.49.03.9v1.23c0,.41,0,.71-.03.9-.04,1.42-.31,2.63-.81,3.63-.5,1-1.29,1.75-2.37,2.25-1.07.5-2.48.76-4.21.76ZM128.08,349.54c1.77,0,3.02-.37,3.75-1.11.73-.74,1.11-1.86,1.15-3.37.02-.19.03-.47.03-.84v-1.09c0-.35,0-.62-.03-.81-.04-1.49-.46-2.62-1.27-3.37-.81-.76-1.91-1.13-3.29-1.13h-4.79v7.03c0,1.49.37,2.65,1.11,3.47s1.85,1.23,3.35,1.23Z"/>
        <path class="cls-3" d="M146,351.55c-.19,0-.34-.06-.46-.18-.12-.12-.18-.28-.18-.46v-.95c0-.19.06-.34.18-.46.12-.12.28-.18.46-.18h8.04v-6.78c0-1.49-.37-2.66-1.12-3.49-.75-.83-1.95-1.25-3.61-1.25h-3.02c-.19,0-.34-.06-.46-.18-.12-.12-.18-.28-.18-.46v-.95c0-.19.06-.34.18-.46.12-.12.27-.18.46-.18h3.16c1.6,0,2.94.26,4,.78,1.06.52,1.86,1.29,2.39,2.31.53,1.02.8,2.28.8,3.79v6.86h1.04c.19,0,.34.06.46.18s.18.28.18.46v.95c0,.19-.06.34-.18.46s-.28.18-.46.18h-11.68Z"/>
        <path class="cls-3" d="M161.93,351.55c-.19,0-.34-.06-.46-.18s-.18-.28-.18-.46v-14.7c0-.19.06-.34.18-.46s.28-.18.46-.18h1.32c.21,0,.36.06.48.18.11.12.17.28.17.46v14.7c0,.19-.06.34-.17.46-.11.12-.27.18-.48.18h-1.32Z"/>
        <path class="cls-3" d="M167.95,351.55c-.19,0-.34-.06-.46-.18-.12-.12-.18-.28-.18-.46v-.95c0-.19.06-.34.18-.46.12-.12.27-.18.46-.18h7.9v1.71c0,.19-.06.32-.18.41-.12.08-.28.13-.46.13h-7.25ZM174.14,351.55c-.19,0-.33-.06-.43-.18s-.17-.28-.21-.46l-.53-8.65c-.04-.91-.11-1.71-.21-2.38s-.33-1.19-.67-1.57c-.35-.37-.92-.56-1.72-.56h-1.15c-.19,0-.34-.06-.46-.18-.12-.12-.18-.27-.18-.46v-.95c0-.19.06-.34.18-.46s.28-.18.46-.18h1.18c1.06,0,1.92.15,2.58.46s1.16.76,1.53,1.34c.36.59.62,1.29.78,2.11.16.82.27,1.74.32,2.74l.53,8.74c.02.19-.04.34-.17.46-.13.12-.29.18-.48.18h-1.34Z"/>
        <path class="cls-3" d="M186.35,351.83c-2.33,0-4.07-.61-5.21-1.83-1.14-1.22-1.71-2.94-1.71-5.17v-8.62c0-.19.06-.34.18-.46s.28-.18.46-.18h6.75c1.66,0,2.99.25,3.98.76.99.5,1.71,1.25,2.17,2.23.46.98.71,2.19.77,3.63.02.19.03.49.03.9v1.23c0,.41,0,.71-.03.9-.04,1.42-.31,2.63-.81,3.63-.5,1-1.29,1.75-2.37,2.25-1.07.5-2.48.76-4.21.76ZM186.35,349.54c1.77,0,3.02-.37,3.75-1.11.73-.74,1.11-1.86,1.15-3.37.02-.19.03-.47.03-.84v-1.09c0-.35,0-.62-.03-.81-.04-1.49-.46-2.62-1.27-3.37-.81-.76-1.91-1.13-3.29-1.13h-4.79v7.03c0,1.49.37,2.65,1.11,3.47s1.85,1.23,3.35,1.23Z"/>
        <path class="cls-3" d="M206.2,351.55c-.19,0-.34-.06-.46-.18-.12-.12-.18-.28-.18-.46v-8.37c0-1.49-.37-2.66-1.12-3.49-.75-.83-1.95-1.25-3.61-1.25h-3.67c-.19,0-.34-.06-.46-.18-.12-.12-.18-.28-.18-.46v-.95c0-.19.06-.34.18-.46.12-.12.27-.18.46-.18h3.81c1.61,0,2.94.25,3.99.76,1.05.5,1.84,1.27,2.37,2.28.52,1.02.78,2.28.78,3.79v8.51c0,.19-.06.34-.18.46s-.28.18-.46.18h-1.26Z"/>
        <path class="cls-3" d="M212.89,351.55c-.19,0-.34-.06-.46-.18s-.18-.28-.18-.46v-14.7c0-.19.06-.34.18-.46s.28-.18.46-.18h1.32c.21,0,.36.06.48.18.11.12.17.28.17.46v14.7c0,.19-.06.34-.17.46-.11.12-.27.18-.48.18h-1.32Z"/>
        <path class="cls-3" d="M226.47,345.06c-.19,0-.34-.06-.46-.18-.12-.12-.18-.28-.18-.46v-8.2c0-.19.06-.34.18-.46.12-.12.28-.18.46-.18h1.34c.19,0,.34.06.45.18.11.12.17.28.17.46v8.2c0,.19-.06.34-.17.46-.11.12-.26.18-.45.18h-1.34Z"/>
        <path class="cls-3" d="M232.1,337.81c-.19,0-.34-.06-.46-.18s-.18-.28-.18-.46v-.95c0-.19.06-.34.18-.46s.28-.18.46-.18h12.01c.19,0,.34.06.46.18.12.12.18.28.18.46v.95c0,.19-.06.34-.18.46-.12.12-.28.18-.46.18h-12.01ZM239.66,351.55c-.41,0-.62-.21-.62-.62v-10c0-1.1.13-1.96.39-2.58.26-.62.59-.92.98-.92h2.74c-.47,0-.84.36-1.13,1.06-.29.71-.43,1.59-.43,2.63v9.8c0,.19-.07.34-.2.45s-.29.17-.48.17h-1.26Z"/>
        <path class="cls-3" d="M248.01,353.09c-.19.07-.36.06-.53-.04s-.25-.25-.25-.43v-.95c0-.17.04-.33.11-.48s.2-.25.36-.31l5.91-1.93c1.06-.35,1.88-.81,2.46-1.37.58-.56.98-1.21,1.22-1.96.23-.75.35-1.56.35-2.44v-6.97c0-.19.06-.34.18-.46.12-.12.28-.18.46-.18h1.26c.21,0,.36.06.48.18.11.12.17.28.17.46v7.76c0,1.08-.24,2.1-.73,3.07-.49.96-1.18,1.8-2.09,2.52s-1.97,1.26-3.21,1.64l-6.16,1.9ZM251.67,350.88l-3.95-14.2c-.04-.15-.07-.26-.1-.34-.03-.07-.04-.15-.04-.22,0-.15.06-.28.17-.39.11-.11.24-.17.39-.17h1.37c.35,0,.57.14.64.42l3.89,14.25-2.38.64Z"/>
        <path class="cls-3" d="M274.07,337.86l-3.33-.03c-.19,0-.34-.06-.46-.17-.12-.11-.18-.26-.18-.45v-4.9c0-.19.06-.34.18-.46s.27-.18.46-.18h1.18c.21,0,.36.06.48.18.11.12.17.28.17.46v3.25h1.57l-.06,2.3ZM274.02,351.81c-.17.06-.33.03-.48-.07s-.22-.25-.22-.43v-1.29c0-.17.05-.32.15-.45.1-.13.26-.23.46-.31l1.09-.42c.73-.32,1.39-.7,2-1.15.61-.45,1.08-1.06,1.43-1.85.34-.78.52-1.81.52-3.08s-.14-2.18-.43-2.9c-.29-.72-.77-1.23-1.46-1.54-.68-.31-1.61-.46-2.79-.46h-.84c-.19,0-.34-.06-.46-.18-.12-.12-.18-.28-.18-.46v-1.01c0-.19.06-.34.18-.46.12-.12.28-.18.46-.18h1.23c1.7,0,3.05.24,4.06.73s1.73,1.26,2.17,2.34.66,2.48.66,4.21c0,1.31-.18,2.44-.53,3.39s-.84,1.76-1.44,2.44-1.29,1.23-2.06,1.67-1.56.8-2.38,1.08l-1.15.39Z"/>
        <path class="cls-3" d="M285.16,351.55c-.17,0-.31-.07-.42-.2-.11-.13-.16-.29-.14-.48l2.38-13.72c.04-.19.12-.33.25-.43.13-.1.29-.13.48-.1l1.12.06c.19.02.34.1.45.24.11.14.15.3.11.49l-2.24,13.47c-.02.19-.1.35-.24.48-.14.13-.3.2-.49.2h-1.26ZM292.25,337.86h-6.8c-.21,0-.36-.06-.48-.18-.11-.12-.17-.28-.17-.46v-1.01c0-.19.06-.34.17-.46s.27-.18.48-.18h7.11c1.16,0,2.19.27,3.09.81s1.62,1.32,2.13,2.34c.51,1.02.77,2.25.77,3.68v8.51c0,.19-.06.34-.17.46s-.27.18-.48.18h-7.22c-.19,0-.34-.06-.46-.18-.12-.12-.18-.28-.18-.46v-.95c0-.19.06-.34.18-.46.12-.12.28-.18.46-.18h5.32v-6.75c0-.95-.16-1.78-.49-2.49-.33-.71-.77-1.25-1.34-1.64-.57-.38-1.21-.57-1.92-.57Z"/>
        <path class="cls-3" d="M309.44,351.83c-2.33,0-4.07-.61-5.21-1.83-1.14-1.22-1.71-2.94-1.71-5.17v-8.62c0-.19.06-.34.18-.46s.28-.18.46-.18h6.75c1.66,0,2.99.25,3.98.76.99.5,1.71,1.25,2.17,2.23.46.98.71,2.19.77,3.63.02.19.03.49.03.9v1.23c0,.41,0,.71-.03.9-.04,1.42-.31,2.63-.81,3.63-.5,1-1.29,1.75-2.37,2.25-1.07.5-2.48.76-4.21.76ZM309.44,349.54c1.77,0,3.02-.37,3.75-1.11.73-.74,1.11-1.86,1.15-3.37.02-.19.03-.47.03-.84v-1.09c0-.35,0-.62-.03-.81-.04-1.49-.46-2.62-1.27-3.37-.81-.76-1.91-1.13-3.29-1.13h-4.79v7.03c0,1.49.37,2.65,1.11,3.47s1.85,1.23,3.35,1.23Z"/>
        <path class="cls-3" d="M151.92,408.95c-.19,0-.34-.06-.46-.18-.12-.12-.18-.27-.18-.46v-1.96c0-.19.06-.34.18-.46s.28-.18.46-.18h2.02c.19,0,.34.06.46.18.12.12.18.28.18.46v1.96c0,.19-.06.34-.18.46-.12.12-.28.18-.46.18h-2.02ZM151.92,418.75c-.19,0-.34-.06-.46-.18-.12-.12-.18-.28-.18-.46v-1.96c0-.19.06-.34.18-.46s.28-.18.46-.18h2.02c.19,0,.34.06.46.18.12.12.18.28.18.46v1.96c0,.19-.06.34-.18.46s-.28.18-.46.18h-2.02Z"/>
        <path class="cls-3" d="M166.88,418.75c-.19,0-.34-.06-.46-.18-.12-.12-.18-.28-.18-.46v-8.37c0-1.49-.37-2.66-1.12-3.49-.75-.83-1.95-1.25-3.61-1.25h-3.67c-.19,0-.34-.06-.46-.18-.12-.12-.18-.28-.18-.46v-.95c0-.19.06-.34.18-.46.12-.12.27-.18.46-.18h3.81c1.61,0,2.94.25,3.99.76,1.05.5,1.84,1.27,2.37,2.28.52,1.02.78,2.28.78,3.79v8.51c0,.19-.06.34-.18.46s-.28.18-.46.18h-1.26Z"/>
        <path class="cls-3" d="M173.57,418.75c-.19,0-.34-.06-.46-.18s-.18-.28-.18-.46v-14.7c0-.19.06-.34.18-.46s.28-.18.46-.18h1.32c.21,0,.36.06.48.18.11.12.17.28.17.46v14.7c0,.19-.06.34-.17.46-.11.12-.27.18-.48.18h-1.32Z"/>
        <path class="cls-3" d="M186.76,419.03c-2.5,0-4.3-.61-5.4-1.82-1.1-1.21-1.65-2.89-1.65-5.04v-8.76c0-.19.06-.34.18-.46.12-.12.28-.18.46-.18h1.15c.21,0,.36.06.48.18s.17.28.17.46v8.62c0,1.49.38,2.65,1.15,3.47s1.92,1.23,3.47,1.23,2.68-.37,3.4-1.12c.72-.75,1.1-1.87,1.13-3.36.02-.19.02-.47.01-.85,0-.38-.01-.77-.01-1.16v-.87c-.04-1.55-.37-2.68-.99-3.39-.63-.71-1.44-1.06-2.45-1.06-.32,0-.68.06-1.09.17-.41.11-.76.26-1.04.45-.17.09-.35.1-.53.01s-.28-.23-.28-.43v-.87c0-.19.02-.35.06-.49.04-.14.14-.27.31-.38.37-.22.78-.41,1.22-.55s1-.21,1.69-.21c1.21,0,2.23.23,3.05.69.82.46,1.45,1.16,1.89,2.11.44.95.67,2.17.69,3.67.02.19.03.5.03.95v1.37c0,.47,0,.79-.03.98-.04,1.42-.29,2.63-.77,3.63-.48,1-1.22,1.75-2.24,2.25-1.02.5-2.37.76-4.05.76Z"/>
        <path class="cls-3" d="M197.28,418.75c-.17,0-.31-.07-.42-.2-.11-.13-.16-.29-.14-.48l2.38-13.72c.04-.19.12-.33.25-.43.13-.1.29-.13.48-.1l1.12.06c.19.02.34.1.45.24.11.14.15.3.11.49l-2.24,13.47c-.02.19-.1.35-.24.48-.14.13-.3.2-.49.2h-1.26ZM204.37,405.06h-6.8c-.21,0-.36-.06-.48-.18-.11-.12-.17-.28-.17-.46v-1.01c0-.19.06-.34.17-.46s.27-.18.48-.18h7.11c1.16,0,2.19.27,3.09.81s1.62,1.32,2.13,2.34c.51,1.02.77,2.25.77,3.68v8.51c0,.19-.06.34-.17.46s-.27.18-.48.18h-7.22c-.19,0-.34-.06-.46-.18-.12-.12-.18-.28-.18-.46v-.95c0-.19.06-.34.18-.46.12-.12.28-.18.46-.18h5.32v-6.75c0-.95-.16-1.78-.49-2.49-.33-.71-.77-1.25-1.34-1.64-.57-.38-1.21-.57-1.92-.57Z"/>
        <path class="cls-3" d="M215.26,412.26c-.19,0-.34-.06-.46-.18-.12-.12-.18-.28-.18-.46v-8.2c0-.19.06-.34.18-.46.12-.12.28-.18.46-.18h1.34c.19,0,.34.06.45.18.11.12.17.28.17.46v8.2c0,.19-.06.34-.17.46-.11.12-.26.18-.45.18h-1.34Z"/>
        <path class="cls-3" d="M221.11,418.75c-.19,0-.34-.06-.46-.18-.12-.12-.18-.28-.18-.46v-.95c0-.19.06-.34.18-.46.12-.12.27-.18.46-.18h7.9v1.71c0,.19-.06.32-.18.41-.12.08-.28.13-.46.13h-7.25ZM227.3,418.75c-.19,0-.33-.06-.43-.18s-.17-.28-.21-.46l-.53-8.65c-.04-.91-.11-1.71-.21-2.38s-.33-1.19-.67-1.57c-.35-.37-.92-.56-1.72-.56h-1.15c-.19,0-.34-.06-.46-.18-.12-.12-.18-.27-.18-.46v-.95c0-.19.06-.34.18-.46s.28-.18.46-.18h1.18c1.06,0,1.92.15,2.58.46s1.16.76,1.53,1.34c.36.59.62,1.29.78,2.11.16.82.27,1.74.32,2.74l.53,8.74c.02.19-.04.34-.17.46-.13.12-.29.18-.48.18h-1.34Z"/>
        <path class="cls-3" d="M232.73,418.75c-.19,0-.34-.06-.46-.18-.12-.12-.18-.28-.18-.46v-4.2c0-.86.08-1.68.25-2.45s.5-1.51.99-2.21c.49-.7,1.24-1.36,2.23-1.97l1.29,1.88c-.67.43-1.18.92-1.51,1.47s-.56,1.12-.67,1.71c-.11.59-.17,1.15-.17,1.69v4.09c0,.19-.06.34-.18.46-.12.12-.28.18-.46.18h-1.12ZM243.65,418.75c-.21,0-.36-.06-.48-.17-.11-.11-.21-.21-.31-.31l-10.28-14.42c-.13-.21-.2-.38-.2-.53s.06-.28.18-.39c.12-.11.26-.17.41-.17h1.32c.21,0,.37.06.49.17.12.11.22.21.29.31l10.3,14.42c.07.13.13.23.15.31.03.08.04.15.04.22,0,.15-.06.28-.17.39-.11.11-.24.17-.39.17h-1.37ZM241.41,413.63l-1.15-1.93c.91-.43,1.56-.88,1.95-1.34.38-.47.61-.96.69-1.47.07-.51.11-1.05.11-1.61v-3.86c0-.19.06-.34.18-.46s.28-.18.46-.18h1.18c.19,0,.34.06.46.18.12.12.18.28.18.46v4c0,.78-.09,1.54-.28,2.27-.19.73-.56,1.41-1.13,2.06-.57.64-1.45,1.27-2.65,1.89Z"/>
        <path class="cls-3" d="M119.79,452.35c-.19,0-.34-.06-.46-.18-.12-.12-.18-.28-.18-.46v-8.37c0-1.49-.37-2.66-1.12-3.49-.75-.83-1.95-1.25-3.61-1.25h-5.26c-.19,0-.34-.06-.46-.18s-.18-.28-.18-.46v-.95c0-.19.06-.34.18-.46s.28-.18.46-.18h5.4c2.43,0,4.22.59,5.39,1.76,1.17,1.18,1.75,2.88,1.75,5.12v8.46c0,.19-.06.34-.18.46-.12.12-.28.18-.46.18h-1.26ZM109.15,452.35c-.19,0-.34-.06-.46-.18s-.18-.28-.18-.46v-9.35c0-.19.06-.34.18-.46.12-.12.28-.18.46-.18h1.29c.19,0,.34.06.45.18.11.12.17.28.17.46v9.35c0,.19-.06.34-.17.46s-.26.18-.45.18h-1.29Z"/>
        <path class="cls-3" d="M132.76,452.64c-2.5,0-4.3-.61-5.4-1.82-1.1-1.21-1.65-2.89-1.65-5.04v-8.76c0-.19.06-.34.18-.46.12-.12.28-.18.46-.18h1.15c.21,0,.36.06.48.18s.17.28.17.46v8.62c0,1.49.38,2.65,1.15,3.47s1.92,1.23,3.47,1.23,2.68-.37,3.4-1.12c.72-.75,1.1-1.87,1.13-3.36.02-.19.02-.47.01-.85,0-.38-.01-.77-.01-1.16v-.87c-.04-1.55-.37-2.68-.99-3.39-.63-.71-1.44-1.06-2.45-1.06-.32,0-.68.06-1.09.17-.41.11-.76.26-1.04.45-.17.09-.35.1-.53.01s-.28-.23-.28-.43v-.87c0-.19.02-.35.06-.49.04-.14.14-.27.31-.38.37-.22.78-.41,1.22-.55s1-.21,1.69-.21c1.21,0,2.23.23,3.05.69.82.46,1.45,1.16,1.89,2.11.44.95.67,2.17.69,3.67.02.19.03.5.03.95v1.37c0,.47,0,.79-.03.98-.04,1.42-.29,2.63-.77,3.63-.48,1-1.22,1.75-2.24,2.25-1.02.5-2.37.76-4.05.76Z"/>
        <path class="cls-3" d="M143.96,445.86c-.19,0-.34-.06-.46-.18-.12-.12-.18-.28-.18-.46v-8.2c0-.19.06-.34.18-.46.12-.12.28-.18.46-.18h1.34c.19,0,.34.06.45.18.11.12.17.28.17.46v8.2c0,.19-.06.34-.17.46-.11.12-.26.18-.45.18h-1.34Z"/>
        <path class="cls-3" d="M149.81,452.35c-.19,0-.34-.06-.46-.18-.12-.12-.18-.28-.18-.46v-.95c0-.19.06-.34.18-.46.12-.12.27-.18.46-.18h7.9v1.71c0,.19-.06.32-.18.41-.12.08-.28.13-.46.13h-7.25ZM156,452.35c-.19,0-.33-.06-.43-.18s-.17-.28-.21-.46l-.53-8.65c-.04-.91-.11-1.71-.21-2.38s-.33-1.19-.67-1.57c-.35-.37-.92-.56-1.72-.56h-1.15c-.19,0-.34-.06-.46-.18-.12-.12-.18-.27-.18-.46v-.95c0-.19.06-.34.18-.46s.28-.18.46-.18h1.18c1.06,0,1.92.15,2.58.46s1.16.76,1.53,1.34c.36.59.62,1.29.78,2.11.16.82.27,1.74.32,2.74l.53,8.74c.02.19-.04.34-.17.46-.13.12-.29.18-.48.18h-1.34Z"/>
        <path class="cls-3" d="M161.43,452.35c-.19,0-.34-.06-.46-.18-.12-.12-.18-.28-.18-.46v-.95c0-.19.06-.34.18-.46.12-.12.28-.18.46-.18h8.04v-6.78c0-1.49-.37-2.66-1.12-3.49-.75-.83-1.95-1.25-3.61-1.25h-3.02c-.19,0-.34-.06-.46-.18-.12-.12-.18-.28-.18-.46v-.95c0-.19.06-.34.18-.46.12-.12.27-.18.46-.18h3.16c1.6,0,2.94.26,4,.78,1.06.52,1.86,1.29,2.39,2.31.53,1.02.8,2.28.8,3.79v6.86h1.04c.19,0,.34.06.46.18s.18.28.18.46v.95c0,.19-.06.34-.18.46s-.28.18-.46.18h-11.68Z"/>
        <path class="cls-3" d="M183.83,452.35c-.19,0-.34-.06-.46-.18s-.18-.28-.18-.46v-14.7c0-.19.06-.34.18-.46s.28-.18.46-.18h5.35c1.6,0,2.93.26,3.98.77,1.04.51,1.82,1.27,2.34,2.28.51,1.01.77,2.27.77,3.78v8.51c0,.19-.06.34-.17.46-.11.12-.27.18-.48.18h-11.79ZM185.59,450.11h8.18v-6.78c0-1.49-.37-2.66-1.12-3.49-.75-.83-1.95-1.25-3.61-1.25h-3.44v11.51Z"/>
        <path class="cls-3" d="M200.29,453.89c-.19.07-.36.06-.53-.04s-.25-.25-.25-.43v-.95c0-.17.04-.33.11-.48s.2-.25.36-.31l5.91-1.93c1.06-.35,1.88-.81,2.46-1.37.58-.56.98-1.21,1.22-1.96.23-.75.35-1.56.35-2.44v-6.97c0-.19.06-.34.18-.46.12-.12.28-.18.46-.18h1.26c.21,0,.36.06.48.18.11.12.17.28.17.46v7.76c0,1.08-.24,2.1-.73,3.07-.49.96-1.18,1.8-2.09,2.52s-1.97,1.26-3.21,1.64l-6.16,1.9ZM203.96,451.68l-3.95-14.2c-.04-.15-.07-.26-.1-.34-.03-.07-.04-.15-.04-.22,0-.15.06-.28.17-.39.11-.11.24-.17.39-.17h1.37c.35,0,.57.14.64.42l3.89,14.25-2.38.64Z"/>
        <path class="cls-3" d="M217.26,452.35c-.19,0-.34-.06-.46-.18s-.18-.28-.18-.46v-14.7c0-.19.06-.34.18-.46s.28-.18.46-.18h1.32c.21,0,.36.06.48.18.11.12.17.28.17.46v14.7c0,.19-.06.34-.17.46-.11.12-.27.18-.48.18h-1.32Z"/>
        <path class="cls-3" d="M223.28,452.35c-.19,0-.34-.06-.46-.18-.12-.12-.18-.28-.18-.46v-.95c0-.19.06-.34.18-.46.12-.12.27-.18.46-.18h7.9v1.71c0,.19-.06.32-.18.41-.12.08-.28.13-.46.13h-7.25ZM229.47,452.35c-.19,0-.33-.06-.43-.18s-.17-.28-.21-.46l-.53-8.65c-.04-.91-.11-1.71-.21-2.38s-.33-1.19-.67-1.57c-.35-.37-.92-.56-1.72-.56h-1.15c-.19,0-.34-.06-.46-.18-.12-.12-.18-.27-.18-.46v-.95c0-.19.06-.34.18-.46s.28-.18.46-.18h1.18c1.06,0,1.92.15,2.58.46s1.16.76,1.53,1.34c.36.59.62,1.29.78,2.11.16.82.27,1.74.32,2.74l.53,8.74c.02.19-.04.34-.17.46-.13.12-.29.18-.48.18h-1.34Z"/>
        <path class="cls-3" d="M248.71,452.64c-2.5,0-4.3-.61-5.4-1.82-1.1-1.21-1.65-2.89-1.65-5.04v-8.76c0-.19.06-.34.18-.46.12-.12.28-.18.46-.18h1.15c.21,0,.36.06.48.18s.17.28.17.46v8.62c0,1.49.38,2.65,1.15,3.47s1.92,1.23,3.47,1.23,2.68-.37,3.4-1.12c.72-.75,1.1-1.87,1.13-3.36.02-.19.02-.47.01-.85,0-.38-.01-.77-.01-1.16v-.87c-.04-1.55-.37-2.68-.99-3.39-.63-.71-1.44-1.06-2.45-1.06-.32,0-.68.06-1.09.17-.41.11-.76.26-1.04.45-.17.09-.35.1-.53.01s-.28-.23-.28-.43v-.87c0-.19.02-.35.06-.49.04-.14.14-.27.31-.38.37-.22.78-.41,1.22-.55s1-.21,1.69-.21c1.21,0,2.23.23,3.05.69.82.46,1.45,1.16,1.89,2.11.44.95.67,2.17.69,3.67.02.19.03.5.03.95v1.37c0,.47,0,.79-.03.98-.04,1.42-.29,2.63-.77,3.63-.48,1-1.22,1.75-2.24,2.25-1.02.5-2.37.76-4.05.76Z"/>
        <path class="cls-3" d="M258.84,437.88c-.15,0-.27-.06-.35-.17-.08-.11-.12-.25-.1-.42l.64-4c.04-.22.12-.42.24-.57.12-.16.3-.24.55-.24h1.88c.13,0,.24.05.32.15s.13.21.13.32c0,.15-.04.3-.11.45l-1.46,3.84c-.08.19-.17.34-.29.46s-.29.18-.52.18h-.92ZM263.32,437.88c-.17,0-.29-.06-.36-.17-.08-.11-.1-.25-.08-.42l.64-4c.04-.22.11-.42.22-.57.11-.16.3-.24.56-.24h1.85c.15,0,.27.05.35.15s.13.21.13.32c0,.15-.04.3-.11.45l-1.46,3.84c-.07.19-.17.34-.29.46-.12.12-.3.18-.55.18h-.9Z"/>
        <path class="cls-3" d="M269.76,452.35c-.19,0-.34-.06-.46-.18-.12-.12-.18-.28-.18-.46v-.95c0-.19.06-.34.18-.46.12-.12.28-.18.46-.18h8.04v-6.78c0-1.49-.37-2.66-1.12-3.49-.75-.83-1.95-1.25-3.61-1.25h-3.02c-.19,0-.34-.06-.46-.18-.12-.12-.18-.28-.18-.46v-.95c0-.19.06-.34.18-.46.12-.12.27-.18.46-.18h3.16c1.6,0,2.94.26,4,.78,1.06.52,1.86,1.29,2.39,2.31.53,1.02.8,2.28.8,3.79v6.86h1.04c.19,0,.34.06.46.18s.18.28.18.46v.95c0,.19-.06.34-.18.46s-.28.18-.46.18h-11.68Z"/>
        <path class="cls-3" d="M293.03,452.35c-.19,0-.34-.06-.46-.18-.12-.12-.18-.28-.18-.46v-8.37c0-1.49-.37-2.66-1.12-3.49-.75-.83-1.95-1.25-3.61-1.25h-3.67c-.19,0-.34-.06-.46-.18-.12-.12-.18-.28-.18-.46v-.95c0-.19.06-.34.18-.46.12-.12.27-.18.46-.18h3.81c1.61,0,2.94.25,3.99.76,1.05.5,1.84,1.27,2.37,2.28.52,1.02.78,2.28.78,3.79v8.51c0,.19-.06.34-.18.46s-.28.18-.46.18h-1.26Z"/>
      </g>
    </g>
  </g>
</svg>