<?xml version="1.0" encoding="UTF-8"?>
<svg id="Layer_2" data-name="Layer 2" xmlns="http://www.w3.org/2000/svg" viewBox="0 0 319.54 530.39">
  <defs>
    <style>
      .cls-1 {
        fill: #ffe;
      }

      .cls-1, .cls-2 {
        stroke-width: 0px;
      }

      .cls-2 {
        fill: none;
      }
    </style>
  </defs>
  <g id="Layer_1-2" data-name="Layer 1">
    <g>
      <g>
        <path class="cls-1" d="M298.5,512.91H21.03V17.48h277.47v495.44ZM23.03,510.91h273.47V19.48H23.03v491.44Z"/>
        <path class="cls-2" d="M319.54,0v530.39H0V0h319.54Z"/>
      </g>
      <g>
        <path class="cls-1" d="M43.27,92.57v-2c6.97,0,13.6-2.18,19.21-6.3l.07-23.56h-24.44v-28.25l26.52.39-.08,25.87h23.48c4.12-5.61,6.3-12.24,6.3-19.21h2c0,7.58-2.42,14.77-7,20.81l-.3.4h-24.48l-.07,24.56-.39.3c-6.04,4.58-13.24,7-20.81,7ZM40.11,58.71h22.44l.07-23.9-22.52-.33v24.22Z"/>
        <path class="cls-1" d="M276.27,92.57c-7.58,0-14.77-2.42-20.81-7l-.39-.3-.07-24.56h-24.48l-.3-.4c-4.58-6.04-7-13.24-7-20.81h2c0,6.97,2.18,13.6,6.3,19.21h23.48l-.08-25.87,26.52-.39v28.25h-24.44l.07,23.56c5.61,4.12,12.24,6.3,19.21,6.3v2ZM256.98,58.71h22.44v-24.22l-22.52.33.07,23.9Z"/>
      </g>
      <g>
        <path class="cls-1" d="M281.43,497.27l-26.52-.39.08-25.87h-23.48c-4.12,5.61-6.3,12.24-6.3,19.21h-2c0-7.58,2.42-14.77,7-20.81l.3-.4h24.48l.07-24.56.39-.3c6.04-4.58,13.24-7,20.81-7v2c-6.97,0-13.6,2.18-19.21,6.3l-.07,23.56h24.44v28.25ZM256.91,494.92l22.52.33v-24.22h-22.44l-.07,23.9Z"/>
        <path class="cls-1" d="M38.11,497.27v-28.25h24.44l-.07-23.56c-5.61-4.12-12.24-6.3-19.21-6.3v-2c7.58,0,14.77,2.42,20.81,7l.39.3.07,24.56h24.48l.3.4c4.58,6.04,7,13.24,7,20.81h-2c0-6.97-2.18-13.6-6.3-19.21h-23.48l.08,25.87-26.52.39ZM40.11,471.02v24.22l22.52-.33-.07-23.9h-22.44Z"/>
      </g>
      <g>
        <polygon class="cls-1" points="171.46 470.6 170.04 469.18 238.35 400.87 216.5 379.02 232.68 356.37 234.31 357.54 219.11 378.81 241.18 400.87 171.46 470.6"/>
        <polygon class="cls-1" points="148.08 470.6 78.36 400.87 100.43 378.81 85.23 357.54 86.86 356.37 103.04 379.02 81.19 400.87 149.5 469.18 148.08 470.6"/>
      </g>
      <g>
        <polygon class="cls-1" points="232.68 172.45 216.5 149.8 238.35 127.95 170.04 59.64 171.46 58.22 241.18 127.95 219.11 150.01 234.31 171.28 232.68 172.45"/>
        <polygon class="cls-1" points="86.86 172.45 85.23 171.28 100.43 150.01 78.36 127.95 148.08 58.22 149.5 59.64 81.19 127.95 103.04 149.8 86.86 172.45"/>
      </g>
      <g>
        <circle class="cls-1" cx="159.77" cy="41.68" r="4.71"/>
        <path class="cls-1" d="M159.77,47.38c-3.15,0-5.71-2.56-5.71-5.71s2.56-5.71,5.71-5.71,5.71,2.56,5.71,5.71-2.56,5.71-5.71,5.71ZM159.77,37.97c-2.04,0-3.71,1.66-3.71,3.71s1.66,3.71,3.71,3.71,3.71-1.66,3.71-3.71-1.66-3.71-3.71-3.71Z"/>
      </g>
      <g>
        <circle class="cls-1" cx="159.77" cy="484.01" r="4.71"/>
        <path class="cls-1" d="M159.77,489.71c-3.15,0-5.71-2.56-5.71-5.71s2.56-5.71,5.71-5.71,5.71,2.56,5.71,5.71-2.56,5.71-5.71,5.71ZM159.77,480.3c-2.04,0-3.71,1.66-3.71,3.71s1.66,3.71,3.71,3.71,3.71-1.66,3.71-3.71-1.66-3.71-3.71-3.71Z"/>
      </g>
      <polygon class="cls-1" points="159.77 444.64 110.44 395.31 111.85 393.89 159.77 441.81 207.69 393.89 209.1 395.31 159.77 444.64"/>
      <polygon class="cls-1" points="207.69 136.5 159.77 88.58 111.85 136.5 110.44 135.08 159.77 85.75 209.1 135.08 207.69 136.5"/>
      <path class="cls-1" d="M159.77,410.09l-13.16-13.16,13.16-13.16,13.16,13.16-13.16,13.16ZM149.44,396.93l10.33,10.33,10.33-10.33-10.33-10.33-10.33,10.33Z"/>
      <path class="cls-1" d="M159.77,146.57l-13.16-13.16,13.16-13.16,13.16,13.16-13.16,13.16ZM149.44,133.41l10.33,10.33,10.33-10.33-10.33-10.33-10.33,10.33Z"/>
      <g>
        <polygon class="cls-1" points="295.46 207.01 250.97 152.98 277.57 126.38 170.04 18.85 171.46 17.44 280.39 126.38 253.66 153.11 297.01 205.74 295.46 207.01"/>
        <polygon class="cls-1" points="24.08 207.01 22.53 205.74 65.88 153.11 39.15 126.38 148.08 17.44 149.5 18.85 41.97 126.38 68.57 152.98 24.08 207.01"/>
      </g>
      <g>
        <polygon class="cls-1" points="148.08 512.95 39.15 404.01 65.88 377.28 22.53 324.65 24.08 323.38 68.57 377.41 41.97 404.01 149.5 511.54 148.08 512.95"/>
        <polygon class="cls-1" points="171.46 512.95 170.04 511.54 277.57 404.01 250.97 377.41 295.46 323.38 297.01 324.65 253.66 377.28 280.39 404.01 171.46 512.95"/>
      </g>
    </g>
  </g>
</svg>