<?xml version="1.0" encoding="UTF-8"?>
<svg id="Layer_2" data-name="Layer 2" xmlns="http://www.w3.org/2000/svg" viewBox="0 0 230.11 352.67">
  <defs>
    <style>
      .cls-1 {
        fill: #ffe;
      }

      .cls-1, .cls-2, .cls-3 {
        stroke-width: 0px;
      }

      .cls-2 {
        fill: #a01f24;
      }

      .cls-3 {
        fill: #00004d;
      }
    </style>
  </defs>
  <g>
    <rect class="cls-3" x="-.4" y="11.74" width="218.36" height="341.56" rx="15.02" ry="15.02"/>
    <g>
      <g>
        <path class="cls-1" d="M188.99,325.42H29.55v-.99h-1V39.61h160.44v285.81ZM30.55,323.42h156.44V41.61H30.55v281.81Z"/>
        <path class="cls-1" d="M201.67,336.06H15.88V28.99h185.79v307.07ZM17.88,334.06h181.79V30.99H17.88v303.07Z"/>
      </g>
      <g>
        <g>
          <path class="cls-1" d="M119.3,204.07l-21.81-21.81.71-.71-.7-.7,19.73-19.73.44.02c5.46.21,10.58,2.44,14.43,6.29,8.4,8.4,8.4,22.06,0,30.46-3.35,3.35-7.6,5.46-12.3,6.1l-.49.07ZM99.62,181.56l20.39,20.39c4.07-.66,7.75-2.54,10.67-5.46,7.62-7.62,7.62-20.02,0-27.64-3.39-3.39-7.87-5.4-12.66-5.69l-18.4,18.4Z"/>
          <path class="cls-1" d="M98.26,204.07l-.49-.07c-4.7-.65-8.96-2.76-12.3-6.1-4.07-4.07-6.31-9.48-6.31-15.23s2.24-11.16,6.31-15.23c3.85-3.85,8.97-6.08,14.43-6.29l.44-.02,19.73,19.73-.7.7.71.71-21.81,21.81ZM99.54,163.16c-4.79.29-9.27,2.3-12.66,5.69-3.69,3.69-5.72,8.6-5.72,13.82s2.03,10.13,5.72,13.82c2.92,2.92,6.6,4.8,10.67,5.46l20.39-20.39-18.4-18.4Z"/>
        </g>
        <g>
          <path class="cls-1" d="M179.17,316.8l-16.1-.23.05-14.88h-12.87c-2.24,3.11-3.42,6.77-3.42,10.62h-2c0-4.45,1.42-8.68,4.11-12.22l.3-.4h13.88l.04-13.91.39-.3c3.55-2.69,7.77-4.11,12.22-4.11v2c-3.85,0-7.51,1.18-10.62,3.42l-.04,12.9h14.05v17.1ZM165.08,314.6l12.1.17v-13.08h-12.06l-.04,12.9Z"/>
          <path class="cls-1" d="M38.38,316.8v-17.1h14.05l-.04-12.9c-3.11-2.24-6.78-3.42-10.62-3.42v-2c4.45,0,8.68,1.42,12.22,4.11l.39.3.04,13.91h13.88l.3.4c2.69,3.55,4.11,7.77,4.11,12.22h-2c0-3.85-1.18-7.51-3.41-10.62h-12.87l.05,14.88-16.1.23ZM40.38,301.7v13.08l12.1-.17-.04-12.9h-12.06Z"/>
        </g>
        <g>
          <path class="cls-1" d="M41.77,84.03v-2c3.85,0,7.51-1.18,10.62-3.42l.04-12.9h-14.05v-17.1l16.1.23-.05,14.88h12.87c2.24-3.11,3.41-6.77,3.41-10.62h2c0,4.45-1.42,8.68-4.11,12.22l-.3.4h-13.88l-.04,13.91-.39.3c-3.55,2.69-7.77,4.11-12.22,4.11ZM40.38,63.71h12.06l.04-12.9-12.1-.17v13.08Z"/>
          <path class="cls-1" d="M175.78,84.03c-4.45,0-8.68-1.42-12.22-4.11l-.39-.3-.04-13.91h-13.88l-.3-.4c-2.69-3.55-4.11-7.77-4.11-12.22h2c0,3.85,1.18,7.51,3.42,10.62h12.87l-.05-14.88,16.1-.23v17.1h-14.05l.04,12.9c3.11,2.24,6.78,3.42,10.62,3.42v2ZM165.12,63.71h12.06v-13.08l-12.1.17.04,12.9Z"/>
        </g>
        <g>
          <polygon class="cls-1" points="107.9 132.11 87.79 111.96 89.2 110.54 107.9 129.27 127.02 110.14 128.43 111.56 107.9 132.11"/>
          <path class="cls-1" d="M107.81,152.02l-21.1-24.95,7.92-11.11,13.28,13.31,14.31-14.33,8.57,10.28-22.97,26.79ZM89.24,126.97l18.58,21.97,20.34-23.73-6.09-7.3-14.17,14.19-13.02-13.05-5.64,7.91Z"/>
        </g>
        <g>
          <polygon class="cls-1" points="127.02 254.04 107.9 234.91 89.2 253.63 87.79 252.21 107.9 232.08 128.43 252.62 127.02 254.04"/>
          <path class="cls-1" d="M122.21,249.23l-14.31-14.33-13.28,13.3-7.92-11.11,21.1-24.94,22.97,26.79-8.57,10.28ZM107.9,232.08l14.17,14.19,6.09-7.3-20.35-23.73-18.58,21.96,5.64,7.91,13.02-13.04Z"/>
        </g>
        <g>
          <polygon class="cls-1" points="89.1 155.68 65.09 129.82 74.09 117.22 61.35 104.48 101.76 64.07 103.17 65.49 64.18 104.48 76.7 117 67.66 129.66 90.57 154.32 89.1 155.68"/>
          <polygon class="cls-1" points="128.46 155.68 126.99 154.32 149.9 129.66 140.86 117 153.38 104.48 114.39 65.49 115.8 64.07 156.21 104.48 143.47 117.22 152.47 129.82 128.46 155.68"/>
        </g>
        <g>
          <polygon class="cls-1" points="101.76 301.87 61.35 261.46 74.09 248.72 65.09 236.12 89.1 210.26 90.57 211.62 67.66 236.28 76.7 248.94 64.18 261.46 103.17 300.45 101.76 301.87"/>
          <polygon class="cls-1" points="115.8 301.87 114.39 300.45 153.38 261.46 140.86 248.94 149.9 236.28 126.99 211.62 128.46 210.26 152.47 236.12 143.47 248.72 156.21 261.46 115.8 301.87"/>
        </g>
        <g>
          <circle class="cls-1" cx="108.77" cy="311.08" r="2.71"/>
          <path class="cls-1" d="M108.77,314.79c-2.05,0-3.71-1.66-3.71-3.71s1.66-3.71,3.71-3.71,3.71,1.66,3.71,3.71-1.66,3.71-3.71,3.71ZM108.77,309.37c-.94,0-1.71.77-1.71,1.71s.77,1.71,1.71,1.71,1.71-.77,1.71-1.71-.77-1.71-1.71-1.71Z"/>
        </g>
        <g>
          <circle class="cls-1" cx="108.77" cy="56.66" r="2.71"/>
          <path class="cls-1" d="M108.77,60.37c-2.05,0-3.71-1.66-3.71-3.71s1.66-3.71,3.71-3.71,3.71,1.66,3.71,3.71-1.66,3.71-3.71,3.71ZM108.77,54.95c-.94,0-1.71.77-1.71,1.71s.77,1.71,1.71,1.71,1.71-.77,1.71-1.71-.77-1.71-1.71-1.71Z"/>
        </g>
        <polygon class="cls-1" points="136.04 108.8 108.77 81.53 81.52 108.8 80.11 107.38 108.77 78.71 137.45 107.38 136.04 108.8"/>
        <polygon class="cls-1" points="108.77 286.33 80.11 257.66 81.52 256.24 108.77 283.51 136.04 256.24 137.45 257.66 108.77 286.33"/>
        <g>
          <rect class="cls-3" x="104.01" y="101.98" width="9.55" height="9.55" transform="translate(-43.63 108.19) rotate(-45)"/>
          <path class="cls-1" d="M108.78,114.92l-8.17-8.17,8.17-8.17,8.17,8.17-8.17,8.17ZM103.44,106.76l5.34,5.34,5.34-5.34-5.34-5.34-5.34,5.34Z"/>
        </g>
        <g>
          <rect class="cls-3" x="104.01" y="253.54" width="9.55" height="9.55" transform="translate(-150.8 152.58) rotate(-45)"/>
          <path class="cls-1" d="M108.79,266.49l-8.17-8.17,8.17-8.17,8.17,8.17-8.17,8.17ZM103.45,258.32l5.34,5.34,5.34-5.34-5.34-5.34-5.34,5.34Z"/>
        </g>
        <g>
          <path class="cls-1" d="M83.61,216.93c-10.86-7.99-17.34-20.8-17.34-34.26s6.2-25.88,17-34l1.2,1.6c-10.3,7.73-16.2,19.54-16.2,32.4s6.18,25.03,16.52,32.64l-1.19,1.61Z"/>
          <path class="cls-1" d="M132.92,217.64l-1.14-1.64c10.95-7.57,17.49-20.04,17.49-33.34s-6.41-25.5-17.15-33.08l1.15-1.63c11.27,7.96,17.99,20.94,17.99,34.72s-6.86,27.04-18.35,34.98Z"/>
        </g>
        <g>
          <path class="cls-1" d="M74.41,229.4c-14.82-10.91-23.67-28.4-23.67-46.79s8.46-35.35,23.22-46.43l1.2,1.6c-14.25,10.69-22.42,27.03-22.42,44.83s8.54,34.64,22.85,45.17l-1.19,1.61Z"/>
          <path class="cls-1" d="M142.98,229.48l-1.14-1.64c14.82-10.25,22.98-26.31,22.98-45.23s-8.38-34.83-22.99-45.15l1.15-1.63c15.15,10.7,23.83,27.75,23.83,46.79s-8.69,36.39-23.84,46.87Z"/>
        </g>
        <polygon class="cls-1" points="108.78 142.67 108.77 140.67 108.78 140.67 108.78 142.67"/>
        <g>
          <polygon class="cls-1" points="101.76 325.33 38.8 262.36 54.2 246.96 29.51 216.99 31.06 215.71 56.9 247.1 41.63 262.36 103.17 323.91 101.76 325.33"/>
          <polygon class="cls-1" points="115.8 325.33 114.39 323.91 175.93 262.36 160.65 247.1 186.5 215.71 188.04 216.99 163.35 246.96 178.76 262.36 115.8 325.33"/>
        </g>
        <g>
          <polygon class="cls-1" points="186.5 149.33 160.65 117.94 175.93 102.68 114.39 41.13 115.8 39.71 178.76 102.68 163.35 118.08 188.04 148.05 186.5 149.33"/>
          <polygon class="cls-1" points="31.06 149.33 29.51 148.05 54.2 118.08 38.8 102.68 101.76 39.71 103.17 41.13 41.63 102.68 56.9 117.94 31.06 149.33"/>
        </g>
      </g>
    </g>
  </g>
  <g>
    <rect class="cls-2" x="4.51" y="7.02" width="218.36" height="341.56" rx="15.02" ry="15.02"/>
    <g>
      <g>
        <path class="cls-1" d="M193.91,320.7H33.47V34.89h160.44v285.81ZM35.47,318.7h156.44V36.89H35.47v281.81Z"/>
        <path class="cls-1" d="M206.58,331.33H20.79V24.26h185.79v307.07ZM22.79,329.33h181.79V26.26H22.79v303.07Z"/>
      </g>
      <g>
        <g>
          <path class="cls-1" d="M124.2,199.34l-21.81-21.81.7-.72-.69-.69,19.73-19.73.44.02c5.46.21,10.58,2.44,14.43,6.29,4.07,4.07,6.31,9.48,6.31,15.23s-2.24,11.16-6.31,15.23c-3.35,3.35-7.6,5.46-12.3,6.1l-.49.07ZM104.52,176.83l20.39,20.39c4.07-.66,7.75-2.54,10.67-5.46,3.69-3.69,5.72-8.6,5.72-13.82s-2.03-10.13-5.72-13.82c-3.39-3.39-7.87-5.4-12.66-5.69l-18.4,18.4Z"/>
          <path class="cls-1" d="M103.17,199.34l-.49-.07c-4.7-.65-8.95-2.76-12.3-6.1-4.07-4.07-6.31-9.48-6.31-15.23s2.24-11.16,6.31-15.23c3.85-3.85,8.97-6.08,14.43-6.29l.44-.02,19.73,19.73-.7.7.71.71-21.81,21.81ZM104.45,158.43c-4.79.29-9.27,2.3-12.66,5.69-3.69,3.69-5.72,8.6-5.72,13.82s2.03,10.13,5.72,13.82c2.92,2.92,6.6,4.8,10.67,5.46l20.39-20.39-18.4-18.4Z"/>
        </g>
        <g>
          <path class="cls-1" d="M184.09,312.08l-16.1-.23.05-14.88h-12.87c-2.24,3.11-3.42,6.77-3.42,10.62h-2c0-4.45,1.42-8.68,4.11-12.22l.3-.4h13.88l.04-13.91.39-.3c3.55-2.69,7.78-4.11,12.22-4.11v2c-3.85,0-7.51,1.18-10.62,3.42l-.04,12.9h14.05v17.1ZM169.99,309.88l12.1.17v-13.08h-12.06l-.04,12.9Z"/>
          <path class="cls-1" d="M43.29,312.08v-17.1h14.05l-.04-12.9c-3.11-2.24-6.78-3.42-10.62-3.42v-2c4.45,0,8.68,1.42,12.22,4.11l.39.3.04,13.91h13.88l.3.4c2.69,3.55,4.11,7.78,4.11,12.22h-2c0-3.85-1.18-7.51-3.42-10.62h-12.87l.05,14.88-16.1.23ZM45.29,296.98v13.08l12.1-.17-.04-12.9h-12.06Z"/>
        </g>
        <g>
          <path class="cls-1" d="M46.68,79.31v-2c3.85,0,7.51-1.18,10.62-3.42l.04-12.9h-14.05v-17.1l16.1.23-.05,14.88h12.87c2.24-3.11,3.42-6.78,3.42-10.62h2c0,4.45-1.42,8.68-4.11,12.22l-.3.4h-13.88l-.04,13.91-.39.3c-3.55,2.69-7.77,4.11-12.22,4.11ZM45.29,58.99h12.06l.04-12.9-12.1-.17v13.08Z"/>
          <path class="cls-1" d="M180.7,79.31c-4.45,0-8.68-1.42-12.22-4.11l-.39-.3-.04-13.91h-13.88l-.3-.4c-2.69-3.55-4.11-7.77-4.11-12.22h2c0,3.85,1.18,7.51,3.42,10.62h12.87l-.05-14.88,16.1-.23v17.1h-14.05l.04,12.9c3.11,2.24,6.78,3.42,10.62,3.42v2ZM170.03,58.99h12.06v-13.08l-12.1.17.04,12.9Z"/>
        </g>
        <g>
          <polygon class="cls-1" points="112.82 127.38 92.69 107.24 94.1 105.82 112.82 124.54 131.93 105.41 133.34 106.83 112.82 127.38"/>
          <path class="cls-1" d="M112.72,147.3l-21.11-24.95,7.92-11.11,13.29,13.3,14.3-14.32,8.57,10.27-22.96,26.8ZM94.14,122.25l18.59,21.97,20.34-23.74-6.09-7.29-14.16,14.18-13.03-13.04-5.64,7.92Z"/>
        </g>
        <g>
          <polygon class="cls-1" points="131.93 249.32 112.82 230.19 94.1 248.91 92.69 247.49 112.82 227.36 133.34 247.9 131.93 249.32"/>
          <path class="cls-1" d="M127.11,244.5l-14.3-14.32-13.29,13.3-7.92-11.11,21.11-24.95,22.96,26.79-8.57,10.28ZM112.82,227.36l14.16,14.18,6.09-7.3-20.34-23.73-18.59,21.97,5.64,7.92,13.03-13.04Z"/>
        </g>
        <g>
          <polygon class="cls-1" points="94 150.96 70 125.1 79 112.5 66.26 99.76 106.66 59.35 108.07 60.77 69.09 99.76 81.61 112.28 72.57 124.94 95.47 149.6 94 150.96"/>
          <polygon class="cls-1" points="133.37 150.96 131.9 149.6 154.8 124.94 145.76 112.28 158.28 99.76 119.29 60.77 120.7 59.35 161.11 99.76 148.37 112.5 157.37 125.1 133.37 150.96"/>
        </g>
        <g>
          <polygon class="cls-1" points="106.66 297.14 66.26 256.74 79 244 70 231.4 94 205.53 95.47 206.89 72.57 231.56 81.61 244.22 69.09 256.74 108.07 295.72 106.66 297.14"/>
          <polygon class="cls-1" points="120.7 297.14 119.29 295.72 158.28 256.74 145.76 244.22 154.8 231.56 131.9 206.89 133.37 205.53 157.37 231.4 148.37 244 161.11 256.74 120.7 297.14"/>
        </g>
        <g>
          <circle class="cls-1" cx="113.69" cy="306.36" r="2.71"/>
          <path class="cls-1" d="M113.69,310.07c-2.05,0-3.71-1.66-3.71-3.71s1.66-3.71,3.71-3.71,3.71,1.66,3.71,3.71-1.66,3.71-3.71,3.71ZM113.69,304.65c-.94,0-1.71.77-1.71,1.71s.77,1.71,1.71,1.71,1.71-.77,1.71-1.71-.77-1.71-1.71-1.71Z"/>
        </g>
        <g>
          <circle class="cls-1" cx="113.69" cy="51.94" r="2.71"/>
          <path class="cls-1" d="M113.69,55.65c-2.05,0-3.71-1.66-3.71-3.71s1.66-3.71,3.71-3.71,3.71,1.66,3.71,3.71-1.66,3.71-3.71,3.71ZM113.69,50.23c-.94,0-1.71.77-1.71,1.71s.77,1.71,1.71,1.71,1.71-.77,1.71-1.71-.77-1.71-1.71-1.71Z"/>
        </g>
        <polygon class="cls-1" points="140.95 104.07 113.69 76.81 86.42 104.07 85.01 102.65 113.69 73.99 142.36 102.65 140.95 104.07"/>
        <polygon class="cls-1" points="113.69 281.6 85.01 252.94 86.42 251.52 113.69 278.78 140.95 251.52 142.36 252.94 113.69 281.6"/>
        <g>
          <rect class="cls-2" x="108.92" y="97.25" width="9.55" height="9.55" transform="translate(-38.84 110.28) rotate(-45)"/>
          <path class="cls-1" d="M113.69,110.19l-8.17-8.17,8.17-8.17,8.17,8.17-8.17,8.17ZM108.35,102.02l5.34,5.34,5.34-5.34-5.34-5.34-5.34,5.34Z"/>
        </g>
        <g>
          <rect class="cls-2" x="108.91" y="248.81" width="9.55" height="9.55" transform="translate(-146.02 154.66) rotate(-45)"/>
          <path class="cls-1" d="M113.69,261.75l-8.17-8.17,8.17-8.17,8.17,8.17-8.17,8.17ZM108.35,253.59l5.34,5.34,5.34-5.34-5.34-5.34-5.34,5.34Z"/>
        </g>
        <g>
          <path class="cls-1" d="M88.51,212.2c-10.86-7.99-17.34-20.8-17.34-34.25s6.2-25.88,17-34l1.2,1.6c-10.3,7.73-16.2,19.54-16.2,32.4s6.18,25.03,16.52,32.64l-1.19,1.61Z"/>
          <path class="cls-1" d="M137.83,212.92l-1.14-1.64c10.95-7.57,17.49-20.04,17.49-33.34s-6.41-25.5-17.15-33.08l1.15-1.63c11.27,7.96,17.99,20.94,17.99,34.72s-6.86,27.04-18.35,34.98Z"/>
        </g>
        <g>
          <path class="cls-1" d="M79.31,224.68c-14.82-10.91-23.67-28.4-23.67-46.79s8.46-35.35,23.22-46.43l1.2,1.6c-14.25,10.69-22.42,27.03-22.42,44.83s8.54,34.64,22.85,45.17l-1.19,1.61Z"/>
          <path class="cls-1" d="M146.67,225.66l-1.14-1.64c15.15-10.49,24.2-27.73,24.2-46.13s-8.87-35.28-23.74-45.78l1.15-1.63c15.39,10.87,24.58,28.6,24.58,47.42s-9.37,36.91-25.06,47.77Z"/>
        </g>
        <polygon class="cls-1" points="113.7 137.94 113.68 135.94 113.7 135.94 113.7 137.94"/>
        <g>
          <polygon class="cls-1" points="106.66 320.6 43.7 257.64 59.11 242.23 34.42 212.27 35.97 210.99 61.81 242.37 46.53 257.64 108.07 319.18 106.66 320.6"/>
          <polygon class="cls-1" points="120.7 320.6 119.29 319.18 180.84 257.64 165.57 242.37 191.4 210.99 192.95 212.27 168.26 242.23 183.67 257.64 120.7 320.6"/>
        </g>
        <g>
          <polygon class="cls-1" points="191.4 144.6 165.57 113.23 180.84 97.95 119.29 36.41 120.7 34.99 183.67 97.95 168.26 113.35 192.95 143.32 191.4 144.6"/>
          <polygon class="cls-1" points="35.97 144.6 34.42 143.32 59.11 113.35 43.7 97.95 106.66 34.99 108.07 36.41 46.53 97.95 61.81 113.23 35.97 144.6"/>
        </g>
      </g>
    </g>
  </g>
  <g>
    <rect class="cls-3" x="8.62" y="3.55" width="218.36" height="341.56" rx="15.02" ry="15.02"/>
    <g>
      <g>
        <path class="cls-1" d="M198.02,317.24H37.58V31.43h160.44v285.81ZM39.58,315.24h156.44V33.43H39.58v281.81Z"/>
        <path class="cls-1" d="M210.7,327.87H24.91V20.8h185.79v307.07ZM26.91,325.87h181.79V22.8H26.91v303.07Z"/>
      </g>
      <g>
        <g>
          <path class="cls-1" d="M128.31,195.88l-21.81-21.81.7-.72-.69-.69,19.73-19.73.44.02c5.45.21,10.58,2.44,14.43,6.29,8.4,8.4,8.4,22.07,0,30.46-3.35,3.35-7.6,5.46-12.3,6.1l-.49.07ZM108.63,173.37l20.39,20.39c4.07-.66,7.75-2.54,10.67-5.46,7.62-7.62,7.62-20.02,0-27.64-3.39-3.39-7.87-5.4-12.66-5.69l-18.4,18.4Z"/>
          <path class="cls-1" d="M107.28,195.88l-.49-.07c-4.7-.65-8.95-2.76-12.3-6.1-4.07-4.07-6.31-9.48-6.31-15.23s2.24-11.16,6.31-15.23c3.85-3.85,8.97-6.08,14.43-6.29l.44-.02,19.73,19.73-.68.68.69.72-21.81,21.81ZM108.56,154.97c-4.79.29-9.27,2.3-12.66,5.69-3.69,3.69-5.72,8.6-5.72,13.82s2.03,10.13,5.72,13.82c2.92,2.92,6.6,4.8,10.67,5.46l20.39-20.39-18.4-18.4Z"/>
        </g>
        <g>
          <path class="cls-1" d="M188.2,308.62l-16.1-.23.05-14.88h-12.87c-2.24,3.11-3.42,6.77-3.42,10.62h-2c0-4.45,1.42-8.68,4.11-12.22l.3-.4h13.88l.04-13.91.39-.3c3.55-2.69,7.77-4.11,12.22-4.11v2c-3.85,0-7.51,1.18-10.62,3.42l-.04,12.9h14.05v17.1ZM174.1,306.42l12.1.17v-13.08h-12.06l-.04,12.9Z"/>
          <path class="cls-1" d="M47.41,308.62v-17.1h14.05l-.04-12.9c-3.11-2.24-6.78-3.42-10.62-3.42v-2c4.45,0,8.68,1.42,12.22,4.11l.39.3.04,13.91h13.88l.3.4c2.69,3.55,4.11,7.77,4.11,12.22h-2c0-3.84-1.18-7.51-3.41-10.62h-12.87l.05,14.88-16.1.23ZM49.41,293.52v13.08l12.1-.17-.04-12.9h-12.06Z"/>
        </g>
        <g>
          <path class="cls-1" d="M50.8,75.84v-2c3.85,0,7.51-1.18,10.62-3.42l.04-12.9h-14.05v-17.1l16.1.23-.05,14.88h12.87c2.24-3.11,3.41-6.77,3.41-10.62h2c0,4.45-1.42,8.68-4.11,12.22l-.3.4h-13.88l-.04,13.91-.39.3c-3.55,2.69-7.78,4.11-12.22,4.11ZM49.41,55.52h12.06l.04-12.9-12.1-.17v13.08Z"/>
          <path class="cls-1" d="M184.81,75.84c-4.45,0-8.68-1.42-12.22-4.11l-.39-.3-.04-13.91h-13.88l-.3-.4c-2.69-3.55-4.11-7.77-4.11-12.22h2c0,3.85,1.18,7.51,3.42,10.62h12.87l-.05-14.88,16.1-.23v17.1h-14.05l.04,12.9c3.11,2.24,6.78,3.42,10.62,3.42v2ZM174.14,55.52h12.06v-13.08l-12.1.17.04,12.9Z"/>
        </g>
        <g>
          <polygon class="cls-1" points="116.93 123.92 96.81 103.77 98.22 102.35 116.93 121.08 136.04 101.95 137.45 103.37 116.93 123.92"/>
          <path class="cls-1" d="M116.83,143.83l-21.11-24.95,7.93-11.09,13.28,13.3,14.31-14.33,8.56,10.28-22.96,26.79ZM98.25,118.78l18.59,21.97,20.34-23.73-6.08-7.3-14.17,14.19-13.02-13.04-5.65,7.91Z"/>
        </g>
        <g>
          <polygon class="cls-1" points="136.04 245.85 116.93 226.71 98.22 245.45 96.81 244.03 116.93 223.88 137.45 244.43 136.04 245.85"/>
          <path class="cls-1" d="M131.23,241.04l-14.31-14.33-13.28,13.3-7.93-11.1,21.11-24.94,22.96,26.79-8.56,10.28ZM116.93,223.88l14.17,14.19,6.08-7.3-20.34-23.73-18.59,21.96,5.65,7.92,13.02-13.04Z"/>
        </g>
        <g>
          <polygon class="cls-1" points="98.12 147.49 74.11 121.63 83.11 109.03 70.37 96.29 110.78 55.89 112.19 57.31 73.2 96.29 85.72 108.81 76.68 121.47 99.59 146.13 98.12 147.49"/>
          <polygon class="cls-1" points="137.48 147.49 136.01 146.13 158.92 121.47 149.87 108.81 162.4 96.29 123.41 57.31 124.82 55.89 165.23 96.29 152.48 109.03 161.49 121.63 137.48 147.49"/>
        </g>
        <g>
          <polygon class="cls-1" points="110.78 293.68 70.37 253.27 83.11 240.53 74.11 227.93 98.12 202.07 99.59 203.43 76.68 228.09 85.72 240.75 73.2 253.27 112.19 292.26 110.78 293.68"/>
          <polygon class="cls-1" points="124.82 293.68 123.41 292.26 162.4 253.27 149.87 240.75 158.92 228.09 136.01 203.43 137.48 202.07 161.49 227.93 152.48 240.53 165.23 253.27 124.82 293.68"/>
        </g>
        <g>
          <circle class="cls-1" cx="117.8" cy="302.89" r="2.71"/>
          <path class="cls-1" d="M117.8,306.6c-2.05,0-3.71-1.67-3.71-3.71s1.66-3.71,3.71-3.71,3.71,1.66,3.71,3.71-1.66,3.71-3.71,3.71ZM117.8,301.18c-.94,0-1.71.77-1.71,1.71s.77,1.71,1.71,1.71,1.71-.77,1.71-1.71-.77-1.71-1.71-1.71Z"/>
        </g>
        <g>
          <circle class="cls-1" cx="117.8" cy="48.48" r="2.71"/>
          <path class="cls-1" d="M117.8,52.19c-2.05,0-3.71-1.66-3.71-3.71s1.66-3.71,3.71-3.71,3.71,1.66,3.71,3.71-1.66,3.71-3.71,3.71ZM117.8,46.77c-.94,0-1.71.77-1.71,1.71s.77,1.71,1.71,1.71,1.71-.77,1.71-1.71-.77-1.71-1.71-1.71Z"/>
        </g>
        <polygon class="cls-1" points="145.06 100.61 117.8 73.34 90.54 100.61 89.13 99.19 117.8 70.52 146.47 99.19 145.06 100.61"/>
        <polygon class="cls-1" points="117.8 278.14 89.13 249.47 90.54 248.05 117.8 275.32 145.06 248.05 146.47 249.47 117.8 278.14"/>
        <g>
          <rect class="cls-3" x="113.02" y="93.79" width="9.55" height="9.55" transform="translate(-35.19 112.16) rotate(-45)"/>
          <path class="cls-1" d="M117.8,106.73l-8.17-8.17,8.17-8.17,8.17,8.17-8.17,8.17ZM112.46,98.56l5.34,5.34,5.34-5.34-5.34-5.34-5.34,5.34Z"/>
        </g>
        <g>
          <rect class="cls-3" x="113.02" y="245.36" width="9.55" height="9.55" transform="translate(-142.37 156.56) rotate(-45)"/>
          <path class="cls-1" d="M117.8,258.3l-8.17-8.17,8.17-8.17,8.17,8.17-8.17,8.17ZM112.46,250.13l5.34,5.34,5.34-5.34-5.34-5.34-5.34,5.34Z"/>
        </g>
        <g>
          <path class="cls-1" d="M92.63,208.74c-10.86-7.99-17.34-20.8-17.34-34.26s6.2-25.88,17-34l1.2,1.6c-10.3,7.73-16.2,19.54-16.2,32.4s6.18,25.03,16.52,32.64l-1.19,1.61Z"/>
          <path class="cls-1" d="M141.94,209.45l-1.14-1.64c10.95-7.57,17.49-20.04,17.49-33.34s-6.41-25.5-17.15-33.08l1.15-1.63c11.27,7.96,17.99,20.94,17.99,34.72s-6.86,27.03-18.35,34.98Z"/>
        </g>
        <g>
          <path class="cls-1" d="M83.43,221.21c-14.82-10.91-23.67-28.4-23.67-46.79s8.46-35.35,23.22-46.43l1.2,1.6c-14.25,10.69-22.42,27.03-22.42,44.83s8.54,34.64,22.85,45.17l-1.19,1.61Z"/>
          <path class="cls-1" d="M151.99,221.29l-1.14-1.64c14.82-10.25,22.98-26.31,22.98-45.23s-8.38-34.83-22.99-45.15l1.15-1.63c15.15,10.7,23.83,27.75,23.83,46.79s-8.69,36.4-23.84,46.87Z"/>
        </g>
        <polygon class="cls-1" points="117.81 134.48 117.79 132.48 117.81 132.48 117.81 134.48"/>
        <g>
          <polygon class="cls-1" points="110.78 317.14 47.82 254.18 63.22 238.77 38.53 208.8 40.08 207.52 65.92 238.91 50.65 254.18 112.19 315.72 110.78 317.14"/>
          <polygon class="cls-1" points="124.82 317.14 123.41 315.72 184.95 254.18 169.68 238.91 195.51 207.52 197.06 208.8 172.38 238.77 187.78 254.18 124.82 317.14"/>
        </g>
        <g>
          <polygon class="cls-1" points="195.51 141.14 169.68 109.75 184.95 94.49 123.41 32.95 124.82 31.53 187.78 94.49 172.38 109.89 197.06 139.86 195.51 141.14"/>
          <polygon class="cls-1" points="40.08 141.14 38.53 139.86 63.22 109.89 47.82 94.49 110.78 31.53 112.19 32.95 50.65 94.49 65.92 109.75 40.08 141.14"/>
        </g>
      </g>
    </g>
  </g>
  <g>
    <rect class="cls-2" x="12.15" y="-.63" width="218.36" height="341.56" rx="15.02" ry="15.02"/>
    <g>
      <g>
        <path class="cls-1" d="M201.55,313.06H41.11V27.25h160.44v285.81ZM43.11,311.06h156.44V29.25H43.11v281.81Z"/>
        <path class="cls-1" d="M214.22,323.69H28.43V16.62h185.79v307.07ZM30.43,321.69h181.79V18.62H30.43v303.07Z"/>
      </g>
      <g>
        <g>
          <path class="cls-1" d="M131.84,191.7l-21.81-21.81.71-.71-.7-.7,19.73-19.73.44.02c5.46.21,10.58,2.44,14.43,6.29,4.07,4.07,6.31,9.48,6.31,15.23s-2.24,11.16-6.31,15.23c-3.35,3.35-7.6,5.46-12.3,6.1l-.49.07ZM112.16,169.19l20.39,20.39c4.07-.66,7.75-2.54,10.67-5.46,3.69-3.69,5.72-8.6,5.72-13.82s-2.03-10.13-5.72-13.82c-3.39-3.39-7.87-5.4-12.66-5.69l-18.4,18.4Z"/>
          <path class="cls-1" d="M110.81,191.7l-.49-.07c-4.7-.65-8.95-2.76-12.3-6.1-8.4-8.4-8.4-22.07,0-30.46,3.85-3.85,8.97-6.08,14.43-6.29l.44-.02,19.73,19.73-.7.7.71.71-21.81,21.81ZM112.09,150.79c-4.79.29-9.27,2.3-12.66,5.69-7.62,7.62-7.62,20.02,0,27.64,2.92,2.92,6.6,4.8,10.67,5.46l20.39-20.39-18.4-18.4Z"/>
        </g>
        <g>
          <path class="cls-1" d="M191.73,304.44l-16.1-.23.05-14.88h-12.87c-2.24,3.11-3.41,6.78-3.41,10.62h-2c0-4.45,1.42-8.68,4.11-12.22l.3-.4h13.88l.04-13.91.39-.3c3.55-2.69,7.78-4.11,12.22-4.11v2c-3.85,0-7.51,1.18-10.62,3.42l-.04,12.9h14.05v17.1ZM177.63,302.24l12.1.17v-13.08h-12.06l-.04,12.9Z"/>
          <path class="cls-1" d="M50.93,304.44v-17.1h14.05l-.04-12.9c-3.11-2.24-6.78-3.42-10.62-3.42v-2c4.45,0,8.68,1.42,12.22,4.11l.39.3.04,13.91h13.88l.3.4c2.69,3.55,4.11,7.78,4.11,12.22h-2c0-3.84-1.18-7.51-3.41-10.62h-12.87l.05,14.88-16.1.23ZM52.93,289.34v13.08l12.1-.17-.04-12.9h-12.06Z"/>
        </g>
        <g>
          <path class="cls-1" d="M54.32,71.67v-2c3.85,0,7.51-1.18,10.62-3.42l.04-12.9h-14.05v-17.1l16.1.23-.05,14.88h12.87c2.24-3.11,3.41-6.77,3.41-10.62h2c0,4.45-1.42,8.68-4.11,12.22l-.3.4h-13.88l-.04,13.91-.39.3c-3.55,2.69-7.77,4.11-12.22,4.11ZM52.93,51.35h12.06l.04-12.9-12.1-.17v13.08Z"/>
          <path class="cls-1" d="M188.34,71.67c-4.45,0-8.68-1.42-12.22-4.11l-.39-.3-.04-13.91h-13.88l-.3-.4c-2.69-3.55-4.11-7.77-4.11-12.22h2c0,3.85,1.18,7.51,3.41,10.62h12.87l-.05-14.88,16.1-.23v17.1h-14.05l.04,12.9c3.12,2.24,6.78,3.42,10.62,3.42v2ZM177.67,51.35h12.06v-13.08l-12.1.17.04,12.9Z"/>
        </g>
        <g>
          <polygon class="cls-1" points="120.46 119.74 100.33 99.6 101.74 98.18 120.46 116.91 139.57 97.77 140.98 99.19 120.46 119.74"/>
          <path class="cls-1" d="M120.36,139.65l-21.11-24.94,7.92-11.11,13.29,13.3,14.31-14.32,8.56,10.27-22.96,26.79ZM101.78,114.61l18.59,21.96,20.34-23.73-6.08-7.29-14.17,14.18-13.03-13.04-5.64,7.91Z"/>
        </g>
        <g>
          <polygon class="cls-1" points="139.57 241.67 120.46 222.54 101.74 241.27 100.33 239.85 120.46 219.71 140.98 240.25 139.57 241.67"/>
          <path class="cls-1" d="M134.76,236.86l-14.31-14.33-13.29,13.31-7.92-11.11,21.11-24.95,22.96,26.79-8.56,10.28ZM120.46,219.71l14.17,14.19,6.08-7.3-20.34-23.73-18.59,21.97,5.64,7.91,13.03-13.05Z"/>
        </g>
        <g>
          <polygon class="cls-1" points="101.64 143.32 77.64 117.46 86.64 104.86 73.9 92.11 114.31 51.71 115.72 53.13 76.73 92.11 89.25 104.64 80.21 117.3 103.11 141.96 101.64 143.32"/>
          <polygon class="cls-1" points="141.01 143.32 139.54 141.96 162.44 117.3 153.4 104.64 165.92 92.11 126.94 53.13 128.35 51.71 168.75 92.11 156.01 104.86 165.01 117.46 141.01 143.32"/>
        </g>
        <g>
          <polygon class="cls-1" points="114.31 289.5 73.9 249.1 86.64 236.36 77.64 223.75 101.64 197.89 103.11 199.25 80.21 223.91 89.25 236.58 76.73 249.1 115.72 288.08 114.31 289.5"/>
          <polygon class="cls-1" points="128.35 289.5 126.94 288.08 165.92 249.1 153.4 236.58 162.44 223.91 139.54 199.25 141.01 197.89 165.01 223.75 156.01 236.36 168.75 249.1 128.35 289.5"/>
        </g>
        <g>
          <circle class="cls-1" cx="121.33" cy="298.72" r="2.71"/>
          <path class="cls-1" d="M121.33,302.43c-2.05,0-3.71-1.66-3.71-3.71s1.66-3.71,3.71-3.71,3.71,1.66,3.71,3.71-1.66,3.71-3.71,3.71ZM121.33,297.01c-.94,0-1.71.77-1.71,1.71s.77,1.71,1.71,1.71,1.71-.77,1.71-1.71-.77-1.71-1.71-1.71Z"/>
        </g>
        <g>
          <circle class="cls-1" cx="121.33" cy="44.3" r="2.71"/>
          <path class="cls-1" d="M121.33,48.01c-2.05,0-3.71-1.66-3.71-3.71s1.66-3.71,3.71-3.71,3.71,1.66,3.71,3.71-1.66,3.71-3.71,3.71ZM121.33,42.59c-.94,0-1.71.77-1.71,1.71s.77,1.71,1.71,1.71,1.71-.77,1.71-1.71-.77-1.71-1.71-1.71Z"/>
        </g>
        <polygon class="cls-1" points="148.59 96.43 121.33 69.17 94.06 96.43 92.65 95.01 121.33 66.35 150 95.01 148.59 96.43"/>
        <polygon class="cls-1" points="121.33 273.96 92.65 245.3 94.06 243.88 121.33 271.14 148.59 243.88 150 245.3 121.33 273.96"/>
        <g>
          <rect class="cls-2" x="116.55" y="89.61" width="9.55" height="9.55" transform="translate(-31.21 113.44) rotate(-45)"/>
          <path class="cls-1" d="M121.33,102.55l-8.17-8.17,8.17-8.17,8.17,8.17-8.17,8.17ZM115.99,94.39l5.34,5.34,5.34-5.34-5.34-5.34-5.34,5.34Z"/>
        </g>
        <g>
          <rect class="cls-2" x="116.54" y="241.17" width="9.55" height="9.55" transform="translate(-138.38 157.82) rotate(-45)"/>
          <path class="cls-1" d="M121.32,254.12l-8.17-8.17,8.17-8.17,8.17,8.17-8.17,8.17ZM115.98,245.95l5.34,5.34,5.34-5.34-5.34-5.34-5.34,5.34Z"/>
        </g>
        <g>
          <path class="cls-1" d="M96.15,204.56c-10.86-7.99-17.34-20.8-17.34-34.26s6.2-25.88,17-34l1.2,1.6c-10.3,7.73-16.2,19.54-16.2,32.4s6.18,25.03,16.52,32.64l-1.19,1.61Z"/>
          <path class="cls-1" d="M145.47,205.27l-1.14-1.64c10.95-7.57,17.49-20.04,17.49-33.34s-6.41-25.5-17.15-33.08l1.15-1.63c11.27,7.96,17.99,20.94,17.99,34.72s-6.86,27.04-18.35,34.98Z"/>
        </g>
        <g>
          <path class="cls-1" d="M86.95,217.04c-14.82-10.91-23.67-28.4-23.67-46.79s8.46-35.35,23.22-46.43l1.2,1.6c-14.25,10.69-22.42,27.03-22.42,44.83s8.54,34.64,22.85,45.17l-1.19,1.61Z"/>
          <path class="cls-1" d="M154.32,218.02l-1.14-1.64c15.15-10.49,24.2-27.73,24.2-46.13s-8.87-35.28-23.74-45.78l1.15-1.63c15.39,10.87,24.58,28.6,24.58,47.42s-9.37,36.91-25.06,47.77Z"/>
        </g>
        <polygon class="cls-1" points="121.34 130.3 121.32 128.3 121.34 128.3 121.34 130.3"/>
        <g>
          <polygon class="cls-1" points="114.31 312.96 51.34 250 66.75 234.59 42.06 204.63 43.61 203.35 69.45 234.73 54.17 250 115.72 311.54 114.31 312.96"/>
          <polygon class="cls-1" points="128.35 312.96 126.94 311.54 188.48 250 173.21 234.73 199.04 203.35 200.59 204.63 175.91 234.59 191.31 250 128.35 312.96"/>
        </g>
        <g>
          <polygon class="cls-1" points="199.04 136.96 173.21 105.58 188.48 90.31 126.94 28.77 128.35 27.35 191.31 90.31 175.91 105.71 200.59 135.68 199.04 136.96"/>
          <polygon class="cls-1" points="43.61 136.96 42.06 135.68 66.75 105.71 51.34 90.31 114.31 27.35 115.72 28.77 54.17 90.31 69.45 105.58 43.61 136.96"/>
        </g>
      </g>
    </g>
  </g>
</svg>