<?xml version="1.0" encoding="UTF-8"?>
<svg id="Layer_2" data-name="Layer 2" xmlns="http://www.w3.org/2000/svg" viewBox="0 0 230.11 352.67">
  <defs>
    <style>
      .cls-1, .cls-2 {
        fill: #00004d;
      }

      .cls-1, .cls-3, .cls-4, .cls-5 {
        stroke: #ffe;
        stroke-miterlimit: 10;
        stroke-width: 2px;
      }

      .cls-2, .cls-6 {
        stroke-width: 0px;
      }

      .cls-3 {
        fill: none;
      }

      .cls-4, .cls-6 {
        fill: #a01f24;
      }

      .cls-5 {
        fill: #ffe;
      }
    </style>
  </defs>
  <g id="Layer_1-2" data-name="Layer 1">
    <g>
      <g>
        <rect class="cls-6" y="11.11" width="218.36" height="341.56" rx="15.02" ry="15.02"/>
        <g>
          <g>
            <path class="cls-3" d="M29.96,323.79V39.98h158.44v283.81H29.96Z"/>
            <path class="cls-3" d="M17.28,334.42V29.35h183.79v305.07H17.28Z"/>
          </g>
          <g>
            <g>
              <path class="cls-3" d="M98.6,180.92l19.42-19.42c5,.19,9.95,2.19,13.76,6,8.02,8.02,8.02,21.03,0,29.05-3.3,3.3-7.44,5.23-11.73,5.82l-21.46-21.46Z"/>
              <path class="cls-3" d="M119.76,180.92l-19.42-19.42c-5,.19-9.95,2.19-13.76,6-8.02,8.02-8.02,21.03,0,29.05,3.3,3.3,7.44,5.23,11.73,5.82l21.46-21.46Z"/>
            </g>
            <g>
              <path class="cls-3" d="M176.19,281.75c-4.37,0-8.39,1.46-11.62,3.91l-.09,29.3,14.1.2v-15.09h-28.43c-2.45,3.23-3.91,7.26-3.91,11.62"/>
              <path class="cls-3" d="M42.17,281.75c4.37,0,8.39,1.46,11.62,3.91l.09,29.3-14.1.2v-15.09h28.43c2.45,3.23,3.91,7.26,3.91,11.62"/>
            </g>
            <g>
              <path class="cls-3" d="M42.17,82.4c4.37,0,8.39-1.46,11.62-3.91l.09-29.3-14.1-.2v15.09h28.43c2.45-3.23,3.91-7.26,3.91-11.62"/>
              <path class="cls-3" d="M176.19,82.4c-4.37,0-8.39-1.46-11.62-3.91l-.09-29.3,14.1-.2v15.09h-28.43c-2.45-3.23-3.91-7.26-3.91-11.62"/>
            </g>
            <g>
              <polyline class="cls-3" points="88.89 110.62 95.15 116.88 108.31 130.05 122.54 115.8 128.13 110.21"/>
              <polygon class="cls-3" points="129.87 124.58 122.54 115.8 108.31 130.05 95.15 116.88 88.37 126.39 108.22 149.85 129.87 124.58"/>
            </g>
            <g>
              <polyline class="cls-3" points="88.89 252.29 95.15 246.03 108.31 232.86 122.54 247.11 128.13 252.7"/>
              <polygon class="cls-3" points="129.87 238.32 122.54 247.11 108.31 232.86 95.15 246.03 88.37 236.52 108.22 213.06 129.87 238.32"/>
            </g>
            <g>
              <polyline class="cls-3" points="90.23 154.37 66.78 129.11 75.8 116.48 63.17 103.85 102.86 64.15"/>
              <polyline class="cls-3" points="128.13 154.37 151.58 129.11 142.56 116.48 155.19 103.85 115.49 64.15"/>
            </g>
            <g>
              <polyline class="cls-3" points="90.23 210.3 66.78 235.57 75.8 248.2 63.17 260.83 102.86 300.52"/>
              <polyline class="cls-3" points="128.13 210.3 151.58 235.57 142.56 248.2 155.19 260.83 115.49 300.52"/>
            </g>
            <circle class="cls-5" cx="109.18" cy="310.45" r="2.71"/>
            <circle class="cls-5" cx="109.18" cy="56.03" r="2.71"/>
            <polyline class="cls-3" points="137.15 107.45 109.18 79.49 81.21 107.45"/>
            <polyline class="cls-3" points="137.15 256.32 109.18 284.28 81.21 256.32"/>
            <rect class="cls-4" x="104.4" y="101.34" width="9.55" height="9.55" transform="translate(261.42 103.95) rotate(135)"/>
            <rect class="cls-4" x="104.4" y="252.91" width="9.55" height="9.55" transform="translate(368.59 362.69) rotate(135)"/>
            <g>
              <path class="cls-3" d="M84.6,215.48c-10.27-7.56-16.93-19.72-16.93-33.45s6.51-25.62,16.6-33.2"/>
              <path class="cls-3" d="M133.11,148.13c10.63,7.51,17.57,19.9,17.57,33.9s-7.09,26.67-17.92,34.16"/>
            </g>
            <g>
              <path class="cls-3" d="M75.4,227.96c-14.11-10.39-23.26-27.11-23.26-45.98s8.95-35.22,22.82-45.63"/>
              <path class="cls-3" d="M142.06,135.38c14.61,10.32,24.16,27.35,24.16,46.6s-9.75,36.65-24.63,46.95"/>
            </g>
            <line class="cls-3" x1="109.17" y1="141.03" x2="109.19" y2="141.03"/>
            <g>
              <polyline class="cls-3" points="102.86 323.98 40.61 261.73 55.95 246.39 30.69 215.72"/>
              <polyline class="cls-3" points="115.49 323.98 177.75 261.73 162.41 246.39 187.67 215.72"/>
            </g>
            <g>
              <polyline class="cls-3" points="115.49 39.79 177.75 102.04 162.41 117.38 187.67 148.05"/>
              <polyline class="cls-3" points="102.86 39.79 40.61 102.04 55.95 117.38 30.69 148.05"/>
            </g>
          </g>
        </g>
      </g>
      <g>
        <rect class="cls-2" x="4.11" y="7.64" width="218.36" height="341.56" rx="15.02" ry="15.02"/>
        <g>
          <g>
            <path class="cls-3" d="M34.07,320.33V36.52h158.44v283.81H34.07Z"/>
            <path class="cls-3" d="M21.4,330.95V25.89h183.79v305.07H21.4Z"/>
          </g>
          <g>
            <g>
              <path class="cls-3" d="M102.71,177.46l19.42-19.42c5,.19,9.95,2.19,13.76,6,8.02,8.02,8.02,21.03,0,29.05-3.3,3.3-7.44,5.23-11.73,5.82l-21.46-21.46Z"/>
              <path class="cls-3" d="M123.87,177.46l-19.42-19.42c-5,.19-9.95,2.19-13.76,6-8.02,8.02-8.02,21.03,0,29.05,3.3,3.3,7.44,5.23,11.73,5.82l21.46-21.46Z"/>
            </g>
            <g>
              <path class="cls-3" d="M180.3,278.29c-4.37,0-8.39,1.46-11.62,3.91l-.09,29.3,14.1.2v-15.09h-28.43c-2.45,3.23-3.91,7.26-3.91,11.62"/>
              <path class="cls-3" d="M46.29,278.29c4.37,0,8.39,1.46,11.62,3.91l.09,29.3-14.1.2v-15.09h28.43c2.45,3.23,3.91,7.26,3.91,11.62"/>
            </g>
            <g>
              <path class="cls-3" d="M46.29,78.93c4.37,0,8.39-1.46,11.62-3.91l.09-29.3-14.1-.2v15.09h28.43c2.45-3.23,3.91-7.26,3.91-11.62"/>
              <path class="cls-3" d="M180.3,78.93c-4.37,0-8.39-1.46-11.62-3.91l-.09-29.3,14.1-.2v15.09h-28.43c-2.45-3.23-3.91-7.26-3.91-11.62"/>
            </g>
            <g>
              <polyline class="cls-3" points="93.01 107.15 99.27 113.42 112.42 126.59 126.66 112.33 132.24 106.75"/>
              <polygon class="cls-3" points="133.98 121.12 126.66 112.33 112.42 126.59 99.27 113.42 92.48 122.92 112.33 146.38 133.98 121.12"/>
            </g>
            <g>
              <polyline class="cls-3" points="93.01 248.83 99.27 242.56 112.42 229.39 126.66 243.65 132.24 249.23"/>
              <polygon class="cls-3" points="133.98 234.86 126.66 243.65 112.42 229.39 99.27 242.56 92.48 233.05 112.33 209.6 133.98 234.86"/>
            </g>
            <g>
              <polyline class="cls-3" points="94.35 150.9 70.89 125.64 79.91 113.01 67.28 100.38 106.98 60.69"/>
              <polyline class="cls-3" points="132.24 150.9 155.7 125.64 146.67 113.01 159.31 100.38 119.61 60.69"/>
            </g>
            <g>
              <polyline class="cls-3" points="94.35 206.84 70.89 232.1 79.91 244.73 67.28 257.36 106.98 297.06"/>
              <polyline class="cls-3" points="132.24 206.84 155.7 232.1 146.67 244.73 159.31 257.36 119.61 297.06"/>
            </g>
            <circle class="cls-5" cx="113.29" cy="306.98" r="2.71"/>
            <circle class="cls-5" cx="113.29" cy="52.57" r="2.71"/>
            <polyline class="cls-3" points="141.26 103.99 113.29 76.02 85.33 103.99"/>
            <polyline class="cls-3" points="141.26 252.85 113.29 280.82 85.33 252.85"/>
            <rect class="cls-1" x="108.52" y="97.88" width="9.55" height="9.55" transform="translate(265.99 95.13) rotate(135)"/>
            <rect class="cls-1" x="108.52" y="249.44" width="9.55" height="9.55" transform="translate(373.16 353.87) rotate(135)"/>
            <g>
              <path class="cls-3" d="M88.72,212.02c-10.27-7.56-16.93-19.72-16.93-33.45s6.51-25.62,16.6-33.2"/>
              <path class="cls-3" d="M137.22,144.66c10.63,7.51,17.57,19.9,17.57,33.9s-7.09,26.67-17.92,34.16"/>
            </g>
            <g>
              <path class="cls-3" d="M79.52,224.49c-14.11-10.39-23.26-27.11-23.26-45.98s8.95-35.22,22.82-45.63"/>
              <path class="cls-3" d="M146.92,132.54c14.61,10.32,23.41,26.73,23.41,45.97s-8.53,35.76-23.41,46.05"/>
            </g>
            <line class="cls-3" x1="113.28" y1="137.57" x2="113.3" y2="137.57"/>
            <g>
              <polyline class="cls-3" points="106.98 320.52 44.73 258.27 60.06 242.93 34.8 212.25"/>
              <polyline class="cls-3" points="119.61 320.52 181.86 258.27 166.52 242.93 191.78 212.25"/>
            </g>
            <g>
              <polyline class="cls-3" points="119.61 36.33 181.86 98.58 166.52 113.91 191.78 144.59"/>
              <polyline class="cls-3" points="106.98 36.33 44.73 98.58 60.06 113.91 34.8 144.59"/>
            </g>
          </g>
        </g>
      </g>
      <g>
        <rect class="cls-6" x="7.64" y="3.46" width="218.36" height="341.56" rx="15.02" ry="15.02"/>
        <g>
          <g>
            <path class="cls-3" d="M37.6,316.15V32.34h158.44v283.81H37.6Z"/>
            <path class="cls-3" d="M24.92,326.78V21.71h183.79v305.07H24.92Z"/>
          </g>
          <g>
            <g>
              <path class="cls-3" d="M106.24,173.28l19.42-19.42c5,.19,9.95,2.19,13.76,6,8.02,8.02,8.02,21.03,0,29.05-3.3,3.3-7.44,5.23-11.73,5.82l-21.46-21.46Z"/>
              <path class="cls-3" d="M127.4,173.28l-19.42-19.42c-5,.19-9.95,2.19-13.76,6-8.02,8.02-8.02,21.03,0,29.05,3.3,3.3,7.44,5.23,11.73,5.82l21.46-21.46Z"/>
            </g>
            <g>
              <path class="cls-3" d="M183.83,274.11c-4.37,0-8.39,1.46-11.62,3.91l-.09,29.3,14.1.2v-15.09h-28.43c-2.45,3.23-3.91,7.26-3.91,11.62"/>
              <path class="cls-3" d="M49.81,274.11c4.37,0,8.39,1.46,11.62,3.91l.09,29.3-14.1.2v-15.09h28.43c2.45,3.23,3.91,7.26,3.91,11.62"/>
            </g>
            <g>
              <path class="cls-3" d="M49.81,74.76c4.37,0,8.39-1.46,11.62-3.91l.09-29.3-14.1-.2v15.09h28.43c2.45-3.23,3.91-7.26,3.91-11.62"/>
              <path class="cls-3" d="M183.83,74.76c-4.37,0-8.39-1.46-11.62-3.91l-.09-29.3,14.1-.2v15.09h-28.43c-2.45-3.23-3.91-7.26-3.91-11.62"/>
            </g>
            <g>
              <polyline class="cls-3" points="96.53 102.98 102.8 109.24 115.95 122.41 130.19 108.16 135.77 102.57"/>
              <polygon class="cls-3" points="137.51 116.94 130.19 108.16 115.95 122.41 102.79 109.24 96.01 118.75 115.86 142.2 137.51 116.94"/>
            </g>
            <g>
              <polyline class="cls-3" points="96.53 244.65 102.8 238.39 115.95 225.21 130.19 239.47 135.77 245.05"/>
              <polygon class="cls-3" points="137.51 230.68 130.19 239.47 115.95 225.21 102.79 238.39 96.01 228.88 115.86 205.42 137.51 230.68"/>
            </g>
            <g>
              <polyline class="cls-3" points="97.87 146.73 74.42 121.47 83.44 108.84 70.81 96.2 110.51 56.51"/>
              <polyline class="cls-3" points="135.77 146.73 159.22 121.47 150.2 108.84 162.83 96.2 123.14 56.51"/>
            </g>
            <g>
              <polyline class="cls-3" points="97.87 202.66 74.42 227.92 83.44 240.56 70.81 253.19 110.51 292.88"/>
              <polyline class="cls-3" points="135.77 202.66 159.22 227.92 150.2 240.56 162.83 253.19 123.14 292.88"/>
            </g>
            <circle class="cls-5" cx="116.82" cy="302.81" r="2.71"/>
            <circle class="cls-5" cx="116.82" cy="48.39" r="2.71"/>
            <polyline class="cls-3" points="144.79 99.81 116.82 71.85 88.85 99.81"/>
            <polyline class="cls-3" points="144.79 248.68 116.82 276.64 88.85 248.68"/>
            <rect class="cls-4" x="112.05" y="93.7" width="9.55" height="9.55" transform="translate(269.06 85.5) rotate(135)"/>
            <rect class="cls-4" x="112.05" y="245.27" width="9.55" height="9.55" transform="translate(376.23 344.24) rotate(135)"/>
            <g>
              <path class="cls-3" d="M92.24,207.84c-10.27-7.56-16.93-19.72-16.93-33.45s6.51-25.62,16.6-33.2"/>
              <path class="cls-3" d="M140.75,140.48c10.63,7.51,17.57,19.9,17.57,33.9s-7.09,26.67-17.92,34.16"/>
            </g>
            <g>
              <path class="cls-3" d="M83.04,220.32c-14.11-10.39-23.26-27.11-23.26-45.98s8.95-35.22,22.82-45.63"/>
              <path class="cls-3" d="M149.71,127.74c14.61,10.32,24.16,27.35,24.16,46.6s-9.75,36.65-24.63,46.95"/>
            </g>
            <line class="cls-3" x1="116.81" y1="133.39" x2="116.83" y2="133.39"/>
            <g>
              <polyline class="cls-3" points="110.51 316.34 48.25 254.09 63.59 238.75 38.33 208.08"/>
              <polyline class="cls-3" points="123.14 316.34 185.39 254.09 170.05 238.75 195.31 208.08"/>
            </g>
            <g>
              <polyline class="cls-3" points="123.14 32.15 185.39 94.4 170.05 109.74 195.31 140.41"/>
              <polyline class="cls-3" points="110.51 32.15 48.25 94.4 63.59 109.74 38.33 140.41"/>
            </g>
          </g>
        </g>
      </g>
      <g>
        <rect class="cls-2" x="11.76" y="0" width="218.36" height="341.56" rx="15.02" ry="15.02"/>
        <g>
          <g>
            <path class="cls-3" d="M41.71,312.69V28.87h158.44v283.81H41.71Z"/>
            <path class="cls-3" d="M29.04,323.31V18.25h183.79v305.07H29.04Z"/>
          </g>
          <g>
            <g>
              <path class="cls-3" d="M110.36,169.82l19.42-19.42c5,.19,9.95,2.19,13.76,6,8.02,8.02,8.02,21.03,0,29.05-3.3,3.3-7.44,5.23-11.73,5.82l-21.46-21.46Z"/>
              <path class="cls-3" d="M131.51,169.82l-19.42-19.42c-5,.19-9.95,2.19-13.76,6-8.02,8.02-8.02,21.03,0,29.05,3.3,3.3,7.44,5.23,11.73,5.82l21.46-21.46Z"/>
            </g>
            <g>
              <path class="cls-3" d="M187.94,270.64c-4.37,0-8.39,1.46-11.62,3.91l-.09,29.3,14.1.2v-15.09h-28.43c-2.45,3.23-3.91,7.26-3.91,11.62"/>
              <path class="cls-3" d="M53.93,270.64c4.37,0,8.39,1.46,11.62,3.91l.09,29.3-14.1.2v-15.09h28.43c2.45,3.23,3.91,7.26,3.91,11.62"/>
            </g>
            <g>
              <path class="cls-3" d="M53.93,71.29c4.37,0,8.39-1.46,11.62-3.91l.09-29.3-14.1-.2v15.09h28.43c2.45-3.23,3.91-7.26,3.91-11.62"/>
              <path class="cls-3" d="M187.94,71.29c-4.37,0-8.39-1.46-11.62-3.91l-.09-29.3,14.1-.2v15.09h-28.43c-2.45-3.23-3.91-7.26-3.91-11.62"/>
            </g>
            <g>
              <polyline class="cls-3" points="100.65 99.51 106.91 105.77 120.06 118.95 134.3 104.69 139.88 99.11"/>
              <polygon class="cls-3" points="141.63 113.48 134.3 104.69 120.06 118.95 106.91 105.77 100.13 115.28 119.97 138.74 141.63 113.48"/>
            </g>
            <g>
              <polyline class="cls-3" points="100.65 241.18 106.91 234.92 120.06 221.75 134.3 236.01 139.88 241.59"/>
              <polygon class="cls-3" points="141.63 227.22 134.3 236.01 120.06 221.75 106.91 234.92 100.13 225.41 119.97 201.96 141.63 227.22"/>
            </g>
            <g>
              <polyline class="cls-3" points="101.99 143.26 78.53 118 87.55 105.37 74.92 92.74 114.62 53.04"/>
              <polyline class="cls-3" points="139.88 143.26 163.34 118 154.32 105.37 166.95 92.74 127.25 53.04"/>
            </g>
            <g>
              <polyline class="cls-3" points="101.99 199.2 78.53 224.46 87.55 237.09 74.92 249.72 114.62 289.42"/>
              <polyline class="cls-3" points="139.88 199.2 163.34 224.46 154.32 237.09 166.95 249.72 127.25 289.42"/>
            </g>
            <circle class="cls-5" cx="120.93" cy="299.34" r="2.71"/>
            <circle class="cls-5" cx="120.93" cy="44.92" r="2.71"/>
            <polyline class="cls-3" points="148.9 96.35 120.93 68.38 92.97 96.35"/>
            <polyline class="cls-3" points="148.9 245.21 120.93 273.18 92.97 245.21"/>
            <rect class="cls-1" x="116.16" y="90.23" width="9.55" height="9.55" transform="translate(273.63 76.68) rotate(135)"/>
            <rect class="cls-1" x="116.16" y="241.8" width="9.55" height="9.55" transform="translate(380.81 335.42) rotate(135)"/>
            <g>
              <path class="cls-3" d="M96.36,204.38c-10.27-7.56-16.93-19.72-16.93-33.45s6.51-25.62,16.6-33.2"/>
              <path class="cls-3" d="M144.86,137.02c10.63,7.51,17.57,19.9,17.57,33.9s-7.09,26.67-17.92,34.16"/>
            </g>
            <g>
              <path class="cls-3" d="M87.16,216.85c-14.11-10.39-23.26-27.11-23.26-45.98s8.95-35.22,22.82-45.63"/>
              <path class="cls-3" d="M154.57,124.9c14.61,10.32,23.41,26.73,23.41,45.97s-8.53,35.76-23.41,46.05"/>
            </g>
            <line class="cls-3" x1="120.93" y1="129.93" x2="120.94" y2="129.93"/>
            <g>
              <polyline class="cls-3" points="114.62 312.88 52.37 250.62 67.71 235.29 42.44 204.61"/>
              <polyline class="cls-3" points="127.25 312.88 189.5 250.62 174.16 235.29 199.43 204.61"/>
            </g>
            <g>
              <polyline class="cls-3" points="127.25 28.68 189.5 90.94 174.16 106.27 199.43 136.95"/>
              <polyline class="cls-3" points="114.62 28.68 52.37 90.94 67.71 106.27 42.44 136.95"/>
            </g>
          </g>
        </g>
      </g>
    </g>
  </g>
</svg>