<?xml version="1.0" encoding="UTF-8"?>
<svg id="Layer_2" data-name="Layer 2" xmlns="http://www.w3.org/2000/svg" viewBox="0 0 1068.23 427.69">
  <defs>
    <style>
      .cls-1 {
        fill: #00004d;
      }

      .cls-1, .cls-2, .cls-3 {
        stroke-width: 0px;
      }

      .cls-2, .cls-4 {
        fill: #a01f24;
      }

      .cls-4, .cls-5 {
        stroke: #a01f24;
        stroke-miterlimit: 10;
      }

      .cls-5 {
        stroke-width: 3px;
      }

      .cls-5, .cls-3 {
        fill: #faf4d3;
      }
    </style>
  </defs>
  <g id="Layer_1-2" data-name="Layer 1">
    <g>
      <path class="cls-2" d="M50.59,414.24c0,7.43,4.19,13.45,9.34,13.45h82.8c5.17,0,9.34-6.02,9.34-13.45v-113.02c0-5.93-4-10.74-8.94-10.74H59.53c-4.94,0-8.94,4.81-8.94,10.74v113.02Z"/>
      <circle class="cls-2" cx="101.33" cy="228.05" r="40.68"/>
      <path class="cls-1" d="M142.73,7.71H9.34C4.19,7.71,0,13.73,0,21.17v96.72c0,7.34,4.09,13.31,9.17,13.45l32.23.73c5.1.12,9.19,6.11,9.19,13.45v9.37c0,5.93,4,10.73,8.93,10.73h83.62c4.93,0,8.93-4.8,8.93-10.73V21.17c0-7.43-4.18-13.46-9.34-13.46Z"/>
      <path class="cls-1" d="M174.56,212.36c0-64.85,17.98-116.46,53.96-154.82C264.48,19.19,319.41,0,393.3,0s128.81,19.28,164.79,57.84c35.97,38.56,53.96,90.07,53.96,154.53s-17.99,116.56-53.96,155.12c-35.98,38.56-90.9,57.84-164.79,57.84s-128.82-19.28-164.79-57.84c-35.98-38.56-53.96-90.26-53.96-155.12Z"/>
      <path class="cls-1" d="M630.75,212.36c0-64.85,17.98-116.46,53.96-154.82C720.67,19.19,775.59,0,849.49,0s128.81,19.28,164.78,57.84c35.97,38.56,53.96,90.07,53.96,154.53s-17.99,116.56-53.96,155.12c-35.98,38.56-90.9,57.84-164.78,57.84s-128.82-19.28-164.79-57.84c-35.98-38.56-53.96-90.26-53.96-155.12Z"/>
      <g>
        <g>
          <path class="cls-3" d="M922.31,282.58c-7.69,0-14.7-5.21-17.46-12.96-8.81-24.77-31.06-41.42-55.36-41.42s-46.56,16.65-55.37,41.42c-2.76,7.75-9.77,12.96-17.46,12.96-11.72,0-22.76-5.01-31.1-14.11-8.3-9.06-12.87-21.04-12.87-33.75v-32.14c0-26.39,19.73-47.86,43.97-47.86h145.66c24.25,0,43.97,21.47,43.97,47.86v32.14c0,26.39-19.73,47.86-43.97,47.86h-.01Z"/>
          <path class="cls-2" d="M922.32,156.21c23.36,0,42.47,20.87,42.47,46.36v32.14c0,25.49-19.11,46.36-42.47,46.36h-.01c-7.1,0-13.48-4.74-16.04-11.96-8.83-24.82-30.93-42.42-56.77-42.42s-47.96,17.6-56.79,42.42c-2.57,7.22-8.95,11.96-16.04,11.96-11.68,0-22.29-5.22-30-13.62s-12.48-19.99-12.48-32.74v-32.14c0-25.49,19.11-46.36,42.47-46.36h145.66M922.32,153.21h-145.66c-25.07,0-45.47,22.15-45.47,49.36v32.14c0,13.08,4.71,25.43,13.26,34.77,8.63,9.41,20.07,14.6,32.21,14.6,8.32,0,15.9-5.61,18.87-13.96,8.73-24.56,29.91-40.42,53.96-40.42s45.35,16.24,53.95,40.42c2.97,8.35,10.55,13.96,18.87,13.96,25.09,0,45.48-22.14,45.48-49.36v-32.14c0-27.22-20.4-49.36-45.47-49.36h0Z"/>
        </g>
        <path class="cls-4" d="M931.25,204.81c0,1.72-1.41,3.11-3.11,3.11h-4.31c-1.72,0-3.11-1.4-3.11-3.11v-4.31c0-1.71,1.4-3.11,3.11-3.11h4.31c1.71,0,3.11,1.41,3.11,3.11v4.31ZM900.61,204.12c0,1.72-1.41,3.11-3.11,3.11h-4.31c-1.72,0-3.11-1.4-3.11-3.11v-4.31c0-1.71,1.4-3.11,3.11-3.11h4.31c1.71,0,3.11,1.41,3.11,3.11v4.31ZM916.23,218.5c0,1.72-1.4,3.11-3.11,3.11h-4.31c-1.71,0-3.11-1.4-3.11-3.11v-4.31c0-1.71,1.41-3.11,3.11-3.11h4.31c1.72,0,3.11,1.41,3.11,3.11v4.31ZM916.23,189.75c0,1.71-1.4,3.11-3.11,3.11h-4.31c-1.71,0-3.11-1.41-3.11-3.11v-4.31c0-1.72,1.41-3.11,3.11-3.11h4.31c1.72,0,3.11,1.4,3.11,3.11v4.31Z"/>
        <path class="cls-4" d="M804.1,203.71c0,2.03-1.65,3.68-3.68,3.68h-12.1v12.12c0,2.02-1.66,3.68-3.68,3.68h-2.5c-2.03,0-3.68-1.66-3.68-3.68v-12.12h-12.12c-2.02,0-3.68-1.65-3.68-3.68v-2.5c0-2.02,1.66-3.68,3.68-3.68h12.12v-12.1c0-2.03,1.65-3.68,3.68-3.68h2.5c2.02,0,3.68,1.65,3.68,3.68v12.1h12.1c2.03,0,3.68,1.66,3.68,3.68v2.5Z"/>
      </g>
      <g>
        <g>
          <path class="cls-3" d="M433.87,278.52c-9.96,0-18.14-4.33-22.53-6.66-6.47-3.43-12.28-8.16-17.28-14.09-4.96,5.95-10.77,10.68-17.3,14.09-7.47,3.9-15.53,5.88-23.97,5.88-2.8,0-5.62-.23-8.38-.67-.14-.02-.27-.06-.4-.11-5.88-2.25-16.71-7.96-23.23-20.89-.63-1.24-3.8-7.84-4.65-15.65-2.04-18.8,10.22-34.97,22.08-50.61l.69-.91c15.95-21.05,33.81-41.79,53.08-61.64l1.1-1.13,1.08,1.15c18.49,19.76,36.47,39.9,54.99,61.55,8.95,10.47,22.48,26.3,23.06,47.81.15,5.58-.56,10.71-2.1,15.26-6.34,18.61-24.15,24.51-26.16,25.12-3.28,1-6.68,1.5-10.08,1.5Z"/>
          <path class="cls-2" d="M393.07,128.31c16.7,17.86,34.98,38.16,54.94,61.5,9.32,10.9,22.15,26.31,22.71,46.87.19,7.05-1.09,11.98-2.02,14.73-6.15,18.05-23.62,23.69-25.18,24.17-3.36,1.02-6.6,1.44-9.64,1.44-9.59,0-17.37-4.12-21.83-6.49-8.79-4.66-14.66-10.96-17.98-15.14-3.31,4.21-9.15,10.52-17.98,15.14-8.75,4.57-17.05,5.71-23.28,5.71-3.43,0-6.23-.35-8.14-.65-.04,0-.07-.01-.11-.03-3.95-1.51-15.6-6.63-22.43-20.16-.45-.89-3.65-7.36-4.5-15.14-2.02-18.57,10.71-34.92,22.48-50.45,18.42-24.3,36.96-45.01,52.96-61.5M393.11,123.96l-2.19,2.26c-19.31,19.9-37.21,40.68-53.2,61.78l-.69.91c-12.04,15.87-24.49,32.29-22.38,51.68.85,7.86,3.89,14.36,4.8,16.16,6.76,13.38,17.96,19.28,24.03,21.61.23.09.46.15.71.19,2.83.46,5.72.69,8.61.69,8.69,0,16.99-2.04,24.67-6.05,6.2-3.24,11.78-7.65,16.61-13.12,4.86,5.46,10.42,9.86,16.57,13.12,4.51,2.39,12.9,6.83,23.23,6.83,3.55,0,7.09-.53,10.52-1.57,2.09-.63,20.57-6.75,27.14-26.07,1.6-4.71,2.34-10.02,2.18-15.78-.6-22.04-14.33-38.11-23.42-48.74-18.53-21.67-36.53-41.82-55.03-61.6l-2.15-2.3h0Z"/>
        </g>
        <line class="cls-5" x1="432.67" y1="313.1" x2="353.72" y2="313.1"/>
      </g>
    </g>
  </g>
</svg>