<?xml version="1.0" encoding="UTF-8"?>
<svg id="Layer_2" data-name="Layer 2" xmlns="http://www.w3.org/2000/svg" xmlns:xlink="http://www.w3.org/1999/xlink" viewBox="0 0 175.96 275.24">
  <defs>
    <style>
      .cls-1 {
        stroke: #a01f24;
        stroke-miterlimit: 10;
        stroke-width: 2px;
      }

      .cls-1, .cls-2 {
        fill: #a01f24;
      }

      .cls-2, .cls-3 {
        stroke-width: 0px;
      }

      .cls-3 {
        fill: url(#radial-gradient);
      }
    </style>
    <radialGradient id="radial-gradient" cx="534.51" cy="168.45" fx="534.51" fy="168.45" r="115.5" gradientTransform="translate(-447.04)" gradientUnits="userSpaceOnUse">
      <stop offset="0" stop-color="#fff"/>
      <stop offset=".92" stop-color="#ffffef"/>
      <stop offset="1" stop-color="#ffe"/>
    </radialGradient>
  </defs>
  <g id="Layer_1-2" data-name="Layer 1">
    <g>
      <rect class="cls-3" x="0" width="175.96" height="275.24" rx="12.11" ry="12.11"/>
      <g>
        <path class="cls-2" d="M25.87,26.78c0,.34-.11.63-.34.86-.22.23-.52.35-.87.35-.25,0-.48-.07-.68-.2-.21-.13-.36-.32-.47-.55l-1.75-4.19h-9.13l-1.75,4.19c-.11.23-.26.42-.47.55-.21.13-.43.2-.68.2-.36,0-.65-.12-.87-.35-.22-.23-.34-.52-.34-.86,0-.14.04-.32.13-.54l6.85-16.17c.14-.32.34-.59.6-.79.26-.21.58-.31.95-.31h.27c.38,0,.69.1.95.31.26.21.46.47.6.79l6.85,16.17c.09.21.13.39.13.54ZM17.2,12.09l-3.63,8.73h7.25l-3.63-8.73Z"/>
        <path class="cls-1" d="M25.01,37.98c.22,1.85-1.16,3.47-2.43,5.02-1.99,2.42-3.99,4.48-5.72,6.12-1.8-1.78-3.78-3.79-5.93-6.12-1.01-1.08-2.39-2.62-2.45-4.66-.02-.7.12-1.19.22-1.47.66-1.79,2.55-2.36,2.72-2.4,1.51-.42,2.76.19,3.4.5.95.46,1.58,1.09,1.94,1.51.36-.42.99-1.05,1.94-1.51,1.4-.67,2.69-.6,3.31-.51.06,0,.12.02.18.04.49.18,1.65.71,2.34,1.98.05.09.39.73.49,1.51Z"/>
      </g>
      <g>
        <path class="cls-2" d="M149.24,248.9c0-.34.11-.63.34-.86.22-.23.52-.35.87-.35.25,0,.48.07.68.2.21.13.36.32.47.55l1.75,4.19h9.13s1.75-4.19,1.75-4.19c.11-.23.26-.42.47-.55.21-.13.43-.2.68-.2.36,0,.65.12.87.35.22.23.34.52.34.86,0,.14-.04.32-.13.54l-6.85,16.17c-.14.32-.34.59-.6.79-.26.21-.58.31-.95.31h-.27c-.38,0-.69-.1-.95-.31-.26-.21-.46-.47-.6-.79l-6.85-16.17c-.09-.21-.13-.39-.13-.54ZM157.92,263.59l3.63-8.73h-7.25s3.63,8.73,3.63,8.73Z"/>
        <path class="cls-1" d="M149.75,237.12c-.22-1.85,1.16-3.47,2.43-5.02,1.99-2.42,3.99-4.48,5.72-6.12,1.8,1.78,3.78,3.79,5.93,6.12,1.01,1.08,2.39,2.62,2.45,4.66.02.7-.12,1.19-.22,1.47-.66,1.79-2.55,2.36-2.72,2.4-1.51.42-2.76-.19-3.4-.5-.95-.46-1.58-1.09-1.94-1.51-.36.42-.99,1.05-1.94,1.51-1.46.7-2.81.59-3.39.5,0,0-.01,0-.02,0-.43-.15-1.68-.66-2.42-2-.05-.09-.39-.73-.49-1.51Z"/>
      </g>
      <g>
        <path class="cls-2" d="M62.7,79.8c1.26.02,2.31-.21,3.17-.7.86-.48,1.52-1.17,1.97-2.07.45-.9.68-1.93.68-3.09v-7.85c0-.19.06-.35.19-.48.13-.13.28-.19.48-.19h1.22c.19,0,.35.06.46.19.12.12.17.29.17.48v8.06c0,1.24-.19,2.35-.58,3.35-.39,1-.94,1.84-1.65,2.55-.71.71-1.56,1.24-2.54,1.61-.98.37-2.05.53-3.23.49h-2.17c-1.26,0-2.39-.29-3.39-.87-1-.58-1.8-1.39-2.38-2.43-.58-1.04-.87-2.25-.87-3.62v-9.13c0-.19.06-.35.19-.48.13-.13.28-.19.48-.19h1.22c.19,0,.35.06.48.19.13.12.19.29.19.48l.09,8.55c0,1.66.46,2.94,1.39,3.83s2.11,1.33,3.54,1.33h.9ZM56.27,76.41l-.06-2.12c1.43-.02,2.52-.24,3.27-.65.75-.42,1.28-.97,1.58-1.67.3-.7.45-1.46.45-2.29v-3.59c0-.19.06-.35.17-.48.12-.13.28-.19.49-.19h1.19c.19,0,.35.06.48.19.13.12.19.29.19.48v3.71c0,1.26-.28,2.39-.84,3.39-.56,1-1.42,1.8-2.56,2.38-1.15.58-2.6.86-4.36.84Z"/>
        <path class="cls-2" d="M75.77,81.97c-.19,0-.35-.06-.48-.19-.13-.12-.19-.28-.19-.48v-15.21c0-.19.06-.35.19-.48.13-.13.28-.19.48-.19h1.36c.21,0,.38.06.49.19.12.12.17.29.17.48v15.21c0,.19-.06.35-.17.48-.12.13-.28.19-.49.19h-1.36Z"/>
        <path class="cls-2" d="M82.18,81.97c-.17,0-.32-.07-.43-.2-.12-.13-.16-.3-.14-.49l2.46-14.2c.04-.19.13-.34.26-.45.13-.11.3-.14.49-.1l1.16.06c.19.02.35.1.46.25.12.14.15.31.12.51l-2.32,13.94c-.02.19-.1.36-.25.49-.14.14-.31.2-.51.2h-1.3ZM89.51,67.8h-7.04c-.21,0-.38-.06-.49-.19s-.17-.29-.17-.48v-1.04c0-.19.06-.35.17-.48.12-.13.28-.19.49-.19h7.36c1.2,0,2.26.28,3.2.84.94.56,1.67,1.37,2.2,2.42.53,1.05.8,2.32.8,3.81v8.81c0,.19-.06.35-.17.48-.12.13-.28.19-.49.19h-7.48c-.19,0-.35-.06-.48-.19-.13-.12-.19-.28-.19-.48v-.99c0-.19.06-.35.19-.48.13-.12.28-.19.48-.19h5.51v-6.98c0-.99-.17-1.84-.51-2.58-.34-.73-.8-1.3-1.39-1.7-.59-.4-1.25-.59-1.98-.59Z"/>
        <path class="cls-2" d="M100.78,75.25c-.19,0-.35-.06-.48-.19-.13-.12-.19-.28-.19-.48v-8.49c0-.19.06-.35.19-.48.13-.13.28-.19.48-.19h1.39c.19,0,.35.06.46.19.12.12.17.29.17.48v8.49c0,.19-.06.35-.17.48-.12.13-.27.19-.46.19h-1.39Z"/>
        <path class="cls-2" d="M107.01,81.97c-.17,0-.32-.07-.43-.2-.12-.13-.16-.3-.14-.49l2.46-14.2c.04-.19.13-.34.26-.45.13-.11.3-.14.49-.1l1.16.06c.19.02.35.1.46.25.12.14.15.31.12.51l-2.32,13.94c-.02.19-.1.36-.25.49-.14.14-.31.2-.51.2h-1.3ZM114.34,67.8h-7.04c-.21,0-.38-.06-.49-.19s-.17-.29-.17-.48v-1.04c0-.19.06-.35.17-.48.12-.13.28-.19.49-.19h7.36c1.2,0,2.26.28,3.2.84.94.56,1.67,1.37,2.2,2.42.53,1.05.8,2.32.8,3.81v8.81c0,.19-.06.35-.17.48-.12.13-.28.19-.49.19h-7.48c-.19,0-.35-.06-.48-.19-.13-.12-.19-.28-.19-.48v-.99c0-.19.06-.35.19-.48.13-.12.28-.19.48-.19h5.51v-6.98c0-.99-.17-1.84-.51-2.58-.34-.73-.8-1.3-1.39-1.7-.59-.4-1.25-.59-1.98-.59Z"/>
        <path class="cls-2" d="M71.37,110.02c-.19,0-.35-.06-.48-.19-.13-.12-.19-.28-.19-.48v-8.49c0-.19.06-.35.19-.48.13-.13.28-.19.48-.19h1.39c.19,0,.35.06.46.19.12.12.17.29.17.48v8.49c0,.19-.06.35-.17.48-.12.13-.27.19-.46.19h-1.39Z"/>
        <path class="cls-2" d="M81.34,101.09h.72c.29,0,.51.07.65.22.14.14.21.32.19.54-.15.81-.29,1.55-.39,2.2-.11.66-.18,1.31-.22,1.96-.04.65-.06,1.38-.06,2.19l.09,7.88c0,.19-.06.35-.19.48-.13.13-.29.19-.48.19l-4.11-.06c-.19,0-.35-.06-.48-.17-.13-.12-.19-.28-.19-.49v-.93c0-.19.06-.35.19-.48.13-.12.28-.19.48-.19l2.23.03v-6.14c0-.79,0-1.52.03-2.19.02-.67.08-1.34.17-2.01.1-.68.25-1.44.46-2.29.06-.21.15-.39.28-.52.13-.13.33-.2.62-.2ZM78.73,102.51c-.19,0-.35-.06-.48-.19-.13-.13-.19-.29-.19-.48v-.99c0-.19.06-.35.19-.48.13-.13.28-.19.48-.19h6.29c1.66,0,3.04.27,4.13.8,1.09.53,1.91,1.32,2.45,2.38.54,1.05.81,2.35.81,3.9v8.81c0,.19-.06.35-.19.48-.13.13-.29.19-.48.19h-1.3c-.21,0-.38-.06-.49-.19-.12-.12-.17-.28-.17-.48v-8.66c0-1.54-.39-2.75-1.16-3.61-.77-.86-2.02-1.29-3.74-1.29h-6.14Z"/>
        <path class="cls-2" d="M100.46,101.09h.72c.29,0,.51.07.65.22.14.14.21.32.19.54-.15.81-.29,1.55-.39,2.2-.11.66-.18,1.31-.22,1.96-.04.65-.06,1.38-.06,2.19l.09,7.88c0,.19-.06.35-.19.48-.13.13-.29.19-.48.19l-4.11-.06c-.19,0-.35-.06-.48-.17-.13-.12-.19-.28-.19-.49v-.93c0-.19.06-.35.19-.48.13-.12.28-.19.48-.19l2.23.03v-6.14c0-.79,0-1.52.03-2.19.02-.67.08-1.34.17-2.01.1-.68.25-1.44.46-2.29.06-.21.15-.39.28-.52.13-.13.33-.2.62-.2ZM97.85,102.51c-.19,0-.35-.06-.48-.19-.13-.13-.19-.29-.19-.48v-.99c0-.19.06-.35.19-.48.13-.13.28-.19.48-.19h6.29c1.66,0,3.04.27,4.13.8,1.09.53,1.91,1.32,2.45,2.38.54,1.05.81,2.35.81,3.9v8.81c0,.19-.06.35-.19.48-.13.13-.29.19-.48.19h-1.3c-.21,0-.38-.06-.49-.19-.12-.12-.17-.28-.17-.48v-8.66c0-1.54-.39-2.75-1.16-3.61-.77-.86-2.02-1.29-3.74-1.29h-6.14Z"/>
        <path class="cls-2" d="M55.36,135.86h.72c.29,0,.51.07.65.22.14.14.21.32.19.54-.15.81-.29,1.55-.39,2.2-.11.66-.18,1.31-.22,1.96-.04.65-.06,1.38-.06,2.19l.09,7.88c0,.19-.06.35-.19.48-.13.13-.29.19-.48.19l-4.11-.06c-.19,0-.35-.06-.48-.17-.13-.12-.19-.28-.19-.49v-.93c0-.19.06-.35.19-.48.13-.12.28-.19.48-.19l2.23.03v-6.14c0-.79,0-1.52.03-2.19.02-.67.08-1.34.17-2.01.1-.68.25-1.44.46-2.29.06-.21.15-.39.28-.52.13-.13.33-.2.62-.2ZM52.75,137.28c-.19,0-.35-.06-.48-.19-.13-.13-.19-.29-.19-.48v-.99c0-.19.06-.35.19-.48.13-.13.28-.19.48-.19h6.29c1.66,0,3.04.27,4.13.8,1.09.53,1.91,1.32,2.45,2.38.54,1.05.81,2.35.81,3.9v8.81c0,.19-.06.35-.19.48-.13.13-.29.19-.48.19h-1.3c-.21,0-.38-.06-.49-.19-.12-.12-.17-.28-.17-.48v-8.66c0-1.54-.39-2.75-1.16-3.61-.77-.86-2.02-1.29-3.74-1.29h-6.14Z"/>
        <path class="cls-2" d="M71.38,151.51c-.19,0-.35-.06-.48-.19-.13-.12-.19-.28-.19-.48v-15.21c0-.19.06-.35.19-.48.13-.13.28-.19.48-.19h1.36c.21,0,.38.06.49.19.12.12.17.29.17.48v15.21c0,.19-.06.35-.17.48-.12.13-.28.19-.49.19h-1.36Z"/>
        <path class="cls-2" d="M78.34,144.79c-.19,0-.35-.06-.48-.19-.13-.12-.19-.28-.19-.48v-8.49c0-.19.06-.35.19-.48.13-.13.28-.19.48-.19h1.39c.19,0,.35.06.46.19.12.12.17.29.17.48v8.49c0,.19-.06.35-.17.48-.12.13-.27.19-.46.19h-1.39Z"/>
        <path class="cls-2" d="M84.51,153.11c-.19.08-.38.06-.55-.04-.17-.11-.26-.26-.26-.45v-.99c0-.17.04-.34.12-.49.08-.15.2-.26.38-.32l6.11-2c1.1-.37,1.95-.84,2.55-1.42.6-.58,1.02-1.26,1.26-2.03.24-.77.36-1.61.36-2.52v-7.21c0-.19.06-.35.19-.48.13-.13.28-.19.48-.19h1.3c.21,0,.38.06.49.19.12.12.17.29.17.48v8.03c0,1.12-.25,2.18-.75,3.17-.5,1-1.22,1.86-2.16,2.61-.94.74-2.04,1.31-3.32,1.69l-6.37,1.97ZM88.3,150.82l-4.09-14.69c-.04-.16-.07-.27-.1-.35-.03-.08-.04-.15-.04-.23,0-.15.06-.29.17-.41.12-.12.25-.17.41-.17h1.42c.37,0,.59.14.67.43l4.03,14.75-2.46.67Z"/>
        <path class="cls-2" d="M101.37,151.51c-.19,0-.35-.06-.48-.19-.13-.12-.19-.28-.19-.48v-.99c0-.19.06-.35.19-.48.13-.12.28-.19.48-.19h8.32v-7.01c0-1.54-.39-2.75-1.16-3.61-.77-.86-2.02-1.29-3.74-1.29h-3.13c-.19,0-.35-.06-.48-.19-.13-.13-.19-.29-.19-.48v-.99c0-.19.06-.35.19-.48.13-.13.28-.19.48-.19h3.27c1.66,0,3.04.27,4.14.81,1.1.54,1.93,1.34,2.48,2.39.55,1.05.83,2.36.83,3.93v7.1h1.07c.19,0,.35.06.48.19.13.13.19.29.19.48v.99c0,.19-.06.35-.19.48-.13.13-.29.19-.48.19h-12.08Z"/>
        <path class="cls-2" d="M128.87,151.51c-.19,0-.35-.06-.48-.19-.13-.12-.19-.28-.19-.48v-8.66c0-1.54-.39-2.75-1.16-3.61-.77-.86-2.02-1.29-3.74-1.29h-5.45c-.19,0-.35-.06-.48-.19-.13-.13-.19-.29-.19-.48v-.99c0-.19.06-.35.19-.48.13-.13.28-.19.48-.19h5.59c2.51,0,4.37.61,5.58,1.83,1.21,1.22,1.81,2.98,1.81,5.3v8.75c0,.19-.06.35-.19.48-.13.13-.29.19-.48.19h-1.3ZM117.86,151.51c-.19,0-.35-.06-.48-.19-.13-.12-.19-.28-.19-.48v-9.68c0-.19.06-.35.19-.48.13-.13.28-.19.48-.19h1.33c.19,0,.35.06.46.19s.17.29.17.48v9.68c0,.19-.06.35-.17.48-.12.13-.27.19-.46.19h-1.33Z"/>
        <path class="cls-2" d="M55.36,170.63h.72c.29,0,.51.07.65.22.14.14.21.32.19.54-.15.81-.29,1.55-.39,2.2-.11.66-.18,1.31-.22,1.96-.04.65-.06,1.38-.06,2.19l.09,7.88c0,.19-.06.35-.19.48-.13.13-.29.19-.48.19l-4.11-.06c-.19,0-.35-.06-.48-.17-.13-.12-.19-.28-.19-.49v-.93c0-.19.06-.35.19-.48.13-.12.28-.19.48-.19l2.23.03v-6.14c0-.79,0-1.52.03-2.19.02-.67.08-1.34.17-2.01.1-.68.25-1.44.46-2.29.06-.21.15-.39.28-.52.13-.13.33-.2.62-.2ZM52.75,172.05c-.19,0-.35-.06-.48-.19-.13-.13-.19-.29-.19-.48v-.99c0-.19.06-.35.19-.48.13-.13.28-.19.48-.19h6.29c1.66,0,3.04.27,4.13.8,1.09.53,1.91,1.32,2.45,2.38.54,1.05.81,2.35.81,3.9v8.81c0,.19-.06.35-.19.48-.13.13-.29.19-.48.19h-1.3c-.21,0-.38-.06-.49-.19-.12-.12-.17-.28-.17-.48v-8.66c0-1.54-.39-2.75-1.16-3.61-.77-.86-2.02-1.29-3.74-1.29h-6.14Z"/>
        <path class="cls-2" d="M79.44,186.28c-.19,0-.35-.06-.48-.19-.13-.12-.19-.28-.19-.48v-8.66c0-1.54-.39-2.75-1.16-3.61-.77-.86-2.02-1.29-3.74-1.29h-3.8c-.19,0-.35-.06-.48-.19-.13-.13-.19-.29-.19-.48v-.99c0-.19.06-.35.19-.48.13-.13.28-.19.48-.19h3.94c1.66,0,3.04.26,4.13.78,1.09.52,1.91,1.31,2.45,2.36.54,1.05.81,2.36.81,3.93v8.81c0,.19-.06.35-.19.48-.13.13-.29.19-.48.19h-1.3Z"/>
        <path class="cls-2" d="M86.16,179.56c-.19,0-.35-.06-.48-.19-.13-.12-.19-.28-.19-.48v-8.49c0-.19.06-.35.19-.48.13-.13.28-.19.48-.19h1.39c.19,0,.35.06.46.19.12.12.17.29.17.48v8.49c0,.19-.06.35-.17.48-.12.13-.27.19-.46.19h-1.39Z"/>
        <path class="cls-2" d="M96.13,170.63h.72c.29,0,.51.07.65.22.14.14.21.32.19.54-.15.81-.29,1.55-.39,2.2-.11.66-.18,1.31-.22,1.96-.04.65-.06,1.38-.06,2.19l.09,7.88c0,.19-.06.35-.19.48-.13.13-.29.19-.48.19l-4.11-.06c-.19,0-.35-.06-.48-.17-.13-.12-.19-.28-.19-.49v-.93c0-.19.06-.35.19-.48.13-.12.28-.19.48-.19l2.23.03v-6.14c0-.79,0-1.52.03-2.19.02-.67.08-1.34.17-2.01.1-.68.25-1.44.46-2.29.06-.21.15-.39.28-.52.13-.13.33-.2.62-.2ZM93.52,172.05c-.19,0-.35-.06-.48-.19-.13-.13-.19-.29-.19-.48v-.99c0-.19.06-.35.19-.48.13-.13.28-.19.48-.19h6.29c1.66,0,3.04.27,4.13.8,1.09.53,1.91,1.32,2.45,2.38.54,1.05.81,2.35.81,3.9v8.81c0,.19-.06.35-.19.48-.13.13-.29.19-.48.19h-1.3c-.21,0-.38-.06-.49-.19-.12-.12-.17-.28-.17-.48v-8.66c0-1.54-.39-2.75-1.16-3.61-.77-.86-2.02-1.29-3.74-1.29h-6.14Z"/>
        <path class="cls-2" d="M113.83,172.11v2.26c.02.7.11,1.28.28,1.74.16.46.46.75.88.87l1.07.29c.15.04.28.14.36.3.09.16.13.36.13.59v.72c0,.21-.11.37-.32.46-.21.1-.44.12-.7.09l-1.13-.23c-.62-.15-1.15-.43-1.59-.83-.44-.4-.78-.94-1-1.62-.22-.69-.33-1.51-.33-2.48v-3.88c0-.19.06-.35.17-.48.12-.13.28-.19.49-.19h5.36c1.45,0,2.66.29,3.62.85.97.57,1.7,1.39,2.2,2.46.5,1.07.77,2.36.81,3.87.02.29.03.65.03,1.09s-.01.8-.03,1.09c-.04,1.49-.31,2.77-.81,3.85-.5,1.08-1.24,1.91-2.2,2.48-.97.57-2.17.85-3.62.85h-5.01c-.19,0-.35-.06-.48-.19-.13-.12-.19-.28-.19-.48v-1.04c0-.19.06-.35.19-.48.13-.13.28-.19.48-.19h4.87c1.33,0,2.36-.43,3.09-1.29.72-.86,1.13-2.06,1.2-3.61.02-.29.03-.62.03-1s0-.71-.03-1c-.04-1.54-.43-2.75-1.17-3.61-.74-.86-1.78-1.29-3.11-1.29h-3.54Z"/>
        <path class="cls-2" d="M128.64,186.28c-.19,0-.35-.06-.48-.19-.13-.12-.19-.28-.19-.48v-15.21c0-.19.06-.35.19-.48.13-.13.28-.19.48-.19h1.36c.21,0,.38.06.49.19.12.12.17.29.17.48v15.21c0,.19-.06.35-.17.48-.12.13-.28.19-.49.19h-1.36Z"/>
        <path class="cls-2" d="M67.44,221.05c-.19,0-.35-.06-.48-.19-.13-.12-.19-.28-.19-.48v-8.66c0-1.54-.39-2.75-1.16-3.61-.77-.86-2.02-1.29-3.74-1.29h-5.45c-.19,0-.35-.06-.48-.19-.13-.13-.19-.29-.19-.48v-.99c0-.19.06-.35.19-.48.13-.13.28-.19.48-.19h5.59c2.51,0,4.37.61,5.58,1.83,1.21,1.22,1.81,2.98,1.81,5.3v8.75c0,.19-.06.35-.19.48-.13.13-.29.19-.48.19h-1.3ZM56.43,221.05c-.19,0-.35-.06-.48-.19-.13-.12-.19-.28-.19-.48v-9.68c0-.19.06-.35.19-.48.13-.13.28-.19.48-.19h1.33c.19,0,.35.06.46.19s.17.29.17.48v9.68c0,.19-.06.35-.17.48-.12.13-.27.19-.46.19h-1.33Z"/>
        <path class="cls-2" d="M74.16,214.33c-.19,0-.35-.06-.48-.19-.13-.12-.19-.28-.19-.48v-8.49c0-.19.06-.35.19-.48.13-.13.28-.19.48-.19h1.39c.19,0,.35.06.46.19.12.12.17.29.17.48v8.49c0,.19-.06.35-.17.48-.12.13-.27.19-.46.19h-1.39Z"/>
        <path class="cls-2" d="M80.34,222.65c-.19.08-.38.06-.55-.04-.17-.11-.26-.26-.26-.45v-.99c0-.17.04-.34.12-.49.08-.15.2-.26.38-.32l6.11-2c1.1-.37,1.95-.84,2.55-1.42.6-.58,1.02-1.26,1.26-2.03.24-.77.36-1.61.36-2.52v-7.21c0-.19.06-.35.19-.48.13-.13.28-.19.48-.19h1.3c.21,0,.38.06.49.19.12.12.17.29.17.48v8.03c0,1.12-.25,2.18-.75,3.17-.5,1-1.22,1.86-2.16,2.61-.94.74-2.04,1.31-3.32,1.69l-6.37,1.97ZM84.13,220.36l-4.09-14.69c-.04-.16-.07-.27-.1-.35-.03-.08-.04-.15-.04-.23,0-.15.06-.29.17-.41.12-.12.25-.17.41-.17h1.42c.37,0,.59.14.67.43l4.03,14.75-2.46.67Z"/>
        <path class="cls-2" d="M97.2,221.05c-.19,0-.35-.06-.48-.19-.13-.12-.19-.28-.19-.48v-.99c0-.19.06-.35.19-.48.13-.12.28-.19.48-.19h8.32v-7.01c0-1.54-.39-2.75-1.16-3.61-.77-.86-2.02-1.29-3.74-1.29h-3.13c-.19,0-.35-.06-.48-.19-.13-.13-.19-.29-.19-.48v-.99c0-.19.06-.35.19-.48.13-.13.28-.19.48-.19h3.27c1.66,0,3.04.27,4.14.81,1.1.54,1.93,1.34,2.48,2.39.55,1.05.83,2.36.83,3.93v7.1h1.07c.19,0,.35.06.48.19.13.13.19.29.19.48v.99c0,.19-.06.35-.19.48-.13.13-.29.19-.48.19h-12.08Z"/>
        <path class="cls-2" d="M124.7,221.05c-.19,0-.35-.06-.48-.19-.13-.12-.19-.28-.19-.48v-8.66c0-1.54-.39-2.75-1.16-3.61-.77-.86-2.02-1.29-3.74-1.29h-5.45c-.19,0-.35-.06-.48-.19-.13-.13-.19-.29-.19-.48v-.99c0-.19.06-.35.19-.48.13-.13.28-.19.48-.19h5.59c2.51,0,4.37.61,5.58,1.83,1.21,1.22,1.81,2.98,1.81,5.3v8.75c0,.19-.06.35-.19.48-.13.13-.29.19-.48.19h-1.3ZM113.69,221.05c-.19,0-.35-.06-.48-.19-.13-.12-.19-.28-.19-.48v-9.68c0-.19.06-.35.19-.48.13-.13.28-.19.48-.19h1.33c.19,0,.35.06.46.19s.17.29.17.48v9.68c0,.19-.06.35-.17.48-.12.13-.27.19-.46.19h-1.33Z"/>
      </g>
    </g>
  </g>
</svg>