<?xml version="1.0" encoding="UTF-8"?>
<svg id="Layer_2" data-name="Layer 2" xmlns="http://www.w3.org/2000/svg" xmlns:xlink="http://www.w3.org/1999/xlink" viewBox="0 0 176.83 276.23">
  <defs>
    <style>
      .cls-1 {
        stroke: #a01f24;
        stroke-miterlimit: 10;
        stroke-width: 2px;
      }

      .cls-1, .cls-2 {
        fill: #a01f24;
      }

      .cls-3 {
        fill: #ffe;
      }

      .cls-3, .cls-2, .cls-4 {
        stroke-width: 0px;
      }

      .cls-4 {
        fill: url(#radial-gradient);
      }
    </style>
    <radialGradient id="radial-gradient" cx="-132.65" cy="169.44" fx="-132.65" fy="169.44" r="115.5" gradientTransform="translate(221)" gradientUnits="userSpaceOnUse">
      <stop offset="0" stop-color="#fff"/>
      <stop offset=".92" stop-color="#ffffef"/>
      <stop offset="1" stop-color="#ffe"/>
    </radialGradient>
  </defs>
  <g id="Layer_1-2" data-name="Layer 1">
    <g>
      <rect class="cls-4" x=".87" y=".99" width="175.96" height="275.24" rx="12.11" ry="12.11"/>
      <rect class="cls-3" x="0" width="175.96" height="275.24" rx="12.11" ry="12.11"/>
      <g>
        <rect class="cls-1" x="10.86" y="38.71" width="14.17" height="14.17" transform="translate(37.07 .47) rotate(44.27)"/>
        <path class="cls-2" d="M26.68,27.65c0,.34-.1.63-.32.86-.22.24-.51.36-.87.36-.25,0-.48-.06-.69-.19-.21-.13-.37-.31-.48-.54l-1.8-4.17-9.13.12-1.69,4.21c-.1.23-.26.42-.46.56-.2.14-.43.21-.68.21-.36,0-.65-.11-.88-.34-.23-.23-.34-.51-.35-.86,0-.14.04-.32.13-.54l6.64-16.25c.14-.32.34-.59.59-.8.26-.21.57-.32.95-.32h.27c.38,0,.69.09.96.29.26.2.47.46.61.78l7.05,16.08c.09.21.14.39.14.54ZM17.82,13.07l-3.51,8.77,7.25-.09-3.74-8.68Z"/>
      </g>
      <g>
        <rect class="cls-1" x="149.24" y="223.58" width="14.17" height="14.17" transform="translate(208.89 -42.98) rotate(45)"/>
        <path class="cls-2" d="M147.37,248.69c0-.34.11-.63.34-.86.22-.23.52-.35.87-.35.25,0,.48.07.68.2.21.13.36.32.47.55l1.75,4.19h9.13l1.75-4.19c.11-.23.26-.42.47-.55.21-.13.43-.2.68-.2.36,0,.65.12.87.35.22.23.34.52.34.86,0,.14-.04.32-.13.54l-6.85,16.17c-.14.32-.34.59-.6.79-.26.21-.58.31-.95.31h-.27c-.38,0-.69-.1-.95-.31-.26-.21-.46-.47-.6-.79l-6.85-16.17c-.09-.21-.13-.39-.13-.54ZM156.04,263.38l3.63-8.73h-7.25l3.63,8.73Z"/>
      </g>
      <g>
        <path class="cls-2" d="M61.71,94.99c-.17.06-.33.03-.48-.07-.14-.11-.22-.26-.22-.45v-1.33c0-.17.05-.33.16-.46.11-.13.27-.24.48-.32l1.1-.43c.77-.33,1.47-.72,2.1-1.19.63-.46,1.12-1.1,1.48-1.91.36-.81.54-1.87.54-3.19s-.15-2.25-.46-3c-.31-.74-.82-1.27-1.52-1.59-.71-.32-1.66-.48-2.85-.48h-5.88c-.19,0-.35-.06-.48-.19-.13-.13-.19-.29-.19-.48v-1.04c0-.19.06-.35.19-.48.13-.13.28-.19.48-.19h6.26c1.78,0,3.18.25,4.22.75,1.03.5,1.78,1.31,2.23,2.42.45,1.11.68,2.56.68,4.36,0,1.35-.18,2.52-.55,3.51-.37.99-.86,1.83-1.49,2.52-.63.7-1.33,1.27-2.12,1.72-.78.45-1.6.83-2.45,1.12l-1.22.41ZM56.15,100.26c-.19,0-.35-.06-.48-.19-.13-.13-.19-.29-.19-.48v-15.21c0-.19.06-.35.19-.48.13-.13.28-.19.48-.19h1.27c.21,0,.38.06.49.19.12.13.17.29.17.48v15.21c0,.19-.06.35-.17.48-.12.13-.28.19-.49.19h-1.27Z"/>
        <path class="cls-2" d="M74.29,94.73c-.19,0-.35-.06-.48-.19-.13-.12-.19-.28-.19-.48v-15.21c0-.19.06-.35.19-.48.13-.13.28-.19.48-.19h1.36c.21,0,.38.06.49.19.12.12.17.29.17.48v15.21c0,.19-.06.35-.17.48-.12.13-.28.19-.49.19h-1.36Z"/>
        <path class="cls-2" d="M90.14,94.73c-.19,0-.35-.06-.48-.19-.13-.12-.19-.28-.19-.48v-8.66c0-1.54-.39-2.75-1.16-3.61-.77-.86-2.02-1.29-3.74-1.29h-3.8c-.19,0-.35-.06-.48-.19-.13-.13-.19-.29-.19-.48v-.99c0-.19.06-.35.19-.48.13-.13.28-.19.48-.19h3.94c1.66,0,3.04.26,4.13.78,1.09.52,1.91,1.31,2.45,2.36.54,1.05.81,2.36.81,3.93v8.81c0,.19-.06.35-.19.48-.13.13-.29.19-.48.19h-1.3Z"/>
        <path class="cls-2" d="M96.86,88.01c-.19,0-.35-.06-.48-.19-.13-.12-.19-.28-.19-.48v-8.49c0-.19.06-.35.19-.48.13-.13.28-.19.48-.19h1.39c.19,0,.35.06.46.19.12.12.17.29.17.48v8.49c0,.19-.06.35-.17.48-.12.13-.27.19-.46.19h-1.39Z"/>
        <path class="cls-2" d="M105.52,80.56v2.26c.02.7.11,1.28.28,1.74.16.46.46.75.88.87l1.07.29c.15.04.28.14.36.3s.13.36.13.59v.72c0,.21-.11.37-.32.46-.21.1-.44.12-.7.09l-1.13-.23c-.62-.15-1.15-.43-1.59-.83-.44-.4-.78-.94-1-1.62-.22-.69-.33-1.51-.33-2.48v-3.88c0-.19.06-.35.17-.48.12-.13.28-.19.49-.19h5.36c1.45,0,2.66.29,3.62.85.97.57,1.7,1.39,2.2,2.46.5,1.07.77,2.36.81,3.87.02.29.03.65.03,1.09s-.01.8-.03,1.09c-.04,1.49-.31,2.77-.81,3.85-.5,1.08-1.24,1.91-2.2,2.48-.97.57-2.17.85-3.62.85h-5.01c-.19,0-.35-.06-.48-.19-.13-.12-.19-.28-.19-.48v-1.04c0-.19.06-.35.19-.48.13-.13.28-.19.48-.19h4.87c1.33,0,2.36-.43,3.09-1.29.72-.86,1.12-2.06,1.2-3.61.02-.29.03-.62.03-1s-.01-.71-.03-1c-.04-1.54-.43-2.75-1.17-3.61-.74-.86-1.78-1.29-3.11-1.29h-3.54Z"/>
        <path class="cls-2" d="M49.24,129.76c-.17.06-.33.03-.48-.07-.14-.11-.22-.26-.22-.45v-1.33c0-.17.05-.33.16-.46.11-.13.27-.24.48-.32l1.1-.43c.77-.33,1.47-.72,2.1-1.19.63-.46,1.12-1.1,1.48-1.91.36-.81.54-1.87.54-3.19s-.15-2.25-.46-3c-.31-.74-.82-1.27-1.52-1.59-.71-.32-1.66-.48-2.85-.48h-5.88c-.19,0-.35-.06-.48-.19-.13-.13-.19-.29-.19-.48v-1.04c0-.19.06-.35.19-.48.13-.13.28-.19.48-.19h6.26c1.78,0,3.18.25,4.22.75,1.03.5,1.78,1.31,2.23,2.42.45,1.11.68,2.56.68,4.36,0,1.35-.18,2.52-.55,3.51-.37.99-.86,1.83-1.49,2.52-.63.7-1.33,1.27-2.12,1.72-.78.45-1.6.83-2.45,1.12l-1.22.41ZM43.67,135.03c-.19,0-.35-.06-.48-.19-.13-.13-.19-.29-.19-.48v-15.21c0-.19.06-.35.19-.48.13-.13.28-.19.48-.19h1.27c.21,0,.38.06.49.19.12.13.17.29.17.48v15.21c0,.19-.06.35-.17.48-.12.13-.28.19-.49.19h-1.27Z"/>
        <path class="cls-2" d="M64.77,115.33l-3.45-.03c-.19,0-.35-.06-.48-.17-.13-.12-.19-.27-.19-.46v-5.07c0-.19.06-.35.19-.48.13-.12.28-.19.48-.19h1.22c.21,0,.38.06.49.19.12.13.17.29.17.48v3.36h1.62l-.06,2.38ZM64.71,129.76c-.17.06-.34.03-.49-.07-.15-.11-.23-.26-.23-.45v-1.33c0-.17.05-.33.16-.46.11-.13.27-.24.48-.32l1.13-.43c.75-.33,1.44-.72,2.07-1.19.63-.46,1.12-1.1,1.48-1.91.36-.81.54-1.87.54-3.19s-.15-2.25-.45-3c-.3-.74-.8-1.27-1.51-1.59-.71-.32-1.67-.48-2.88-.48h-.87c-.19,0-.35-.06-.48-.19-.13-.13-.19-.29-.19-.48v-1.04c0-.19.06-.35.19-.48.13-.13.28-.19.48-.19h1.27c1.76,0,3.16.25,4.2.75,1.04.5,1.79,1.31,2.25,2.42.45,1.11.68,2.56.68,4.36,0,1.35-.18,2.52-.55,3.51-.37.99-.86,1.83-1.49,2.52-.63.7-1.34,1.27-2.13,1.72-.79.45-1.61.83-2.46,1.12l-1.19.41Z"/>
        <path class="cls-2" d="M77,129.5c-.19,0-.35-.06-.48-.19-.13-.12-.19-.28-.19-.48v-15.21c0-.19.06-.35.19-.48.13-.13.28-.19.48-.19h5.65c1.66,0,3.04.27,4.13.8,1.09.53,1.91,1.32,2.45,2.38.54,1.05.81,2.37.81,3.96v8.75c0,.19-.06.35-.19.48-.13.13-.29.19-.48.19h-1.3c-.21,0-.38-.06-.49-.19-.12-.12-.17-.28-.17-.48v-8.66c0-1.54-.39-2.75-1.16-3.61-.77-.86-2.02-1.29-3.74-1.29h-3.54v13.56c0,.19-.06.35-.17.48-.12.13-.27.19-.46.19h-1.33Z"/>
        <path class="cls-2" d="M104.41,115.33l-3.45-.03c-.19,0-.35-.06-.48-.17-.13-.12-.19-.27-.19-.46v-5.07c0-.19.06-.35.19-.48.13-.12.28-.19.48-.19h1.22c.21,0,.38.06.49.19.12.13.17.29.17.48v3.36h1.62l-.06,2.38ZM104.35,129.76c-.17.06-.34.03-.49-.07-.15-.11-.23-.26-.23-.45v-1.33c0-.17.05-.33.16-.46.11-.13.27-.24.48-.32l1.13-.43c.75-.33,1.44-.72,2.07-1.19.63-.46,1.12-1.1,1.48-1.91.36-.81.54-1.87.54-3.19s-.15-2.25-.45-3c-.3-.74-.8-1.27-1.51-1.59-.71-.32-1.67-.48-2.88-.48h-.87c-.19,0-.35-.06-.48-.19-.13-.13-.19-.29-.19-.48v-1.04c0-.19.06-.35.19-.48.13-.13.28-.19.48-.19h1.27c1.76,0,3.16.25,4.2.75,1.04.5,1.79,1.31,2.25,2.42.45,1.11.68,2.56.68,4.36,0,1.35-.18,2.52-.55,3.51-.37.99-.86,1.83-1.49,2.52-.63.7-1.34,1.27-2.13,1.72-.79.45-1.61.83-2.46,1.12l-1.19.41Z"/>
        <path class="cls-2" d="M116.63,129.5c-.19,0-.35-.06-.48-.19-.13-.12-.19-.28-.19-.48v-1.04c0-.19.06-.35.19-.48.13-.13.28-.19.48-.19h4.14c1.72,0,2.96-.43,3.71-1.29.75-.86,1.17-2.06,1.25-3.61.02-.42.03-.76.03-1.01s-.01-.58-.03-.99c-.06-1.54-.47-2.75-1.23-3.61-.76-.86-2-1.29-3.72-1.29h-4.14c-.19,0-.35-.06-.48-.19-.13-.13-.19-.29-.19-.48v-1.04c0-.19.06-.35.19-.48.13-.13.28-.19.48-.19h4.29c1.7,0,3.08.29,4.14.85,1.06.57,1.86,1.39,2.39,2.46.53,1.07.82,2.36.85,3.87.02.39.03.74.03,1.07s-.01.7-.03,1.1c-.04,1.49-.32,2.77-.85,3.85-.53,1.08-1.33,1.91-2.39,2.48-1.06.57-2.44.85-4.14.85h-4.29Z"/>
        <path class="cls-2" d="M58.25,157.55c-.19,0-.35-.06-.48-.19-.13-.12-.19-.28-.19-.48v-8.49c0-.19.06-.35.19-.48.13-.13.28-.19.48-.19h1.39c.19,0,.35.06.46.19.12.12.17.29.17.48v8.49c0,.19-.06.35-.17.48-.12.13-.27.19-.46.19h-1.39Z"/>
        <path class="cls-2" d="M68.22,148.62h.72c.29,0,.51.07.65.22s.21.32.19.54c-.15.81-.29,1.55-.39,2.2-.11.66-.18,1.31-.22,1.96-.04.65-.06,1.38-.06,2.19l.09,7.88c0,.19-.06.35-.19.48-.13.13-.29.19-.48.19l-4.11-.06c-.19,0-.35-.06-.48-.17-.13-.12-.19-.28-.19-.49v-.93c0-.19.06-.35.19-.48.13-.12.28-.19.48-.19l2.23.03v-6.14c0-.79,0-1.52.03-2.19.02-.67.08-1.34.17-2.01.1-.68.25-1.44.46-2.29.06-.21.15-.39.28-.52.13-.13.33-.2.62-.2ZM65.61,150.04c-.19,0-.35-.06-.48-.19-.13-.13-.19-.29-.19-.48v-.99c0-.19.06-.35.19-.48.13-.13.28-.19.48-.19h6.29c1.66,0,3.04.27,4.13.8,1.09.53,1.91,1.32,2.45,2.38.54,1.05.81,2.35.81,3.9v8.81c0,.19-.06.35-.19.48-.13.13-.29.19-.48.19h-1.3c-.21,0-.38-.06-.49-.19-.12-.12-.17-.28-.17-.48v-8.66c0-1.54-.39-2.75-1.16-3.61-.77-.86-2.02-1.29-3.74-1.29h-6.14Z"/>
        <path class="cls-2" d="M87.34,148.62h.72c.29,0,.51.07.65.22s.21.32.19.54c-.15.81-.29,1.55-.39,2.2-.11.66-.18,1.31-.22,1.96-.04.65-.06,1.38-.06,2.19l.09,7.88c0,.19-.06.35-.19.48-.13.13-.29.19-.48.19l-4.11-.06c-.19,0-.35-.06-.48-.17-.13-.12-.19-.28-.19-.49v-.93c0-.19.06-.35.19-.48.13-.12.28-.19.48-.19l2.23.03v-6.14c0-.79,0-1.52.03-2.19.02-.67.08-1.34.17-2.01.1-.68.25-1.44.46-2.29.06-.21.15-.39.28-.52.13-.13.33-.2.62-.2ZM84.73,150.04c-.19,0-.35-.06-.48-.19-.13-.13-.19-.29-.19-.48v-.99c0-.19.06-.35.19-.48.13-.13.28-.19.48-.19h6.29c1.66,0,3.04.27,4.13.8,1.09.53,1.91,1.32,2.45,2.38.54,1.05.81,2.35.81,3.9v8.81c0,.19-.06.35-.19.48-.13.13-.29.19-.48.19h-1.3c-.21,0-.38-.06-.49-.19-.12-.12-.17-.28-.17-.48v-8.66c0-1.54-.39-2.75-1.16-3.61-.77-.86-2.02-1.29-3.74-1.29h-6.14Z"/>
        <path class="cls-2" d="M105.8,150.1l-3.45-.03c-.19,0-.35-.06-.48-.17-.13-.12-.19-.27-.19-.46v-5.07c0-.19.06-.35.19-.48.13-.12.28-.19.48-.19h1.22c.21,0,.38.06.49.19.12.13.17.29.17.48v3.36h1.62l-.06,2.38ZM105.74,164.53c-.17.06-.34.03-.49-.07-.15-.11-.23-.26-.23-.45v-1.33c0-.17.05-.33.16-.46.11-.13.27-.24.48-.32l1.13-.43c.75-.33,1.44-.72,2.07-1.19.63-.46,1.12-1.1,1.48-1.91.36-.81.54-1.87.54-3.19s-.15-2.25-.45-3c-.3-.74-.8-1.27-1.51-1.59-.71-.32-1.67-.48-2.88-.48h-.87c-.19,0-.35-.06-.48-.19-.13-.13-.19-.29-.19-.48v-1.04c0-.19.06-.35.19-.48.13-.13.28-.19.48-.19h1.27c1.76,0,3.16.25,4.2.75,1.04.5,1.79,1.31,2.25,2.42.45,1.11.68,2.56.68,4.36,0,1.35-.18,2.52-.55,3.51-.37.99-.86,1.83-1.49,2.52-.63.7-1.34,1.27-2.13,1.72-.79.45-1.61.83-2.46,1.12l-1.19.41Z"/>
        <path class="cls-2" d="M58.54,183.4h.72c.29,0,.51.07.65.22s.21.32.19.54c-.15.81-.29,1.55-.39,2.2-.11.66-.18,1.31-.22,1.96-.04.65-.06,1.38-.06,2.19l.09,7.88c0,.19-.06.35-.19.48-.13.13-.29.19-.48.19l-4.11-.06c-.19,0-.35-.06-.48-.17-.13-.12-.19-.28-.19-.49v-.93c0-.19.06-.35.19-.48.13-.12.28-.19.48-.19l2.23.03v-6.14c0-.79,0-1.52.03-2.19.02-.67.08-1.34.17-2.01.1-.68.25-1.44.46-2.29.06-.21.15-.39.28-.52.13-.13.33-.2.62-.2ZM55.93,184.82c-.19,0-.35-.06-.48-.19-.13-.13-.19-.29-.19-.48v-.99c0-.19.06-.35.19-.48.13-.13.28-.19.48-.19h6.29c1.66,0,3.04.27,4.13.8,1.09.53,1.91,1.32,2.45,2.38.54,1.05.81,2.35.81,3.9v8.81c0,.19-.06.35-.19.48-.13.13-.29.19-.48.19h-1.3c-.21,0-.38-.06-.49-.19-.12-.12-.17-.28-.17-.48v-8.66c0-1.54-.39-2.75-1.16-3.61-.77-.86-2.02-1.29-3.74-1.29h-6.14Z"/>
        <path class="cls-2" d="M74.56,199.04c-.19,0-.35-.06-.48-.19-.13-.12-.19-.28-.19-.48v-15.21c0-.19.06-.35.19-.48.13-.13.28-.19.48-.19h1.36c.21,0,.38.06.49.19.12.12.17.29.17.48v15.21c0,.19-.06.35-.17.48-.12.13-.28.19-.49.19h-1.36Z"/>
        <path class="cls-2" d="M81.52,192.32c-.19,0-.35-.06-.48-.19-.13-.12-.19-.28-.19-.48v-8.49c0-.19.06-.35.19-.48.13-.13.28-.19.48-.19h1.39c.19,0,.35.06.46.19.12.12.17.29.17.48v8.49c0,.19-.06.35-.17.48-.12.13-.27.19-.46.19h-1.39Z"/>
        <path class="cls-2" d="M87.69,200.64c-.19.08-.38.06-.55-.04-.17-.11-.26-.26-.26-.45v-.99c0-.17.04-.34.12-.49.08-.15.2-.26.38-.32l6.11-2c1.1-.37,1.95-.84,2.55-1.42.6-.58,1.02-1.26,1.26-2.03.24-.77.36-1.61.36-2.52v-7.21c0-.19.06-.35.19-.48.13-.13.28-.19.48-.19h1.3c.21,0,.38.06.49.19.12.12.17.29.17.48v8.03c0,1.12-.25,2.18-.75,3.17-.5,1-1.22,1.86-2.16,2.61-.94.74-2.04,1.31-3.32,1.69l-6.37,1.97ZM91.48,198.35l-4.09-14.69c-.04-.16-.07-.27-.1-.35-.03-.08-.04-.15-.04-.23,0-.15.06-.29.17-.41.12-.12.25-.17.41-.17h1.42c.37,0,.59.14.67.43l4.03,14.75-2.46.67Z"/>
        <path class="cls-2" d="M104.55,199.04c-.19,0-.35-.06-.48-.19-.13-.12-.19-.28-.19-.48v-.99c0-.19.06-.35.19-.48.13-.12.28-.19.48-.19h8.32v-7.01c0-1.54-.39-2.75-1.16-3.61-.77-.86-2.02-1.29-3.74-1.29h-3.13c-.19,0-.35-.06-.48-.19-.13-.13-.19-.29-.19-.48v-.99c0-.19.06-.35.19-.48.13-.13.28-.19.48-.19h3.27c1.66,0,3.04.27,4.14.81,1.1.54,1.93,1.34,2.48,2.39.55,1.05.83,2.36.83,3.93v7.1h1.07c.19,0,.35.06.48.19.13.13.19.29.19.48v.99c0,.19-.06.35-.19.48-.13.13-.29.19-.48.19h-12.08Z"/>
      </g>
    </g>
  </g>
</svg>