<?xml version="1.0" encoding="UTF-8"?>
<svg id="Layer_2" data-name="Layer 2" xmlns="http://www.w3.org/2000/svg" viewBox="0 0 175.96 275.24">
  <defs>
    <style>
      .cls-1, .cls-2 {
        stroke-width: 0px;
      }

      .cls-1, .cls-3 {
        fill: #00004d;
      }

      .cls-2 {
        fill: #ffe;
      }

      .cls-3 {
        stroke: #00004d;
        stroke-miterlimit: 10;
        stroke-width: 2px;
      }
    </style>
  </defs>
  <g id="Layer_1-2" data-name="Layer 1">
    <g>
      <rect class="cls-2" x="0" width="175.96" height="275.24" rx="12.11" ry="12.11"/>
      <g>
        <path class="cls-1" d="M25.87,26.78c0,.34-.11.63-.34.86-.22.23-.52.35-.87.35-.25,0-.48-.07-.68-.2-.21-.13-.36-.32-.47-.55l-1.75-4.19h-9.13l-1.75,4.19c-.11.23-.26.42-.47.55-.21.13-.43.2-.68.2-.36,0-.65-.12-.87-.35-.22-.23-.34-.52-.34-.86,0-.14.04-.32.13-.54l6.85-16.17c.14-.32.34-.59.6-.79.26-.21.58-.31.95-.31h.27c.38,0,.69.1.95.31.26.21.46.47.6.79l6.85,16.17c.09.21.13.39.13.54ZM17.2,12.09l-3.63,8.73h7.25l-3.63-8.73Z"/>
        <g>
          <g>
            <circle class="cls-3" cx="12.79" cy="44.47" r="4.35"/>
            <circle class="cls-3" cx="21.48" cy="44.47" r="4.35"/>
            <circle class="cls-3" cx="17.13" cy="36.86" r="4.35"/>
            <path class="cls-1" d="M16.94,43.55c1.93,0,1.93-3,0-3s-1.93,3,0,3h0Z"/>
          </g>
          <line class="cls-3" x1="13.87" y1="52.44" x2="20.94" y2="52.44"/>
        </g>
      </g>
      <g>
        <path class="cls-1" d="M149.24,248.9c0-.34.11-.63.34-.86.22-.23.52-.35.87-.35.25,0,.48.07.68.2.21.13.36.32.47.55l1.75,4.19h9.13s1.75-4.19,1.75-4.19c.11-.23.26-.42.47-.55.21-.13.43-.2.68-.2.36,0,.65.12.87.35.22.23.34.52.34.86,0,.14-.04.32-.13.54l-6.85,16.17c-.14.32-.34.59-.6.79-.26.21-.58.31-.95.31h-.27c-.38,0-.69-.1-.95-.31-.26-.21-.46-.47-.6-.79l-6.85-16.17c-.09-.21-.13-.39-.13-.54ZM157.92,263.59l3.63-8.73h-7.25s3.63,8.73,3.63,8.73Z"/>
        <g>
          <g>
            <circle class="cls-3" cx="161.83" cy="229.73" r="4.35"/>
            <circle class="cls-3" cx="153.14" cy="229.73" r="4.35"/>
            <circle class="cls-3" cx="157.49" cy="237.34" r="4.35"/>
            <path class="cls-1" d="M157.68,233.65c1.93,0,1.93-3,0-3s-1.93,3,0,3h0Z"/>
          </g>
          <line class="cls-3" x1="160.75" y1="221.76" x2="153.68" y2="221.76"/>
        </g>
      </g>
      <g>
        <path class="cls-1" d="M68.14,102c-.19,0-.35-.06-.48-.19-.13-.12-.19-.28-.19-.48v-8.49c0-.19.06-.35.19-.48.13-.13.28-.19.48-.19h1.39c.19,0,.35.06.46.19.12.12.17.29.17.48v8.49c0,.19-.06.35-.17.48-.12.13-.27.19-.46.19h-1.39Z"/>
        <path class="cls-1" d="M75.13,108.72c-.19,0-.35-.06-.48-.19-.13-.12-.19-.28-.19-.48v-15.21c0-.19.06-.35.19-.48.13-.13.28-.19.48-.19h1.36c.21,0,.38.06.49.19.12.12.17.29.17.48v15.21c0,.19-.06.35-.17.48-.12.13-.28.19-.49.19h-1.36Z"/>
        <path class="cls-1" d="M93.29,108.72c-.19,0-.35-.06-.48-.19-.13-.12-.19-.28-.19-.48v-8.66c0-1.54-.39-2.75-1.16-3.61-.77-.86-2.02-1.29-3.74-1.29h-5.45c-.19,0-.35-.06-.48-.19-.13-.13-.19-.29-.19-.48v-.99c0-.19.06-.35.19-.48.13-.13.28-.19.48-.19h5.59c2.51,0,4.37.61,5.58,1.83,1.21,1.22,1.81,2.98,1.81,5.3v8.75c0,.19-.06.35-.19.48-.13.13-.29.19-.48.19h-1.3ZM82.28,108.72c-.19,0-.35-.06-.48-.19-.13-.12-.19-.28-.19-.48v-9.68c0-.19.06-.35.19-.48.13-.13.28-.19.48-.19h1.33c.19,0,.35.06.46.19.12.13.17.29.17.48v9.68c0,.19-.06.35-.17.48-.12.13-.27.19-.46.19h-1.33Z"/>
        <path class="cls-1" d="M100.02,102c-.19,0-.35-.06-.48-.19-.13-.12-.19-.28-.19-.48v-8.49c0-.19.06-.35.19-.48.13-.13.28-.19.48-.19h1.39c.19,0,.35.06.46.19.12.12.17.29.17.48v8.49c0,.19-.06.35-.17.48-.12.13-.27.19-.46.19h-1.39Z"/>
        <path class="cls-1" d="M106.31,94.5c-.19,0-.35-.06-.48-.19-.13-.13-.19-.29-.19-.48v-.99c0-.19.06-.35.19-.48.13-.13.28-.19.48-.19h7.01c.21,0,.38.06.49.19.12.12.17.29.17.48v.99c0,.19-.06.35-.17.48-.12.12-.28.19-.49.19h-7.01ZM108.74,108.72c-.43,0-.64-.21-.64-.64v-10.34c0-1.14.13-2.03.41-2.67.27-.64.6-.96.99-.96h2.87c-.48,0-.87.37-1.17,1.1-.3.73-.45,1.64-.45,2.72v10.14c0,.19-.07.35-.2.46-.14.12-.3.17-.49.17h-1.3Z"/>
        <path class="cls-1" d="M63.9,136.77c-.19,0-.35-.06-.48-.19-.13-.12-.19-.28-.19-.48v-8.49c0-.19.06-.35.19-.48.13-.13.28-.19.48-.19h1.39c.19,0,.35.06.46.19.12.12.17.29.17.48v8.49c0,.19-.06.35-.17.48-.12.13-.27.19-.46.19h-1.39Z"/>
        <path class="cls-1" d="M79.57,143.49c-.19,0-.35-.06-.48-.19-.13-.12-.19-.28-.19-.48v-8.66c0-1.54-.39-2.75-1.16-3.61-.77-.86-2.02-1.29-3.74-1.29h-3.8c-.19,0-.35-.06-.48-.19-.13-.13-.19-.29-.19-.48v-.99c0-.19.06-.35.19-.48.13-.13.28-.19.48-.19h3.94c1.66,0,3.04.26,4.13.78,1.09.52,1.91,1.31,2.45,2.36.54,1.05.81,2.36.81,3.93v8.81c0,.19-.06.35-.19.48-.13.13-.29.19-.48.19h-1.3Z"/>
        <path class="cls-1" d="M92.06,143.75c-.17.06-.33.03-.48-.07-.15-.11-.22-.26-.22-.45v-1.33c0-.17.05-.33.16-.46.11-.13.27-.24.48-.32l1.1-.43c.77-.33,1.47-.72,2.1-1.19.63-.46,1.12-1.1,1.48-1.91.36-.81.54-1.87.54-3.19s-.15-2.25-.46-3c-.31-.74-.82-1.27-1.52-1.59-.71-.32-1.66-.48-2.85-.48h-5.88c-.19,0-.35-.06-.48-.19-.13-.13-.19-.29-.19-.48v-1.04c0-.19.06-.35.19-.48.13-.13.28-.19.48-.19h6.26c1.78,0,3.18.25,4.22.75,1.03.5,1.78,1.31,2.23,2.42.45,1.11.68,2.56.68,4.36,0,1.35-.18,2.52-.55,3.51-.37.99-.86,1.83-1.49,2.52-.63.7-1.33,1.27-2.12,1.72-.78.45-1.6.83-2.45,1.12l-1.22.41ZM86.5,149.03c-.19,0-.35-.06-.48-.19-.13-.13-.19-.29-.19-.48v-15.21c0-.19.06-.35.19-.48.13-.13.28-.19.48-.19h1.28c.21,0,.38.06.49.19.12.13.17.29.17.48v15.21c0,.19-.06.35-.17.48-.12.13-.28.19-.49.19h-1.28Z"/>
        <path class="cls-1" d="M103.89,143.49c-.17,0-.32-.07-.43-.2-.12-.13-.16-.3-.14-.49l2.46-14.2c.04-.19.13-.34.26-.45.13-.11.3-.14.49-.1l1.16.06c.19.02.35.1.46.25.12.14.15.31.12.51l-2.32,13.94c-.02.19-.1.36-.25.49-.14.14-.31.2-.51.2h-1.3ZM111.22,129.33h-7.04c-.21,0-.38-.06-.49-.19-.12-.13-.17-.29-.17-.48v-1.04c0-.19.06-.35.17-.48.12-.13.28-.19.49-.19h7.36c1.2,0,2.26.28,3.2.84.94.56,1.67,1.37,2.2,2.42.53,1.05.8,2.32.8,3.81v8.81c0,.19-.06.35-.17.48-.12.13-.28.19-.49.19h-7.48c-.19,0-.35-.06-.48-.19-.13-.12-.19-.28-.19-.48v-.99c0-.19.06-.35.19-.48.13-.12.28-.19.48-.19h5.51v-6.98c0-.99-.17-1.84-.51-2.58-.34-.73-.8-1.3-1.39-1.7-.59-.4-1.25-.59-1.98-.59Z"/>
        <path class="cls-1" d="M78.65,178.27c-.19,0-.35-.06-.48-.19-.13-.12-.19-.28-.19-.48v-8.66c0-1.54-.39-2.75-1.16-3.61-.77-.86-2.02-1.29-3.74-1.29h-5.45c-.19,0-.35-.06-.48-.19-.13-.13-.19-.29-.19-.48v-.99c0-.19.06-.35.19-.48.13-.13.28-.19.48-.19h5.59c2.51,0,4.37.61,5.58,1.83,1.21,1.22,1.81,2.98,1.81,5.3v8.75c0,.19-.06.35-.19.48-.13.13-.29.19-.48.19h-1.3ZM67.64,178.27c-.19,0-.35-.06-.48-.19-.13-.12-.19-.28-.19-.48v-9.68c0-.19.06-.35.19-.48.13-.13.28-.19.48-.19h1.33c.19,0,.35.06.46.19.12.13.17.29.17.48v9.68c0,.19-.06.35-.17.48-.12.13-.27.19-.46.19h-1.33Z"/>
        <path class="cls-1" d="M84.96,178.27c-.19,0-.35-.06-.48-.19-.13-.12-.19-.28-.19-.48v-1.01c0-.19.06-.35.19-.48.13-.12.28-.19.48-.19h7.85l-9.07-13.07c-.06-.12-.11-.22-.14-.3-.04-.09-.06-.17-.06-.25,0-.15.06-.29.19-.41.13-.12.27-.17.42-.17h1.39c.21,0,.38.05.49.16s.21.22.29.33l9.45,13.53c.1.13.18.27.25.42.07.14.1.3.1.48v.96c0,.19-.06.35-.19.48-.13.13-.29.19-.48.19h-10.49ZM92.3,171.66l-1.28-1.88c1.02-.37,1.76-.97,2.2-1.81.44-.84.67-1.87.67-3.09v-2.49c0-.19.06-.35.19-.48.13-.13.28-.19.48-.19h1.22c.19,0,.35.06.46.19.12.12.17.29.17.48v2.84c0,1.56-.35,2.9-1.04,4-.7,1.1-1.72,1.91-3.07,2.43Z"/>
        <path class="cls-1" d="M106.58,178.53c-.17.06-.33.03-.48-.07-.14-.11-.22-.26-.22-.45v-1.33c0-.17.05-.33.16-.46.11-.13.27-.24.48-.32l1.1-.43c.77-.33,1.47-.72,2.1-1.19.63-.46,1.12-1.1,1.48-1.91.36-.81.54-1.87.54-3.19s-.15-2.25-.46-3c-.31-.74-.82-1.27-1.52-1.59-.71-.32-1.66-.48-2.85-.48h-5.88c-.19,0-.35-.06-.48-.19-.13-.13-.19-.29-.19-.48v-1.04c0-.19.06-.35.19-.48.13-.13.28-.19.48-.19h6.26c1.78,0,3.18.25,4.22.75,1.03.5,1.78,1.31,2.23,2.42.45,1.11.68,2.56.68,4.36,0,1.35-.18,2.52-.55,3.51-.37.99-.86,1.83-1.49,2.52-.63.7-1.33,1.27-2.12,1.72-.78.45-1.6.83-2.45,1.12l-1.22.41ZM101.02,183.8c-.19,0-.35-.06-.48-.19-.13-.13-.19-.29-.19-.48v-15.21c0-.19.06-.35.19-.48.13-.13.28-.19.48-.19h1.27c.21,0,.38.06.49.19.12.13.17.29.17.48v15.21c0,.19-.06.35-.17.48-.12.13-.28.19-.49.19h-1.27Z"/>
      </g>
    </g>
  </g>
</svg>