<?xml version="1.0" encoding="UTF-8"?>
<svg id="Layer_2" data-name="Layer 2" xmlns="http://www.w3.org/2000/svg" xmlns:xlink="http://www.w3.org/1999/xlink" viewBox="0 0 177.24 276.87">
  <defs>
    <style>
      .cls-1, .cls-2, .cls-3 {
        stroke-width: 0px;
      }

      .cls-1, .cls-4 {
        fill: #00004d;
      }

      .cls-2 {
        fill: #ffe;
      }

      .cls-4 {
        stroke: #00004d;
        stroke-miterlimit: 10;
        stroke-width: 2px;
      }

      .cls-3 {
        fill: url(#radial-gradient);
      }
    </style>
    <radialGradient id="radial-gradient" cx="88.55" cy="169.83" fx="88.55" fy="169.83" r="115.77" gradientUnits="userSpaceOnUse">
      <stop offset="0" stop-color="#fff"/>
      <stop offset=".92" stop-color="#ffffef"/>
      <stop offset="1" stop-color="#ffe"/>
    </radialGradient>
  </defs>
  <g id="Layer_1-2" data-name="Layer 1">
    <g>
      <rect class="cls-3" x=".88" y=".99" width="176.37" height="275.88" rx="12.14" ry="12.14"/>
      <rect class="cls-2" width="176.37" height="275.88" rx="12.14" ry="12.14"/>
      <g>
        <path class="cls-1" d="M26.81,27.83c0,.34-.11.63-.34.86-.22.23-.52.35-.87.35-.25,0-.48-.07-.69-.2-.21-.13-.36-.32-.47-.55l-1.75-4.2h-9.15l-1.75,4.2c-.11.23-.27.42-.47.55-.21.13-.44.2-.69.2-.36,0-.65-.12-.87-.35-.22-.23-.34-.52-.34-.86,0-.14.04-.32.13-.54l6.86-16.21c.14-.32.35-.59.61-.79.26-.21.58-.31.96-.31h.27c.38,0,.7.1.96.31.26.21.46.47.61.79l6.86,16.21c.09.22.13.4.13.54ZM18.11,13.11l-3.63,8.75h7.27l-3.63-8.75Z"/>
        <g>
          <path class="cls-4" d="M10.81,46.96c-.21-1.91,1.1-3.6,2.31-5.2,1.9-2.5,3.81-4.63,5.45-6.33,1.72,1.84,3.6,3.93,5.66,6.33.96,1.12,2.28,2.71,2.34,4.83.02.73-.11,1.23-.21,1.52-.63,1.86-2.43,2.44-2.59,2.49-1.44.44-2.64-.2-3.24-.52-.91-.48-1.51-1.13-1.85-1.56-.34.43-.94,1.08-1.85,1.56-1.39.73-2.67.61-3.23.52-.01,0-.02,0-.03,0-.41-.16-1.6-.69-2.3-2.07-.05-.09-.38-.76-.46-1.56Z"/>
          <line class="cls-4" x1="15.22" y1="54.17" x2="21.97" y2="54.17"/>
        </g>
      </g>
      <g>
        <path class="cls-1" d="M147.71,249.27c0-.34.11-.63.34-.86.22-.23.52-.35.87-.35.25,0,.48.07.69.2.21.13.36.32.47.55l1.75,4.2h9.15l1.75-4.2c.11-.23.27-.42.47-.55.21-.13.44-.2.69-.2.36,0,.65.12.87.35.22.23.34.52.34.86,0,.14-.04.32-.13.54l-6.86,16.21c-.14.32-.35.59-.61.79-.26.21-.58.31-.96.31h-.27c-.38,0-.7-.1-.96-.31-.26-.21-.46-.47-.61-.79l-6.86-16.21c-.09-.22-.13-.4-.13-.54ZM156.41,264l3.63-8.75h-7.27l3.63,8.75Z"/>
        <g>
          <path class="cls-4" d="M164.53,230.12c.19,1.91-1.13,3.59-2.35,5.18-1.91,2.49-3.84,4.61-5.5,6.3-1.71-1.85-3.58-3.95-5.61-6.37-.95-1.13-2.26-2.73-2.31-4.84-.01-.73.12-1.23.22-1.52.65-1.85,2.45-2.42,2.61-2.47,1.44-.43,2.63.22,3.24.54.9.49,1.5,1.14,1.84,1.57.34-.43.95-1.08,1.86-1.55,1.39-.72,2.67-.59,3.23-.5.01,0,.02,0,.03,0,.41.16,1.6.7,2.29,2.09.05.09.37.76.45,1.56Z"/>
          <line class="cls-4" x1="160.17" y1="222.88" x2="153.42" y2="222.83"/>
        </g>
      </g>
      <g>
        <path class="cls-1" d="M68.56,92.51c-.19,0-.35-.06-.48-.19-.13-.13-.19-.29-.19-.48v-8.51c0-.19.06-.35.19-.48.13-.13.29-.19.48-.19h1.39c.19,0,.35.06.46.19.12.13.17.29.17.48v8.51c0,.19-.06.35-.17.48-.12.13-.27.19-.46.19h-1.39Z"/>
        <path class="cls-1" d="M75.56,99.25c-.19,0-.35-.06-.48-.19-.13-.13-.19-.29-.19-.48v-15.25c0-.19.06-.35.19-.48.13-.13.29-.19.48-.19h1.37c.21,0,.38.06.49.19.12.13.17.29.17.48v15.25c0,.19-.06.35-.17.48-.12.13-.28.19-.49.19h-1.37Z"/>
        <path class="cls-1" d="M93.77,99.25c-.19,0-.35-.06-.48-.19-.13-.13-.19-.29-.19-.48v-8.68c0-1.55-.39-2.75-1.16-3.62-.77-.86-2.02-1.29-3.75-1.29h-5.46c-.19,0-.35-.06-.48-.19-.13-.13-.19-.29-.19-.48v-.99c0-.19.06-.35.19-.48.13-.13.29-.19.48-.19h5.61c2.52,0,4.38.61,5.59,1.83,1.21,1.22,1.82,2.99,1.82,5.31v8.77c0,.19-.06.35-.19.48-.13.13-.29.19-.48.19h-1.31ZM82.74,99.25c-.19,0-.35-.06-.48-.19-.13-.13-.19-.29-.19-.48v-9.7c0-.19.06-.35.19-.48.13-.13.29-.19.48-.19h1.34c.19,0,.35.06.46.19.12.13.17.29.17.48v9.7c0,.19-.06.35-.17.48-.12.13-.27.19-.46.19h-1.34Z"/>
        <path class="cls-1" d="M100.51,92.51c-.19,0-.35-.06-.48-.19-.13-.13-.19-.29-.19-.48v-8.51c0-.19.06-.35.19-.48.13-.13.29-.19.48-.19h1.39c.19,0,.35.06.46.19.12.13.17.29.17.48v8.51c0,.19-.06.35-.17.48-.12.13-.27.19-.46.19h-1.39Z"/>
        <path class="cls-1" d="M106.81,84.99c-.19,0-.35-.06-.48-.19-.13-.13-.19-.29-.19-.48v-.99c0-.19.06-.35.19-.48.13-.13.29-.19.48-.19h7.03c.21,0,.38.06.49.19s.17.29.17.48v.99c0,.19-.06.35-.17.48s-.28.19-.49.19h-7.03ZM109.25,99.25c-.43,0-.64-.21-.64-.64v-10.37c0-1.14.14-2.03.41-2.67.27-.64.6-.96.99-.96h2.88c-.48,0-.88.37-1.18,1.1-.3.74-.45,1.65-.45,2.73v10.17c0,.19-.07.35-.2.46-.14.12-.3.17-.49.17h-1.31Z"/>
        <path class="cls-1" d="M46.83,134.1c-.19,0-.35-.06-.48-.19-.13-.13-.19-.29-.19-.48v-15.25c0-.19.06-.35.19-.48.13-.13.29-.19.48-.19h5.55c1.67,0,3.04.27,4.12.8,1.08.53,1.89,1.32,2.43,2.37.53,1.05.8,2.35.8,3.92v8.83c0,.19-.06.35-.17.48s-.28.19-.49.19h-12.23ZM48.66,131.78h8.48v-7.03c0-1.55-.39-2.75-1.16-3.62-.77-.86-2.02-1.29-3.75-1.29h-3.57v11.94Z"/>
        <path class="cls-1" d="M64.51,127.36c-.19,0-.35-.06-.48-.19-.13-.13-.19-.29-.19-.48v-8.51c0-.19.06-.35.19-.48.13-.13.29-.19.48-.19h1.39c.19,0,.35.06.46.19.12.13.17.29.17.48v8.51c0,.19-.06.35-.17.48-.12.13-.27.19-.46.19h-1.39Z"/>
        <path class="cls-1" d="M77.09,134.36c-.17.06-.33.03-.48-.07-.15-.11-.22-.26-.22-.45v-1.34c0-.17.05-.33.16-.46.11-.13.27-.24.48-.32l1.1-.44c.77-.33,1.48-.73,2.11-1.19.63-.46,1.12-1.1,1.48-1.92.36-.81.54-1.88.54-3.19s-.16-2.26-.46-3.01c-.31-.75-.82-1.28-1.52-1.6-.71-.32-1.66-.48-2.86-.48h-5.9c-.19,0-.35-.06-.48-.19-.13-.13-.19-.29-.19-.48v-1.05c0-.19.06-.35.19-.48.13-.13.29-.19.48-.19h6.27c1.78,0,3.19.25,4.23.76,1.04.5,1.78,1.31,2.24,2.42.45,1.11.68,2.57.68,4.37,0,1.36-.18,2.53-.55,3.51-.37.99-.87,1.83-1.5,2.53-.63.7-1.34,1.27-2.12,1.73-.78.46-1.6.83-2.45,1.12l-1.22.41ZM71.51,139.65c-.19,0-.35-.06-.48-.19-.13-.13-.19-.29-.19-.48v-15.25c0-.19.06-.35.19-.48.13-.13.29-.19.48-.19h1.28c.21,0,.38.06.49.19.12.13.17.29.17.48v15.25c0,.19-.06.35-.17.48-.12.13-.28.19-.49.19h-1.28Z"/>
        <path class="cls-1" d="M92.66,119.9l-3.46-.03c-.19,0-.35-.06-.48-.17-.13-.12-.19-.27-.19-.46v-5.08c0-.19.06-.35.19-.48.13-.13.29-.19.48-.19h1.22c.21,0,.38.06.49.19s.17.29.17.48v3.37h1.63l-.06,2.38ZM92.6,134.36c-.17.06-.34.03-.49-.07-.16-.11-.23-.26-.23-.45v-1.34c0-.17.05-.33.16-.46.11-.13.27-.24.48-.32l1.13-.44c.76-.33,1.45-.73,2.08-1.19.63-.46,1.12-1.1,1.48-1.92.36-.81.54-1.88.54-3.19s-.15-2.26-.45-3.01c-.3-.75-.8-1.28-1.51-1.6-.71-.32-1.67-.48-2.89-.48h-.87c-.19,0-.35-.06-.48-.19-.13-.13-.19-.29-.19-.48v-1.05c0-.19.06-.35.19-.48.13-.13.29-.19.48-.19h1.28c1.76,0,3.17.25,4.21.76,1.05.5,1.8,1.31,2.25,2.42.45,1.11.68,2.57.68,4.37,0,1.36-.18,2.53-.55,3.51-.37.99-.87,1.83-1.5,2.53-.63.7-1.34,1.27-2.13,1.73-.79.46-1.62.83-2.47,1.12l-1.19.41Z"/>
        <path class="cls-1" d="M104.91,134.1c-.19,0-.35-.06-.48-.19-.13-.13-.19-.29-.19-.48v-15.25c0-.19.06-.35.19-.48.13-.13.29-.19.48-.19h5.66c1.67,0,3.04.27,4.14.8,1.09.53,1.91,1.33,2.45,2.38.54,1.06.81,2.38.81,3.96v8.77c0,.19-.06.35-.19.48-.13.13-.29.19-.48.19h-1.31c-.21,0-.38-.06-.49-.19s-.17-.29-.17-.48v-8.68c0-1.55-.39-2.75-1.16-3.62-.77-.86-2.02-1.29-3.75-1.29h-3.54v13.59c0,.19-.06.35-.17.48-.12.13-.27.19-.46.19h-1.34Z"/>
        <path class="cls-1" d="M133.98,134.1c-.19,0-.35-.06-.48-.19-.13-.13-.19-.29-.19-.48v-8.68c0-1.55-.39-2.75-1.16-3.62-.77-.86-2.02-1.29-3.75-1.29h-5.46c-.19,0-.35-.06-.48-.19-.13-.13-.19-.29-.19-.48v-.99c0-.19.06-.35.19-.48.13-.13.29-.19.48-.19h5.61c2.52,0,4.38.61,5.59,1.83,1.21,1.22,1.82,2.99,1.82,5.31v8.77c0,.19-.06.35-.19.48-.13.13-.29.19-.48.19h-1.31ZM122.95,134.1c-.19,0-.35-.06-.48-.19-.13-.13-.19-.29-.19-.48v-9.7c0-.19.06-.35.19-.48.13-.13.29-.19.48-.19h1.34c.19,0,.35.06.46.19.12.13.17.29.17.48v9.7c0,.19-.06.35-.17.48-.12.13-.27.19-.46.19h-1.34Z"/>
        <path class="cls-1" d="M38.65,168.95c-.19,0-.35-.06-.48-.19-.13-.13-.19-.29-.19-.48v-15.25c0-.19.06-.35.19-.48.13-.13.29-.19.48-.19h5.55c1.67,0,3.04.27,4.12.8,1.08.53,1.89,1.32,2.43,2.37.53,1.05.8,2.35.8,3.92v8.83c0,.19-.06.35-.17.48s-.28.19-.49.19h-12.23ZM40.48,166.63h8.48v-7.03c0-1.55-.39-2.75-1.16-3.62-.77-.86-2.02-1.29-3.75-1.29h-3.57v11.94Z"/>
        <path class="cls-1" d="M56.34,162.21c-.19,0-.35-.06-.48-.19-.13-.13-.19-.29-.19-.48v-8.51c0-.19.06-.35.19-.48.13-.13.29-.19.48-.19h1.39c.19,0,.35.06.46.19.12.13.17.29.17.48v8.51c0,.19-.06.35-.17.48-.12.13-.27.19-.46.19h-1.39Z"/>
        <path class="cls-1" d="M63.13,162.21c-.19,0-.35-.06-.48-.19-.13-.13-.19-.29-.19-.48v-8.51c0-.19.06-.35.19-.48.13-.13.29-.19.48-.19h1.39c.19,0,.35.06.46.19.12.13.17.29.17.48v8.51c0,.19-.06.35-.17.48-.12.13-.27.19-.46.19h-1.39Z"/>
        <path class="cls-1" d="M69.44,154.69c-.19,0-.35-.06-.48-.19-.13-.13-.19-.29-.19-.48v-.99c0-.19.06-.35.19-.48.13-.13.29-.19.48-.19h7.03c.21,0,.38.06.49.19s.17.29.17.48v.99c0,.19-.06.35-.17.48s-.28.19-.49.19h-7.03ZM71.88,168.95c-.43,0-.64-.21-.64-.64v-10.37c0-1.14.14-2.03.41-2.67.27-.64.6-.96.99-.96h2.88c-.48,0-.88.37-1.18,1.1-.3.74-.45,1.65-.45,2.73v10.17c0,.19-.07.35-.2.46-.14.12-.3.17-.49.17h-1.31Z"/>
        <path class="cls-1" d="M81.6,168.95c-.19,0-.35-.06-.48-.19-.13-.13-.19-.29-.19-.48v-1.05c0-.19.06-.35.19-.48.13-.13.29-.19.48-.19h4.15c1.72,0,2.96-.43,3.72-1.29s1.17-2.07,1.25-3.62c.02-.43.03-.76.03-1.02s-.01-.58-.03-.99c-.06-1.55-.47-2.75-1.23-3.62-.77-.86-2.01-1.29-3.73-1.29h-4.15c-.19,0-.35-.06-.48-.19-.13-.13-.19-.29-.19-.48v-1.05c0-.19.06-.35.19-.48.13-.13.29-.19.48-.19h4.3c1.7,0,3.09.29,4.15.86,1.06.57,1.86,1.39,2.4,2.47.53,1.07.82,2.37.86,3.88.02.39.03.75.03,1.07s-.01.7-.03,1.1c-.04,1.49-.32,2.78-.86,3.86-.53,1.08-1.33,1.91-2.4,2.48-1.07.57-2.45.86-4.15.86h-4.3Z"/>
        <path class="cls-1" d="M106.09,168.95c-.19,0-.35-.06-.48-.19-.13-.13-.19-.29-.19-.48v-8.68c0-1.55-.39-2.75-1.16-3.62-.77-.86-2.02-1.29-3.75-1.29h-3.8c-.19,0-.35-.06-.48-.19-.13-.13-.19-.29-.19-.48v-.99c0-.19.06-.35.19-.48.13-.13.29-.19.48-.19h3.95c1.67,0,3.04.26,4.14.78,1.09.52,1.91,1.31,2.45,2.37.54,1.06.81,2.37.81,3.94v8.83c0,.19-.06.35-.19.48-.13.13-.29.19-.48.19h-1.31Z"/>
        <path class="cls-1" d="M112.27,168.95c-.17,0-.32-.07-.44-.2-.12-.14-.16-.3-.15-.49l2.47-14.23c.04-.19.13-.34.26-.45.14-.11.3-.14.49-.1l1.16.06c.19.02.35.1.46.25.12.14.15.31.12.51l-2.32,13.97c-.02.19-.1.36-.25.49-.15.14-.31.2-.51.2h-1.31ZM119.62,154.75h-7.06c-.21,0-.38-.06-.49-.19-.12-.13-.17-.29-.17-.48v-1.05c0-.19.06-.35.17-.48.12-.13.28-.19.49-.19h7.38c1.2,0,2.27.28,3.21.84.94.56,1.67,1.37,2.21,2.42.53,1.06.8,2.33.8,3.82v8.83c0,.19-.06.35-.17.48-.12.13-.28.19-.49.19h-7.49c-.19,0-.35-.06-.48-.19-.13-.13-.19-.29-.19-.48v-.99c0-.19.06-.35.19-.48.13-.13.29-.19.48-.19h5.52v-7c0-.99-.17-1.85-.51-2.58-.34-.74-.8-1.3-1.39-1.7-.59-.4-1.25-.6-1.99-.6Z"/>
        <path class="cls-1" d="M142.16,168.95c-.19,0-.35-.06-.48-.19-.13-.13-.19-.29-.19-.48v-8.68c0-1.55-.39-2.75-1.16-3.62-.77-.86-2.02-1.29-3.75-1.29h-5.46c-.19,0-.35-.06-.48-.19-.13-.13-.19-.29-.19-.48v-.99c0-.19.06-.35.19-.48.13-.13.29-.19.48-.19h5.61c2.52,0,4.38.61,5.59,1.83,1.21,1.22,1.82,2.99,1.82,5.31v8.77c0,.19-.06.35-.19.48-.13.13-.29.19-.48.19h-1.31ZM131.12,168.95c-.19,0-.35-.06-.48-.19-.13-.13-.19-.29-.19-.48v-9.7c0-.19.06-.35.19-.48.13-.13.29-.19.48-.19h1.34c.19,0,.35.06.46.19.12.13.17.29.17.48v9.7c0,.19-.06.35-.17.48-.12.13-.27.19-.46.19h-1.34Z"/>
        <path class="cls-1" d="M68.3,203.8c-.19,0-.35-.06-.48-.19-.13-.13-.19-.29-.19-.48v-8.68c0-1.55-.39-2.75-1.16-3.62-.77-.86-2.02-1.29-3.75-1.29h-5.46c-.19,0-.35-.06-.48-.19-.13-.13-.19-.29-.19-.48v-.99c0-.19.06-.35.19-.48.13-.13.29-.19.48-.19h5.61c2.52,0,4.38.61,5.59,1.83,1.21,1.22,1.82,2.99,1.82,5.31v8.77c0,.19-.06.35-.19.48-.13.13-.29.19-.48.19h-1.31ZM57.27,203.8c-.19,0-.35-.06-.48-.19-.13-.13-.19-.29-.19-.48v-9.7c0-.19.06-.35.19-.48.13-.13.29-.19.48-.19h1.34c.19,0,.35.06.46.19.12.13.17.29.17.48v9.7c0,.19-.06.35-.17.48-.12.13-.27.19-.46.19h-1.34Z"/>
        <path class="cls-1" d="M75.04,197.07c-.19,0-.35-.06-.48-.19-.13-.13-.19-.29-.19-.48v-8.51c0-.19.06-.35.19-.48.13-.13.29-.19.48-.19h1.39c.19,0,.35.06.46.19.12.13.17.29.17.48v8.51c0,.19-.06.35-.17.48-.12.13-.27.19-.46.19h-1.39Z"/>
        <path class="cls-1" d="M81.23,205.4c-.19.08-.38.06-.55-.04-.17-.11-.26-.26-.26-.45v-.99c0-.17.04-.34.12-.49.08-.15.2-.26.38-.32l6.13-2c1.1-.37,1.96-.84,2.56-1.42.6-.58,1.02-1.26,1.26-2.03.24-.77.36-1.62.36-2.53v-7.23c0-.19.06-.35.19-.48.13-.13.29-.19.48-.19h1.31c.21,0,.38.06.49.19s.17.29.17.48v8.04c0,1.12-.25,2.18-.76,3.18-.5,1-1.22,1.87-2.16,2.61-.94.75-2.05,1.31-3.33,1.7l-6.39,1.98ZM85.03,203.11l-4.1-14.72c-.04-.16-.07-.27-.1-.35-.03-.08-.04-.15-.04-.23,0-.15.06-.29.17-.41s.25-.17.41-.17h1.42c.37,0,.59.15.67.44l4.04,14.78-2.47.67Z"/>
        <path class="cls-1" d="M98.13,203.8c-.19,0-.35-.06-.48-.19-.13-.13-.19-.29-.19-.48v-.99c0-.19.06-.35.19-.48.13-.13.29-.19.48-.19h8.34v-7.03c0-1.55-.39-2.75-1.16-3.62-.77-.86-2.02-1.29-3.75-1.29h-3.14c-.19,0-.35-.06-.48-.19-.13-.13-.19-.29-.19-.48v-.99c0-.19.06-.35.19-.48.13-.13.29-.19.48-.19h3.28c1.66,0,3.05.27,4.15.81s1.93,1.34,2.48,2.4c.55,1.05.83,2.37.83,3.93v7.12h1.07c.19,0,.35.06.48.19.13.13.19.29.19.48v.99c0,.19-.06.35-.19.48-.13.13-.29.19-.48.19h-12.11Z"/>
        <path class="cls-1" d="M113.96,203.8c-.19,0-.35-.06-.48-.19-.13-.13-.19-.29-.19-.48v-.99c0-.19.06-.35.19-.48.13-.13.29-.19.48-.19h8.34v-7.03c0-1.55-.39-2.75-1.16-3.62-.77-.86-2.02-1.29-3.75-1.29h-3.14c-.19,0-.35-.06-.48-.19-.13-.13-.19-.29-.19-.48v-.99c0-.19.06-.35.19-.48.13-.13.29-.19.48-.19h3.28c1.66,0,3.05.27,4.15.81s1.93,1.34,2.48,2.4c.55,1.05.83,2.37.83,3.93v7.12h1.07c.19,0,.35.06.48.19.13.13.19.29.19.48v.99c0,.19-.06.35-.19.48-.13.13-.29.19-.48.19h-12.11Z"/>
      </g>
    </g>
  </g>
</svg>