<?xml version="1.0" encoding="UTF-8"?>
<svg id="Layer_2" data-name="Layer 2" xmlns="http://www.w3.org/2000/svg" viewBox="0 0 3841.82 60.95">
  <defs>
    <style>
      .cls-1 {
        fill: #00004d;
        stroke-width: 0px;
      }

      .cls-2 {
        stroke: #a01f24;
      }

      .cls-2, .cls-3 {
        fill: none;
        stroke-linecap: square;
        stroke-miterlimit: 10;
        stroke-width: 4px;
      }

      .cls-3 {
        stroke: #00004d;
      }
    </style>
  </defs>
  <g id="Layer_1-2" data-name="Layer 1">
    <g>
      <rect class="cls-2" x="2007.12" y="13.27" width="34.41" height="34.41" rx="2.48" ry="2.48" transform="translate(614.46 -1422.48) rotate(45)"/>
      <path class="cls-2" d="M2185.21,19.82c.61,5.59-3.22,10.51-6.77,15.19-4.72,6.23-9.47,11.67-13.75,16.21-1.23,1.3-3.14,1.29-4.36-.03-4.43-4.8-9.22-10.15-14.37-16.18-2.8-3.28-6.67-7.92-6.83-14.11-.06-2.12.33-3.61.61-4.43,1.85-5.43,7.11-7.13,7.58-7.27,4.2-1.28,7.71.58,9.47,1.52,1.35.71,2.47,1.56,3.38,2.38,1.2,1.08,2.87,1.08,4.06,0,.91-.82,2.03-1.67,3.39-2.38,3.84-2.01,7.4-1.82,9.15-1.57.24.03.47.1.7.2,1.43.6,4.52,2.21,6.39,5.93.14.27,1.1,2.21,1.35,4.56Z"/>
      <g>
        <g>
          <circle class="cls-3" cx="2079.59" cy="35.41" r="12.15"/>
          <circle class="cls-3" cx="2106.93" cy="35.41" r="12.15"/>
          <circle class="cls-3" cx="2093.26" cy="14.15" r="12.15"/>
          <path class="cls-1" d="M2092.71,34.65c3.14,0,6.15-2.76,6-6s-2.64-6-6-6c-3.14,0-6.15,2.76-6,6s2.64,6,6,6h0Z"/>
        </g>
        <line class="cls-3" x1="2083.39" y1="58.95" x2="2103.13" y2="58.95"/>
      </g>
      <g>
        <path class="cls-3" d="M1932.37,36.56c-.61-5.59,3.22-10.51,6.77-15.19,4.72-6.23,9.47-11.67,13.75-16.21,1.23-1.3,3.14-1.29,4.36.03,4.43,4.8,9.22,10.15,14.37,16.18,2.8,3.28,6.67,7.92,6.83,14.11.06,2.12-.33,3.61-.61,4.43-1.85,5.43-7.11,7.13-7.58,7.27-4.2,1.28-7.71-.58-9.47-1.52-1.35-.71-2.47-1.56-3.38-2.38-1.2-1.08-2.87-1.08-4.06,0-.91.82-2.03,1.67-3.39,2.38-3.84,2.01-7.4,1.82-9.15,1.57-.24-.03-.47-.1-.7-.2-1.43-.6-4.52-2.21-6.39-5.93-.14-.27-1.1-2.21-1.35-4.56Z"/>
        <line class="cls-3" x1="1945.16" y1="56.76" x2="1964.9" y2="56.76"/>
      </g>
      <rect class="cls-2" x="2282.87" y="13.27" width="34.41" height="34.41" rx="2.48" ry="2.48" transform="translate(695.23 -1617.47) rotate(45)"/>
      <path class="cls-2" d="M2460.97,19.82c.61,5.59-3.22,10.51-6.77,15.19-4.72,6.23-9.47,11.67-13.75,16.21-1.23,1.3-3.14,1.29-4.36-.03-4.43-4.8-9.22-10.15-14.37-16.18-2.8-3.28-6.67-7.92-6.83-14.11-.06-2.12.33-3.61.61-4.43,1.85-5.43,7.11-7.13,7.58-7.27,4.2-1.28,7.71.58,9.47,1.52,1.35.71,2.47,1.56,3.38,2.38,1.2,1.08,2.87,1.08,4.06,0,.91-.82,2.03-1.67,3.39-2.38,3.84-2.01,7.4-1.82,9.15-1.57.24.03.47.1.7.2,1.43.6,4.52,2.21,6.39,5.93.14.27,1.1,2.21,1.35,4.56Z"/>
      <g>
        <g>
          <circle class="cls-3" cx="2355.35" cy="35.41" r="12.15"/>
          <circle class="cls-3" cx="2382.68" cy="35.41" r="12.15"/>
          <circle class="cls-3" cx="2369.02" cy="14.15" r="12.15"/>
          <path class="cls-1" d="M2368.47,34.65c3.14,0,6.15-2.76,6-6s-2.64-6-6-6c-3.14,0-6.15,2.76-6,6s2.64,6,6,6h0Z"/>
        </g>
        <line class="cls-3" x1="2359.15" y1="58.95" x2="2378.89" y2="58.95"/>
      </g>
      <g>
        <path class="cls-3" d="M2208.13,36.56c-.61-5.59,3.22-10.51,6.77-15.19,4.72-6.23,9.47-11.67,13.75-16.21,1.23-1.3,3.14-1.29,4.36.03,4.43,4.8,9.22,10.15,14.37,16.18,2.8,3.28,6.67,7.92,6.83,14.11.06,2.12-.33,3.61-.61,4.43-1.85,5.43-7.11,7.13-7.58,7.27-4.2,1.28-7.71-.58-9.47-1.52-1.35-.71-2.47-1.56-3.38-2.38-1.2-1.08-2.87-1.08-4.06,0-.91.82-2.03,1.67-3.39,2.38-3.84,2.01-7.4,1.82-9.15,1.57-.24-.03-.47-.1-.7-.2-1.43-.6-4.52-2.21-6.39-5.93-.14-.27-1.1-2.21-1.35-4.56Z"/>
        <line class="cls-3" x1="2220.91" y1="56.76" x2="2240.66" y2="56.76"/>
      </g>
      <rect class="cls-2" x="2558.63" y="13.27" width="34.41" height="34.41" rx="2.48" ry="2.48" transform="translate(775.99 -1812.46) rotate(45)"/>
      <path class="cls-2" d="M2736.72,19.82c.61,5.59-3.22,10.51-6.77,15.19-4.72,6.23-9.47,11.67-13.75,16.21-1.23,1.3-3.14,1.29-4.36-.03-4.43-4.8-9.22-10.15-14.37-16.18-2.8-3.28-6.67-7.92-6.83-14.11-.06-2.12.33-3.61.61-4.43,1.85-5.43,7.11-7.13,7.58-7.27,4.2-1.28,7.71.58,9.47,1.52,1.35.71,2.47,1.56,3.38,2.38,1.2,1.08,2.87,1.08,4.06,0,.91-.82,2.03-1.67,3.39-2.38,3.84-2.01,7.4-1.82,9.15-1.57.24.03.47.1.7.2,1.43.6,4.52,2.21,6.39,5.93.14.27,1.1,2.21,1.35,4.56Z"/>
      <g>
        <g>
          <circle class="cls-3" cx="2631.11" cy="35.41" r="12.15"/>
          <circle class="cls-3" cx="2658.44" cy="35.41" r="12.15"/>
          <circle class="cls-3" cx="2644.77" cy="14.15" r="12.15"/>
          <path class="cls-1" d="M2644.23,34.65c3.14,0,6.15-2.76,6-6s-2.64-6-6-6c-3.14,0-6.15,2.76-6,6s2.64,6,6,6h0Z"/>
        </g>
        <line class="cls-3" x1="2634.9" y1="58.95" x2="2654.65" y2="58.95"/>
      </g>
      <g>
        <path class="cls-3" d="M2483.88,36.56c-.61-5.59,3.22-10.51,6.77-15.19,4.72-6.23,9.47-11.67,13.75-16.21,1.23-1.3,3.14-1.29,4.36.03,4.43,4.8,9.22,10.15,14.37,16.18,2.8,3.28,6.67,7.92,6.83,14.11.06,2.12-.33,3.61-.61,4.43-1.85,5.43-7.11,7.13-7.58,7.27-4.2,1.28-7.71-.58-9.47-1.52-1.35-.71-2.47-1.56-3.38-2.38-1.2-1.08-2.87-1.08-4.06,0-.91.82-2.03,1.67-3.39,2.38-3.84,2.01-7.4,1.82-9.15,1.57-.24-.03-.47-.1-.7-.2-1.43-.6-4.52-2.21-6.39-5.93-.14-.27-1.1-2.21-1.35-4.56Z"/>
        <line class="cls-3" x1="2496.67" y1="56.76" x2="2516.41" y2="56.76"/>
      </g>
      <rect class="cls-2" x="2834.39" y="13.27" width="34.41" height="34.41" rx="2.48" ry="2.48" transform="translate(856.76 -2007.46) rotate(45)"/>
      <path class="cls-2" d="M3012.48,19.82c.61,5.59-3.22,10.51-6.77,15.19-4.72,6.23-9.47,11.67-13.75,16.21-1.23,1.3-3.14,1.29-4.36-.03-4.43-4.8-9.22-10.15-14.37-16.18-2.8-3.28-6.67-7.92-6.83-14.11-.06-2.12.33-3.61.61-4.43,1.85-5.43,7.11-7.13,7.58-7.27,4.2-1.28,7.71.58,9.47,1.52,1.35.71,2.47,1.56,3.38,2.38,1.2,1.08,2.87,1.08,4.06,0,.91-.82,2.03-1.67,3.39-2.38,3.84-2.01,7.4-1.82,9.15-1.57.24.03.47.1.7.2,1.43.6,4.52,2.21,6.39,5.93.14.27,1.1,2.21,1.35,4.56Z"/>
      <g>
        <g>
          <circle class="cls-3" cx="2906.86" cy="35.41" r="12.15"/>
          <circle class="cls-3" cx="2934.2" cy="35.41" r="12.15"/>
          <circle class="cls-3" cx="2920.53" cy="14.15" r="12.15"/>
          <path class="cls-1" d="M2919.99,34.65c3.14,0,6.15-2.76,6-6s-2.64-6-6-6c-3.14,0-6.15,2.76-6,6s2.64,6,6,6h0Z"/>
        </g>
        <line class="cls-3" x1="2910.66" y1="58.95" x2="2930.4" y2="58.95"/>
      </g>
      <g>
        <path class="cls-3" d="M2759.64,36.56c-.61-5.59,3.22-10.51,6.77-15.19,4.72-6.23,9.47-11.67,13.75-16.21,1.23-1.3,3.14-1.29,4.36.03,4.43,4.8,9.22,10.15,14.37,16.18,2.8,3.28,6.67,7.92,6.83,14.11.06,2.12-.33,3.61-.61,4.43-1.85,5.43-7.11,7.13-7.58,7.27-4.2,1.28-7.71-.58-9.47-1.52-1.35-.71-2.47-1.56-3.38-2.38-1.2-1.08-2.87-1.08-4.06,0-.91.82-2.03,1.67-3.39,2.38-3.84,2.01-7.4,1.82-9.15,1.57-.24-.03-.47-.1-.7-.2-1.43-.6-4.52-2.21-6.39-5.93-.14-.27-1.1-2.21-1.35-4.56Z"/>
        <line class="cls-3" x1="2772.43" y1="56.76" x2="2792.17" y2="56.76"/>
      </g>
      <rect class="cls-2" x="3110.15" y="13.27" width="34.41" height="34.41" rx="2.48" ry="2.48" transform="translate(937.53 -2202.45) rotate(45)"/>
      <path class="cls-2" d="M3288.24,19.82c.61,5.59-3.22,10.51-6.77,15.19-4.72,6.23-9.47,11.67-13.75,16.21-1.23,1.3-3.14,1.29-4.36-.03-4.43-4.8-9.22-10.15-14.37-16.18-2.8-3.28-6.67-7.92-6.83-14.11-.06-2.12.33-3.61.61-4.43,1.85-5.43,7.11-7.13,7.58-7.27,4.2-1.28,7.71.58,9.47,1.52,1.35.71,2.47,1.56,3.38,2.38,1.2,1.08,2.87,1.08,4.06,0,.91-.82,2.03-1.67,3.39-2.38,3.84-2.01,7.4-1.82,9.15-1.57.24.03.47.1.7.2,1.43.6,4.52,2.21,6.39,5.93.14.27,1.1,2.21,1.35,4.56Z"/>
      <g>
        <g>
          <circle class="cls-3" cx="3182.62" cy="35.41" r="12.15"/>
          <circle class="cls-3" cx="3209.96" cy="35.41" r="12.15"/>
          <circle class="cls-3" cx="3196.29" cy="14.15" r="12.15"/>
          <path class="cls-1" d="M3195.74,34.65c3.14,0,6.15-2.76,6-6s-2.64-6-6-6c-3.14,0-6.15,2.76-6,6s2.64,6,6,6h0Z"/>
        </g>
        <line class="cls-3" x1="3186.42" y1="58.95" x2="3206.16" y2="58.95"/>
      </g>
      <g>
        <path class="cls-3" d="M3035.4,36.56c-.61-5.59,3.22-10.51,6.77-15.19,4.72-6.23,9.47-11.67,13.75-16.21,1.23-1.3,3.14-1.29,4.36.03,4.43,4.8,9.22,10.15,14.37,16.18,2.8,3.28,6.67,7.92,6.83,14.11.06,2.12-.33,3.61-.61,4.43-1.85,5.43-7.11,7.13-7.58,7.27-4.2,1.28-7.71-.58-9.47-1.52-1.35-.71-2.47-1.56-3.38-2.38-1.2-1.08-2.87-1.08-4.06,0-.91.82-2.03,1.67-3.39,2.38-3.84,2.01-7.4,1.82-9.15,1.57-.24-.03-.47-.1-.7-.2-1.43-.6-4.52-2.21-6.39-5.93-.14-.27-1.1-2.21-1.35-4.56Z"/>
        <line class="cls-3" x1="3048.19" y1="56.76" x2="3067.93" y2="56.76"/>
      </g>
      <rect class="cls-2" x="3385.91" y="13.27" width="34.41" height="34.41" rx="2.48" ry="2.48" transform="translate(1018.3 -2397.44) rotate(45)"/>
      <path class="cls-2" d="M3564,19.82c.61,5.59-3.22,10.51-6.77,15.19-4.72,6.23-9.47,11.67-13.75,16.21-1.23,1.3-3.14,1.29-4.36-.03-4.43-4.8-9.22-10.15-14.37-16.18-2.8-3.28-6.67-7.92-6.83-14.11-.06-2.12.33-3.61.61-4.43,1.85-5.43,7.11-7.13,7.58-7.27,4.2-1.28,7.71.58,9.47,1.52,1.35.71,2.47,1.56,3.38,2.38,1.2,1.08,2.87,1.08,4.06,0,.91-.82,2.03-1.67,3.39-2.38,3.84-2.01,7.4-1.82,9.15-1.57.24.03.47.1.7.2,1.43.6,4.52,2.21,6.39,5.93.14.27,1.1,2.21,1.35,4.56Z"/>
      <g>
        <g>
          <circle class="cls-3" cx="3458.38" cy="35.41" r="12.15"/>
          <circle class="cls-3" cx="3485.72" cy="35.41" r="12.15"/>
          <circle class="cls-3" cx="3472.05" cy="14.15" r="12.15"/>
          <path class="cls-1" d="M3471.5,34.65c3.14,0,6.15-2.76,6-6s-2.64-6-6-6c-3.14,0-6.15,2.76-6,6s2.64,6,6,6h0Z"/>
        </g>
        <line class="cls-3" x1="3462.18" y1="58.95" x2="3481.92" y2="58.95"/>
      </g>
      <g>
        <path class="cls-3" d="M3311.16,36.56c-.61-5.59,3.22-10.51,6.77-15.19,4.72-6.23,9.47-11.67,13.75-16.21,1.23-1.3,3.14-1.29,4.36.03,4.43,4.8,9.22,10.15,14.37,16.18,2.8,3.28,6.67,7.92,6.83,14.11.06,2.12-.33,3.61-.61,4.43-1.85,5.43-7.11,7.13-7.58,7.27-4.2,1.28-7.71-.58-9.47-1.52-1.35-.71-2.47-1.56-3.38-2.38-1.2-1.08-2.87-1.08-4.06,0-.91.82-2.03,1.67-3.39,2.38-3.84,2.01-7.4,1.82-9.15,1.57-.24-.03-.47-.1-.7-.2-1.43-.6-4.52-2.21-6.39-5.93-.14-.27-1.1-2.21-1.35-4.56Z"/>
        <line class="cls-3" x1="3323.95" y1="56.76" x2="3343.69" y2="56.76"/>
      </g>
      <rect class="cls-2" x="3661.66" y="13.27" width="34.41" height="34.41" rx="2.48" ry="2.48" transform="translate(1099.06 -2592.43) rotate(45)"/>
      <path class="cls-2" d="M3839.76,19.82c.61,5.59-3.22,10.51-6.77,15.19-4.72,6.23-9.47,11.67-13.75,16.21-1.23,1.3-3.14,1.29-4.36-.03-4.43-4.8-9.22-10.15-14.37-16.18-2.8-3.28-6.67-7.92-6.83-14.11-.06-2.12.33-3.61.61-4.43,1.85-5.43,7.11-7.13,7.58-7.27,4.2-1.28,7.71.58,9.47,1.52,1.35.71,2.47,1.56,3.38,2.38,1.2,1.08,2.87,1.08,4.06,0,.91-.82,2.03-1.67,3.39-2.38,3.84-2.01,7.4-1.82,9.15-1.57.24.03.47.1.7.2,1.43.6,4.52,2.21,6.39,5.93.14.27,1.1,2.21,1.35,4.56Z"/>
      <g>
        <g>
          <circle class="cls-3" cx="3734.14" cy="35.41" r="12.15"/>
          <circle class="cls-3" cx="3761.47" cy="35.41" r="12.15"/>
          <circle class="cls-3" cx="3747.81" cy="14.15" r="12.15"/>
          <path class="cls-1" d="M3747.26,34.65c3.14,0,6.15-2.76,6-6s-2.64-6-6-6c-3.14,0-6.15,2.76-6,6s2.64,6,6,6h0Z"/>
        </g>
        <line class="cls-3" x1="3737.94" y1="58.95" x2="3757.68" y2="58.95"/>
      </g>
      <g>
        <path class="cls-3" d="M3586.92,36.56c-.61-5.59,3.22-10.51,6.77-15.19,4.72-6.23,9.47-11.67,13.75-16.21,1.23-1.3,3.14-1.29,4.36.03,4.43,4.8,9.22,10.15,14.37,16.18,2.8,3.28,6.67,7.92,6.83,14.11.06,2.12-.33,3.61-.61,4.43-1.85,5.43-7.11,7.13-7.58,7.27-4.2,1.28-7.71-.58-9.47-1.52-1.35-.71-2.47-1.56-3.38-2.38-1.2-1.08-2.87-1.08-4.06,0-.91.82-2.03,1.67-3.39,2.38-3.84,2.01-7.4,1.82-9.15,1.57-.24-.03-.47-.1-.7-.2-1.43-.6-4.52-2.21-6.39-5.93-.14-.27-1.1-2.21-1.35-4.56Z"/>
        <line class="cls-3" x1="3599.7" y1="56.76" x2="3619.45" y2="56.76"/>
      </g>
      <rect class="cls-2" x="76.81" y="13.27" width="34.41" height="34.41" rx="2.48" ry="2.48" transform="translate(49.08 -57.55) rotate(45)"/>
      <path class="cls-2" d="M254.9,19.82c.61,5.59-3.22,10.51-6.77,15.19-4.72,6.23-9.47,11.67-13.75,16.21-1.23,1.3-3.14,1.29-4.36-.03-4.43-4.8-9.22-10.15-14.37-16.18-2.8-3.28-6.67-7.92-6.83-14.11-.06-2.12.33-3.61.61-4.43,1.85-5.43,7.11-7.13,7.58-7.27,4.2-1.28,7.71.58,9.47,1.52,1.35.71,2.47,1.56,3.38,2.38,1.2,1.08,2.87,1.08,4.06,0,.91-.82,2.03-1.67,3.39-2.38,3.84-2.01,7.4-1.82,9.15-1.57.24.03.47.1.7.2,1.43.6,4.52,2.21,6.39,5.93.14.27,1.1,2.21,1.35,4.56Z"/>
      <g>
        <g>
          <circle class="cls-3" cx="149.29" cy="35.41" r="12.15"/>
          <circle class="cls-3" cx="176.62" cy="35.41" r="12.15"/>
          <circle class="cls-3" cx="162.95" cy="14.15" r="12.15"/>
          <path class="cls-1" d="M162.41,34.65c3.14,0,6.15-2.76,6-6s-2.64-6-6-6c-3.14,0-6.15,2.76-6,6s2.64,6,6,6h0Z"/>
        </g>
        <line class="cls-3" x1="153.08" y1="58.95" x2="172.82" y2="58.95"/>
      </g>
      <g>
        <path class="cls-3" d="M2.06,36.56c-.61-5.59,3.22-10.51,6.77-15.19,4.72-6.23,9.47-11.67,13.75-16.21,1.23-1.3,3.14-1.29,4.36.03,4.43,4.8,9.22,10.15,14.37,16.18,2.8,3.28,6.67,7.92,6.83,14.11.06,2.12-.33,3.61-.61,4.43-1.85,5.43-7.11,7.13-7.58,7.27-4.2,1.28-7.71-.58-9.47-1.52-1.35-.71-2.47-1.56-3.38-2.38-1.2-1.08-2.87-1.08-4.06,0-.91.82-2.03,1.67-3.39,2.38-3.84,2.01-7.4,1.82-9.15,1.57-.24-.03-.47-.1-.7-.2-1.43-.6-4.52-2.21-6.39-5.93-.14-.27-1.1-2.21-1.35-4.56Z"/>
        <line class="cls-3" x1="14.85" y1="56.76" x2="34.59" y2="56.76"/>
      </g>
      <rect class="cls-2" x="352.57" y="13.27" width="34.41" height="34.41" rx="2.48" ry="2.48" transform="translate(129.85 -252.54) rotate(45)"/>
      <path class="cls-2" d="M530.66,19.82c.61,5.59-3.22,10.51-6.77,15.19-4.72,6.23-9.47,11.67-13.75,16.21-1.23,1.3-3.14,1.29-4.36-.03-4.43-4.8-9.22-10.15-14.37-16.18-2.8-3.28-6.67-7.92-6.83-14.11-.06-2.12.33-3.61.61-4.43,1.85-5.43,7.11-7.13,7.58-7.27,4.2-1.28,7.71.58,9.47,1.52,1.35.71,2.47,1.56,3.38,2.38,1.2,1.08,2.87,1.08,4.06,0,.91-.82,2.03-1.67,3.39-2.38,3.84-2.01,7.4-1.82,9.15-1.57.24.03.47.1.7.2,1.43.6,4.52,2.21,6.39,5.93.14.27,1.1,2.21,1.35,4.56Z"/>
      <g>
        <g>
          <circle class="cls-3" cx="425.04" cy="35.41" r="12.15"/>
          <circle class="cls-3" cx="452.38" cy="35.41" r="12.15"/>
          <circle class="cls-3" cx="438.71" cy="14.15" r="12.15"/>
          <path class="cls-1" d="M438.16,34.65c3.14,0,6.15-2.76,6-6s-2.64-6-6-6c-3.14,0-6.15,2.76-6,6s2.64,6,6,6h0Z"/>
        </g>
        <line class="cls-3" x1="428.84" y1="58.95" x2="448.58" y2="58.95"/>
      </g>
      <g>
        <path class="cls-3" d="M277.82,36.56c-.61-5.59,3.22-10.51,6.77-15.19,4.72-6.23,9.47-11.67,13.75-16.21,1.23-1.3,3.14-1.29,4.36.03,4.43,4.8,9.22,10.15,14.37,16.18,2.8,3.28,6.67,7.92,6.83,14.11.06,2.12-.33,3.61-.61,4.43-1.85,5.43-7.11,7.13-7.58,7.27-4.2,1.28-7.71-.58-9.47-1.52-1.35-.71-2.47-1.56-3.38-2.38-1.2-1.08-2.87-1.08-4.06,0-.91.82-2.03,1.67-3.39,2.38-3.84,2.01-7.4,1.82-9.15,1.57-.24-.03-.47-.1-.7-.2-1.43-.6-4.52-2.21-6.39-5.93-.14-.27-1.1-2.21-1.35-4.56Z"/>
        <line class="cls-3" x1="290.61" y1="56.76" x2="310.35" y2="56.76"/>
      </g>
      <rect class="cls-2" x="628.33" y="13.27" width="34.41" height="34.41" rx="2.48" ry="2.48" transform="translate(210.62 -447.53) rotate(45)"/>
      <path class="cls-2" d="M806.42,19.82c.61,5.59-3.22,10.51-6.77,15.19-4.72,6.23-9.47,11.67-13.75,16.21-1.23,1.3-3.14,1.29-4.36-.03-4.43-4.8-9.22-10.15-14.37-16.18-2.8-3.28-6.67-7.92-6.83-14.11-.06-2.12.33-3.61.61-4.43,1.85-5.43,7.11-7.13,7.58-7.27,4.2-1.28,7.71.58,9.47,1.52,1.35.71,2.47,1.56,3.38,2.38,1.2,1.08,2.87,1.08,4.06,0,.91-.82,2.03-1.67,3.39-2.38,3.84-2.01,7.4-1.82,9.15-1.57.24.03.47.1.7.2,1.43.6,4.52,2.21,6.39,5.93.14.27,1.1,2.21,1.35,4.56Z"/>
      <g>
        <g>
          <circle class="cls-3" cx="700.8" cy="35.41" r="12.15"/>
          <circle class="cls-3" cx="728.14" cy="35.41" r="12.15"/>
          <circle class="cls-3" cx="714.47" cy="14.15" r="12.15"/>
          <path class="cls-1" d="M713.92,34.65c3.14,0,6.15-2.76,6-6s-2.64-6-6-6c-3.14,0-6.15,2.76-6,6s2.64,6,6,6h0Z"/>
        </g>
        <line class="cls-3" x1="704.6" y1="58.95" x2="724.34" y2="58.95"/>
      </g>
      <g>
        <path class="cls-3" d="M553.58,36.56c-.61-5.59,3.22-10.51,6.77-15.19,4.72-6.23,9.47-11.67,13.75-16.21,1.23-1.3,3.14-1.29,4.36.03,4.43,4.8,9.22,10.15,14.37,16.18,2.8,3.28,6.67,7.92,6.83,14.11.06,2.12-.33,3.61-.61,4.43-1.85,5.43-7.11,7.13-7.58,7.27-4.2,1.28-7.71-.58-9.47-1.52-1.35-.71-2.47-1.56-3.38-2.38-1.2-1.08-2.87-1.08-4.06,0-.91.82-2.03,1.67-3.39,2.38-3.84,2.01-7.4,1.82-9.15,1.57-.24-.03-.47-.1-.7-.2-1.43-.6-4.52-2.21-6.39-5.93-.14-.27-1.1-2.21-1.35-4.56Z"/>
        <line class="cls-3" x1="566.37" y1="56.76" x2="586.11" y2="56.76"/>
      </g>
      <rect class="cls-2" x="904.08" y="13.27" width="34.41" height="34.41" rx="2.48" ry="2.48" transform="translate(291.39 -642.52) rotate(45)"/>
      <path class="cls-2" d="M1082.18,19.82c.61,5.59-3.22,10.51-6.77,15.19-4.72,6.23-9.47,11.67-13.75,16.21-1.23,1.3-3.14,1.29-4.36-.03-4.43-4.8-9.22-10.15-14.37-16.18-2.8-3.28-6.67-7.92-6.83-14.11-.06-2.12.33-3.61.61-4.43,1.85-5.43,7.11-7.13,7.58-7.27,4.2-1.28,7.71.58,9.47,1.52,1.35.71,2.47,1.56,3.38,2.38,1.2,1.08,2.87,1.08,4.06,0,.91-.82,2.03-1.67,3.39-2.38,3.84-2.01,7.4-1.82,9.15-1.57.24.03.47.1.7.2,1.43.6,4.52,2.21,6.39,5.93.14.27,1.1,2.21,1.35,4.56Z"/>
      <g>
        <g>
          <circle class="cls-3" cx="976.56" cy="35.41" r="12.15"/>
          <circle class="cls-3" cx="1003.89" cy="35.41" r="12.15"/>
          <circle class="cls-3" cx="990.23" cy="14.15" r="12.15"/>
          <path class="cls-1" d="M989.68,34.65c3.14,0,6.15-2.76,6-6s-2.64-6-6-6c-3.14,0-6.15,2.76-6,6s2.64,6,6,6h0Z"/>
        </g>
        <line class="cls-3" x1="980.36" y1="58.95" x2="1000.1" y2="58.95"/>
      </g>
      <g>
        <path class="cls-3" d="M829.34,36.56c-.61-5.59,3.22-10.51,6.77-15.19,4.72-6.23,9.47-11.67,13.75-16.21,1.23-1.3,3.14-1.29,4.36.03,4.43,4.8,9.22,10.15,14.37,16.18,2.8,3.28,6.67,7.92,6.83,14.11.06,2.12-.33,3.61-.61,4.43-1.85,5.43-7.11,7.13-7.58,7.27-4.2,1.28-7.71-.58-9.47-1.52-1.35-.71-2.47-1.56-3.38-2.38-1.2-1.08-2.87-1.08-4.06,0-.91.82-2.03,1.67-3.39,2.38-3.84,2.01-7.4,1.82-9.15,1.57-.24-.03-.47-.1-.7-.2-1.43-.6-4.52-2.21-6.39-5.93-.14-.27-1.1-2.21-1.35-4.56Z"/>
        <line class="cls-3" x1="842.12" y1="56.76" x2="861.87" y2="56.76"/>
      </g>
      <rect class="cls-2" x="1179.84" y="13.27" width="34.41" height="34.41" rx="2.48" ry="2.48" transform="translate(372.16 -837.51) rotate(45)"/>
      <path class="cls-2" d="M1357.94,19.82c.61,5.59-3.22,10.51-6.77,15.19-4.72,6.23-9.47,11.67-13.75,16.21-1.23,1.3-3.14,1.29-4.36-.03-4.43-4.8-9.22-10.15-14.37-16.18-2.8-3.28-6.67-7.92-6.83-14.11-.06-2.12.33-3.61.61-4.43,1.85-5.43,7.11-7.13,7.58-7.27,4.2-1.28,7.71.58,9.47,1.52,1.35.71,2.47,1.56,3.38,2.38,1.2,1.08,2.87,1.08,4.06,0,.91-.82,2.03-1.67,3.39-2.38,3.84-2.01,7.4-1.82,9.15-1.57.24.03.47.1.7.2,1.43.6,4.52,2.21,6.39,5.93.14.27,1.1,2.21,1.35,4.56Z"/>
      <g>
        <g>
          <circle class="cls-3" cx="1252.32" cy="35.41" r="12.15"/>
          <circle class="cls-3" cx="1279.65" cy="35.41" r="12.15"/>
          <circle class="cls-3" cx="1265.99" cy="14.15" r="12.15"/>
          <path class="cls-1" d="M1265.44,34.65c3.14,0,6.15-2.76,6-6s-2.64-6-6-6c-3.14,0-6.15,2.76-6,6s2.64,6,6,6h0Z"/>
        </g>
        <line class="cls-3" x1="1256.11" y1="58.95" x2="1275.86" y2="58.95"/>
      </g>
      <g>
        <path class="cls-3" d="M1105.1,36.56c-.61-5.59,3.22-10.51,6.77-15.19,4.72-6.23,9.47-11.67,13.75-16.21,1.23-1.3,3.14-1.29,4.36.03,4.43,4.8,9.22,10.15,14.37,16.18,2.8,3.28,6.67,7.92,6.83,14.11.06,2.12-.33,3.61-.61,4.43-1.85,5.43-7.11,7.13-7.58,7.27-4.2,1.28-7.71-.58-9.47-1.52-1.35-.71-2.47-1.56-3.38-2.38-1.2-1.08-2.87-1.08-4.06,0-.91.82-2.03,1.67-3.39,2.38-3.84,2.01-7.4,1.82-9.15,1.57-.24-.03-.47-.1-.7-.2-1.43-.6-4.52-2.21-6.39-5.93-.14-.27-1.1-2.21-1.35-4.56Z"/>
        <line class="cls-3" x1="1117.88" y1="56.76" x2="1137.62" y2="56.76"/>
      </g>
      <rect class="cls-2" x="1455.6" y="13.27" width="34.41" height="34.41" rx="2.48" ry="2.48" transform="translate(452.92 -1032.5) rotate(45)"/>
      <path class="cls-2" d="M1633.69,19.82c.61,5.59-3.22,10.51-6.77,15.19-4.72,6.23-9.47,11.67-13.75,16.21-1.23,1.3-3.14,1.29-4.36-.03-4.43-4.8-9.22-10.15-14.37-16.18-2.8-3.28-6.67-7.92-6.83-14.11-.06-2.12.33-3.61.61-4.43,1.85-5.43,7.11-7.13,7.58-7.27,4.2-1.28,7.71.58,9.47,1.52,1.35.71,2.47,1.56,3.38,2.38,1.2,1.08,2.87,1.08,4.06,0,.91-.82,2.03-1.67,3.39-2.38,3.84-2.01,7.4-1.82,9.15-1.57.24.03.47.1.7.2,1.43.6,4.52,2.21,6.39,5.93.14.27,1.1,2.21,1.35,4.56Z"/>
      <g>
        <g>
          <circle class="cls-3" cx="1528.08" cy="35.41" r="12.15"/>
          <circle class="cls-3" cx="1555.41" cy="35.41" r="12.15"/>
          <circle class="cls-3" cx="1541.74" cy="14.15" r="12.15"/>
          <path class="cls-1" d="M1541.2,34.65c3.14,0,6.15-2.76,6-6s-2.64-6-6-6c-3.14,0-6.15,2.76-6,6s2.64,6,6,6h0Z"/>
        </g>
        <line class="cls-3" x1="1531.87" y1="58.95" x2="1551.61" y2="58.95"/>
      </g>
      <g>
        <path class="cls-3" d="M1380.85,36.56c-.61-5.59,3.22-10.51,6.77-15.19,4.72-6.23,9.47-11.67,13.75-16.21,1.23-1.3,3.14-1.29,4.36.03,4.43,4.8,9.22,10.15,14.37,16.18,2.8,3.28,6.67,7.92,6.83,14.11.06,2.12-.33,3.61-.61,4.43-1.85,5.43-7.11,7.13-7.58,7.27-4.2,1.28-7.71-.58-9.47-1.52-1.35-.71-2.47-1.56-3.38-2.38-1.2-1.08-2.87-1.08-4.06,0-.91.82-2.03,1.67-3.39,2.38-3.84,2.01-7.4,1.82-9.15,1.57-.24-.03-.47-.1-.7-.2-1.43-.6-4.52-2.21-6.39-5.93-.14-.27-1.1-2.21-1.35-4.56Z"/>
        <line class="cls-3" x1="1393.64" y1="56.76" x2="1413.38" y2="56.76"/>
      </g>
      <rect class="cls-2" x="1731.36" y="13.27" width="34.41" height="34.41" rx="2.48" ry="2.48" transform="translate(533.69 -1227.49) rotate(45)"/>
      <path class="cls-2" d="M1909.45,19.82c.61,5.59-3.22,10.51-6.77,15.19-4.72,6.23-9.47,11.67-13.75,16.21-1.23,1.3-3.14,1.29-4.36-.03-4.43-4.8-9.22-10.15-14.37-16.18-2.8-3.28-6.67-7.92-6.83-14.11-.06-2.12.33-3.61.61-4.43,1.85-5.43,7.11-7.13,7.58-7.27,4.2-1.28,7.71.58,9.47,1.52,1.35.71,2.47,1.56,3.38,2.38,1.2,1.08,2.87,1.08,4.06,0,.91-.82,2.03-1.67,3.39-2.38,3.84-2.01,7.4-1.82,9.15-1.57.24.03.47.1.7.2,1.43.6,4.52,2.21,6.39,5.93.14.27,1.1,2.21,1.35,4.56Z"/>
      <g>
        <g>
          <circle class="cls-3" cx="1803.83" cy="35.41" r="12.15"/>
          <circle class="cls-3" cx="1831.17" cy="35.41" r="12.15"/>
          <circle class="cls-3" cx="1817.5" cy="14.15" r="12.15"/>
          <path class="cls-1" d="M1816.95,34.65c3.14,0,6.15-2.76,6-6s-2.64-6-6-6c-3.14,0-6.15,2.76-6,6s2.64,6,6,6h0Z"/>
        </g>
        <line class="cls-3" x1="1807.63" y1="58.95" x2="1827.37" y2="58.95"/>
      </g>
      <g>
        <path class="cls-3" d="M1656.61,36.56c-.61-5.59,3.22-10.51,6.77-15.19,4.72-6.23,9.47-11.67,13.75-16.21,1.23-1.3,3.14-1.29,4.36.03,4.43,4.8,9.22,10.15,14.37,16.18,2.8,3.28,6.67,7.92,6.83,14.11.06,2.12-.33,3.61-.61,4.43-1.85,5.43-7.11,7.13-7.58,7.27-4.2,1.28-7.71-.58-9.47-1.52-1.35-.71-2.47-1.56-3.38-2.38-1.2-1.08-2.87-1.08-4.06,0-.91.82-2.03,1.67-3.39,2.38-3.84,2.01-7.4,1.82-9.15,1.57-.24-.03-.47-.1-.7-.2-1.43-.6-4.52-2.21-6.39-5.93-.14-.27-1.1-2.21-1.35-4.56Z"/>
        <line class="cls-3" x1="1669.4" y1="56.76" x2="1689.14" y2="56.76"/>
      </g>
    </g>
  </g>
</svg>