<?xml version="1.0" encoding="UTF-8"?>
<svg id="Layer_2" data-name="Layer 2" xmlns="http://www.w3.org/2000/svg" viewBox="0 0 54.12 48.95">
  <defs>
    <style>
      .cls-1 {
        fill: #a01f24;
        stroke: #a01f24;
        stroke-miterlimit: 10;
        stroke-width: 2px;
      }
    </style>
  </defs>
  <g id="Layer_1-2" data-name="Layer 1">
    <path class="cls-1" d="M53.05,12.51c.69,5.81-3.64,10.93-7.64,15.79-6.26,7.61-12.56,14.09-18,19.25-5.68-5.59-11.89-11.95-18.68-19.25-3.17-3.41-7.53-8.24-7.72-14.67-.06-2.21.37-3.75.69-4.61C3.78,3.37,9.72,1.6,10.25,1.45c4.74-1.33,8.7.61,10.7,1.58,2.99,1.46,4.98,3.43,6.11,4.74,1.12-1.32,3.11-3.3,6.11-4.74,4.4-2.12,8.46-1.88,10.41-1.62.2.03.37.07.56.14,1.53.57,5.18,2.22,7.37,6.22.15.28,1.24,2.3,1.53,4.74Z"/>
  </g>
</svg>