<?xml version="1.0" encoding="UTF-8"?>
<svg id="Layer_2" data-name="Layer 2" xmlns="http://www.w3.org/2000/svg" viewBox="0 0 43.24 51.4">
  <defs>
    <style>
      .cls-1 {
        fill: #00004d;
        stroke: #00004d;
        stroke-miterlimit: 10;
        stroke-width: 2px;
      }
    </style>
  </defs>
  <g id="Layer_1-2" data-name="Layer 1">
    <g>
      <path class="cls-1" d="M1.06,31.57c-.54-4.99,2.88-9.39,6.05-13.57C12.06,11.46,17.05,5.89,21.35,1.45c4.49,4.8,9.41,10.27,14.78,16.54,2.51,2.93,5.96,7.08,6.11,12.61.05,1.9-.29,3.22-.54,3.96-1.65,4.86-6.35,6.37-6.77,6.5-3.75,1.14-6.89-.52-8.47-1.36-2.36-1.25-3.94-2.95-4.84-4.07-.89,1.13-2.46,2.83-4.84,4.07-3.63,1.9-6.98,1.6-8.43,1.36-.03,0-.04,0-.07-.02-1.08-.42-4.19-1.8-6.01-5.42-.12-.24-.98-1.98-1.21-4.07Z"/>
      <line class="cls-1" x1="12.56" y1="50.4" x2="30.21" y2="50.4"/>
    </g>
  </g>
</svg>