<?xml version="1.0" encoding="UTF-8"?>
<svg id="Layer_2" data-name="Layer 2" xmlns="http://www.w3.org/2000/svg" viewBox="0 0 50.15 56.57">
  <defs>
    <style>
      .cls-1 {
        fill: #faf4d3;
        stroke: #faf4d3;
        stroke-linecap: square;
        stroke-miterlimit: 10;
        stroke-width: 4px;
      }
    </style>
  </defs>
  <g id="Layer_1-2" data-name="Layer 1">
    <g>
      <path class="cls-1" d="M2.06,34.37c-.61-5.59,3.22-10.51,6.77-15.19,4.72-6.23,9.47-11.67,13.75-16.21,1.23-1.3,3.14-1.29,4.36.03,4.43,4.8,9.22,10.15,14.37,16.18,2.8,3.28,6.67,7.92,6.83,14.11.06,2.12-.33,3.61-.61,4.43-1.85,5.43-7.11,7.13-7.58,7.27-4.2,1.28-7.71-.58-9.47-1.52-1.35-.71-2.47-1.56-3.38-2.38-1.2-1.08-2.87-1.08-4.06,0-.91.82-2.03,1.67-3.39,2.38-3.84,2.01-7.4,1.82-9.15,1.57-.24-.03-.47-.1-.7-.2-1.43-.6-4.52-2.21-6.39-5.93-.14-.27-1.1-2.21-1.35-4.56Z"/>
      <line class="cls-1" x1="14.85" y1="54.57" x2="34.59" y2="54.57"/>
    </g>
  </g>
</svg>