<?xml version="1.0" encoding="UTF-8"?>
<svg xmlns="http://www.w3.org/2000/svg" xmlns:xlink="http://www.w3.org/1999/xlink" viewBox="0 0 457.33 247.69">
  <defs>
    <style>
      .cls-1 {
        fill: #2d2c33;
      }

      .cls-1, .cls-2, .cls-3, .cls-4, .cls-5, .cls-6, .cls-7, .cls-8, .cls-9, .cls-10, .cls-11, .cls-12, .cls-13, .cls-14, .cls-15, .cls-16, .cls-17, .cls-18, .cls-19, .cls-20, .cls-21, .cls-22, .cls-23, .cls-24, .cls-25, .cls-26, .cls-27, .cls-28, .cls-29 {
        stroke-width: 0px;
      }

      .cls-30, .cls-8 {
        fill: #258da1;
      }

      .cls-2 {
        fill: #cbe6f5;
      }

      .cls-3 {
        fill: #000;
      }

      .cls-4, .cls-31 {
        fill: #36353d;
      }

      .cls-5 {
        fill: #d9c9c3;
      }

      .cls-5, .cls-19, .cls-20, .cls-21, .cls-26 {
        mix-blend-mode: multiply;
      }

      .cls-32, .cls-12 {
        fill: #577080;
      }

      .cls-6 {
        fill: #6dab65;
      }

      .cls-7, .cls-33 {
        fill: #7d141d;
      }

      .cls-34, .cls-9 {
        fill: #919191;
      }

      .cls-34, .cls-9, .cls-35 {
        mix-blend-mode: soft-light;
      }

      .cls-36 {
        clip-path: url(#clippath-2);
      }

      .cls-37 {
        isolation: isolate;
      }

      .cls-38 {
        clip-path: url(#clippath-6);
      }

      .cls-10, .cls-39 {
        fill: #a13925;
      }

      .cls-11 {
        fill: #38373a;
      }

      .cls-13 {
        fill: #2d3238;
      }

      .cls-40 {
        clip-path: url(#clippath-7);
      }

      .cls-41 {
        clip-path: url(#clippath-1);
      }

      .cls-42 {
        clip-path: url(#clippath-4);
      }

      .cls-43, .cls-25 {
        fill: #be1e2d;
      }

      .cls-14 {
        fill: #2f2f36;
      }

      .cls-15, .cls-44 {
        fill: #7a7a7a;
      }

      .cls-16 {
        fill: #798085;
      }

      .cls-17 {
        fill: #98aab5;
      }

      .cls-18 {
        fill: #40464f;
      }

      .cls-45 {
        clip-path: url(#clippath-9);
      }

      .cls-19 {
        fill: #b4c4c3;
      }

      .cls-20 {
        fill: #8a8a8a;
      }

      .cls-46 {
        clip-path: url(#clippath);
      }

      .cls-21, .cls-22 {
        fill: #bebebe;
      }

      .cls-47 {
        clip-path: url(#clippath-3);
      }

      .cls-23 {
        fill: #c6c6c9;
      }

      .cls-48 {
        clip-path: url(#clippath-8);
      }

      .cls-49 {
        opacity: .73;
      }

      .cls-24 {
        fill: #fff;
      }

      .cls-50 {
        clip-path: url(#clippath-5);
      }

      .cls-51 {
        clip-path: url(#clippath-10);
      }

      .cls-26 {
        fill: #ada19c;
      }

      .cls-27 {
        fill: #d1d1d1;
      }

      .cls-28 {
        fill: #678291;
      }

      .cls-29 {
        fill: #5d5a5b;
      }
    </style>
    <clipPath id="clippath">
      <rect class="cls-8" x="67.17" y="65.96" width="91" height="21.12" rx="9.71" ry="9.71"/>
    </clipPath>
    <clipPath id="clippath-1">
      <rect class="cls-8" x="0" y="0" width="457.33" height="35.24" rx="17.62" ry="17.62"/>
    </clipPath>
    <clipPath id="clippath-2">
      <path class="cls-10" d="M187.93,139.59s-5.53,5.27-7.23,8.79c-1.88,3.6-1.3,15.17-1.3,15.17,0,0-1.89,1.69-2.54,2.99-.65,1.3.22,30.46.61,33.24.39,2.78,3.08,8.64,3.08,8.64,0,0,6.68,5.82,7.98,6.42,1.3.61,69.26,6.68,69.26,6.68h161.87s6.55-5.73,7.42-7.98c.87-2.26,3.26-16.29,2.56-28.82-.17-3.03-1.95-6.38-2.08-6.51-.13-.13-.69-.52-.69-.52,0,0-1.96-6.08-4.08-8.58-.13-1.53-2.83-5.7-3.74-6.54s-20.73-7.81-45.42-10.35c-7.42-6.7-37.65-31.83-44.03-35.6-6.38-3.78-32.43-8.53-115.88-2.41-9.76,4.3-25.78,25.39-25.78,25.39Z"/>
    </clipPath>
    <clipPath id="clippath-3">
      <path class="cls-4" d="M371.25,150.09s-3.15,1.06-5.37,1.66c-1.1.3-2.26-.01-3.11-.83-5.56-5.39-27.42-24.49-40.41-32.87-.41-.26-.23-.93.25-.93,0,0,5.6-.85,6.98-.5,12.25,6.96,39.36,30.76,41.66,33.47Z"/>
    </clipPath>
    <clipPath id="clippath-4">
      <path class="cls-12" d="M352.82,152.18c-6.06-7.74-25.95-25.53-36.42-32.29-1.45-.94-3.1-1.49-4.82-1.66-30.21-2.84-86.29-.13-108.89,3.5-2.68,2.49-8.53,8.36-14.02,16.69,45.65,2.09,164.13,13.75,164.13,13.75Z"/>
    </clipPath>
    <clipPath id="clippath-5">
      <path class="cls-7" d="M177.27,197.07s3.62.65,4.01.61c.39-.04.76-2.82.63-3.1-.13-.28-4.82-1.45-4.82-1.45-.19,1.15.18,3.95.18,3.95Z"/>
    </clipPath>
    <clipPath id="clippath-6">
      <path class="cls-9" d="M307.11,160.46l-10.85-1.15c-1.05-.11-1.82-1.12-1.71-2.25l.04-.44c.11-1.13,1.05-1.96,2.11-1.85l10.85,1.15c1.05.11,1.82,1.12,1.71,2.25l-.04.44c-.11,1.13-1.05,1.96-2.11,1.85Z"/>
    </clipPath>
    <clipPath id="clippath-7">
      <path class="cls-9" d="M245.73,155.32l-10.85-1.15c-1.05-.11-1.82-1.12-1.71-2.25l.04-.44c.11-1.13,1.05-1.96,2.11-1.85l10.85,1.15c1.05.11,1.82,1.12,1.71,2.25l-.04.44c-.11,1.13-1.05,1.96-2.11,1.85Z"/>
    </clipPath>
    <clipPath id="clippath-8">
      <path class="cls-25" d="M201.17,144.67l-3.29,3.67c-.11.12-.26.2-.43.2l-9.03.36c-.22,0-.44-.11-.55-.3l-3.87-6.67,1.9-.06,2.95,5.39c.11.2.33.33.56.31l6.51-.29c.23-.01.44-.15.53-.37l1.63-3.82c.13-.31.5-.45.81-.32l2.07.93c.37.17.48.65.2.96Z"/>
    </clipPath>
    <clipPath id="clippath-9">
      <path class="cls-15" d="M211.22,145.15c-2.42-1.71-5.39-3.44-7.66-4.28l-.9,2.45c1.58.58,3.78,1.78,5.83,3.12.71.47,1.4.95,2.04,1.43.19.03.4.04.6.04,1.15,0,2.13-.38,2.5-.91-.68-.58-1.51-1.21-2.4-1.84Z"/>
    </clipPath>
    <clipPath id="clippath-10">
      <path class="cls-25" d="M205.46,139.99c-.84-1.15-3.95-2.79-5.15-3.48-2.63-1.51-6.25-3.34-7.46-3.59-.59-.12-1.18.19-1.41.75l-.46,1.11c-.42,1.01-1.38,1.68-2.47,1.74l-8.29.44c-.64.03-1.12.58-1.09,1.21l.17,3.27c.03.64.58,1.12,1.21,1.09l8.72-.46c.93-.05,2.88.27,3.76.57,2.58.9,9.33,3.33,9.33,3.33.65.23,1.37-.08,1.64-.71.54-1.28,1.27-3.08,1.65-4.01.17-.42.11-.89-.16-1.25Z"/>
    </clipPath>
  </defs>
  <g class="cls-37">
    <g id="Layer_2" data-name="Layer 2">
      <g id="Layer_1-2" data-name="Layer 1">
        <g>
          <g>
            <path class="cls-18" d="M62.33,210.2c-1.98,0-3.95-.64-5.56-1.89-2.01-1.56-5.14-5.39-3.47-13.57.67-3.26,1.32-6.15,1.95-8.94,2.66-11.79,4.77-21.1,4.77-45.15h2.61c0,24.34-2.13,33.78-4.83,45.73-.63,2.78-1.28,5.65-1.94,8.89-1.03,5.04-.14,8.94,2.5,10.98,1.9,1.47,4.62,1.75,6.76.7,1.12-.55,3.01-1.94,3.01-5v-39.3h2.61v39.3c0,3.28-1.63,5.96-4.47,7.35-1.24.61-2.6.91-3.95.91Z"/>
            <g>
              <g>
                <rect class="cls-22" x="73.33" y="82" width="5.25" height="132.13"/>
                <rect class="cls-21" x="73.33" y="82" width="1.54" height="132.13"/>
                <rect class="cls-22" x="146.76" y="82" width="5.25" height="132.13"/>
                <rect class="cls-21" x="146.76" y="82" width="1.54" height="132.13"/>
              </g>
              <rect class="cls-15" x="78.57" y="102.38" width="68.19" height="57.29"/>
              <rect class="cls-13" x="80.2" y="108.23" width="64.94" height="38.56" rx="8.24" ry="8.24"/>
              <rect class="cls-18" x="86.8" y="111.38" width="51.74" height="23.8" rx="5.58" ry="5.58"/>
              <rect class="cls-6" x="89.61" y="116.81" width="14" height="6.13"/>
              <rect class="cls-6" x="91.49" y="126.96" width="10.25" height="2.98"/>
              <rect class="cls-6" x="121.48" y="116.81" width="14" height="6.13"/>
              <rect class="cls-6" x="123.35" y="126.96" width="10.25" height="2.98"/>
              <rect class="cls-8" x="78.57" y="155.36" width="68.19" height="58.61"/>
              <rect class="cls-21" x="78.57" y="102.38" width="5.63" height="111.59"/>
              <path class="cls-18" d="M73.33,145.6l-5.79,6.34c-1.27,1.39-1.98,3.29-1.98,5.26v6.68c0,1.61,1.18,2.91,2.63,2.91h5.14v-21.19Z"/>
              <path class="cls-18" d="M152.01,145.6l5.79,6.34c1.27,1.39,1.98,3.29,1.98,5.26v6.68c0,1.61-1.18,2.91-2.63,2.91h-5.14v-21.19Z"/>
              <rect class="cls-22" x="67.17" y="213.31" width="91" height="19.31"/>
              <rect class="cls-21" x="67.17" y="213.31" width="11.4" height="19.31"/>
              <g>
                <rect class="cls-30" x="67.17" y="65.96" width="91" height="21.12" rx="9.71" ry="9.71"/>
                <g class="cls-46">
                  <polygon class="cls-21" points="161.8 88.5 47.55 88.95 47.55 59.52 76.25 59.52 76.25 85.55 162.51 85.65 161.8 88.5"/>
                </g>
              </g>
              <circle class="cls-27" cx="112.67" cy="181.6" r="14.99"/>
              <path class="cls-18" d="M119.81,184.14c0-3.95-5.06-13.54-7.14-13.54s-7.14,9.59-7.14,13.54,3.2,7.14,7.14,7.14,7.14-3.2,7.14-7.14Z"/>
            </g>
            <rect class="cls-22" x="409.07" y="19.49" width="28.4" height="210.48"/>
            <polygon class="cls-21" points="437.46 30.74 418.39 30.74 418.39 19.49 409.07 19.49 409.07 30.74 409.07 41.89 409.07 229.97 418.39 229.97 418.39 41.89 437.46 41.89 437.46 30.74"/>
            <rect class="cls-22" x="24.01" y="19.49" width="28.4" height="210.48"/>
            <polygon class="cls-21" points="52.41 30.74 33.33 30.74 33.33 19.49 24.01 19.49 24.01 30.74 24.01 41.89 24.01 229.97 33.33 229.97 33.33 41.89 52.41 41.89 52.41 30.74"/>
            <rect class="cls-8" x="3.08" y="227.89" width="454.25" height="6.87" rx="3.43" ry="3.43"/>
            <path class="cls-21" d="M3.08,229.6h454.25c0,2.85-2.31,5.16-5.16,5.16H8.24c-2.85,0-5.16-2.31-5.16-5.16h0Z"/>
            <g>
              <rect class="cls-30" x="0" y="0" width="457.33" height="35.24" rx="17.62" ry="17.62"/>
              <g class="cls-41">
                <g>
                  <rect class="cls-24" x="-10.3" y="10.79" width="147.67" height="4.22"/>
                  <rect class="cls-24" x="-10.3" y="20.23" width="147.67" height="4.22"/>
                  <rect class="cls-24" x="319.96" y="10.79" width="147.67" height="4.22"/>
                  <rect class="cls-24" x="319.96" y="20.23" width="147.67" height="4.22"/>
                </g>
                <polygon class="cls-21" points="468.14 32.57 41.64 32.57 41.64 -16.63 -19.08 -16.63 -19.08 32.57 -30.33 32.57 -30.33 49.15 -19.08 49.15 -19.08 69.4 41.64 69.4 41.64 49.15 468.14 49.15 468.14 32.57"/>
              </g>
            </g>
            <g>
              <path class="cls-24" d="M166,24.53c-2.01,1.23-4.44,1.85-6.84,1.85-5.42,0-8.88-3.7-8.88-8.59s4.01-9.24,9.5-9.24c1.98,0,4.14.6,5.64,1.81-.53,1.37-1.35,2.57-2.18,3.77-.88-.58-1.98-.86-3.06-.86-2.58,0-4.71,1.92-4.71,4.31,0,2.8,2.11,4.24,4.99,4.24h.8v-2.29h-2.31v-3.59h7.05v8.59Z"/>
              <path class="cls-24" d="M184.55,26.43h-5.64l-.78-2.22h-4.56l-.6,2.22h-6.02l5.22-17.5h7.52l4.86,17.5ZM177.16,19.55l-1.28-4.56-1.23,4.56h2.51Z"/>
              <path class="cls-24" d="M189.79,26.73c-1.5,0-2.96-.28-4.44-.58v-4.26c1.2.44,2.46.72,3.74.72.93,0,2.78-.32,2.78-1.46,0-1.71-6.54-2.66-6.54-7.2,0-3.64,3.79-5.44,7.3-5.44,1.38,0,2.68.19,3.99.49v4.38c-.93-.3-1.88-.51-2.86-.51-.7,0-2.41.23-2.41,1.11,0,1.46,6.29,2.71,6.29,7.11,0,3.75-4.31,5.65-7.85,5.65Z"/>
              <path class="cls-24" d="M211.48,26.73c-1.5,0-2.96-.28-4.44-.58v-4.26c1.2.44,2.46.72,3.74.72.93,0,2.78-.32,2.78-1.46,0-1.71-6.54-2.66-6.54-7.2,0-3.64,3.79-5.44,7.3-5.44,1.38,0,2.68.19,3.99.49v4.38c-.93-.3-1.88-.51-2.86-.51-.7,0-2.41.23-2.41,1.11,0,1.46,6.29,2.71,6.29,7.11,0,3.75-4.31,5.65-7.85,5.65Z"/>
              <path class="cls-24" d="M233.27,13.72h-3.84v12.67h-5.69v-12.67h-3.69v-4.79h13.21v4.79Z"/>
              <path class="cls-24" d="M249.19,26.43h-5.64l-.78-2.22h-4.56l-.6,2.22h-6.02l5.22-17.5h7.52l4.86,17.5ZM241.79,19.55l-1.28-4.56-1.23,4.56h2.51Z"/>
              <path class="cls-24" d="M260.79,13.72h-3.84v12.67h-5.69v-12.67h-3.69v-4.79h13.21v4.79Z"/>
              <path class="cls-24" d="M268.49,26.43h-5.77V8.92h5.77v17.5Z"/>
              <path class="cls-24" d="M280,26.73c-5.52,0-9.78-4.01-9.78-9.1s4.76-9.05,10.1-9.05,9.53,4.08,9.53,8.96-4.34,9.19-9.85,9.19ZM280.17,13.72c-2.23,0-4.36,2.06-4.36,4.1,0,2.18,1.93,3.98,4.29,3.98,2.48,0,4.46-1.97,4.46-4.24,0-2.06-2.26-3.84-4.39-3.84Z"/>
              <path class="cls-24" d="M307.05,26.43h-5.39l-5.11-7.32v7.32h-4.99V8.95h4.99l5.24,6.97v-6.97h5.27v17.48Z"/>
            </g>
            <g>
              <path class="cls-15" d="M65.35,119.71l-2.42-.98c1.34-3.3,4.67-8.02,6.94-10.35l1.88,1.82c-2.31,2.38-5.3,6.83-6.39,9.52Z"/>
              <path class="cls-18" d="M64.37,126.42c-.06.15-.02.32.09.43.44.41,1.46,1.38,1.52,1.44.06.07.13,4.27.14,5.07,0,.1.11.15.19.09l.63-.5c.09-.07.14-.18.15-.29l.1-5.07c0-.1-.03-.2-.1-.28l-1.73-1.86c-.19-.21-.54-.15-.65.12l-.35.86Z"/>
              <path class="cls-8" d="M67.33,118.46c-1.26-.58-3.04-1.38-3.95-1.78-.41-.18-.88-.14-1.25.11-1.18.8-2.93,3.85-3.66,5.03-1.6,2.58-3.55,6.14-3.84,7.34-.14.58.15,1.18.7,1.43l1.1.5c.99.45,1.64,1.43,1.66,2.52l.16,8.3c.01.64.54,1.14,1.17,1.13l3.27-.06c.64-.01,1.14-.54,1.13-1.17l-.16-8.73c-.02-.94.36-2.87.7-3.74.99-2.55,3.64-9.21,3.64-9.21.26-.64-.03-1.37-.66-1.66Z"/>
              <polygon class="cls-8" points="66.05 120.66 70.39 124.82 70.44 134.48 63.32 138.29 63.32 136.4 69.15 133.46 69.08 126.19 64.41 124 66.05 120.66"/>
            </g>
            <rect class="cls-22" x="70.41" y="106.3" width="2.92" height="33.96"/>
          </g>
          <g>
            <ellipse class="cls-20" cx="304.36" cy="244.59" rx="117" ry="3.1"/>
            <circle class="cls-14" cx="231.37" cy="217.84" r="26.89"/>
            <circle class="cls-14" cx="388.63" cy="218.63" r="26.89"/>
            <g>
              <path class="cls-39" d="M187.93,139.59s-5.53,5.27-7.23,8.79c-1.88,3.6-1.3,15.17-1.3,15.17,0,0-1.89,1.69-2.54,2.99-.65,1.3.22,30.46.61,33.24.39,2.78,3.08,8.64,3.08,8.64,0,0,6.68,5.82,7.98,6.42,1.3.61,69.26,6.68,69.26,6.68h161.87s6.55-5.73,7.42-7.98c.87-2.26,3.26-16.29,2.56-28.82-.17-3.03-1.95-6.38-2.08-6.51-.13-.13-.69-.52-.69-.52,0,0-1.96-6.08-4.08-8.58-.13-1.53-2.83-5.7-3.74-6.54s-20.73-7.81-45.42-10.35c-7.42-6.7-37.65-31.83-44.03-35.6-6.38-3.78-32.43-8.53-115.88-2.41-9.76,4.3-25.78,25.39-25.78,25.39Z"/>
              <g class="cls-36">
                <path class="cls-5" d="M435.94,209.25c.13-7.68-4.43-24.41-4.43-24.41,0,0-9.48,2.12-12.95.46-2.22-1.06-6.12-2.16-11.33-3.27,2.56,2.51,4.45,5.55,5.34,9.07-10.89-11.15-27.9-16.97-48.19-9.13,2.26-2.36,4.96-4.17,7.92-5.48-65.73-8.54-175.12-16.43-175.12-16.43l-20.05-2.08s-9.37-7.16-11.33-5.77c-1.95,1.39,1.69,68.65,2.34,71.67s113.13,11.69,125.5,12.35c12.37.65,104.67,1.56,124.51-2.19,19.84-3.75,17.65-17.08,17.78-24.76ZM200.24,182.42c18.15-17.38,48.03-7.8,51.82,8.75-8.6-12.15-29.68-19.98-51.82-8.75ZM347.89,212.77l-87.57-2.2s-2.99-14.65-7.03-18.36l98.16,7.65s-3.21,7.52-3.56,12.91Z"/>
                <polygon class="cls-5" points="290.84 216.16 290.45 216.13 290.84 211.14 289.88 194.98 289.28 166.59 285.81 131.1 286.2 131.07 289.67 166.56 290.28 194.96 291.23 211.14 290.84 216.16"/>
                <polygon class="cls-5" points="229.44 185.24 227.7 177.52 227.05 173.41 225.29 157.28 230.05 141.62 230.43 141.73 225.69 157.32 227.44 173.35 228.09 177.44 229.82 185.16 229.44 185.24"/>
                <path class="cls-5" d="M347.78,218.96c-.94-3.95.52-15.97,6.78-25.9l4.67-16.25-2.09-22.43.39-.04,2.1,22.51v.04s-4.72,16.37-4.72,16.37c-6.22,9.84-7.68,21.74-6.74,25.63l-.38.09Z"/>
              </g>
            </g>
            <path class="cls-4" d="M373.62,152.22l-1.11-.99c-8.92-7.88-36.83-31.01-42.93-34.62-.12-.07-.25-.14-.39-.22-3.68.26-12.99.86-17.14.6l-.71,6.58s42.79,30.38,44.61,30.64c1.82.26,12.74.84,17.66-2Z"/>
            <g>
              <path class="cls-31" d="M371.25,150.09s-3.15,1.06-5.37,1.66c-1.1.3-2.26-.01-3.11-.83-5.56-5.39-27.42-24.49-40.41-32.87-.41-.26-.23-.93.25-.93,0,0,5.6-.85,6.98-.5,12.25,6.96,39.36,30.76,41.66,33.47Z"/>
              <g class="cls-47">
                <path class="cls-2" d="M362.26,152.01l9.88-2.22c-7.34-6.6-26.51-23.8-37.56-31.41-1.25.02-8.37,1.23-9.96,2.07,8,5.11,37.64,31.56,37.64,31.56Z"/>
              </g>
            </g>
            <path class="cls-4" d="M204.2,120.39c21.06-3.38,72.4-6.83,107.86-3.39,1.93.19,3.79.84,5.42,1.9,11.54,7.49,33.3,26.96,39.95,35.45,0,0-120.42-12.28-169.51-14.75,7.62-11.98,16.27-19.2,16.27-19.2Z"/>
            <g>
              <path class="cls-32" d="M352.82,152.18c-6.06-7.74-25.95-25.53-36.42-32.29-1.45-.94-3.1-1.49-4.82-1.66-30.21-2.84-86.29-.13-108.89,3.5-2.68,2.49-8.53,8.36-14.02,16.69,45.65,2.09,164.13,13.75,164.13,13.75Z"/>
              <g class="cls-42">
                <path class="cls-2" d="M351.44,144.8l-53.55-3.82-6.86-25.34-6.94-.69,1.56,25.86-37.93-3.3-2.08-4.95,5.12-16.75-7.03.43-7.72,20.05-19.79-2,8.42-17.53,54.85-18.49s71.69,20.31,72.73,21.18c1.04.87-.78,25.34-.78,25.34Z"/>
                <g>
                  <path class="cls-28" d="M292.05,133.73c5.53-.72,7.65-1.5,10.11-.2,2.46,1.29,6.53,18.01,6.19,20.15-.34,2.14-12.9.08-13.6-.6-.52-.5-3.33-10.43-4.72-15.46-.43-1.55.27-3.26,1.53-3.71l.49-.18Z"/>
                  <path class="cls-28" d="M291.72,126.19c2.81-.96,6.29-1.3,7.83-.78,1.54.51,1.95,5.88.85,7.15-1.1,1.27-7.64,1.96-9.04.92-1.29-.96-1.52-6.64.36-7.29Z"/>
                </g>
                <g>
                  <path class="cls-28" d="M301.85,132.24c5.53-.72,7.65-1.5,10.11-.2,2.46,1.29,6.53,18.01,6.19,20.15-.34,2.14-12.9.08-13.6-.6-.52-.5-3.33-10.43-4.72-15.46-.43-1.55.27-3.26,1.53-3.71l.49-.18Z"/>
                  <path class="cls-28" d="M301.52,124.71c2.81-.96,6.29-1.3,7.83-.78,1.54.51,1.95,5.88.85,7.15s-7.64,1.96-9.04.92c-1.29-.96-1.52-6.64.36-7.29Z"/>
                </g>
                <g>
                  <path class="cls-28" d="M239.78,132.81c5.53-.72,7.65-1.5,10.11-.2,2.46,1.29,6.53,18.01,6.19,20.15-.34,2.14-12.9.08-13.6-.6-.52-.5-3.33-10.43-4.72-15.46-.43-1.55.27-3.26,1.53-3.71l.49-.18Z"/>
                  <path class="cls-28" d="M239.44,125.28c2.81-.96,6.29-1.29,7.83-.78,1.54.51,1.95,5.88.85,7.15-1.1,1.27-7.64,1.96-9.04.92-1.29-.96-1.52-6.64.36-7.29Z"/>
                </g>
                <g>
                  <path class="cls-28" d="M250.02,131.55c5.53-.72,7.65-1.5,10.11-.2,2.46,1.29,6.53,18.01,6.19,20.15s-12.9.08-13.6-.6c-.52-.5-3.33-10.43-4.72-15.46-.43-1.55.27-3.26,1.53-3.71l.49-.18Z"/>
                  <path class="cls-28" d="M249.69,124.02c2.81-.96,6.29-1.3,7.83-.78,1.54.51,1.95,5.88.85,7.15s-7.64,1.96-9.04.92c-1.29-.96-1.52-6.64.36-7.29Z"/>
                </g>
                <path class="cls-2" d="M193.96,135.55c-2.99.04-8.64-.95-8.64-.95,0,0,7.03-13.02,7.9-13.58.87-.56,9.03-3.12,9.33-2.43.3.69.82,4.51.61,5.51s-9.2,11.46-9.2,11.46Z"/>
              </g>
            </g>
            <path class="cls-4" d="M203.94,125.66c-4.04,4.95-9.37,13.54-9.37,13.54l11.54,1.08,13.97-21.13-12.11,1.17-4.04,5.34Z"/>
            <path class="cls-4" d="M179.46,205.9s2.6,2.69,18.05,4.43c3.82,3.91,51.42,4.25,51.42,4.25l108.49,3.12,59.97-2.6s2.08.04,2.95-.09c.87-.13,6.82-3.25,7.34-3.99,0,0-.13,1.27-.13,1.5s-2.7,9.07-6.7,10.96c-2.42.97-7.25,1.95-7.25,1.95h-175.83l-45.51-4.77s-3.09-.26-6.13-3.13c-3.04-2.86-6.68-11.63-6.68-11.63Z"/>
            <path class="cls-10" d="M213.7,114.2l-9.76,11.46s-8.81-6.9-9.59-8.72c-.78-1.82,4.32-1.46,19.35-2.73Z"/>
            <path class="cls-4" d="M417.45,224.23c.4-2.14.62-4.35.62-6.61,0-19.33-15.5-35.01-34.63-35.01s-34.63,15.67-34.63,35.01c0,2.26.22,4.47.62,6.61h68.01Z"/>
            <path class="cls-3" d="M413.62,225.43c.36-1.95.55-3.96.55-6.02,0-17.62-13.74-31.9-30.69-31.9s-30.69,14.28-30.69,31.9c0,2.06.19,4.07.55,6.02h60.28Z"/>
            <g>
              <circle class="cls-4" cx="383.67" cy="218.57" r="27.39"/>
              <circle class="cls-14" cx="383.67" cy="218.57" r="20.61"/>
              <circle class="cls-29" cx="383.67" cy="218.57" r="17.09"/>
              <circle class="cls-11" cx="383.67" cy="218.57" r="13.35"/>
              <circle class="cls-29" cx="383.67" cy="218.57" r="8.53"/>
              <path class="cls-11" d="M384.62,200.46c-10.76-.55-19.6,8.29-19.05,19.05.47,9.21,7.95,16.7,17.17,17.17,10.76.55,19.6-8.29,19.05-19.05-.47-9.21-7.95-16.7-17.17-17.17ZM394.12,210.22l-6.48,4.83c-.57.42-1.33.44-1.93.08-.03-.02-.06-.04-.1-.05-.61-.34-.98-1-.9-1.7l.88-8.04c.17-1.54,1.72-2.56,3.19-2.07,2.05.68,3.92,1.77,5.52,3.17,1.16,1.02,1.07,2.87-.18,3.79ZM381.76,205.33l.88,7.98c.08.72-.28,1.41-.91,1.77l-.09.05c-.6.34-1.34.28-1.88-.14l-6.41-4.93c-1.22-.94-1.3-2.79-.12-3.79,1.56-1.32,3.37-2.36,5.35-3.01,1.47-.49,3.02.53,3.19,2.07ZM371.36,213.33l7.34,3.42c.63.29,1.02.94.98,1.63,0,.11,0,.21,0,.32.02.69-.38,1.33-1.01,1.61l-7.39,3.31c-1.43.64-3.09-.2-3.41-1.74-.46-2.24-.44-4.65.05-6.88.34-1.53,2.01-2.35,3.43-1.68ZM373.23,226.92l6.48-4.83c.57-.42,1.33-.44,1.93-.08.03.02.06.04.1.05.61.34.98,1,.9,1.7l-.88,8.04c-.17,1.54-1.72,2.56-3.19,2.07-2.05-.68-3.92-1.77-5.52-3.17-1.16-1.02-1.07-2.87.18-3.79ZM385.58,231.81l-.88-7.98c-.08-.72.28-1.41.91-1.77h.02c.63-.37,1.42-.31,2,.13l6.36,4.89c1.22.94,1.3,2.79.12,3.79-1.56,1.32-3.37,2.36-5.35,3.01-1.47.49-3.02-.53-3.19-2.07ZM395.98,223.81l-7.34-3.42c-.63-.29-1.02-.94-.98-1.63,0-.11,0-.21,0-.32-.02-.69.38-1.33,1.01-1.61l7.39-3.31c1.43-.64,3.09.2,3.41,1.74.46,2.24.44,4.65-.05,6.88-.34,1.53-2.01,2.35-3.43,1.68Z"/>
              <path class="cls-23" d="M384.67,199.39c-11.4-.58-20.76,8.78-20.18,20.18.49,9.76,8.42,17.69,18.18,18.18,11.4.58,20.76-8.78,20.18-20.18-.49-9.76-8.42-17.69-18.18-18.18ZM394.73,209.73l-6.87,5.12c-.6.45-1.4.46-2.05.08-.03-.02-.07-.04-.1-.06-.65-.36-1.04-1.06-.96-1.8l.94-8.52c.18-1.64,1.82-2.71,3.38-2.19,2.17.73,4.15,1.88,5.84,3.35,1.23,1.08,1.13,3.04-.19,4.01ZM381.65,204.55l.93,8.45c.08.76-.29,1.5-.96,1.87l-.09.05c-.63.36-1.42.3-1.99-.14l-6.79-5.22c-1.3-1-1.38-2.95-.13-4.01,1.65-1.4,3.57-2.49,5.66-3.19,1.56-.52,3.19.56,3.37,2.19ZM370.64,213.02l7.77,3.63c.67.31,1.08.99,1.04,1.73,0,.11,0,.22,0,.34.02.73-.4,1.41-1.07,1.71l-7.82,3.51c-1.51.68-3.28-.21-3.61-1.84-.48-2.37-.46-4.92.06-7.29.36-1.62,2.13-2.48,3.63-1.78ZM372.61,227.41l6.87-5.12c.6-.45,1.4-.46,2.05-.08.03.02.07.04.1.06.65.36,1.04,1.06.96,1.8l-.94,8.52c-.18,1.64-1.82,2.71-3.38,2.19-2.17-.73-4.15-1.88-5.84-3.35-1.23-1.08-1.13-3.04.19-4.01ZM385.7,232.59l-.93-8.45c-.08-.76.29-1.5.96-1.87h.03c.67-.39,1.5-.33,2.12.14l6.73,5.18c1.3,1,1.38,2.95.13,4.01-1.65,1.4-3.57,2.49-5.66,3.19-1.56.52-3.19-.56-3.37-2.19ZM396.71,224.12l-7.77-3.63c-.67-.31-1.08-.99-1.04-1.73,0-.11,0-.22,0-.34-.02-.73.4-1.41,1.07-1.71l7.82-3.51c1.51-.68,3.28.21,3.61,1.84.48,2.37.46,4.92-.06,7.29-.36,1.62-2.13,2.48-3.63,1.78Z"/>
              <circle class="cls-23" cx="383.67" cy="218.57" r="6.55"/>
              <circle class="cls-11" cx="383.67" cy="218.57" r="3.54"/>
              <circle class="cls-23" cx="383.67" cy="218.57" r="3.1"/>
              <g>
                <g>
                  <ellipse class="cls-29" cx="383.67" cy="213.53" rx="1.24" ry="1.02"/>
                  <path class="cls-23" d="M384.56,213.73c0-.49-.4-.89-.89-.89s-.89.4-.89.89.4.89.89.89.89-.4.89-.89Z"/>
                </g>
                <g>
                  <ellipse class="cls-29" cx="383.67" cy="223.62" rx="1.24" ry="1.02"/>
                  <path class="cls-23" d="M382.79,223.41c0,.49.4.89.89.89s.89-.4.89-.89-.4-.89-.89-.89-.89.4-.89.89Z"/>
                </g>
              </g>
              <g>
                <g>
                  <path class="cls-29" d="M388.65,217.08c.48-.29.6-.99.25-1.58-.35-.59-1.02-.84-1.51-.55-.48.29-.6.99-.25,1.58.35.59,1.02.84,1.51.55Z"/>
                  <path class="cls-23" d="M388.3,216.88c.42-.25.56-.79.31-1.21-.25-.42-.79-.56-1.21-.31-.42.25-.56.79-.31,1.21.25.42.79.56,1.21.31Z"/>
                </g>
                <g>
                  <path class="cls-29" d="M378.7,220.06c-.48.29-.6.99-.25,1.58.35.59,1.02.84,1.51.55.48-.29.6-.99.25-1.58-.35-.59-1.02-.84-1.51-.55Z"/>
                  <path class="cls-23" d="M379.05,220.26c-.42.25-.56.79-.31,1.21.25.42.79.56,1.21.31.42-.25.56-.79.31-1.21s-.79-.56-1.21-.31Z"/>
                </g>
              </g>
              <g>
                <g>
                  <path class="cls-29" d="M378.7,217.08c-.48-.29-.6-.99-.25-1.58.35-.59,1.02-.84,1.51-.55.48.29.6.99.25,1.58s-1.02.84-1.51.55Z"/>
                  <path class="cls-23" d="M379.05,216.88c-.42-.25-.56-.79-.31-1.21.25-.42.79-.56,1.21-.31.42.25.56.79.31,1.21-.25.42-.79.56-1.21.31Z"/>
                </g>
                <g>
                  <path class="cls-29" d="M388.65,220.06c.48.29.6.99.25,1.58-.35.59-1.02.84-1.51.55-.48-.29-.6-.99-.25-1.58.35-.59,1.02-.84,1.51-.55Z"/>
                  <path class="cls-23" d="M388.3,220.26c.42.25.56.79.31,1.21-.25.42-.79.56-1.21.31-.42-.25-.56-.79-.31-1.21.25-.42.79-.56,1.21-.31Z"/>
                </g>
              </g>
            </g>
            <path class="cls-4" d="M222.91,182.62c-17.76,0-32.39,13.51-34.39,30.92.89.2,1.76.46,2.62.73,1.93.59,3.89,1.07,5.83,1.62,7.29,2.07,14.36,4.93,21.18,8.23.08.04.16.08.24.12h38.53c.4-2.14.62-4.35.62-6.61,0-19.33-15.5-35.01-34.63-35.01Z"/>
            <path class="cls-3" d="M253.08,225.43c.36-1.95.55-3.96.55-6.02,0-17.62-13.74-31.9-30.69-31.9s-30.69,14.28-30.69,31.9c0,.42,0,.84.02,1.25l60.81,4.77Z"/>
            <g>
              <circle class="cls-4" cx="223.05" cy="218.57" r="27.39"/>
              <circle class="cls-14" cx="223.05" cy="218.57" r="20.61"/>
              <circle class="cls-29" cx="223.05" cy="218.57" r="17.09"/>
              <circle class="cls-11" cx="223.05" cy="218.57" r="13.35"/>
              <circle class="cls-29" cx="223.05" cy="218.57" r="8.53"/>
              <path class="cls-11" d="M223.99,200.46c-10.76-.55-19.6,8.29-19.05,19.05.47,9.21,7.95,16.7,17.17,17.17,10.76.55,19.6-8.29,19.05-19.05-.47-9.21-7.95-16.7-17.17-17.17ZM233.49,210.22l-6.48,4.83c-.57.42-1.33.44-1.93.08-.03-.02-.06-.04-.1-.05-.61-.34-.98-1-.9-1.7l.88-8.04c.17-1.54,1.72-2.56,3.19-2.07,2.05.68,3.92,1.77,5.52,3.17,1.16,1.02,1.07,2.87-.18,3.79ZM221.14,205.33l.88,7.98c.08.72-.28,1.41-.91,1.77l-.09.05c-.6.34-1.34.28-1.88-.14l-6.41-4.93c-1.22-.94-1.3-2.79-.12-3.79,1.56-1.32,3.37-2.36,5.35-3.01,1.47-.49,3.02.53,3.19,2.07ZM210.74,213.33l7.34,3.42c.63.29,1.02.94.98,1.63,0,.11,0,.21,0,.32.02.69-.38,1.33-1.01,1.61l-7.39,3.31c-1.43.64-3.09-.2-3.41-1.74-.46-2.24-.44-4.65.05-6.88.34-1.53,2.01-2.35,3.43-1.68ZM212.6,226.92l6.48-4.83c.57-.42,1.33-.44,1.93-.08.03.02.06.04.1.05.61.34.98,1,.9,1.7l-.88,8.04c-.17,1.54-1.72,2.56-3.19,2.07-2.05-.68-3.92-1.77-5.52-3.17-1.16-1.02-1.07-2.87.18-3.79ZM224.96,231.81l-.88-7.98c-.08-.72.28-1.41.91-1.77h.02c.63-.37,1.42-.31,2,.13l6.36,4.89c1.22.94,1.3,2.79.12,3.79-1.56,1.32-3.37,2.36-5.35,3.01-1.47.49-3.02-.53-3.19-2.07ZM235.36,223.81l-7.34-3.42c-.63-.29-1.02-.94-.98-1.63,0-.11,0-.21,0-.32-.02-.69.38-1.33,1.01-1.61l7.39-3.31c1.43-.64,3.09.2,3.41,1.74.46,2.24.44,4.65-.05,6.88-.34,1.53-2.01,2.35-3.43,1.68Z"/>
              <path class="cls-23" d="M224.05,199.39c-11.4-.58-20.76,8.78-20.18,20.18.49,9.76,8.42,17.69,18.18,18.18,11.4.58,20.76-8.78,20.18-20.18-.49-9.76-8.42-17.69-18.18-18.18ZM234.11,209.73l-6.87,5.12c-.6.45-1.4.46-2.05.08-.03-.02-.07-.04-.1-.06-.65-.36-1.04-1.06-.96-1.8l.94-8.52c.18-1.64,1.82-2.71,3.38-2.19,2.17.73,4.15,1.88,5.84,3.35,1.23,1.08,1.13,3.04-.19,4.01ZM221.02,204.55l.93,8.45c.08.76-.29,1.5-.96,1.87l-.09.05c-.63.36-1.42.3-1.99-.14l-6.79-5.22c-1.3-1-1.38-2.95-.13-4.01,1.65-1.4,3.57-2.49,5.66-3.19,1.56-.52,3.19.56,3.37,2.19ZM210.01,213.02l7.77,3.63c.67.31,1.08.99,1.04,1.73,0,.11,0,.22,0,.34.02.73-.4,1.41-1.07,1.71l-7.82,3.51c-1.51.68-3.28-.21-3.61-1.84-.48-2.37-.46-4.92.06-7.29.36-1.62,2.13-2.48,3.63-1.78ZM211.99,227.41l6.87-5.12c.6-.45,1.4-.46,2.05-.08.03.02.07.04.1.06.65.36,1.04,1.06.96,1.8l-.94,8.52c-.18,1.64-1.82,2.71-3.38,2.19-2.17-.73-4.15-1.88-5.84-3.35-1.23-1.08-1.13-3.04.19-4.01ZM225.07,232.59l-.93-8.45c-.08-.76.29-1.5.96-1.87h.03c.67-.39,1.5-.33,2.12.14l6.73,5.18c1.3,1,1.38,2.95.13,4.01-1.65,1.4-3.57,2.49-5.66,3.19-1.56.52-3.19-.56-3.37-2.19ZM236.08,224.12l-7.77-3.63c-.67-.31-1.08-.99-1.04-1.73,0-.11,0-.22,0-.34-.02-.73.4-1.41,1.07-1.71l7.82-3.51c1.51-.68,3.28.21,3.61,1.84.48,2.37.46,4.92-.06,7.29-.36,1.62-2.13,2.48-3.63,1.78Z"/>
              <circle class="cls-23" cx="223.05" cy="218.57" r="6.55"/>
              <circle class="cls-11" cx="223.05" cy="218.57" r="3.54"/>
              <circle class="cls-23" cx="223.05" cy="218.57" r="3.1"/>
              <g>
                <g>
                  <ellipse class="cls-29" cx="223.05" cy="213.53" rx="1.24" ry="1.02"/>
                  <path class="cls-23" d="M223.93,213.73c0-.49-.4-.89-.89-.89s-.89.4-.89.89.4.89.89.89.89-.4.89-.89Z"/>
                </g>
                <g>
                  <ellipse class="cls-29" cx="223.05" cy="223.62" rx="1.24" ry="1.02"/>
                  <path class="cls-23" d="M222.16,223.41c0,.49.4.89.89.89s.89-.4.89-.89-.4-.89-.89-.89-.89.4-.89.89Z"/>
                </g>
              </g>
              <g>
                <g>
                  <path class="cls-29" d="M228.02,217.08c.48-.29.6-.99.25-1.58-.35-.59-1.02-.84-1.51-.55-.48.29-.6.99-.25,1.58.35.59,1.02.84,1.51.55Z"/>
                  <path class="cls-23" d="M227.67,216.88c.42-.25.56-.79.31-1.21-.25-.42-.79-.56-1.21-.31-.42.25-.56.79-.31,1.21.25.42.79.56,1.21.31Z"/>
                </g>
                <g>
                  <path class="cls-29" d="M218.07,220.06c-.48.29-.6.99-.25,1.58.35.59,1.02.84,1.51.55.48-.29.6-.99.25-1.58-.35-.59-1.02-.84-1.51-.55Z"/>
                  <path class="cls-23" d="M218.42,220.26c-.42.25-.56.79-.31,1.21.25.42.79.56,1.21.31.42-.25.56-.79.31-1.21s-.79-.56-1.21-.31Z"/>
                </g>
              </g>
              <g>
                <g>
                  <path class="cls-29" d="M218.07,217.08c-.48-.29-.6-.99-.25-1.58.35-.59,1.02-.84,1.51-.55.48.29.6.99.25,1.58-.35.59-1.02.84-1.51.55Z"/>
                  <path class="cls-23" d="M218.42,216.88c-.42-.25-.56-.79-.31-1.21.25-.42.79-.56,1.21-.31.42.25.56.79.31,1.21-.25.42-.79.56-1.21.31Z"/>
                </g>
                <g>
                  <path class="cls-29" d="M228.02,220.06c.48.29.6.99.25,1.58-.35.59-1.02.84-1.51.55-.48-.29-.6-.99-.25-1.58.35-.59,1.02-.84,1.51-.55Z"/>
                  <path class="cls-23" d="M227.67,220.26c.42.25.56.79.31,1.21-.25.42-.79.56-1.21.31-.42-.25-.56-.79-.31-1.21s.79-.56,1.21-.31Z"/>
                </g>
              </g>
            </g>
            <polygon class="cls-4" points="241.04 117.63 229.59 142.26 239.16 143.11 239.35 134.71 246.64 117.13 241.04 117.63"/>
            <polygon class="cls-4" points="281.75 146.45 281.05 116.33 288 116.33 293.64 147.84 281.75 146.45"/>
            <path class="cls-1" d="M346.85,143.2l10.81,10.38c.31.28.09.8-.33.77l-15.04-1.55.25-8.1,4.3-1.5Z"/>
            <g>
              <path class="cls-1" d="M329.31,140.02c-1.54,3.43-.43,11.56.43,12.48.86.91,9.39.86,10.67.58,1.28-.28,4.91-3.8,4.91-5.24s-3.68-5.96-6.68-7.22c-3-1.26-9.18-.92-9.33-.6Z"/>
              <path class="cls-2" d="M338.07,146.42l-9.51-.23c.02.46.05.92.09,1.36l8.55.21c.71.02,1.33-.07,1.49-.2l.85-.73c.21-.18-.5-.38-1.47-.4Z"/>
            </g>
            <path class="cls-19" d="M179.4,163.55l-.68.67c6.21,1.08,12.75,1.28,14.86.86,2.15-.43,10.47-11.11,9.28-11.69-1.96-.96-14.94-1.2-22.81-2.88-.26.65-.25,2.11.08,3.18-.4,4.67-.72,9.87-.72,9.87Z"/>
            <path class="cls-7" d="M179.4,163.55c5.75,1.04,11.91,1.24,13.87.85,1.95-.39,9.5-10.08,8.42-10.61-1.87-.91-14.8-1.11-21.76-2.86-2.28,4.86-.52,12.63-.52,12.63Z"/>
            <g>
              <path class="cls-25" d="M178.76,157.91c.04,1.77.24,3.37.41,4.4,3.41.44,8.29.93,13.5.96.8-.48,3.33-3.97,3.33-3.97,0,0-10.38-.6-17.25-1.39Z"/>
              <path class="cls-25" d="M199.74,154.61s-14.21-1.06-20.42-2.04c-.37,1.35-.53,2.82-.56,4.22,1.89.25,9.55,1.19,17.94,1.24.8-.48,3.05-3.42,3.05-3.42Z"/>
            </g>
            <g class="cls-35">
              <path class="cls-24" d="M180.15,151.93c4.52.49,18.94,2.08,20.37,2.18-1.2,2.77-5.79,8.36-6.57,8.98,2.51-3.06,3.25-5.96,3.25-5.96-8.85,2.64-9.76-2.86-10.02-3.32-5.27-1.2-7.03-1.89-7.03-1.89Z"/>
            </g>
            <g>
              <path class="cls-33" d="M177.27,197.07s3.62.65,4.01.61c.39-.04.76-2.82.63-3.1-.13-.28-4.82-1.45-4.82-1.45-.19,1.15.18,3.95.18,3.95Z"/>
              <g class="cls-50">
                <g class="cls-35">
                  <path class="cls-24" d="M177.5,193.55c.6,0,3.94.9,4.1,1.15.15.25-.51,2.61-.51,2.61.16-.87.1-2.04.09-2.01-1.88.8-2.55.07-1.86-.93-1.19-.73-1.82-.82-1.82-.82Z"/>
                </g>
              </g>
            </g>
            <path class="cls-4" d="M347.89,161.9l33.05,3.18-6.49,3.06c-.57.27-1.2.39-1.83.36-3.5-.2-14.95-1.19-18.95-1.54-.96-.08-1.85-.53-2.49-1.25-1.3-1.46-3.28-3.81-3.28-3.81Z"/>
            <path class="cls-4" d="M403.77,168.67c-.11-.06-10.68-6.19-25.81-2.81l-.09-.38c15.28-3.42,25.99,2.79,26.09,2.85l-.2.34Z"/>
            <g>
              <path class="cls-5" d="M427.49,178.15c-.19-.16-.63-.46-.63-.46,0,0-1.96-6.08-4.08-8.58,0-.12-.04-.26-.08-.4l-21.95-1.44s5.28,4.54,7.56,5.54c2.28,1,7.65,2.07,10.17,5.49,4.36.62,8.12.01,9-.15Z"/>
              <path class="cls-16" d="M422.79,169.11l-20.83-1.46s4.82,4.14,6.9,5.06c2.08.91,7.77,2.04,10.07,5.16,4.56.65,7.94-.17,7.94-.17,0,0-.78-5.4-4.08-8.58Z"/>
              <path class="cls-17" d="M404.69,168.5s3.24,2.74,3.94,3.12c.7.37,6.98,1.51,7.31,1.48.33-.03-1.25-3.73-1.25-3.73l-9.99-.87Z"/>
              <path class="cls-17" d="M416.3,169.66s1.15,3.43,1.39,3.62,2.32.67,2.32.67c0,0-1.19-4.1-1.45-4.21-.26-.11-2.26-.09-2.26-.09Z"/>
              <path class="cls-17" d="M419.51,170.08s1.08,3.65,1.28,4.1c.2.46,2.1,3.04,2.34,3.15.24.11,1.52.07,1.63,0s-.91-4.73-2.82-7.25c-1.82-.13-2.43,0-2.43,0Z"/>
              <g class="cls-35">
                <path class="cls-24" d="M426.45,177.39s-1.41-5.45-3.82-7.86c-7.46-.65-19.18-1.39-19.18-1.39l14.13,2.19c-3.65,1.76,3.6,4.54,5.29,2.43,1.76.72,3.58,4.62,3.58,4.62Z"/>
              </g>
            </g>
            <path class="cls-4" d="M423.61,195.13c.3,0,.6,0,.89,0l.26-6.91-2.34.13.79,6.78c.13,0,.26,0,.39,0Z"/>
            <path class="cls-4" d="M424.23,198.29c-.21.01-.43.02-.64.04l.59,5.1.2-5.15c-.05,0-.1,0-.15,0Z"/>
            <g>
              <g>
                <path class="cls-34" d="M307.11,160.46l-10.85-1.15c-1.05-.11-1.82-1.12-1.71-2.25l.04-.44c.11-1.13,1.05-1.96,2.11-1.85l10.85,1.15c1.05.11,1.82,1.12,1.71,2.25l-.04.44c-.11,1.13-1.05,1.96-2.11,1.85Z"/>
                <g class="cls-38">
                  <polygon class="cls-5" points="293.5 156.63 311.17 158.69 310.71 155.31 293.56 152.52 293.5 156.63"/>
                </g>
              </g>
              <path class="cls-5" d="M306.75,160.04l-10.01-1.06c-.81-.09-1.4-.86-1.32-1.73h0c.08-.87.81-1.51,1.62-1.42l10.01,1.06c.81.09,1.4.86,1.32,1.73h0c-.08.87-.81,1.51-1.62,1.42Z"/>
              <path class="cls-10" d="M306.76,159.73l-10.01-1.06c-.81-.09-1.4-.86-1.32-1.73h0c.08-.87.81-1.51,1.62-1.42l10.01,1.06c.81.09,1.4.86,1.32,1.73h0c-.08.87-.81,1.51-1.62,1.42Z"/>
            </g>
            <g>
              <g>
                <path class="cls-34" d="M245.73,155.32l-10.85-1.15c-1.05-.11-1.82-1.12-1.71-2.25l.04-.44c.11-1.13,1.05-1.96,2.11-1.85l10.85,1.15c1.05.11,1.82,1.12,1.71,2.25l-.04.44c-.11,1.13-1.05,1.96-2.11,1.85Z"/>
                <g class="cls-40">
                  <polygon class="cls-5" points="232.11 151.49 249.79 153.55 249.33 150.17 232.17 147.37 232.11 151.49"/>
                </g>
              </g>
              <path class="cls-5" d="M245.37,154.9l-10.01-1.06c-.81-.09-1.4-.86-1.32-1.73h0c.08-.87.81-1.51,1.62-1.42l10.01,1.06c.81.09,1.4.86,1.32,1.73h0c-.08.87-.81,1.51-1.62,1.42Z"/>
              <path class="cls-10" d="M245.38,154.58l-10.01-1.06c-.81-.09-1.4-.86-1.32-1.73h0c.08-.87.81-1.51,1.62-1.42l10.01,1.06c.81.09,1.4.86,1.32,1.73h0c-.08.87-.81,1.51-1.62,1.42Z"/>
            </g>
          </g>
          <g>
            <path class="cls-18" d="M162.74,210.2c-1.35,0-2.7-.3-3.95-.91-2.84-1.4-4.47-4.07-4.47-7.35v-39.3h2.61v39.3c0,3.07,1.89,4.45,3.01,5,2.14,1.05,4.85.77,6.76-.7,2.64-2.04,3.53-5.94,2.5-10.98-3-14.66-1.98-43.58,5.57-53.5,1.7-2.24,3.68-3.45,5.88-3.6l.18,2.61c-1.41.1-2.75.96-3.98,2.57-3.07,4.03-5.33,12.67-6.2,23.71-.78,9.91-.36,20.52,1.11,27.69,1.67,8.19-1.45,12.02-3.47,13.57-1.61,1.25-3.58,1.89-5.56,1.89Z"/>
            <g>
              <g class="cls-49">
                <ellipse class="cls-5" cx="211.18" cy="146.84" rx="5.14" ry="3.85"/>
                <path class="cls-26" d="M211.18,143.25h0s0,0,0,0,0,0,0,0h0c-2.6,0-4.72,1.56-4.78,3.5h1.37c.35,1.22,1.21,1.62,1.43,1.66-.84-.91-.7-1.79-.7-1.79l2.69-.05,2.69.05s.14.88-.7,1.79c.22-.05,1.08-.45,1.43-1.66h1.37c-.07-1.94-2.18-3.5-4.78-3.5Z"/>
              </g>
              <path class="cls-4" d="M213.77,146.52c0,.16-.05.32-.15.47-.37.53-1.35.91-2.5.91-.21,0-.41-.01-.6-.04-1.17-.14-2.04-.69-2.04-1.34,0-.03,0-.06,0-.09.08-.72,1.23-1.29,2.64-1.29.03,0,.07,0,.1,0,1.42.03,2.55.63,2.55,1.38Z"/>
              <g>
                <g>
                  <path class="cls-43" d="M201.17,144.67l-3.29,3.67c-.11.12-.26.2-.43.2l-9.03.36c-.22,0-.44-.11-.55-.3l-3.87-6.67,1.9-.06,2.95,5.39c.11.2.33.33.56.31l6.51-.29c.23-.01.44-.15.53-.37l1.63-3.82c.13-.31.5-.45.81-.32l2.07.93c.37.17.48.65.2.96Z"/>
                  <g class="cls-48">
                    <path class="cls-21" d="M184.55,142l3.63,6.09c.13.22.37.35.63.34l9.81-.3c-.1.4-1.9.58-1.9.58,0,0-9.4.41-9.47.37-.06-.03-4.05-7.59-4.05-7.59l1.34.5Z"/>
                    <path class="cls-21" d="M198.46,144.07l-1.29,2.67c-.17.34-.52.56-.9.56h-.35s-.75-.69-.75-.69l2.19-3.27,1.09.74Z"/>
                  </g>
                </g>
                <g>
                  <path class="cls-44" d="M211.22,145.15c-2.42-1.71-5.39-3.44-7.66-4.28l-.9,2.45c1.58.58,3.78,1.78,5.83,3.12.71.47,1.4.95,2.04,1.43.19.03.4.04.6.04,1.15,0,2.13-.38,2.5-.91-.68-.58-1.51-1.21-2.4-1.84Z"/>
                  <g class="cls-45">
                    <path class="cls-21" d="M203.65,142.99c4.99,2.67,7.97,4.71,8.2,5.2.23.49-2.16.49-2.16.49l-7.15-5.29,1.1-.4Z"/>
                  </g>
                </g>
                <path class="cls-18" d="M195.92,142.57c-.15-.06-.32-.01-.43.11-.4.45-1.33,1.51-1.39,1.57-.06.07-4.27.27-5.06.32-.1,0-.14.12-.08.19l.52.61c.07.09.18.14.3.14l5.07-.07c.1,0,.2-.04.27-.11l1.8-1.79c.2-.2.13-.54-.14-.64l-.87-.32Z"/>
                <g>
                  <path class="cls-43" d="M205.46,139.99c-.84-1.15-3.95-2.79-5.15-3.48-2.63-1.51-6.25-3.34-7.46-3.59-.59-.12-1.18.19-1.41.75l-.46,1.11c-.42,1.01-1.38,1.68-2.47,1.74l-8.29.44c-.64.03-1.12.58-1.09,1.21l.17,3.27c.03.64.58,1.12,1.21,1.09l8.72-.46c.93-.05,2.88.27,3.76.57,2.58.9,9.33,3.33,9.33,3.33.65.23,1.37-.08,1.64-.71.54-1.28,1.27-3.08,1.65-4.01.17-.42.11-.89-.16-1.25Z"/>
                  <g class="cls-51">
                    <path class="cls-21" d="M193.36,132.87c-1.1.09-1.08.47-1.5,1.55-.42,1.08-1.15,1.99-3.35,2.11.28-2.86,3.87-4.57,4.01-4.54s.84.89.84.89Z"/>
                    <path class="cls-21" d="M202.88,145.28c-1.09.03-10.66-4.03-11.83-4.19-1.17-.16-10.75.73-10.85.26-.09-.47-.42-4.15.03-4.39l-1.08-1.38s-2.27,6.91-2.3,7.15c-.02.23,27.25,4.17,27.32,4.17s.19-2.09.19-2.09c0,0-.38.44-1.48.47Z"/>
                  </g>
                </g>
              </g>
            </g>
          </g>
        </g>
      </g>
    </g>
  </g>
</svg>