<?xml version="1.0" encoding="UTF-8"?>
<svg id="Layer_2" data-name="Layer 2" xmlns="http://www.w3.org/2000/svg" viewBox="0 0 404.8 392.88">
  <defs>
    <style>
      .cls-1 {
        fill: #a01f24;
        stroke: #a01f24;
      }

      .cls-1, .cls-2, .cls-3 {
        stroke-miterlimit: 10;
        stroke-width: 2px;
      }

      .cls-2, .cls-3 {
        stroke: #faf4d3;
      }

      .cls-2, .cls-4 {
        fill: #faf4d3;
      }

      .cls-3 {
        fill: none;
      }

      .cls-4 {
        stroke-width: 0px;
      }
    </style>
  </defs>
  <g id="Layer_1-2" data-name="Layer 1">
    <g>
      <g>
        <path class="cls-2" d="M331.37,95.79c-.54-4.99,2.88-9.39,6.05-13.57,4.95-6.54,9.94-12.11,14.25-16.54,4.49,4.8,9.41,10.27,14.78,16.54,2.51,2.93,5.96,7.08,6.11,12.61.05,1.9-.29,3.22-.54,3.96-1.65,4.86-6.35,6.37-6.77,6.5-3.75,1.14-6.89-.52-8.47-1.36-2.36-1.25-3.94-2.95-4.84-4.07-.89,1.13-2.46,2.83-4.84,4.07-3.63,1.9-6.98,1.6-8.43,1.36-.03,0-.04,0-.07-.02-1.08-.42-4.19-1.8-6.01-5.42-.12-.24-.98-1.98-1.21-4.07Z"/>
        <line class="cls-2" x1="342.87" y1="114.63" x2="360.52" y2="114.63"/>
      </g>
      <g>
        <path class="cls-4" d="M33.1,97.75c-.2,0-.36-.06-.5-.2-.13-.13-.19-.29-.19-.49v-15.75c0-.2.06-.37.19-.5.13-.13.29-.19.5-.19h5.73c1.72,0,3.14.27,4.26.83,1.12.55,1.96,1.37,2.5,2.45s.83,2.43.83,4.05v9.12c0,.2-.06.37-.18.49-.12.13-.29.2-.51.2h-12.63ZM34.99,95.35h8.76v-7.26c0-1.6-.4-2.84-1.2-3.73-.8-.89-2.09-1.34-3.87-1.34h-3.69v12.33Z"/>
        <path class="cls-4" d="M51.37,90.79c-.2,0-.37-.07-.5-.19-.13-.13-.2-.29-.2-.5v-8.79c0-.2.07-.37.2-.5.13-.13.29-.19.5-.19h1.44c.2,0,.36.07.48.19.12.13.18.3.18.5v8.79c0,.2-.06.37-.18.5-.12.13-.28.19-.48.19h-1.44Z"/>
        <path class="cls-4" d="M58.39,90.79c-.2,0-.37-.07-.49-.19s-.2-.29-.2-.5v-8.79c0-.2.06-.37.2-.5s.29-.19.49-.19h1.44c.2,0,.36.07.48.19.12.13.18.3.18.5v8.79c0,.2-.06.37-.18.5-.12.13-.28.19-.48.19h-1.44Z"/>
        <path class="cls-4" d="M64.9,83.02c-.2,0-.37-.06-.5-.19-.13-.13-.2-.29-.2-.5v-1.02c0-.2.06-.37.2-.5.13-.13.29-.19.5-.19h7.26c.22,0,.39.07.51.19.12.13.18.3.18.5v1.02c0,.2-.06.37-.18.5s-.29.19-.51.19h-7.26ZM67.42,97.75c-.44,0-.66-.22-.66-.66v-10.71c0-1.18.14-2.1.42-2.76.28-.66.62-.99,1.02-.99h2.97c-.5,0-.91.38-1.21,1.14-.31.76-.46,1.7-.46,2.82v10.5c0,.2-.07.36-.21.48-.14.12-.31.18-.51.18h-1.35Z"/>
        <path class="cls-4" d="M77.47,97.75c-.2,0-.37-.06-.5-.2-.13-.13-.19-.29-.19-.49v-1.08c0-.2.06-.37.19-.5.13-.13.29-.19.5-.19h4.29c1.78,0,3.06-.44,3.84-1.33.78-.89,1.21-2.13,1.29-3.73.02-.44.03-.79.03-1.05s-.01-.6-.03-1.02c-.06-1.6-.48-2.85-1.27-3.74s-2.08-1.33-3.86-1.33h-4.29c-.2,0-.37-.06-.5-.2-.13-.13-.19-.29-.19-.49v-1.08c0-.2.06-.37.19-.5.13-.13.29-.19.5-.19h4.44c1.76,0,3.19.3,4.29.88,1.1.59,1.92,1.44,2.47,2.55.55,1.11.84,2.45.88,4.01.02.4.03.77.03,1.11s0,.72-.03,1.14c-.04,1.54-.33,2.87-.88,3.99s-1.38,1.98-2.47,2.57c-1.1.59-2.53.88-4.29.88h-4.44Z"/>
        <path class="cls-4" d="M102.76,97.75c-.2,0-.37-.06-.5-.2-.13-.13-.19-.29-.19-.49v-8.97c0-1.6-.4-2.84-1.2-3.73-.8-.89-2.09-1.34-3.87-1.34h-3.93c-.2,0-.37-.06-.5-.19-.13-.13-.2-.29-.2-.5v-1.02c0-.2.06-.37.2-.5.13-.13.29-.19.5-.19h4.08c1.72,0,3.14.27,4.27.81,1.13.54,1.97,1.36,2.54,2.45.56,1.09.84,2.45.84,4.06v9.12c0,.2-.06.37-.2.49-.13.13-.29.2-.49.2h-1.35Z"/>
        <path class="cls-4" d="M109.15,97.75c-.18,0-.33-.07-.45-.21s-.17-.31-.15-.51l2.55-14.7c.04-.2.13-.36.27-.46.14-.11.31-.14.51-.11l1.2.06c.2.02.36.1.48.25.12.15.16.33.12.52l-2.4,14.43c-.02.2-.11.37-.26.51-.15.14-.33.21-.52.21h-1.35ZM116.74,83.08h-7.29c-.22,0-.39-.06-.51-.2-.12-.13-.18-.29-.18-.49v-1.08c0-.2.06-.37.18-.5.12-.13.29-.19.51-.19h7.62c1.24,0,2.34.29,3.31.87s1.73,1.42,2.28,2.5c.55,1.09.83,2.41.83,3.94v9.12c0,.2-.06.37-.18.49-.12.13-.29.2-.51.2h-7.74c-.2,0-.37-.06-.49-.2-.13-.13-.2-.29-.2-.49v-1.02c0-.2.06-.36.2-.5.13-.13.29-.2.49-.2h5.7v-7.23c0-1.02-.17-1.91-.52-2.67-.35-.76-.83-1.34-1.44-1.75s-1.29-.62-2.05-.62Z"/>
        <path class="cls-4" d="M140.02,97.75c-.2,0-.37-.06-.5-.2-.13-.13-.2-.29-.2-.49v-8.97c0-1.6-.4-2.84-1.2-3.73-.8-.89-2.09-1.34-3.87-1.34h-5.64c-.2,0-.37-.06-.5-.19s-.2-.29-.2-.5v-1.02c0-.2.07-.37.2-.5.13-.13.29-.19.5-.19h5.79c2.6,0,4.52.63,5.77,1.89s1.88,3.09,1.88,5.49v9.06c0,.2-.06.37-.19.49-.13.13-.3.2-.5.2h-1.35ZM128.62,97.75c-.2,0-.37-.06-.5-.2-.13-.13-.2-.29-.2-.49v-10.02c0-.2.07-.36.2-.5.13-.13.29-.2.5-.2h1.38c.2,0,.36.07.48.2.12.13.18.29.18.5v10.02c0,.2-.06.37-.18.49-.12.13-.28.2-.48.2h-1.38Z"/>
        <path class="cls-4" d="M154.54,97.75c-.2,0-.37-.06-.5-.2-.13-.13-.2-.29-.2-.49v-15.75c0-.2.07-.37.2-.5.13-.13.29-.19.5-.19h5.73c1.72,0,3.14.27,4.26.83,1.12.55,1.95,1.37,2.5,2.45.55,1.08.83,2.43.83,4.05v9.12c0,.2-.06.37-.18.49-.12.13-.29.2-.51.2h-12.63ZM156.43,95.35h8.76v-7.26c0-1.6-.4-2.84-1.2-3.73-.8-.89-2.09-1.34-3.87-1.34h-3.69v12.33Z"/>
        <path class="cls-4" d="M172.81,90.79c-.2,0-.37-.07-.49-.19s-.2-.29-.2-.5v-8.79c0-.2.06-.37.2-.5s.29-.19.49-.19h1.44c.2,0,.36.07.48.19.12.13.18.3.18.5v8.79c0,.2-.06.37-.18.5-.12.13-.28.19-.48.19h-1.44Z"/>
        <path class="cls-4" d="M185.8,98.02c-.18.06-.34.04-.5-.07-.15-.11-.22-.27-.22-.46v-1.38c0-.18.05-.34.17-.48.11-.14.27-.25.5-.33l1.14-.45c.8-.34,1.53-.75,2.17-1.23.65-.48,1.16-1.14,1.53-1.98.37-.84.55-1.94.55-3.3s-.16-2.33-.48-3.11c-.32-.77-.85-1.32-1.58-1.65-.73-.33-1.71-.5-2.96-.5h-6.09c-.2,0-.37-.06-.5-.2-.13-.13-.2-.29-.2-.49v-1.08c0-.2.07-.37.2-.5.13-.13.29-.19.5-.19h6.48c1.84,0,3.29.26,4.37.78,1.07.52,1.84,1.36,2.31,2.5.47,1.15.7,2.66.7,4.52,0,1.4-.19,2.61-.57,3.63s-.9,1.89-1.54,2.61c-.65.72-1.38,1.31-2.19,1.79-.81.47-1.66.85-2.54,1.15l-1.26.42ZM180.04,103.48c-.2,0-.37-.07-.5-.2-.13-.13-.2-.29-.2-.5v-15.75c0-.2.07-.36.2-.5.13-.13.29-.2.5-.2h1.32c.22,0,.39.07.51.2.12.13.18.29.18.5v15.75c0,.2-.06.36-.18.5-.12.13-.29.2-.51.2h-1.32Z"/>
        <path class="cls-4" d="M201.88,83.08l-3.57-.03c-.2,0-.37-.06-.49-.18-.13-.12-.2-.28-.2-.48v-5.25c0-.2.06-.37.2-.5s.29-.19.49-.19h1.26c.22,0,.39.07.51.19.12.13.18.3.18.5v3.48h1.68l-.06,2.46ZM201.82,98.02c-.18.06-.35.04-.51-.07-.16-.11-.24-.27-.24-.46v-1.38c0-.18.05-.34.17-.48.11-.14.27-.25.49-.33l1.17-.45c.78-.34,1.5-.75,2.15-1.23.65-.48,1.16-1.14,1.53-1.98.37-.84.55-1.94.55-3.3s-.16-2.33-.46-3.11c-.31-.77-.83-1.32-1.56-1.65-.73-.33-1.72-.5-2.98-.5h-.9c-.2,0-.37-.06-.5-.2-.13-.13-.19-.29-.19-.49v-1.08c0-.2.06-.37.19-.5.13-.13.29-.19.5-.19h1.32c1.82,0,3.27.26,4.35.78s1.86,1.36,2.33,2.5c.47,1.15.71,2.66.71,4.52,0,1.4-.19,2.61-.57,3.63s-.9,1.89-1.54,2.61c-.65.72-1.38,1.31-2.21,1.79-.82.47-1.67.85-2.55,1.15l-1.23.42Z"/>
        <path class="cls-4" d="M214.54,97.75c-.2,0-.37-.06-.5-.2-.13-.13-.2-.29-.2-.49v-15.75c0-.2.07-.37.2-.5.13-.13.29-.19.5-.19h5.85c1.72,0,3.15.27,4.28.83,1.13.55,1.97,1.37,2.54,2.46.56,1.09.84,2.46.84,4.1v9.06c0,.2-.07.37-.2.49-.13.13-.29.2-.5.2h-1.35c-.22,0-.39-.06-.51-.2-.12-.13-.18-.29-.18-.49v-8.97c0-1.6-.4-2.84-1.2-3.73-.8-.89-2.09-1.34-3.87-1.34h-3.66v14.04c0,.2-.06.37-.18.49-.12.13-.28.2-.48.2h-1.38Z"/>
        <path class="cls-4" d="M244.57,97.75c-.2,0-.37-.06-.5-.2-.13-.13-.2-.29-.2-.49v-8.97c0-1.6-.4-2.84-1.2-3.73-.8-.89-2.09-1.34-3.87-1.34h-5.64c-.2,0-.37-.06-.5-.19s-.2-.29-.2-.5v-1.02c0-.2.07-.37.2-.5.13-.13.29-.19.5-.19h5.79c2.6,0,4.52.63,5.78,1.89,1.25,1.26,1.88,3.09,1.88,5.49v9.06c0,.2-.07.37-.2.49-.13.13-.29.2-.5.2h-1.35ZM233.17,97.75c-.2,0-.37-.06-.5-.2-.13-.13-.2-.29-.2-.49v-10.02c0-.2.07-.36.2-.5.13-.13.29-.2.5-.2h1.38c.2,0,.36.07.48.2.12.13.18.29.18.5v10.02c0,.2-.06.37-.18.49-.12.13-.28.2-.48.2h-1.38Z"/>
        <path class="cls-4" d="M258.88,90.79c-.2,0-.37-.07-.5-.19-.13-.13-.19-.29-.19-.5v-8.79c0-.2.06-.37.19-.5.13-.13.29-.19.5-.19h1.44c.2,0,.36.07.48.19.12.13.18.3.18.5v8.79c0,.2-.06.37-.18.5-.12.13-.28.19-.48.19h-1.44Z"/>
        <path class="cls-4" d="M266.11,97.75c-.2,0-.37-.06-.5-.2-.13-.13-.2-.29-.2-.49v-15.75c0-.2.06-.37.2-.5.13-.13.29-.19.5-.19h1.41c.22,0,.39.07.51.19.12.13.18.3.18.5v15.75c0,.2-.06.37-.18.49-.12.13-.29.2-.51.2h-1.41Z"/>
        <path class="cls-4" d="M284.92,97.75c-.2,0-.37-.06-.5-.2-.13-.13-.2-.29-.2-.49v-8.97c0-1.6-.4-2.84-1.2-3.73-.8-.89-2.09-1.34-3.87-1.34h-5.64c-.2,0-.37-.06-.5-.19-.13-.13-.2-.29-.2-.5v-1.02c0-.2.06-.37.2-.5.13-.13.29-.19.5-.19h5.79c2.6,0,4.53.63,5.78,1.89s1.88,3.09,1.88,5.49v9.06c0,.2-.07.37-.2.49-.13.13-.29.2-.49.2h-1.35ZM273.52,97.75c-.2,0-.37-.06-.5-.2-.13-.13-.2-.29-.2-.49v-10.02c0-.2.06-.36.2-.5s.29-.2.5-.2h1.38c.2,0,.36.07.48.2.12.13.18.29.18.5v10.02c0,.2-.06.37-.18.49-.12.13-.28.2-.48.2h-1.38Z"/>
        <path class="cls-4" d="M291.88,90.79c-.2,0-.37-.07-.5-.19-.13-.13-.19-.29-.19-.5v-8.79c0-.2.06-.37.19-.5.13-.13.29-.19.5-.19h1.44c.2,0,.36.07.48.19.12.13.18.3.18.5v8.79c0,.2-.06.37-.18.5-.12.13-.28.19-.48.19h-1.44Z"/>
        <path class="cls-4" d="M298.39,83.02c-.2,0-.37-.06-.49-.19-.13-.13-.2-.29-.2-.5v-1.02c0-.2.06-.37.2-.5s.29-.19.49-.19h7.26c.22,0,.39.07.51.19.12.13.18.3.18.5v1.02c0,.2-.06.37-.18.5s-.29.19-.51.19h-7.26ZM300.91,97.75c-.44,0-.66-.22-.66-.66v-10.71c0-1.18.14-2.1.42-2.76.28-.66.62-.99,1.02-.99h2.97c-.5,0-.91.38-1.21,1.14-.31.76-.47,1.7-.47,2.82v10.5c0,.2-.07.36-.21.48-.14.12-.31.18-.51.18h-1.35Z"/>
      </g>
      <path class="cls-1" d="M372.48,305.44c.69,5.81-3.64,10.93-7.64,15.79-6.26,7.61-12.56,14.09-18,19.25-5.68-5.59-11.89-11.95-18.68-19.25-3.17-3.41-7.53-8.24-7.72-14.67-.06-2.21.37-3.75.69-4.61,2.09-5.65,8.03-7.42,8.56-7.57,4.74-1.33,8.7.61,10.7,1.58,2.99,1.46,4.98,3.43,6.11,4.74,1.12-1.32,3.11-3.3,6.11-4.74,4.4-2.12,8.46-1.88,10.41-1.62.2.03.37.07.56.14,1.53.57,5.18,2.22,7.37,6.22.15.28,1.24,2.3,1.53,4.74Z"/>
      <g>
        <path class="cls-4" d="M64.72,325.23c-.2,0-.37-.06-.5-.19s-.2-.29-.2-.5v-8.97c0-1.6-.4-2.84-1.2-3.74-.8-.89-2.09-1.33-3.87-1.33h-5.64c-.2,0-.37-.07-.5-.2s-.2-.29-.2-.5v-1.02c0-.2.07-.36.2-.49.13-.13.29-.2.5-.2h5.79c2.6,0,4.52.63,5.77,1.89,1.25,1.26,1.88,3.09,1.88,5.49v9.06c0,.2-.06.37-.19.5-.13.13-.3.19-.5.19h-1.35ZM53.32,325.23c-.2,0-.37-.06-.5-.19-.13-.13-.2-.29-.2-.5v-10.02c0-.2.07-.37.2-.5s.29-.19.5-.19h1.38c.2,0,.36.06.48.19.12.13.18.3.18.5v10.02c0,.2-.06.37-.18.5-.12.13-.28.19-.48.19h-1.38Z"/>
        <path class="cls-4" d="M71.68,318.27c-.2,0-.37-.06-.5-.2-.13-.13-.2-.29-.2-.49v-8.79c0-.2.06-.36.2-.49.13-.13.29-.2.5-.2h1.44c.2,0,.36.06.48.2.12.13.18.29.18.49v8.79c0,.2-.06.37-.18.49-.12.13-.28.2-.48.2h-1.44Z"/>
        <path class="cls-4" d="M78.07,326.88c-.2.08-.39.07-.57-.04-.18-.11-.27-.26-.27-.46v-1.02c0-.18.04-.35.12-.51s.21-.27.39-.33l6.33-2.07c1.14-.38,2.02-.87,2.64-1.47.62-.6,1.05-1.3,1.31-2.1.25-.8.38-1.67.38-2.61v-7.47c0-.2.06-.36.19-.49.13-.13.29-.2.5-.2h1.35c.22,0,.39.06.51.2.12.13.18.29.18.49v8.31c0,1.16-.26,2.25-.78,3.29-.52,1.03-1.26,1.93-2.23,2.7-.97.77-2.12,1.36-3.44,1.76l-6.6,2.04ZM82,324.51l-4.23-15.21c-.04-.16-.08-.28-.11-.36s-.04-.16-.04-.24c0-.16.06-.3.18-.42.12-.12.26-.18.42-.18h1.47c.38,0,.61.15.69.45l4.17,15.27-2.55.69Z"/>
        <path class="cls-4" d="M95.53,325.23c-.2,0-.37-.06-.5-.19-.13-.13-.2-.29-.2-.5v-1.02c0-.2.07-.37.2-.5s.29-.19.5-.19h8.61v-7.26c0-1.6-.4-2.84-1.2-3.74-.8-.89-2.09-1.33-3.87-1.33h-3.24c-.2,0-.37-.07-.5-.2s-.19-.29-.19-.5v-1.02c0-.2.06-.36.19-.49.13-.13.29-.2.5-.2h3.39c1.72,0,3.15.28,4.29.84,1.14.56,2,1.38,2.57,2.47.57,1.09.86,2.45.86,4.07v7.35h1.11c.2,0,.37.06.5.19s.2.3.2.5v1.02c0,.2-.07.37-.2.5-.13.13-.29.19-.5.19h-12.51Z"/>
        <path class="cls-4" d="M124,325.23c-.2,0-.37-.06-.5-.19-.13-.13-.19-.29-.19-.5v-8.97c0-1.6-.4-2.84-1.2-3.74-.8-.89-2.09-1.33-3.87-1.33h-5.64c-.2,0-.37-.07-.5-.2-.13-.13-.2-.29-.2-.5v-1.02c0-.2.06-.36.2-.49.13-.13.29-.2.5-.2h5.79c2.6,0,4.52.63,5.77,1.89,1.25,1.26,1.88,3.09,1.88,5.49v9.06c0,.2-.07.37-.19.5-.13.13-.3.19-.5.19h-1.35ZM112.6,325.23c-.2,0-.37-.06-.5-.19s-.2-.29-.2-.5v-10.02c0-.2.06-.37.2-.5.13-.13.29-.19.5-.19h1.38c.2,0,.36.06.48.19s.18.3.18.5v10.02c0,.2-.06.37-.18.5-.12.13-.28.19-.48.19h-1.38Z"/>
        <path class="cls-4" d="M141.73,309.03h.75c.3,0,.52.08.67.22.15.15.21.34.2.56-.16.84-.3,1.6-.41,2.28-.11.68-.19,1.36-.22,2.02-.04.67-.06,1.42-.06,2.26l.09,8.16c0,.2-.06.37-.19.5-.13.13-.3.19-.5.19l-4.26-.06c-.2,0-.37-.06-.5-.18-.13-.12-.2-.29-.2-.51v-.96c0-.2.06-.37.2-.5.13-.13.29-.19.5-.19l2.31.03v-6.36c0-.82,0-1.58.03-2.27.02-.69.08-1.38.18-2.08.1-.7.26-1.49.48-2.37.06-.22.15-.4.28-.54.13-.14.35-.21.65-.21ZM139.03,310.5c-.2,0-.37-.07-.5-.2s-.2-.29-.2-.5v-1.02c0-.2.07-.36.2-.49.13-.13.29-.2.5-.2h6.51c1.72,0,3.15.28,4.28.82,1.13.55,1.97,1.37,2.54,2.46.56,1.09.84,2.44.84,4.04v9.12c0,.2-.07.37-.2.5-.13.13-.29.19-.5.19h-1.35c-.22,0-.39-.06-.51-.19-.12-.13-.18-.29-.18-.5v-8.97c0-1.6-.4-2.84-1.2-3.74-.8-.89-2.09-1.33-3.87-1.33h-6.36Z"/>
        <path class="cls-4" d="M166.66,325.23c-.2,0-.37-.06-.5-.19-.13-.13-.19-.29-.19-.5v-8.97c0-1.6-.4-2.84-1.2-3.74-.8-.89-2.09-1.33-3.87-1.33h-3.93c-.2,0-.37-.07-.5-.2-.13-.13-.19-.29-.19-.5v-1.02c0-.2.06-.36.19-.49s.29-.2.5-.2h4.08c1.72,0,3.15.27,4.28.81,1.13.54,1.97,1.35,2.54,2.44.56,1.09.84,2.44.84,4.07v9.12c0,.2-.07.37-.2.5-.13.13-.29.19-.5.19h-1.35Z"/>
        <path class="cls-4" d="M173.62,318.27c-.2,0-.37-.06-.5-.2-.13-.13-.2-.29-.2-.49v-8.79c0-.2.07-.36.2-.49.13-.13.29-.2.5-.2h1.44c.2,0,.36.06.48.2.12.13.18.29.18.49v8.79c0,.2-.06.37-.18.49-.12.13-.28.2-.48.2h-1.44Z"/>
        <path class="cls-4" d="M183.94,309.03h.75c.3,0,.52.08.67.22.15.15.21.34.2.56-.16.84-.3,1.6-.41,2.28-.11.68-.19,1.36-.23,2.02-.04.67-.06,1.42-.06,2.26l.09,8.16c0,.2-.07.37-.19.5-.13.13-.3.19-.5.19l-4.26-.06c-.2,0-.37-.06-.49-.18-.13-.12-.2-.29-.2-.51v-.96c0-.2.06-.37.2-.5.13-.13.29-.19.49-.19l2.31.03v-6.36c0-.82,0-1.58.03-2.27.02-.69.08-1.38.18-2.08.1-.7.26-1.49.48-2.37.06-.22.16-.4.29-.54.13-.14.35-.21.65-.21ZM181.24,310.5c-.2,0-.37-.07-.5-.2s-.2-.29-.2-.5v-1.02c0-.2.07-.36.2-.49.13-.13.29-.2.5-.2h6.51c1.72,0,3.14.28,4.28.82,1.13.55,1.97,1.37,2.54,2.46.56,1.09.84,2.44.84,4.04v9.12c0,.2-.07.37-.2.5-.13.13-.29.19-.5.19h-1.35c-.22,0-.39-.06-.51-.19-.12-.13-.18-.29-.18-.5v-8.97c0-1.6-.4-2.84-1.2-3.74-.8-.89-2.09-1.33-3.87-1.33h-6.36Z"/>
        <path class="cls-4" d="M202.27,310.56v2.34c.02.72.11,1.32.29,1.8.17.48.47.78.92.9l1.11.3c.16.04.29.15.38.32s.13.38.13.62v.75c0,.22-.11.38-.33.48-.22.1-.46.13-.72.09l-1.17-.24c-.64-.16-1.19-.45-1.65-.86-.46-.41-.81-.97-1.04-1.68-.23-.71-.35-1.57-.35-2.57v-4.02c0-.2.06-.36.18-.49.12-.13.29-.2.51-.2h5.55c1.5,0,2.75.29,3.75.88s1.76,1.44,2.28,2.55c.52,1.11.8,2.44.84,4,.02.3.03.68.03,1.12s-.01.83-.03,1.12c-.04,1.54-.32,2.87-.84,3.99-.52,1.12-1.28,1.98-2.28,2.57s-2.25.88-3.75.88h-5.19c-.2,0-.37-.06-.5-.19s-.2-.29-.2-.5v-1.08c0-.2.06-.36.2-.49.13-.13.29-.2.5-.2h5.04c1.38,0,2.44-.45,3.19-1.33s1.17-2.13,1.25-3.74c.02-.3.03-.64.03-1.04s-.01-.73-.03-1.04c-.04-1.6-.45-2.84-1.21-3.73-.77-.89-1.84-1.33-3.22-1.33h-3.66Z"/>
        <path class="cls-4" d="M217.6,325.23c-.2,0-.37-.06-.5-.19s-.2-.29-.2-.5v-15.75c0-.2.06-.36.2-.49.13-.13.29-.2.5-.2h1.41c.22,0,.39.06.51.2.12.13.18.29.18.49v15.75c0,.2-.06.37-.18.5-.12.13-.29.19-.51.19h-1.41Z"/>
        <path class="cls-4" d="M240.19,322.98c1.3.02,2.39-.22,3.29-.72.89-.5,1.57-1.21,2.04-2.15.47-.93.71-2,.71-3.19v-8.13c0-.2.06-.36.19-.49.13-.13.29-.2.5-.2h1.26c.2,0,.36.06.48.2.12.13.18.29.18.49v8.34c0,1.28-.2,2.44-.6,3.47-.4,1.03-.97,1.91-1.71,2.64-.74.73-1.62,1.29-2.62,1.67-1.01.38-2.13.55-3.35.51h-2.25c-1.3,0-2.47-.3-3.51-.9s-1.86-1.44-2.46-2.52c-.6-1.08-.9-2.33-.9-3.75v-9.45c0-.2.07-.36.2-.49.13-.13.29-.2.5-.2h1.26c.2,0,.37.06.5.2.13.13.2.29.2.49l.09,8.85c0,1.72.48,3.04,1.44,3.96s2.18,1.38,3.66,1.38h.93ZM233.53,319.47l-.06-2.19c1.48-.02,2.61-.24,3.39-.67.78-.43,1.32-1,1.63-1.73.31-.72.46-1.51.46-2.37v-3.72c0-.2.06-.36.18-.49.12-.13.29-.2.51-.2h1.23c.2,0,.37.06.5.2.13.13.2.29.2.49v3.84c0,1.3-.29,2.47-.87,3.51s-1.47,1.86-2.66,2.46-2.7.89-4.51.87Z"/>
        <path class="cls-4" d="M253.72,325.23c-.2,0-.37-.06-.5-.19s-.2-.29-.2-.5v-15.75c0-.2.06-.36.2-.49.13-.13.29-.2.5-.2h1.41c.22,0,.39.06.51.2.12.13.18.29.18.49v15.75c0,.2-.06.37-.18.5-.12.13-.29.19-.51.19h-1.41Z"/>
        <path class="cls-4" d="M260.35,325.23c-.18,0-.33-.07-.45-.21-.12-.14-.17-.31-.15-.51l2.55-14.7c.04-.2.13-.35.27-.46.14-.11.31-.15.51-.11l1.2.06c.2.02.36.11.48.26.12.15.16.33.12.53l-2.4,14.43c-.02.2-.11.37-.25.51-.15.14-.33.21-.53.21h-1.35ZM267.94,310.56h-7.29c-.22,0-.39-.07-.51-.2-.12-.13-.18-.29-.18-.5v-1.08c0-.2.06-.36.18-.49.12-.13.29-.2.51-.2h7.62c1.24,0,2.34.29,3.31.87s1.73,1.42,2.28,2.5c.55,1.09.83,2.41.83,3.95v9.12c0,.2-.06.37-.18.5-.12.13-.29.19-.51.19h-7.74c-.2,0-.36-.06-.49-.19s-.2-.29-.2-.5v-1.02c0-.2.06-.37.2-.5.13-.13.29-.19.49-.19h5.7v-7.23c0-1.02-.17-1.91-.52-2.67-.35-.76-.83-1.35-1.44-1.76-.61-.41-1.29-.61-2.05-.61Z"/>
        <path class="cls-4" d="M279.61,318.27c-.2,0-.37-.06-.5-.2-.13-.13-.2-.29-.2-.49v-8.79c0-.2.06-.36.2-.49.13-.13.29-.2.5-.2h1.44c.2,0,.36.06.48.2.12.13.18.29.18.49v8.79c0,.2-.06.37-.18.49-.12.13-.28.2-.48.2h-1.44Z"/>
        <path class="cls-4" d="M286.06,325.23c-.18,0-.33-.07-.45-.21-.12-.14-.17-.31-.15-.51l2.55-14.7c.04-.2.13-.35.27-.46.14-.11.31-.15.51-.11l1.2.06c.2.02.36.11.48.26.12.15.16.33.12.53l-2.4,14.43c-.02.2-.11.37-.25.51-.15.14-.33.21-.53.21h-1.35ZM293.65,310.56h-7.29c-.22,0-.39-.07-.51-.2s-.18-.29-.18-.5v-1.08c0-.2.06-.36.18-.49.12-.13.29-.2.51-.2h7.62c1.24,0,2.34.29,3.31.87s1.73,1.42,2.28,2.5.83,2.41.83,3.95v9.12c0,.2-.06.37-.18.5-.12.13-.29.19-.51.19h-7.74c-.2,0-.37-.06-.5-.19s-.2-.29-.2-.5v-1.02c0-.2.06-.37.2-.5.13-.13.29-.19.5-.19h5.7v-7.23c0-1.02-.17-1.91-.52-2.67-.35-.76-.83-1.35-1.44-1.76-.61-.41-1.29-.61-2.05-.61Z"/>
      </g>
      <g>
        <path class="cls-4" d="M100.48,157.38h.75c.3,0,.53.08.67.23.15.15.21.33.2.55-.16.84-.29,1.6-.41,2.28-.11.68-.18,1.36-.22,2.03s-.06,1.43-.06,2.27l.09,8.16c0,.2-.07.37-.2.49-.13.13-.29.2-.5.2l-4.26-.06c-.2,0-.37-.06-.5-.18-.13-.12-.2-.29-.2-.51v-.96c0-.2.06-.36.2-.5s.29-.2.5-.2l2.31.03v-6.36c0-.82,0-1.57.03-2.26.02-.69.08-1.38.18-2.08.1-.7.26-1.49.48-2.37.06-.22.15-.4.28-.54.13-.14.35-.21.65-.21ZM97.78,158.85c-.2,0-.37-.06-.5-.19s-.19-.29-.19-.5v-1.02c0-.2.06-.37.19-.5.13-.13.29-.19.5-.19h6.51c1.72,0,3.15.27,4.28.83,1.13.55,1.97,1.37,2.54,2.46.56,1.09.84,2.44.84,4.04v9.12c0,.2-.07.37-.2.49-.13.13-.29.2-.49.2h-1.35c-.22,0-.39-.06-.51-.2-.12-.13-.18-.29-.18-.49v-8.97c0-1.6-.4-2.84-1.2-3.73-.8-.89-2.09-1.34-3.87-1.34h-6.36Z"/>
        <path class="cls-4" d="M117.07,173.58c-.2,0-.37-.06-.5-.2-.13-.13-.19-.29-.19-.49v-15.75c0-.2.06-.37.19-.5.13-.13.29-.19.5-.19h1.41c.22,0,.39.07.51.19.12.13.18.3.18.5v15.75c0,.2-.06.37-.18.49-.12.13-.29.2-.51.2h-1.41Z"/>
        <path class="cls-4" d="M124.27,166.62c-.2,0-.37-.07-.5-.19-.13-.13-.19-.29-.19-.5v-8.79c0-.2.06-.37.19-.5.13-.13.29-.19.5-.19h1.44c.2,0,.36.07.48.19.12.13.18.3.18.5v8.79c0,.2-.06.37-.18.5-.12.13-.28.19-.48.19h-1.44Z"/>
        <path class="cls-4" d="M130.66,175.23c-.2.08-.39.06-.57-.04-.18-.11-.27-.27-.27-.46v-1.02c0-.18.04-.35.12-.51.08-.16.21-.27.39-.33l6.33-2.07c1.14-.38,2.02-.87,2.64-1.47.62-.6,1.05-1.3,1.3-2.1.25-.8.38-1.67.38-2.61v-7.47c0-.2.06-.37.2-.5.13-.13.29-.19.5-.19h1.35c.22,0,.39.07.51.19.12.13.18.3.18.5v8.31c0,1.16-.26,2.25-.78,3.28-.52,1.03-1.27,1.93-2.24,2.7s-2.12,1.35-3.43,1.75l-6.6,2.04ZM134.59,172.86l-4.23-15.21c-.04-.16-.08-.28-.1-.36-.03-.08-.05-.16-.05-.24,0-.16.06-.3.18-.42s.26-.18.42-.18h1.47c.38,0,.61.15.69.45l4.17,15.27-2.55.69Z"/>
        <path class="cls-4" d="M148.12,173.58c-.2,0-.37-.06-.49-.2-.13-.13-.2-.29-.2-.49v-1.02c0-.2.06-.36.2-.5.13-.13.29-.2.49-.2h8.61v-7.26c0-1.6-.4-2.84-1.2-3.73-.8-.89-2.09-1.34-3.87-1.34h-3.24c-.2,0-.37-.06-.5-.19-.13-.13-.2-.29-.2-.5v-1.02c0-.2.06-.37.2-.5.13-.13.29-.19.5-.19h3.39c1.72,0,3.15.28,4.29.84s2,1.39,2.56,2.48c.57,1.09.86,2.44.86,4.06v7.35h1.11c.2,0,.36.07.5.2.13.13.19.29.19.5v1.02c0,.2-.07.37-.19.49s-.3.2-.5.2h-12.51Z"/>
        <path class="cls-4" d="M171.91,166.62c-.2,0-.37-.07-.5-.19-.13-.13-.2-.29-.2-.5v-8.79c0-.2.06-.37.2-.5.13-.13.29-.19.5-.19h1.44c.2,0,.36.07.48.19.12.13.18.3.18.5v8.79c0,.2-.06.37-.18.5-.12.13-.28.19-.48.19h-1.44Z"/>
        <path class="cls-4" d="M182.23,157.38h.75c.3,0,.53.08.67.23.15.15.21.33.2.55-.16.84-.29,1.6-.41,2.28-.11.68-.18,1.36-.22,2.03s-.06,1.43-.06,2.27l.09,8.16c0,.2-.07.37-.2.49-.13.13-.29.2-.5.2l-4.26-.06c-.2,0-.37-.06-.5-.18-.13-.12-.2-.29-.2-.51v-.96c0-.2.06-.36.2-.5s.29-.2.5-.2l2.31.03v-6.36c0-.82,0-1.57.03-2.26.02-.69.08-1.38.18-2.08.1-.7.26-1.49.48-2.37.06-.22.15-.4.28-.54.13-.14.35-.21.65-.21ZM179.53,158.85c-.2,0-.37-.06-.5-.19s-.19-.29-.19-.5v-1.02c0-.2.06-.37.19-.5.13-.13.29-.19.5-.19h6.51c1.72,0,3.15.27,4.28.83,1.13.55,1.97,1.37,2.54,2.46.56,1.09.84,2.44.84,4.04v9.12c0,.2-.07.37-.2.49-.13.13-.29.2-.49.2h-1.35c-.22,0-.39-.06-.51-.2-.12-.13-.18-.29-.18-.49v-8.97c0-1.6-.4-2.84-1.2-3.73-.8-.89-2.09-1.34-3.87-1.34h-6.36Z"/>
        <path class="cls-4" d="M202.03,157.38h.75c.3,0,.53.08.68.23s.21.33.19.55c-.16.84-.29,1.6-.41,2.28-.11.68-.18,1.36-.22,2.03s-.06,1.43-.06,2.27l.09,8.16c0,.2-.07.37-.2.49-.13.13-.29.2-.5.2l-4.26-.06c-.2,0-.37-.06-.5-.18-.13-.12-.2-.29-.2-.51v-.96c0-.2.07-.36.2-.5.13-.13.29-.2.5-.2l2.31.03v-6.36c0-.82.01-1.57.03-2.26s.08-1.38.18-2.08c.1-.7.26-1.49.48-2.37.06-.22.15-.4.29-.54.13-.14.34-.21.64-.21ZM199.33,158.85c-.2,0-.37-.06-.5-.19-.13-.13-.2-.29-.2-.5v-1.02c0-.2.06-.37.2-.5.13-.13.29-.19.5-.19h6.51c1.72,0,3.14.27,4.27.83,1.13.55,1.98,1.37,2.54,2.46.56,1.09.84,2.44.84,4.04v9.12c0,.2-.06.37-.19.49-.13.13-.3.2-.5.2h-1.35c-.22,0-.39-.06-.51-.2-.12-.13-.18-.29-.18-.49v-8.97c0-1.6-.4-2.84-1.2-3.73-.8-.89-2.09-1.34-3.87-1.34h-6.36Z"/>
        <path class="cls-4" d="M221.14,158.91l-3.57-.03c-.2,0-.37-.06-.5-.18s-.19-.28-.19-.48v-5.25c0-.2.06-.37.19-.5.13-.13.29-.19.5-.19h1.26c.22,0,.39.07.51.19.12.13.18.3.18.5v3.48h1.68l-.06,2.46ZM221.08,173.85c-.18.06-.35.04-.51-.07-.16-.11-.24-.27-.24-.46v-1.38c0-.18.05-.34.16-.48.11-.14.28-.25.5-.33l1.17-.45c.78-.34,1.5-.75,2.15-1.23.65-.48,1.16-1.14,1.53-1.98.37-.84.55-1.94.55-3.3s-.16-2.33-.46-3.11c-.31-.77-.83-1.32-1.56-1.65-.73-.33-1.72-.5-2.98-.5h-.9c-.2,0-.37-.06-.5-.2-.13-.13-.2-.29-.2-.49v-1.08c0-.2.07-.37.2-.5.13-.13.29-.19.5-.19h1.32c1.82,0,3.27.26,4.35.78s1.85,1.36,2.33,2.5c.47,1.15.71,2.66.71,4.52,0,1.4-.19,2.61-.57,3.63s-.9,1.89-1.54,2.61c-.65.72-1.38,1.31-2.21,1.79-.82.47-1.67.85-2.55,1.15l-1.23.42Z"/>
        <path class="cls-4" d="M246.91,173.85c-.18.06-.34.04-.5-.07-.15-.11-.22-.27-.22-.46v-1.38c0-.18.05-.34.17-.48.11-.14.27-.25.5-.33l1.14-.45c.8-.34,1.53-.75,2.17-1.23.65-.48,1.16-1.14,1.53-1.98.37-.84.56-1.94.56-3.3s-.16-2.33-.48-3.11c-.32-.77-.84-1.32-1.58-1.65-.73-.33-1.71-.5-2.96-.5h-6.09c-.2,0-.37-.06-.5-.2-.13-.13-.19-.29-.19-.49v-1.08c0-.2.06-.37.19-.5.13-.13.29-.19.5-.19h6.48c1.84,0,3.29.26,4.36.78,1.07.52,1.84,1.36,2.31,2.5.47,1.15.71,2.66.71,4.52,0,1.4-.19,2.61-.57,3.63s-.9,1.89-1.54,2.61c-.65.72-1.38,1.31-2.19,1.79-.81.47-1.66.85-2.54,1.15l-1.26.42ZM241.15,179.31c-.2,0-.37-.07-.5-.2-.13-.13-.19-.29-.19-.5v-15.75c0-.2.06-.36.19-.5.13-.13.29-.2.5-.2h1.32c.22,0,.39.07.51.2.12.13.18.29.18.5v15.75c0,.2-.06.36-.18.5-.12.13-.29.2-.51.2h-1.32Z"/>
        <path class="cls-4" d="M259.93,173.58c-.2,0-.37-.06-.5-.2-.13-.13-.2-.29-.2-.49v-15.75c0-.2.07-.37.2-.5.13-.13.29-.19.5-.19h1.41c.22,0,.39.07.51.19.12.13.18.3.18.5v15.75c0,.2-.06.37-.18.49-.12.13-.29.2-.51.2h-1.41Z"/>
        <path class="cls-4" d="M276.34,173.58c-.2,0-.37-.06-.5-.2-.13-.13-.2-.29-.2-.49v-8.97c0-1.6-.4-2.84-1.2-3.73-.8-.89-2.09-1.34-3.87-1.34h-3.93c-.2,0-.37-.06-.5-.19s-.19-.29-.19-.5v-1.02c0-.2.06-.37.19-.5.13-.13.29-.19.5-.19h4.08c1.72,0,3.14.27,4.28.81,1.13.54,1.97,1.36,2.53,2.45.56,1.09.84,2.45.84,4.06v9.12c0,.2-.07.37-.2.49-.13.13-.29.2-.5.2h-1.35Z"/>
        <path class="cls-4" d="M283.3,166.62c-.2,0-.37-.07-.5-.19-.13-.13-.2-.29-.2-.5v-8.79c0-.2.06-.37.2-.5.13-.13.29-.19.5-.19h1.44c.2,0,.36.07.48.19.12.13.18.3.18.5v8.79c0,.2-.06.37-.18.5-.12.13-.28.19-.48.19h-1.44Z"/>
        <path class="cls-4" d="M292.27,158.91v2.34c.02.72.12,1.32.29,1.8.17.48.47.78.92.9l1.11.3c.16.04.28.15.38.31.09.17.13.38.13.62v.75c0,.22-.11.38-.33.48-.22.1-.46.13-.72.09l-1.17-.24c-.64-.16-1.19-.44-1.65-.85-.46-.41-.81-.97-1.04-1.68-.23-.71-.34-1.56-.34-2.56v-4.02c0-.2.06-.37.18-.5.12-.13.29-.19.51-.19h5.55c1.5,0,2.75.3,3.75.88,1,.59,1.76,1.44,2.28,2.55.52,1.11.8,2.45.84,4.01.02.3.03.67.03,1.12s-.01.82-.03,1.12c-.04,1.54-.32,2.87-.84,3.99-.52,1.12-1.28,1.98-2.28,2.57-1,.59-2.25.88-3.75.88h-5.19c-.2,0-.37-.06-.5-.2-.13-.13-.2-.29-.2-.49v-1.08c0-.2.07-.37.2-.5.13-.13.29-.19.5-.19h5.04c1.38,0,2.45-.44,3.2-1.33.75-.89,1.16-2.13,1.24-3.73.02-.3.03-.65.03-1.04s0-.74-.03-1.04c-.04-1.6-.45-2.85-1.21-3.74s-1.84-1.33-3.22-1.33h-3.66Z"/>
      </g>
      <rect class="cls-1" x="331.9" y="149.08" width="33.34" height="33.34" transform="translate(214.69 -196.26) rotate(44.27)"/>
      <g>
        <path class="cls-4" d="M142.13,249.41c-.2,0-.37-.06-.5-.2-.13-.13-.2-.29-.2-.49v-8.97c0-1.6-.4-2.84-1.2-3.73-.8-.89-2.09-1.34-3.87-1.34h-5.64c-.2,0-.36-.06-.5-.19-.13-.13-.19-.29-.19-.5v-1.02c0-.2.06-.37.19-.5.13-.13.29-.19.5-.19h5.79c2.6,0,4.53.63,5.78,1.89s1.88,3.09,1.88,5.49v9.06c0,.2-.07.37-.2.49-.13.13-.29.2-.5.2h-1.35ZM130.73,249.41c-.2,0-.36-.06-.5-.2-.13-.13-.19-.29-.19-.49v-10.02c0-.2.06-.36.19-.5.13-.13.29-.2.5-.2h1.38c.2,0,.36.07.48.2.12.13.18.29.18.5v10.02c0,.2-.06.37-.18.49-.12.13-.28.2-.48.2h-1.38Z"/>
        <path class="cls-4" d="M148.67,249.41c-.2,0-.37-.06-.5-.2-.13-.13-.2-.29-.2-.49v-1.05c0-.2.07-.36.2-.49.13-.13.29-.2.5-.2h8.13l-9.39-13.53c-.06-.12-.11-.23-.15-.32s-.06-.17-.06-.25c0-.16.06-.3.19-.42s.28-.18.44-.18h1.44c.22,0,.39.06.51.17.12.11.22.22.3.34l9.78,14.01c.1.14.19.28.26.43.07.15.1.32.1.5v.99c0,.2-.07.37-.2.49-.13.13-.29.2-.5.2h-10.86ZM156.26,242.57l-1.32-1.95c1.06-.38,1.82-1,2.28-1.88s.69-1.93.69-3.19v-2.58c0-.2.06-.37.19-.5.13-.13.29-.19.5-.19h1.26c.2,0,.36.07.48.19.12.13.18.3.18.5v2.94c0,1.62-.36,3-1.08,4.14-.72,1.14-1.78,1.98-3.18,2.52Z"/>
        <path class="cls-4" d="M171.05,249.68c-.18.06-.34.04-.5-.07-.15-.11-.22-.27-.22-.46v-1.38c0-.18.05-.34.17-.48.11-.14.27-.25.5-.33l1.14-.45c.8-.34,1.52-.75,2.17-1.23.65-.48,1.16-1.14,1.53-1.98.37-.84.55-1.94.55-3.3s-.16-2.33-.48-3.11c-.32-.77-.85-1.32-1.58-1.65-.73-.33-1.71-.5-2.96-.5h-6.09c-.2,0-.37-.06-.5-.2-.13-.13-.2-.29-.2-.49v-1.08c0-.2.06-.37.2-.5.13-.13.29-.19.5-.19h6.48c1.84,0,3.29.26,4.37.78s1.84,1.36,2.31,2.5c.47,1.15.71,2.66.71,4.52,0,1.4-.19,2.61-.57,3.63-.38,1.02-.9,1.89-1.54,2.61-.65.72-1.38,1.31-2.19,1.79-.81.47-1.66.85-2.54,1.15l-1.26.42ZM165.29,255.14c-.2,0-.37-.07-.5-.2s-.2-.29-.2-.5v-15.75c0-.2.06-.36.2-.5s.29-.2.5-.2h1.32c.22,0,.39.07.51.2.12.13.18.29.18.5v15.75c0,.2-.06.36-.18.5-.12.13-.29.2-.51.2h-1.32Z"/>
        <path class="cls-4" d="M191.21,242.45c-.2,0-.37-.07-.5-.19-.13-.13-.2-.29-.2-.5v-8.79c0-.2.07-.37.2-.5.13-.13.29-.19.5-.19h1.44c.2,0,.36.07.48.19.12.13.18.3.18.5v8.79c0,.2-.06.37-.18.5-.12.13-.28.19-.48.19h-1.44Z"/>
        <path class="cls-4" d="M207.44,249.41c-.2,0-.37-.06-.49-.2-.13-.13-.2-.29-.2-.49v-8.97c0-1.6-.4-2.84-1.2-3.73-.8-.89-2.09-1.34-3.87-1.34h-3.93c-.2,0-.37-.06-.5-.19s-.2-.29-.2-.5v-1.02c0-.2.07-.37.2-.5.13-.13.29-.19.5-.19h4.08c1.72,0,3.14.27,4.27.81,1.13.54,1.98,1.36,2.54,2.45s.84,2.45.84,4.06v9.12c0,.2-.06.37-.19.49-.13.13-.3.2-.5.2h-1.35Z"/>
        <path class="cls-4" d="M220.37,249.68c-.18.06-.34.04-.5-.07-.15-.11-.22-.27-.22-.46v-1.38c0-.18.05-.34.16-.48.11-.14.28-.25.5-.33l1.14-.45c.8-.34,1.52-.75,2.17-1.23.65-.48,1.16-1.14,1.53-1.98.37-.84.55-1.94.55-3.3s-.16-2.33-.48-3.11c-.32-.77-.84-1.32-1.57-1.65-.73-.33-1.72-.5-2.96-.5h-6.09c-.2,0-.36-.06-.49-.2-.13-.13-.2-.29-.2-.49v-1.08c0-.2.06-.37.2-.5.13-.13.29-.19.49-.19h6.48c1.84,0,3.29.26,4.37.78,1.07.52,1.84,1.36,2.31,2.5.47,1.15.71,2.66.71,4.52,0,1.4-.19,2.61-.57,3.63-.38,1.02-.9,1.89-1.55,2.61-.65.72-1.38,1.31-2.19,1.79-.81.47-1.66.85-2.54,1.15l-1.26.42ZM214.61,255.14c-.2,0-.36-.07-.49-.2s-.2-.29-.2-.5v-15.75c0-.2.06-.36.2-.5s.29-.2.49-.2h1.32c.22,0,.39.07.51.2.12.13.18.29.18.5v15.75c0,.2-.06.36-.18.5-.12.13-.29.2-.51.2h-1.32Z"/>
        <path class="cls-4" d="M232.61,249.41c-.18,0-.33-.07-.45-.21s-.17-.31-.15-.51l2.55-14.7c.04-.2.13-.36.27-.46.14-.11.31-.14.51-.11l1.2.06c.2.02.36.1.48.25.12.15.16.33.12.52l-2.4,14.43c-.02.2-.11.37-.26.51-.15.14-.33.21-.52.21h-1.35ZM240.21,234.74h-7.29c-.22,0-.39-.06-.51-.2-.12-.13-.18-.29-.18-.49v-1.08c0-.2.06-.37.18-.5.12-.13.29-.19.51-.19h7.62c1.24,0,2.34.29,3.31.87s1.73,1.42,2.28,2.5c.55,1.09.83,2.41.83,3.94v9.12c0,.2-.06.37-.18.49-.12.13-.29.2-.51.2h-7.74c-.2,0-.37-.06-.49-.2-.13-.13-.2-.29-.2-.49v-1.02c0-.2.06-.36.2-.5.13-.13.29-.2.49-.2h5.7v-7.23c0-1.02-.17-1.91-.52-2.67-.35-.76-.83-1.34-1.44-1.75s-1.29-.62-2.05-.62Z"/>
        <path class="cls-4" d="M259.22,242.45c-.2,0-.37-.07-.5-.19-.13-.13-.19-.29-.19-.5v-8.79c0-.2.06-.37.19-.5.13-.13.29-.19.5-.19h1.44c.2,0,.36.07.48.19.12.13.18.3.18.5v8.79c0,.2-.06.37-.18.5-.12.13-.28.19-.48.19h-1.44Z"/>
        <path class="cls-4" d="M266.46,249.41c-.2,0-.37-.06-.5-.2-.13-.13-.2-.29-.2-.49v-15.75c0-.2.06-.37.2-.5.13-.13.29-.19.5-.19h1.41c.22,0,.39.07.51.19.12.13.18.3.18.5v15.75c0,.2-.06.37-.18.49-.12.13-.29.2-.51.2h-1.41Z"/>
        <path class="cls-4" d="M285.26,249.41c-.2,0-.37-.06-.5-.2-.13-.13-.19-.29-.19-.49v-8.97c0-1.6-.4-2.84-1.2-3.73-.8-.89-2.09-1.34-3.87-1.34h-5.64c-.2,0-.36-.06-.49-.19-.13-.13-.2-.29-.2-.5v-1.02c0-.2.06-.37.2-.5.13-.13.29-.19.49-.19h5.79c2.6,0,4.52.63,5.77,1.89s1.88,3.09,1.88,5.49v9.06c0,.2-.07.37-.2.49-.13.13-.29.2-.5.2h-1.35ZM273.86,249.41c-.2,0-.36-.06-.49-.2-.13-.13-.2-.29-.2-.49v-10.02c0-.2.06-.36.2-.5s.29-.2.49-.2h1.38c.2,0,.36.07.48.2.12.13.18.29.18.5v10.02c0,.2-.06.37-.18.49-.12.13-.28.2-.48.2h-1.38Z"/>
        <path class="cls-4" d="M292.22,242.45c-.2,0-.37-.07-.5-.19-.13-.13-.19-.29-.19-.5v-8.79c0-.2.06-.37.19-.5.13-.13.29-.19.5-.19h1.44c.2,0,.36.07.48.19.12.13.18.3.18.5v8.79c0,.2-.06.37-.18.5-.12.13-.28.19-.48.19h-1.44Z"/>
        <path class="cls-4" d="M298.73,234.68c-.2,0-.37-.06-.5-.19s-.19-.29-.19-.5v-1.02c0-.2.06-.37.19-.5.13-.13.29-.19.5-.19h7.26c.22,0,.39.07.51.19.12.13.18.3.18.5v1.02c0,.2-.06.37-.18.5s-.29.19-.51.19h-7.26ZM301.25,249.41c-.44,0-.66-.22-.66-.66v-10.71c0-1.18.14-2.1.42-2.76.28-.66.62-.99,1.02-.99h2.97c-.5,0-.91.38-1.21,1.14-.31.76-.46,1.7-.46,2.82v10.5c0,.2-.07.36-.21.48-.14.12-.31.18-.51.18h-1.35Z"/>
      </g>
      <g>
        <g>
          <circle class="cls-2" cx="342.1" cy="246.23" r="10.15"/>
          <circle class="cls-2" cx="362.4" cy="246.23" r="10.15"/>
          <circle class="cls-2" cx="352.25" cy="228.47" r="10.15"/>
          <path class="cls-4" d="M351.8,243.58c3.86,0,3.87-6,0-6s-3.87,6,0,6h0Z"/>
        </g>
        <line class="cls-2" x1="344.01" y1="264.84" x2="360.5" y2="264.84"/>
      </g>
      <g>
        <g>
          <path class="cls-3" d="M24.03,385.6c0-2.44-.82-4.7-2.19-6.5l-16.39-.05-.11,7.89h8.44v-15.9c-1.81-1.37-4.06-2.19-6.5-2.19"/>
          <rect class="cls-2" x="5.92" y="378.92" width="7.72" height="8.37" transform="translate(-373.33 392.88) rotate(-90)"/>
          <g>
            <line class="cls-3" x1="17.96" y1="355.27" x2="37.22" y2="374.52"/>
            <polyline class="cls-3" points="58.92 378.84 45.75 365.67 36.93 374.5"/>
            <polyline class="cls-3" points="17.99 355.56 26.82 346.74 14.04 333.96"/>
          </g>
          <g>
            <line class="cls-3" x1="7.37" y1="355.95" x2="36.4" y2="384.99"/>
            <polyline class="cls-3" points="62.48 392.18 45.73 375.43 36.12 385.04"/>
            <polyline class="cls-3" points="7.3 356.22 16.91 346.6 .71 330.4"/>
          </g>
        </g>
        <g>
          <g>
            <path class="cls-3" d="M380.77,385.6c0-2.44.82-4.7,2.19-6.5l16.39-.05.11,7.89h-8.44s0-15.9,0-15.9c1.81-1.37,4.06-2.19,6.5-2.19"/>
            <rect class="cls-2" x="391.16" y="378.92" width="7.72" height="8.37" transform="translate(11.92 778.13) rotate(-90)"/>
            <g>
              <line class="cls-3" x1="386.84" y1="355.27" x2="367.58" y2="374.52"/>
              <polyline class="cls-3" points="345.88 378.84 359.05 365.67 367.87 374.5"/>
              <polyline class="cls-3" points="386.81 355.56 377.98 346.74 390.76 333.96"/>
            </g>
            <g>
              <line class="cls-3" x1="397.43" y1="355.95" x2="368.4" y2="384.99"/>
              <polyline class="cls-3" points="342.32 392.18 359.07 375.43 368.68 385.04"/>
              <polyline class="cls-3" points="397.5 356.22 387.89 346.6 404.09 330.4"/>
            </g>
          </g>
          <g>
            <g>
              <path class="cls-3" d="M380.77,7.28c0,2.44.82,4.7,2.19,6.5l16.39.05.11-7.89h-8.44v15.9c1.81,1.37,4.06,2.19,6.5,2.19"/>
              <rect class="cls-2" x="391.16" y="5.6" width="7.72" height="8.37" transform="translate(404.8 -385.24) rotate(90)"/>
              <g>
                <line class="cls-3" x1="386.84" y1="37.62" x2="367.58" y2="18.36"/>
                <polyline class="cls-3" points="345.88 14.04 359.05 27.21 367.87 18.39"/>
                <polyline class="cls-3" points="386.81 37.32 377.98 46.14 390.76 58.92"/>
              </g>
              <g>
                <line class="cls-3" x1="397.43" y1="36.93" x2="368.4" y2="7.89"/>
                <polyline class="cls-3" points="342.32 .71 359.07 17.46 368.68 7.84"/>
                <polyline class="cls-3" points="397.5 36.67 387.89 46.28 404.09 62.48"/>
              </g>
            </g>
            <g>
              <path class="cls-3" d="M1,1h402.8v390.88H1V1Z"/>
              <g>
                <path class="cls-3" d="M24.03,7.28c0,2.44-.82,4.7-2.19,6.5l-16.39.05-.11-7.89h8.44v15.9c-1.81,1.37-4.06,2.19-6.5,2.19"/>
                <rect class="cls-2" x="5.92" y="5.6" width="7.72" height="8.37" transform="translate(19.56 0) rotate(90)"/>
                <g>
                  <line class="cls-3" x1="17.96" y1="37.62" x2="37.22" y2="18.36"/>
                  <polyline class="cls-3" points="58.92 14.04 45.75 27.21 36.93 18.39"/>
                  <polyline class="cls-3" points="17.99 37.32 26.82 46.14 14.04 58.92"/>
                </g>
                <g>
                  <line class="cls-3" x1="7.37" y1="36.93" x2="36.4" y2="7.89"/>
                  <polyline class="cls-3" points="62.48 .71 45.73 17.46 36.12 7.84"/>
                  <polyline class="cls-3" points="7.3 36.67 16.91 46.28 .71 62.48"/>
                </g>
              </g>
            </g>
          </g>
        </g>
      </g>
    </g>
  </g>
</svg>