<?xml version="1.0" encoding="UTF-8"?>
<svg id="Layer_2" data-name="Layer 2" xmlns="http://www.w3.org/2000/svg" viewBox="0 0 342.63 218.75">
  <defs>
    <style>
      .cls-1 {
        stroke-width: 0px;
      }

      .cls-1, .cls-2 {
        fill: #a01f24;
      }

      .cls-2 {
        font-family: Rubik-SemiBold, Rubik;
        font-size: 24.24px;
        font-weight: 600;
      }
    </style>
  </defs>
  <g id="Layer_1-2" data-name="Layer 1">
    <g>
      <path class="cls-1" d="M190.41,186.94c.39.06.67.24.83.52.04.04.09.09.15.15.06.06.11.13.15.22l2.09,5.04,2.15-5.04c.08-.08.14-.15.18-.22.04-.06.08-.11.12-.15.2-.29.49-.46.86-.52.37-.06.72-.01,1.04.15l3.99,3.01c.33.2.51.49.55.86.04.37-.04.7-.25.98,0,.04-.12.16-.37.37l-4.11,3.5,5.4.49c.16.04.28.07.34.09.06.02.11.03.15.03.33.08.57.3.74.64.16.35.2.71.12,1.07l-1.54,4.73c-.08.33-.3.57-.64.74-.35.16-.69.2-1.01.12-.08,0-.25-.06-.49-.18l-4.73-2.82,1.29,5.28c.04.12.06.22.06.31v.18c0,.33-.13.63-.4.92-.27.29-.58.43-.95.43h-4.97c-.37,0-.69-.14-.95-.43-.27-.29-.4-.59-.4-.92v-.18c0-.08.02-.18.06-.31l1.17-5.28-4.61,2.82c-.25.12-.41.18-.49.18-.29.08-.61.04-.98-.12-.37-.16-.59-.41-.68-.74l-1.54-4.73c-.08-.37-.03-.73.15-1.07.18-.35.42-.56.71-.64.04,0,.09-.01.15-.03.06-.02.17-.05.34-.09l5.41-.43-4.12-3.56c-.25-.21-.37-.33-.37-.37-.16-.29-.23-.61-.18-.98.04-.37.2-.66.49-.86l3.99-3.01c.33-.16.69-.21,1.07-.15Z"/>
      <path class="cls-1" d="M217.74,186.94c.39.06.67.24.83.52.04.04.09.09.15.15.06.06.11.13.15.22l2.09,5.04,2.15-5.04c.08-.08.14-.15.18-.22.04-.06.08-.11.12-.15.2-.29.49-.46.86-.52.37-.06.72-.01,1.04.15l3.99,3.01c.33.2.51.49.55.86.04.37-.04.7-.25.98,0,.04-.12.16-.37.37l-4.12,3.5,5.4.49c.16.04.28.07.34.09.06.02.11.03.15.03.33.08.57.3.74.64.16.35.21.71.12,1.07l-1.54,4.73c-.08.33-.3.57-.64.74-.35.16-.69.2-1.01.12-.08,0-.25-.06-.49-.18l-4.73-2.82,1.29,5.28c.04.12.06.22.06.31v.18c0,.33-.13.63-.4.92-.27.29-.58.43-.95.43h-4.97c-.37,0-.69-.14-.95-.43-.27-.29-.4-.59-.4-.92v-.18c0-.08.02-.18.06-.31l1.17-5.28-4.61,2.82c-.25.12-.41.18-.49.18-.29.08-.61.04-.98-.12-.37-.16-.59-.41-.68-.74l-1.54-4.73c-.08-.37-.03-.73.15-1.07.18-.35.42-.56.71-.64.04,0,.09-.01.15-.03.06-.02.17-.05.34-.09l5.4-.43-4.12-3.56c-.25-.21-.37-.33-.37-.37-.16-.29-.23-.61-.19-.98.04-.37.21-.66.49-.86l3.99-3.01c.33-.16.69-.21,1.07-.15Z"/>
      <path class="cls-1" d="M245.07,186.94c.39.06.67.24.83.52.04.04.09.09.15.15.06.06.11.13.15.22l2.09,5.04,2.15-5.04c.08-.08.14-.15.18-.22.04-.06.08-.11.12-.15.2-.29.49-.46.86-.52.37-.06.72-.01,1.04.15l3.99,3.01c.33.2.51.49.55.86.04.37-.04.7-.25.98,0,.04-.12.16-.37.37l-4.12,3.5,5.4.49c.16.04.28.07.34.09.06.02.11.03.15.03.33.08.57.3.74.64.16.35.21.71.12,1.07l-1.54,4.73c-.08.33-.3.57-.64.74-.35.16-.69.2-1.01.12-.08,0-.25-.06-.49-.18l-4.73-2.82,1.29,5.28c.04.12.06.22.06.31v.18c0,.33-.13.63-.4.92-.27.29-.58.43-.95.43h-4.97c-.37,0-.69-.14-.95-.43-.27-.29-.4-.59-.4-.92v-.18c0-.08.02-.18.06-.31l1.17-5.28-4.61,2.82c-.25.12-.41.18-.49.18-.29.08-.61.04-.98-.12-.37-.16-.59-.41-.68-.74l-1.54-4.73c-.08-.37-.03-.73.15-1.07.18-.35.42-.56.71-.64.04,0,.09-.01.15-.03.06-.02.17-.05.34-.09l5.4-.43-4.12-3.56c-.25-.21-.37-.33-.37-.37-.16-.29-.23-.61-.19-.98.04-.37.21-.66.49-.86l3.99-3.01c.33-.16.69-.21,1.07-.15Z"/>
      <path class="cls-1" d="M272.4,186.94c.39.06.66.24.83.52.04.04.09.09.15.15.06.06.11.13.15.22l2.09,5.04,2.15-5.04c.08-.08.14-.15.18-.22.04-.06.08-.11.12-.15.2-.29.49-.46.86-.52.37-.06.71-.01,1.04.15l3.99,3.01c.33.2.51.49.55.86.04.37-.04.7-.25.98,0,.04-.12.16-.37.37l-4.12,3.5,5.4.49c.16.04.28.07.34.09.06.02.11.03.15.03.33.08.57.3.74.64.16.35.2.71.12,1.07l-1.54,4.73c-.08.33-.3.57-.65.74-.35.16-.69.2-1.01.12-.08,0-.25-.06-.49-.18l-4.73-2.82,1.29,5.28c.04.12.06.22.06.31v.18c0,.33-.13.63-.4.92-.27.29-.58.43-.95.43h-4.97c-.37,0-.69-.14-.95-.43-.27-.29-.4-.59-.4-.92v-.18c0-.08.02-.18.06-.31l1.17-5.28-4.61,2.82c-.25.12-.41.18-.49.18-.29.08-.61.04-.98-.12-.37-.16-.59-.41-.68-.74l-1.54-4.73c-.08-.37-.03-.73.15-1.07.18-.35.42-.56.71-.64.04,0,.09-.01.15-.03.06-.02.17-.05.34-.09l5.4-.43-4.12-3.56c-.25-.21-.37-.33-.37-.37-.16-.29-.23-.61-.18-.98.04-.37.21-.66.49-.86l3.99-3.01c.33-.16.69-.21,1.08-.15Z"/>
      <path class="cls-1" d="M299.73,186.94c.39.06.67.24.83.52.04.04.09.09.15.15.06.06.11.13.15.22l2.09,5.04,2.15-5.04c.08-.08.14-.15.18-.22.04-.06.08-.11.12-.15.21-.29.49-.46.86-.52.37-.06.72-.01,1.04.15l3.99,3.01c.33.2.51.49.55.86.04.37-.04.7-.25.98,0,.04-.12.16-.37.37l-4.11,3.5,5.4.49c.16.04.28.07.34.09.06.02.11.03.15.03.33.08.57.3.74.64.16.35.2.71.12,1.07l-1.54,4.73c-.08.33-.3.57-.65.74-.35.16-.69.2-1.01.12-.08,0-.25-.06-.49-.18l-4.73-2.82,1.29,5.28c.04.12.06.22.06.31v.18c0,.33-.13.63-.4.92-.27.29-.58.43-.95.43h-4.97c-.37,0-.69-.14-.95-.43-.27-.29-.4-.59-.4-.92v-.18c0-.08.02-.18.06-.31l1.17-5.28-4.61,2.82c-.25.12-.41.18-.49.18-.29.08-.61.04-.98-.12-.37-.16-.59-.41-.68-.74l-1.54-4.73c-.08-.37-.03-.73.15-1.07.19-.35.42-.56.71-.64.04,0,.09-.01.15-.03.06-.02.17-.05.34-.09l5.41-.43-4.12-3.56c-.25-.21-.37-.33-.37-.37-.16-.29-.22-.61-.18-.98.04-.37.2-.66.49-.86l3.99-3.01c.33-.16.69-.21,1.08-.15Z"/>
      <path class="cls-1" d="M204.08,150.58c.39.06.66.24.83.52.04.04.09.09.15.15.06.06.11.13.15.22l2.09,5.04,2.15-5.04c.08-.08.14-.15.18-.22.04-.06.08-.11.12-.15.2-.29.49-.46.86-.52.37-.06.71-.01,1.04.15l3.99,3.01c.33.2.51.49.55.86.04.37-.04.7-.25.98,0,.04-.12.16-.37.37l-4.12,3.5,5.4.49c.16.04.28.07.34.09.06.02.11.03.15.03.33.08.57.3.74.64.16.35.2.71.12,1.07l-1.54,4.73c-.08.33-.3.57-.65.74-.35.16-.69.2-1.01.12-.08,0-.25-.06-.49-.18l-4.73-2.82,1.29,5.28c.04.12.06.22.06.31v.18c0,.33-.13.63-.4.92-.27.29-.58.43-.95.43h-4.97c-.37,0-.69-.14-.95-.43-.27-.29-.4-.59-.4-.92v-.18c0-.08.02-.18.06-.31l1.17-5.28-4.61,2.82c-.25.12-.41.18-.49.18-.29.08-.61.04-.98-.12-.37-.16-.59-.41-.68-.74l-1.54-4.73c-.08-.37-.03-.73.15-1.07.18-.35.42-.56.71-.64.04,0,.09-.01.15-.03.06-.02.17-.05.34-.09l5.4-.43-4.12-3.56c-.25-.21-.37-.33-.37-.37-.16-.29-.23-.61-.18-.98.04-.37.21-.66.49-.86l3.99-3.01c.33-.16.69-.21,1.08-.15Z"/>
      <path class="cls-1" d="M231.41,150.58c.39.06.67.24.83.52.04.04.09.09.15.15.06.06.11.13.15.22l2.09,5.04,2.15-5.04c.08-.08.14-.15.18-.22.04-.06.08-.11.12-.15.21-.29.49-.46.86-.52.37-.06.72-.01,1.04.15l3.99,3.01c.33.2.51.49.55.86.04.37-.04.7-.25.98,0,.04-.12.16-.37.37l-4.11,3.5,5.4.49c.16.04.28.07.34.09.06.02.11.03.15.03.33.08.57.3.74.64.16.35.2.71.12,1.07l-1.54,4.73c-.08.33-.3.57-.65.74-.35.16-.69.2-1.01.12-.08,0-.25-.06-.49-.18l-4.73-2.82,1.29,5.28c.04.12.06.22.06.31v.18c0,.33-.13.63-.4.92-.27.29-.58.43-.95.43h-4.97c-.37,0-.69-.14-.95-.43-.27-.29-.4-.59-.4-.92v-.18c0-.08.02-.18.06-.31l1.17-5.28-4.61,2.82c-.25.12-.41.18-.49.18-.29.08-.61.04-.98-.12-.37-.16-.59-.41-.68-.74l-1.54-4.73c-.08-.37-.03-.73.15-1.07.19-.35.42-.56.71-.64.04,0,.09-.01.15-.03.06-.02.17-.05.34-.09l5.41-.43-4.12-3.56c-.25-.21-.37-.33-.37-.37-.16-.29-.22-.61-.18-.98.04-.37.2-.66.49-.86l3.99-3.01c.33-.16.69-.21,1.08-.15Z"/>
      <path class="cls-1" d="M258.74,150.58c.39.06.67.24.83.52.04.04.09.09.15.15.06.06.11.13.15.22l2.09,5.04,2.15-5.04c.08-.08.14-.15.18-.22.04-.06.08-.11.12-.15.21-.29.49-.46.86-.52.37-.06.72-.01,1.04.15l3.99,3.01c.33.2.51.49.55.86.04.37-.04.7-.25.98,0,.04-.12.16-.37.37l-4.11,3.5,5.4.49c.16.04.28.07.34.09.06.02.11.03.15.03.33.08.57.3.74.64.16.35.2.71.12,1.07l-1.54,4.73c-.08.33-.3.57-.65.74-.35.16-.69.2-1.01.12-.08,0-.25-.06-.49-.18l-4.73-2.82,1.29,5.28c.04.12.06.22.06.31v.18c0,.33-.13.63-.4.92-.27.29-.58.43-.95.43h-4.97c-.37,0-.69-.14-.95-.43-.27-.29-.4-.59-.4-.92v-.18c0-.08.02-.18.06-.31l1.17-5.28-4.61,2.82c-.25.12-.41.18-.49.18-.29.08-.61.04-.98-.12-.37-.16-.59-.41-.68-.74l-1.54-4.73c-.08-.37-.03-.73.15-1.07.19-.35.42-.56.71-.64.04,0,.09-.01.15-.03.06-.02.17-.05.34-.09l5.41-.43-4.12-3.56c-.25-.21-.37-.33-.37-.37-.16-.29-.22-.61-.18-.98.04-.37.2-.66.49-.86l3.99-3.01c.33-.16.69-.21,1.08-.15Z"/>
      <path class="cls-1" d="M286.06,150.58c.39.06.67.24.83.52.04.04.09.09.15.15.06.06.11.13.15.22l2.09,5.04,2.15-5.04c.08-.08.14-.15.18-.22.04-.06.08-.11.12-.15.2-.29.49-.46.86-.52.37-.06.72-.01,1.04.15l3.99,3.01c.33.2.51.49.55.86.04.37-.04.7-.25.98,0,.04-.12.16-.37.37l-4.11,3.5,5.4.49c.16.04.28.07.34.09.06.02.11.03.15.03.33.08.57.3.74.64.16.35.2.71.12,1.07l-1.54,4.73c-.08.33-.3.57-.64.74-.35.16-.69.2-1.01.12-.08,0-.25-.06-.49-.18l-4.73-2.82,1.29,5.28c.04.12.06.22.06.31v.18c0,.33-.13.63-.4.92-.27.29-.58.43-.95.43h-4.97c-.37,0-.69-.14-.95-.43-.27-.29-.4-.59-.4-.92v-.18c0-.08.02-.18.06-.31l1.17-5.28-4.61,2.82c-.25.12-.41.18-.49.18-.29.08-.61.04-.98-.12-.37-.16-.59-.41-.68-.74l-1.54-4.73c-.08-.37-.03-.73.15-1.07.18-.35.42-.56.71-.64.04,0,.09-.01.15-.03.06-.02.17-.05.34-.09l5.41-.43-4.12-3.56c-.25-.21-.37-.33-.37-.37-.16-.29-.23-.61-.18-.98.04-.37.2-.66.49-.86l3.99-3.01c.33-.16.69-.21,1.07-.15Z"/>
      <path class="cls-1" d="M217.74,114.21c.39.06.67.24.83.52.04.04.09.09.15.15.06.06.11.13.15.22l2.09,5.04,2.15-5.04c.08-.08.14-.15.18-.22.04-.06.08-.11.12-.15.2-.29.49-.46.86-.52.37-.06.72-.01,1.04.15l3.99,3.01c.33.2.51.49.55.86.04.37-.04.7-.25.98,0,.04-.12.16-.37.37l-4.11,3.5,5.4.49c.16.04.28.07.34.09.06.02.11.03.15.03.33.08.57.3.74.64.16.35.2.71.12,1.07l-1.54,4.73c-.08.33-.3.57-.64.74-.35.16-.69.2-1.01.12-.08,0-.25-.06-.49-.18l-4.73-2.82,1.29,5.28c.04.12.06.22.06.31v.18c0,.33-.13.63-.4.92-.27.29-.58.43-.95.43h-4.97c-.37,0-.69-.14-.95-.43-.27-.29-.4-.59-.4-.92v-.18c0-.08.02-.18.06-.31l1.17-5.28-4.61,2.82c-.25.12-.41.18-.49.18-.29.08-.61.04-.98-.12-.37-.16-.59-.41-.68-.74l-1.54-4.73c-.08-.37-.03-.73.15-1.07.18-.35.42-.56.71-.64.04,0,.09-.01.15-.03.06-.02.17-.05.34-.09l5.41-.43-4.12-3.56c-.25-.21-.37-.33-.37-.37-.16-.29-.23-.61-.18-.98.04-.37.2-.66.49-.86l3.99-3.01c.33-.16.69-.21,1.07-.15Z"/>
      <path class="cls-1" d="M245.07,114.21c.39.06.67.24.83.52.04.04.09.09.15.15.06.06.11.13.15.22l2.09,5.04,2.15-5.04c.08-.08.14-.15.18-.22.04-.06.08-.11.12-.15.2-.29.49-.46.86-.52.37-.06.72-.01,1.04.15l3.99,3.01c.33.2.51.49.55.86.04.37-.04.7-.25.98,0,.04-.12.16-.37.37l-4.12,3.5,5.4.49c.16.04.28.07.34.09.06.02.11.03.15.03.33.08.57.3.74.64.16.35.21.71.12,1.07l-1.54,4.73c-.08.33-.3.57-.64.74-.35.16-.69.2-1.01.12-.08,0-.25-.06-.49-.18l-4.73-2.82,1.29,5.28c.04.12.06.22.06.31v.18c0,.33-.13.63-.4.92-.27.29-.58.43-.95.43h-4.97c-.37,0-.69-.14-.95-.43-.27-.29-.4-.59-.4-.92v-.18c0-.08.02-.18.06-.31l1.17-5.28-4.61,2.82c-.25.12-.41.18-.49.18-.29.08-.61.04-.98-.12-.37-.16-.59-.41-.68-.74l-1.54-4.73c-.08-.37-.03-.73.15-1.07.18-.35.42-.56.71-.64.04,0,.09-.01.15-.03.06-.02.17-.05.34-.09l5.4-.43-4.12-3.56c-.25-.21-.37-.33-.37-.37-.16-.29-.23-.61-.19-.98.04-.37.21-.66.49-.86l3.99-3.01c.33-.16.69-.21,1.07-.15Z"/>
      <path class="cls-1" d="M272.4,114.21c.39.06.67.24.83.52.04.04.09.09.15.15.06.06.11.13.15.22l2.09,5.04,2.15-5.04c.08-.08.14-.15.18-.22.04-.06.08-.11.12-.15.2-.29.49-.46.86-.52.37-.06.72-.01,1.04.15l3.99,3.01c.33.2.51.49.55.86.04.37-.04.7-.25.98,0,.04-.12.16-.37.37l-4.12,3.5,5.4.49c.16.04.28.07.34.09.06.02.11.03.15.03.33.08.57.3.74.64.16.35.21.71.12,1.07l-1.54,4.73c-.08.33-.3.57-.64.74-.35.16-.69.2-1.01.12-.08,0-.25-.06-.49-.18l-4.73-2.82,1.29,5.28c.04.12.06.22.06.31v.18c0,.33-.13.63-.4.92-.27.29-.58.43-.95.43h-4.97c-.37,0-.69-.14-.95-.43-.27-.29-.4-.59-.4-.92v-.18c0-.08.02-.18.06-.31l1.17-5.28-4.61,2.82c-.25.12-.41.18-.49.18-.29.08-.61.04-.98-.12-.37-.16-.59-.41-.68-.74l-1.54-4.73c-.08-.37-.03-.73.15-1.07.18-.35.42-.56.71-.64.04,0,.09-.01.15-.03.06-.02.17-.05.34-.09l5.4-.43-4.12-3.56c-.25-.21-.37-.33-.37-.37-.16-.29-.23-.61-.19-.98.04-.37.21-.66.49-.86l3.99-3.01c.33-.16.69-.21,1.07-.15Z"/>
      <path class="cls-1" d="M231.41,77.85c.39.06.67.24.83.52.04.04.09.09.15.15.06.06.11.13.15.22l2.09,5.04,2.15-5.04c.08-.08.14-.15.18-.22.04-.06.08-.11.12-.15.21-.29.49-.46.86-.52.37-.06.72-.01,1.04.15l3.99,3.01c.33.2.51.49.55.86.04.37-.04.7-.25.98,0,.04-.12.16-.37.37l-4.11,3.5,5.4.49c.16.04.28.07.34.09.06.02.11.03.15.03.33.08.57.3.74.64.16.35.2.71.12,1.07l-1.54,4.73c-.08.33-.3.57-.65.74-.35.16-.69.2-1.01.12-.08,0-.25-.06-.49-.18l-4.73-2.82,1.29,5.28c.04.12.06.22.06.31v.18c0,.33-.13.63-.4.92-.27.29-.58.43-.95.43h-4.97c-.37,0-.69-.14-.95-.43-.27-.29-.4-.59-.4-.92v-.18c0-.08.02-.18.06-.31l1.17-5.28-4.61,2.82c-.25.12-.41.18-.49.18-.29.08-.61.04-.98-.12-.37-.16-.59-.41-.68-.74l-1.54-4.73c-.08-.37-.03-.73.15-1.07.19-.35.42-.56.71-.64.04,0,.09-.01.15-.03.06-.02.17-.05.34-.09l5.41-.43-4.12-3.56c-.25-.21-.37-.33-.37-.37-.16-.29-.22-.61-.18-.98.04-.37.2-.66.49-.86l3.99-3.01c.33-.16.69-.21,1.08-.15Z"/>
      <path class="cls-1" d="M258.73,77.85c.39.06.67.24.83.52.04.04.09.09.15.15.06.06.11.13.15.22l2.09,5.04,2.15-5.04c.08-.08.14-.15.18-.22.04-.06.08-.11.12-.15.2-.29.49-.46.86-.52.37-.06.72-.01,1.04.15l3.99,3.01c.33.2.51.49.55.86.04.37-.04.7-.25.98,0,.04-.12.16-.37.37l-4.11,3.5,5.4.49c.16.04.28.07.34.09.06.02.11.03.15.03.33.08.57.3.74.64.16.35.2.71.12,1.07l-1.54,4.73c-.08.33-.3.57-.64.74-.35.16-.69.2-1.01.12-.08,0-.25-.06-.49-.18l-4.73-2.82,1.29,5.28c.04.12.06.22.06.31v.18c0,.33-.13.63-.4.92-.27.29-.58.43-.95.43h-4.97c-.37,0-.69-.14-.95-.43-.27-.29-.4-.59-.4-.92v-.18c0-.08.02-.18.06-.31l1.17-5.28-4.61,2.82c-.25.12-.41.18-.49.18-.29.08-.61.04-.98-.12-.37-.16-.59-.41-.68-.74l-1.54-4.73c-.08-.37-.03-.73.15-1.07.18-.35.42-.56.71-.64.04,0,.09-.01.15-.03.06-.02.17-.05.34-.09l5.41-.43-4.12-3.56c-.25-.21-.37-.33-.37-.37-.16-.29-.23-.61-.18-.98.04-.37.2-.66.49-.86l3.99-3.01c.33-.16.69-.21,1.07-.15Z"/>
      <path class="cls-1" d="M245.07,41.49c.39.06.67.24.83.52.04.04.09.09.15.15.06.06.11.13.15.22l2.09,5.04,2.15-5.04c.08-.08.14-.15.18-.22.04-.06.08-.11.12-.15.2-.29.49-.46.86-.52.37-.06.72-.01,1.04.15l3.99,3.01c.33.2.51.49.55.86.04.37-.04.7-.25.98,0,.04-.12.16-.37.37l-4.12,3.5,5.4.49c.16.04.28.07.34.09.06.02.11.03.15.03.33.08.57.3.74.64.16.35.21.71.12,1.07l-1.54,4.73c-.08.33-.3.57-.64.74-.35.16-.69.2-1.01.12-.08,0-.25-.06-.49-.18l-4.73-2.82,1.29,5.28c.04.12.06.22.06.31v.18c0,.33-.13.63-.4.92-.27.29-.58.43-.95.43h-4.97c-.37,0-.69-.14-.95-.43-.27-.29-.4-.59-.4-.92v-.18c0-.08.02-.18.06-.31l1.17-5.28-4.61,2.82c-.25.12-.41.18-.49.18-.29.08-.61.04-.98-.12-.37-.16-.59-.41-.68-.74l-1.54-4.73c-.08-.37-.03-.73.15-1.07.18-.35.42-.56.71-.64.04,0,.09-.01.15-.03.06-.02.17-.05.34-.09l5.4-.43-4.12-3.56c-.25-.21-.37-.33-.37-.37-.16-.29-.23-.61-.19-.98.04-.37.21-.66.49-.86l3.99-3.01c.33-.16.69-.21,1.07-.15Z"/>
    </g>
    <text class="cls-2" transform="translate(74.04 64.18)"><tspan x="0" y="0">1</tspan><tspan x="-1.88" y="36.36">2</tspan><tspan x="-2" y="72.73">3</tspan><tspan x="-2.28" y="109.09">4</tspan><tspan x="-1.85" y="145.46">5</tspan></text>
  </g>
</svg>